<svg xmlns="http://www.w3.org/2000/svg" xmlns:xlink="http://www.w3.org/1999/xlink" version="1.1" class="marks" width="960" height="447" viewBox="0 0 960 447"><rect width="960" height="447" fill="#efefef"/><g fill="none" stroke-miterlimit="10" transform="translate(41,10)"><g class="mark-group role-frame root" role="graphics-object" aria-roledescription="group mark container"><g transform="translate(0,0)"><path class="background" aria-hidden="true" d="M0.5,0.5h800v400h-800Z" stroke="#ddd"/><g><g class="mark-group role-axis" role="graphics-symbol" aria-roledescription="axis" aria-label="X-axis for a linear scale with values from 0 to 30"><g transform="translate(0.5,400.5)"><path class="background" aria-hidden="true" d="M0,0h0v0h0Z" pointer-events="none"/><g><g class="mark-rule role-axis-grid" pointer-events="none"><line transform="translate(0,-400)" x2="0" y2="400" stroke="#ffffff" stroke-width="1" opacity="1"/><line transform="translate(53,-400)" x2="0" y2="400" stroke="#ffffff" stroke-width="1" opacity="1"/><line transform="translate(107,-400)" x2="0" y2="400" stroke="#ffffff" stroke-width="1" opacity="1"/><line transform="translate(160,-400)" x2="0" y2="400" stroke="#ffffff" stroke-width="1" opacity="1"/><line transform="translate(213,-400)" x2="0" y2="400" stroke="#ffffff" stroke-width="1" opacity="1"/><line transform="translate(267,-400)" x2="0" y2="400" stroke="#ffffff" stroke-width="1" opacity="1"/><line transform="translate(320,-400)" x2="0" y2="400" stroke="#ffffff" stroke-width="1" opacity="1"/><line transform="translate(373,-400)" x2="0" y2="400" stroke="#ffffff" stroke-width="1" opacity="1"/><line transform="translate(427,-400)" x2="0" y2="400" stroke="#ffffff" stroke-width="1" opacity="1"/><line transform="translate(480,-400)" x2="0" y2="400" stroke="#ffffff" stroke-width="1" opacity="1"/><line transform="translate(533,-400)" x2="0" y2="400" stroke="#ffffff" stroke-width="1" opacity="1"/><line transform="translate(587,-400)" x2="0" y2="400" stroke="#ffffff" stroke-width="1" opacity="1"/><line transform="translate(640,-400)" x2="0" y2="400" stroke="#ffffff" stroke-width="1" opacity="1"/><line transform="translate(693,-400)" x2="0" y2="400" stroke="#ffffff" stroke-width="1" opacity="1"/><line transform="translate(747,-400)" x2="0" y2="400" stroke="#ffffff" stroke-width="1" opacity="1"/><line transform="translate(800,-400)" x2="0" y2="400" stroke="#ffffff" stroke-width="1" opacity="1"/></g></g><path class="foreground" aria-hidden="true" d="" pointer-events="none" display="none"/></g></g><g class="mark-group role-axis" role="graphics-symbol" aria-roledescription="axis" aria-label="Y-axis for a linear scale with values from 0.0 to 1.0"><g transform="translate(0.5,0.5)"><path class="background" aria-hidden="true" d="M0,0h0v0h0Z" pointer-events="none"/><g><g class="mark-rule role-axis-grid" pointer-events="none"><line transform="translate(0,400)" x2="800" y2="0" stroke="#ffffff" stroke-width="1" opacity="1"/><line transform="translate(0,360)" x2="800" y2="0" stroke="#ffffff" stroke-width="1" opacity="1"/><line transform="translate(0,320)" x2="800" y2="0" stroke="#ffffff" stroke-width="1" opacity="1"/><line transform="translate(0,280)" x2="800" y2="0" stroke="#ffffff" stroke-width="1" opacity="1"/><line transform="translate(0,240)" x2="800" y2="0" stroke="#ffffff" stroke-width="1" opacity="1"/><line transform="translate(0,200)" x2="800" y2="0" stroke="#ffffff" stroke-width="1" opacity="1"/><line transform="translate(0,160)" x2="800" y2="0" stroke="#ffffff" stroke-width="1" opacity="1"/><line transform="translate(0,120)" x2="800" y2="0" stroke="#ffffff" stroke-width="1" opacity="1"/><line transform="translate(0,80)" x2="800" y2="0" stroke="#ffffff" stroke-width="1" opacity="1"/><line transform="translate(0,40)" x2="800" y2="0" stroke="#ffffff" stroke-width="1" opacity="1"/><line transform="translate(0,0)" x2="800" y2="0" stroke="#ffffff" stroke-width="1" opacity="1"/></g></g><path class="foreground" aria-hidden="true" d="" pointer-events="none" display="none"/></g></g><g class="mark-group role-axis" role="graphics-symbol" aria-roledescription="axis" aria-label="X-axis titled 'Number of Components' for a linear scale with values from 0 to 30"><g transform="translate(0.5,400.5)"><path class="background" aria-hidden="true" d="M0,0h0v0h0Z" pointer-events="none"/><g><g class="mark-rule role-axis-tick" pointer-events="none"><line transform="translate(0,0)" x2="0" y2="5" stroke-width="1" opacity="1"/><line transform="translate(53,0)" x2="0" y2="5" stroke-width="1" opacity="1"/><line transform="translate(107,0)" x2="0" y2="5" stroke-width="1" opacity="1"/><line transform="translate(160,0)" x2="0" y2="5" stroke-width="1" opacity="1"/><line transform="translate(213,0)" x2="0" y2="5" stroke-width="1" opacity="1"/><line transform="translate(267,0)" x2="0" y2="5" stroke-width="1" opacity="1"/><line transform="translate(320,0)" x2="0" y2="5" stroke-width="1" opacity="1"/><line transform="translate(373,0)" x2="0" y2="5" stroke-width="1" opacity="1"/><line transform="translate(427,0)" x2="0" y2="5" stroke-width="1" opacity="1"/><line transform="translate(480,0)" x2="0" y2="5" stroke-width="1" opacity="1"/><line transform="translate(533,0)" x2="0" y2="5" stroke-width="1" opacity="1"/><line transform="translate(587,0)" x2="0" y2="5" stroke-width="1" opacity="1"/><line transform="translate(640,0)" x2="0" y2="5" stroke-width="1" opacity="1"/><line transform="translate(693,0)" x2="0" y2="5" stroke-width="1" opacity="1"/><line transform="translate(747,0)" x2="0" y2="5" stroke-width="1" opacity="1"/><line transform="translate(800,0)" x2="0" y2="5" stroke-width="1" opacity="1"/></g><g class="mark-text role-axis-label" pointer-events="none"><text text-anchor="start" transform="translate(0,15)" font-family="sans-serif" font-size="10px" fill="#444444" opacity="1">0</text><text text-anchor="middle" transform="translate(53.333333333333336,15)" font-family="sans-serif" font-size="10px" fill="#444444" opacity="1">2</text><text text-anchor="middle" transform="translate(106.66666666666667,15)" font-family="sans-serif" font-size="10px" fill="#444444" opacity="1">4</text><text text-anchor="middle" transform="translate(160,15)" font-family="sans-serif" font-size="10px" fill="#444444" opacity="1">6</text><text text-anchor="middle" transform="translate(213.33333333333334,15)" font-family="sans-serif" font-size="10px" fill="#444444" opacity="1">8</text><text text-anchor="middle" transform="translate(266.66666666666663,15)" font-family="sans-serif" font-size="10px" fill="#444444" opacity="1">10</text><text text-anchor="middle" transform="translate(320,15)" font-family="sans-serif" font-size="10px" fill="#444444" opacity="1">12</text><text text-anchor="middle" transform="translate(373.3333333333333,15)" font-family="sans-serif" font-size="10px" fill="#444444" opacity="1">14</text><text text-anchor="middle" transform="translate(426.6666666666667,15)" font-family="sans-serif" font-size="10px" fill="#444444" opacity="1">16</text><text text-anchor="middle" transform="translate(480,15)" font-family="sans-serif" font-size="10px" fill="#444444" opacity="1">18</text><text text-anchor="middle" transform="translate(533.3333333333333,15)" font-family="sans-serif" font-size="10px" fill="#444444" opacity="1">20</text><text text-anchor="middle" transform="translate(586.6666666666666,15)" font-family="sans-serif" font-size="10px" fill="#444444" opacity="1">22</text><text text-anchor="middle" transform="translate(640,15)" font-family="sans-serif" font-size="10px" fill="#444444" opacity="1">24</text><text text-anchor="middle" transform="translate(693.3333333333334,15)" font-family="sans-serif" font-size="10px" fill="#444444" opacity="1">26</text><text text-anchor="middle" transform="translate(746.6666666666666,15)" font-family="sans-serif" font-size="10px" fill="#444444" opacity="1">28</text><text text-anchor="end" transform="translate(800,15)" font-family="sans-serif" font-size="10px" fill="#444444" opacity="1">30</text></g><g class="mark-rule role-axis-domain" pointer-events="none"><line transform="translate(0,0)" x2="800" y2="0" stroke-width="1" opacity="1"/></g><g class="mark-text role-axis-title" pointer-events="none"><text text-anchor="middle" transform="translate(400,30)" font-family="sans-serif" font-size="11px" font-weight="bold" fill="#444444" opacity="1">Number of Components</text></g></g><path class="foreground" aria-hidden="true" d="" pointer-events="none" display="none"/></g></g><g class="mark-group role-axis" role="graphics-symbol" aria-roledescription="axis" aria-label="Y-axis titled 'Time in seconds' for a linear scale with values from 0.0 to 1.0"><g transform="translate(0.5,0.5)"><path class="background" aria-hidden="true" d="M0,0h0v0h0Z" pointer-events="none"/><g><g class="mark-rule role-axis-tick" pointer-events="none"><line transform="translate(0,400)" x2="-5" y2="0" stroke-width="1" opacity="1"/><line transform="translate(0,360)" x2="-5" y2="0" stroke-width="1" opacity="1"/><line transform="translate(0,320)" x2="-5" y2="0" stroke-width="1" opacity="1"/><line transform="translate(0,280)" x2="-5" y2="0" stroke-width="1" opacity="1"/><line transform="translate(0,240)" x2="-5" y2="0" stroke-width="1" opacity="1"/><line transform="translate(0,200)" x2="-5" y2="0" stroke-width="1" opacity="1"/><line transform="translate(0,160)" x2="-5" y2="0" stroke-width="1" opacity="1"/><line transform="translate(0,120)" x2="-5" y2="0" stroke-width="1" opacity="1"/><line transform="translate(0,80)" x2="-5" y2="0" stroke-width="1" opacity="1"/><line transform="translate(0,40)" x2="-5" y2="0" stroke-width="1" opacity="1"/><line transform="translate(0,0)" x2="-5" y2="0" stroke-width="1" opacity="1"/></g><g class="mark-text role-axis-label" pointer-events="none"><text text-anchor="end" transform="translate(-7,403)" font-family="sans-serif" font-size="10px" fill="#444444" opacity="1">0.0</text><text text-anchor="end" transform="translate(-7,363)" font-family="sans-serif" font-size="10px" fill="#444444" opacity="1">0.1</text><text text-anchor="end" transform="translate(-7,323)" font-family="sans-serif" font-size="10px" fill="#444444" opacity="1">0.2</text><text text-anchor="end" transform="translate(-7,283)" font-family="sans-serif" font-size="10px" fill="#444444" opacity="1">0.3</text><text text-anchor="end" transform="translate(-7,243)" font-family="sans-serif" font-size="10px" fill="#444444" opacity="1">0.4</text><text text-anchor="end" transform="translate(-7,203)" font-family="sans-serif" font-size="10px" fill="#444444" opacity="1">0.5</text><text text-anchor="end" transform="translate(-7,163)" font-family="sans-serif" font-size="10px" fill="#444444" opacity="1">0.6</text><text text-anchor="end" transform="translate(-7,123.00000000000001)" font-family="sans-serif" font-size="10px" fill="#444444" opacity="1">0.7</text><text text-anchor="end" transform="translate(-7,82.99999999999999)" font-family="sans-serif" font-size="10px" fill="#444444" opacity="1">0.8</text><text text-anchor="end" transform="translate(-7,42.99999999999999)" font-family="sans-serif" font-size="10px" fill="#444444" opacity="1">0.9</text><text text-anchor="end" transform="translate(-7,3)" font-family="sans-serif" font-size="10px" fill="#444444" opacity="1">1.0</text></g><g class="mark-rule role-axis-domain" pointer-events="none"><line transform="translate(0,400)" x2="0" y2="-400" stroke-width="1" opacity="1"/></g><g class="mark-text role-axis-title" pointer-events="none"><text text-anchor="middle" transform="translate(-24.9013671875,200) rotate(-90) translate(0,-2)" font-family="sans-serif" font-size="11px" font-weight="bold" fill="#444444" opacity="1">Time in seconds</text></g></g><path class="foreground" aria-hidden="true" d="" pointer-events="none" display="none"/></g></g><g class="mark-group role-scope layer_0_layer_0_pathgroup" role="graphics-object" aria-roledescription="group mark container"><g transform="translate(0,0)"><path class="background" aria-hidden="true" d="M0,0h800v400h-800Z"/><g><g class="mark-area role-mark layer_0_layer_0_marks" role="graphics-symbol" aria-roledescription="area mark container"><path d="M26.666666666666668,309.64L53.333333333333336,271.23999999999995L80,183.72000000000003L106.66666666666667,122.12L133.33333333333331,94.83999999999999L160,62.76000000000002L186.66666666666666,57.359999999999985L213.33333333333334,47.92000000000001L240,42.24000000000001L266.66666666666663,36.83999999999998L293.3333333333333,33.72000000000001L320,32.880000000000024L346.6666666666667,29.439999999999998L373.3333333333333,28.6L400,27.32000000000001L426.6666666666667,26.319999999999986L453.3333333333333,26.399999999999977L480,25.51999999999999L506.66666666666663,24.880000000000013L533.3333333333333,25.119999999999987L560,24.840000000000018L586.6666666666666,23.95999999999998L613.3333333333334,23.87999999999999L640,24.120000000000008L666.6666666666667,23.360000000000003L693.3333333333334,23.47999999999999L720,22.67999999999999L746.6666666666666,22.520000000000007L773.3333333333334,21.839999999999993L800,22.239999999999995L800,400L773.3333333333334,400L746.6666666666666,400L720,400L693.3333333333334,400L666.6666666666667,400L640,400L613.3333333333334,400L586.6666666666666,400L560,400L533.3333333333333,400L506.66666666666663,400L480,400L453.3333333333333,400L426.6666666666667,400L400,400L373.3333333333333,400L346.6666666666667,400L320,400L293.3333333333333,400L266.66666666666663,400L240,400L213.33333333333334,400L186.66666666666666,400L160,400L133.33333333333331,400L106.66666666666667,400L80,400L53.333333333333336,400L26.666666666666668,400Z" fill="#00FFFF" fill-opacity="0.4" opacity="0.7"/></g></g><path class="foreground" aria-hidden="true" d="" display="none"/></g><g transform="translate(0,0)"><path class="background" aria-hidden="true" d="M0,0h800v400h-800Z"/><g><g class="mark-area role-mark layer_0_layer_0_marks" role="graphics-symbol" aria-roledescription="area mark container"><path d="M26.666666666666668,291.84000000000003L53.333333333333336,271.08L80,227.8L106.66666666666667,175L133.33333333333331,149.52L160,120.56L186.66666666666666,115.11999999999998L213.33333333333334,99.52000000000001L240,89.27999999999999L266.66666666666663,82.56000000000002L293.3333333333333,79.88L320,75.76L346.6666666666667,69.28L373.3333333333333,67.56000000000002L400,65.24000000000001L426.6666666666667,63.92000000000002L453.3333333333333,60.959999999999994L480,60.519999999999996L506.66666666666663,56.55999999999999L533.3333333333333,54.879999999999995L560,55.48000000000002L586.6666666666666,55.67999999999999L613.3333333333334,53.359999999999985L640,52.59999999999998L666.6666666666667,50.44L693.3333333333334,49.40000000000002L720,48.720000000000006L746.6666666666666,48.32000000000001L773.3333333333334,46.43999999999999L800,46.95999999999998L800,400L773.3333333333334,400L746.6666666666666,400L720,400L693.3333333333334,400L666.6666666666667,400L640,400L613.3333333333334,400L586.6666666666666,400L560,400L533.3333333333333,400L506.66666666666663,400L480,400L453.3333333333333,400L426.6666666666667,400L400,400L373.3333333333333,400L346.6666666666667,400L320,400L293.3333333333333,400L266.66666666666663,400L240,400L213.33333333333334,400L186.66666666666666,400L160,400L133.33333333333331,400L106.66666666666667,400L80,400L53.333333333333336,400L26.666666666666668,400Z" fill="#ffff00" fill-opacity="0.4" opacity="0.7"/></g></g><path class="foreground" aria-hidden="true" d="" display="none"/></g><g transform="translate(0,0)"><path class="background" aria-hidden="true" d="M0,0h800v400h-800Z"/><g><g class="mark-area role-mark layer_0_layer_0_marks" role="graphics-symbol" aria-roledescription="area mark container"><path d="M26.666666666666668,296.56L53.333333333333336,275.2L80,194.84L106.66666666666667,131.12L133.33333333333331,101.32L160,65.32L186.66666666666666,59.60000000000001L213.33333333333334,47.35999999999998L240,42.119999999999976L266.66666666666663,33.68000000000002L293.3333333333333,31.36000000000001L320,29.11999999999999L346.6666666666667,25.47999999999999L373.3333333333333,24.35999999999998L400,23.55999999999998L426.6666666666667,23.760000000000005L453.3333333333333,22.840000000000018L480,22.75999999999998L506.66666666666663,21.47999999999999L533.3333333333333,21.47999999999999L560,21.28000000000001L586.6666666666666,20.040000000000013L613.3333333333334,20.000000000000018L640,20.16L666.6666666666667,19.519999999999982L693.3333333333334,18.31999999999998L720,18.279999999999987L746.6666666666666,17.960000000000022L773.3333333333334,18.199999999999996L800,18.040000000000013L800,400L773.3333333333334,400L746.6666666666666,400L720,400L693.3333333333334,400L666.6666666666667,400L640,400L613.3333333333334,400L586.6666666666666,400L560,400L533.3333333333333,400L506.66666666666663,400L480,400L453.3333333333333,400L426.6666666666667,400L400,400L373.3333333333333,400L346.6666666666667,400L320,400L293.3333333333333,400L266.66666666666663,400L240,400L213.33333333333334,400L186.66666666666666,400L160,400L133.33333333333331,400L106.66666666666667,400L80,400L53.333333333333336,400L26.666666666666668,400Z" fill="#FF0000" fill-opacity="0.4" opacity="0.7"/></g></g><path class="foreground" aria-hidden="true" d="" display="none"/></g><g transform="translate(0,0)"><path class="background" aria-hidden="true" d="M0,0h800v400h-800Z"/><g><g class="mark-area role-mark layer_0_layer_0_marks" role="graphics-symbol" aria-roledescription="area mark container"><path d="M26.666666666666668,283.6L53.333333333333336,268.03999999999996L80,200.07999999999998L106.66666666666667,152.92L133.33333333333331,127.84L160,107.32L186.66666666666666,105.32L213.33333333333334,95.63999999999999L240,88.92000000000002L266.66666666666663,85.16L293.3333333333333,85.44L320,83.63999999999999L346.6666666666667,79.44L373.3333333333333,76.96000000000001L400,76.35999999999999L426.6666666666667,73.11999999999999L453.3333333333333,73.11999999999999L480,73.95999999999998L506.66666666666663,71.20000000000002L533.3333333333333,71.91999999999999L560,72.2L586.6666666666666,73.47999999999999L613.3333333333334,73.8L640,74.12L666.6666666666667,74.75999999999998L693.3333333333334,73.68L720,75.32000000000001L746.6666666666666,75.72000000000001L773.3333333333334,77.64000000000001L800,78.56L800,400L773.3333333333334,400L746.6666666666666,400L720,400L693.3333333333334,400L666.6666666666667,400L640,400L613.3333333333334,400L586.6666666666666,400L560,400L533.3333333333333,400L506.66666666666663,400L480,400L453.3333333333333,400L426.6666666666667,400L400,400L373.3333333333333,400L346.6666666666667,400L320,400L293.3333333333333,400L266.66666666666663,400L240,400L213.33333333333334,400L186.66666666666666,400L160,400L133.33333333333331,400L106.66666666666667,400L80,400L53.333333333333336,400L26.666666666666668,400Z" fill="#5f249f" fill-opacity="0.4" opacity="0.7"/></g></g><path class="foreground" aria-hidden="true" d="" display="none"/></g><g transform="translate(0,0)"><path class="background" aria-hidden="true" d="M0,0h800v400h-800Z"/><g><g class="mark-area role-mark layer_0_layer_0_marks" role="graphics-symbol" aria-roledescription="area mark container"><path d="M26.666666666666668,309.64L53.333333333333336,287.15999999999997L80,217.19999999999996L106.66666666666667,157.48000000000002L133.33333333333331,129.36L160,95.75999999999998L186.66666666666666,91.67999999999998L213.33333333333334,79.72000000000001L240,76.32L266.66666666666663,71.44L293.3333333333333,70.19999999999999L320,67.96000000000002L346.6666666666667,64.27999999999999L373.3333333333333,63.28L400,62.88L426.6666666666667,63.039999999999985L453.3333333333333,61.83999999999998L480,61.479999999999976L506.66666666666663,62.27999999999998L533.3333333333333,60.15999999999999L560,60.400000000000006L586.6666666666666,60.59999999999999L613.3333333333334,61.39999999999999L640,57.920000000000016L666.6666666666667,62.23999999999998L693.3333333333334,60.00000000000001L720,61.16000000000001L746.6666666666666,59.399999999999984L773.3333333333334,61.79999999999999L800,60.919999999999995L800,400L773.3333333333334,400L746.6666666666666,400L720,400L693.3333333333334,400L666.6666666666667,400L640,400L613.3333333333334,400L586.6666666666666,400L560,400L533.3333333333333,400L506.66666666666663,400L480,400L453.3333333333333,400L426.6666666666667,400L400,400L373.3333333333333,400L346.6666666666667,400L320,400L293.3333333333333,400L266.66666666666663,400L240,400L213.33333333333334,400L186.66666666666666,400L160,400L133.33333333333331,400L106.66666666666667,400L80,400L53.333333333333336,400L26.666666666666668,400Z" fill="#228C22" fill-opacity="0.4" opacity="0.7"/></g></g><path class="foreground" aria-hidden="true" d="" display="none"/></g></g><g class="mark-group role-scope layer_0_layer_1_pathgroup" role="graphics-object" aria-roledescription="group mark container"><g transform="translate(0,0)"><path class="background" aria-hidden="true" d="M0,0h800v400h-800Z"/><g><g class="mark-line role-mark layer_0_layer_1_marks" role="graphics-symbol" aria-roledescription="line mark container"><path d="M26.666666666666668,309.64L53.333333333333336,271.23999999999995L80,183.72000000000003L106.66666666666667,122.12L133.33333333333331,94.83999999999999L160,62.76000000000002L186.66666666666666,57.359999999999985L213.33333333333334,47.92000000000001L240,42.24000000000001L266.66666666666663,36.83999999999998L293.3333333333333,33.72000000000001L320,32.880000000000024L346.6666666666667,29.439999999999998L373.3333333333333,28.6L400,27.32000000000001L426.6666666666667,26.319999999999986L453.3333333333333,26.399999999999977L480,25.51999999999999L506.66666666666663,24.880000000000013L533.3333333333333,25.119999999999987L560,24.840000000000018L586.6666666666666,23.95999999999998L613.3333333333334,23.87999999999999L640,24.120000000000008L666.6666666666667,23.360000000000003L693.3333333333334,23.47999999999999L720,22.67999999999999L746.6666666666666,22.520000000000007L773.3333333333334,21.839999999999993L800,22.239999999999995" stroke="#00FFFF" stroke-width="2"/></g></g><path class="foreground" aria-hidden="true" d="" display="none"/></g><g transform="translate(0,0)"><path class="background" aria-hidden="true" d="M0,0h800v400h-800Z"/><g><g class="mark-line role-mark layer_0_layer_1_marks" role="graphics-symbol" aria-roledescription="line mark container"><path d="M26.666666666666668,291.84000000000003L53.333333333333336,271.08L80,227.8L106.66666666666667,175L133.33333333333331,149.52L160,120.56L186.66666666666666,115.11999999999998L213.33333333333334,99.52000000000001L240,89.27999999999999L266.66666666666663,82.56000000000002L293.3333333333333,79.88L320,75.76L346.6666666666667,69.28L373.3333333333333,67.56000000000002L400,65.24000000000001L426.6666666666667,63.92000000000002L453.3333333333333,60.959999999999994L480,60.519999999999996L506.66666666666663,56.55999999999999L533.3333333333333,54.879999999999995L560,55.48000000000002L586.6666666666666,55.67999999999999L613.3333333333334,53.359999999999985L640,52.59999999999998L666.6666666666667,50.44L693.3333333333334,49.40000000000002L720,48.720000000000006L746.6666666666666,48.32000000000001L773.3333333333334,46.43999999999999L800,46.95999999999998" stroke="#ffff00" stroke-width="2"/></g></g><path class="foreground" aria-hidden="true" d="" display="none"/></g><g transform="translate(0,0)"><path class="background" aria-hidden="true" d="M0,0h800v400h-800Z"/><g><g class="mark-line role-mark layer_0_layer_1_marks" role="graphics-symbol" aria-roledescription="line mark container"><path d="M26.666666666666668,296.56L53.333333333333336,275.2L80,194.84L106.66666666666667,131.12L133.33333333333331,101.32L160,65.32L186.66666666666666,59.60000000000001L213.33333333333334,47.35999999999998L240,42.119999999999976L266.66666666666663,33.68000000000002L293.3333333333333,31.36000000000001L320,29.11999999999999L346.6666666666667,25.47999999999999L373.3333333333333,24.35999999999998L400,23.55999999999998L426.6666666666667,23.760000000000005L453.3333333333333,22.840000000000018L480,22.75999999999998L506.66666666666663,21.47999999999999L533.3333333333333,21.47999999999999L560,21.28000000000001L586.6666666666666,20.040000000000013L613.3333333333334,20.000000000000018L640,20.16L666.6666666666667,19.519999999999982L693.3333333333334,18.31999999999998L720,18.279999999999987L746.6666666666666,17.960000000000022L773.3333333333334,18.199999999999996L800,18.040000000000013" stroke="#FF0000" stroke-width="2"/></g></g><path class="foreground" aria-hidden="true" d="" display="none"/></g><g transform="translate(0,0)"><path class="background" aria-hidden="true" d="M0,0h800v400h-800Z"/><g><g class="mark-line role-mark layer_0_layer_1_marks" role="graphics-symbol" aria-roledescription="line mark container"><path d="M26.666666666666668,283.6L53.333333333333336,268.03999999999996L80,200.07999999999998L106.66666666666667,152.92L133.33333333333331,127.84L160,107.32L186.66666666666666,105.32L213.33333333333334,95.63999999999999L240,88.92000000000002L266.66666666666663,85.16L293.3333333333333,85.44L320,83.63999999999999L346.6666666666667,79.44L373.3333333333333,76.96000000000001L400,76.35999999999999L426.6666666666667,73.11999999999999L453.3333333333333,73.11999999999999L480,73.95999999999998L506.66666666666663,71.20000000000002L533.3333333333333,71.91999999999999L560,72.2L586.6666666666666,73.47999999999999L613.3333333333334,73.8L640,74.12L666.6666666666667,74.75999999999998L693.3333333333334,73.68L720,75.32000000000001L746.6666666666666,75.72000000000001L773.3333333333334,77.64000000000001L800,78.56" stroke="#5f249f" stroke-width="2"/></g></g><path class="foreground" aria-hidden="true" d="" display="none"/></g><g transform="translate(0,0)"><path class="background" aria-hidden="true" d="M0,0h800v400h-800Z"/><g><g class="mark-line role-mark layer_0_layer_1_marks" role="graphics-symbol" aria-roledescription="line mark container"><path d="M26.666666666666668,309.64L53.333333333333336,287.15999999999997L80,217.19999999999996L106.66666666666667,157.48000000000002L133.33333333333331,129.36L160,95.75999999999998L186.66666666666666,91.67999999999998L213.33333333333334,79.72000000000001L240,76.32L266.66666666666663,71.44L293.3333333333333,70.19999999999999L320,67.96000000000002L346.6666666666667,64.27999999999999L373.3333333333333,63.28L400,62.88L426.6666666666667,63.039999999999985L453.3333333333333,61.83999999999998L480,61.479999999999976L506.66666666666663,62.27999999999998L533.3333333333333,60.15999999999999L560,60.400000000000006L586.6666666666666,60.59999999999999L613.3333333333334,61.39999999999999L640,57.920000000000016L666.6666666666667,62.23999999999998L693.3333333333334,60.00000000000001L720,61.16000000000001L746.6666666666666,59.399999999999984L773.3333333333334,61.79999999999999L800,60.919999999999995" stroke="#228C22" stroke-width="2"/></g></g><path class="foreground" aria-hidden="true" d="" display="none"/></g></g><g class="mark-group role-scope layer_1_layer_0_pathgroup" role="graphics-object" aria-roledescription="group mark container"><g transform="translate(0,0)"><path class="background" aria-hidden="true" d="M0,0h800v400h-800Z"/><g><g class="mark-line role-mark layer_1_layer_0_marks" role="graphics-symbol" aria-roledescription="line mark container"><path d="M26.666666666666668,309.64L53.333333333333336,271.23999999999995L80,183.72000000000003L106.66666666666667,122.12L133.33333333333331,94.83999999999999L160,62.76000000000002L186.66666666666666,57.359999999999985L213.33333333333334,47.92000000000001L240,42.24000000000001L266.66666666666663,36.83999999999998L293.3333333333333,33.72000000000001L320,32.880000000000024L346.6666666666667,29.439999999999998L373.3333333333333,28.6L400,27.32000000000001L426.6666666666667,26.319999999999986L453.3333333333333,26.399999999999977L480,25.51999999999999L506.66666666666663,24.880000000000013L533.3333333333333,25.119999999999987L560,24.840000000000018L586.6666666666666,23.95999999999998L613.3333333333334,23.87999999999999L640,24.120000000000008L666.6666666666667,23.360000000000003L693.3333333333334,23.47999999999999L720,22.67999999999999L746.6666666666666,22.520000000000007L773.3333333333334,21.839999999999993L800,22.239999999999995" stroke="#00FFFF" stroke-width="3.05" opacity="0.05"/></g></g><path class="foreground" aria-hidden="true" d="" display="none"/></g><g transform="translate(0,0)"><path class="background" aria-hidden="true" d="M0,0h800v400h-800Z"/><g><g class="mark-line role-mark layer_1_layer_0_marks" role="graphics-symbol" aria-roledescription="line mark container"><path d="M26.666666666666668,291.84000000000003L53.333333333333336,271.08L80,227.8L106.66666666666667,175L133.33333333333331,149.52L160,120.56L186.66666666666666,115.11999999999998L213.33333333333334,99.52000000000001L240,89.27999999999999L266.66666666666663,82.56000000000002L293.3333333333333,79.88L320,75.76L346.6666666666667,69.28L373.3333333333333,67.56000000000002L400,65.24000000000001L426.6666666666667,63.92000000000002L453.3333333333333,60.959999999999994L480,60.519999999999996L506.66666666666663,56.55999999999999L533.3333333333333,54.879999999999995L560,55.48000000000002L586.6666666666666,55.67999999999999L613.3333333333334,53.359999999999985L640,52.59999999999998L666.6666666666667,50.44L693.3333333333334,49.40000000000002L720,48.720000000000006L746.6666666666666,48.32000000000001L773.3333333333334,46.43999999999999L800,46.95999999999998" stroke="#ffff00" stroke-width="3.05" opacity="0.05"/></g></g><path class="foreground" aria-hidden="true" d="" display="none"/></g><g transform="translate(0,0)"><path class="background" aria-hidden="true" d="M0,0h800v400h-800Z"/><g><g class="mark-line role-mark layer_1_layer_0_marks" role="graphics-symbol" aria-roledescription="line mark container"><path d="M26.666666666666668,296.56L53.333333333333336,275.2L80,194.84L106.66666666666667,131.12L133.33333333333331,101.32L160,65.32L186.66666666666666,59.60000000000001L213.33333333333334,47.35999999999998L240,42.119999999999976L266.66666666666663,33.68000000000002L293.3333333333333,31.36000000000001L320,29.11999999999999L346.6666666666667,25.47999999999999L373.3333333333333,24.35999999999998L400,23.55999999999998L426.6666666666667,23.760000000000005L453.3333333333333,22.840000000000018L480,22.75999999999998L506.66666666666663,21.47999999999999L533.3333333333333,21.47999999999999L560,21.28000000000001L586.6666666666666,20.040000000000013L613.3333333333334,20.000000000000018L640,20.16L666.6666666666667,19.519999999999982L693.3333333333334,18.31999999999998L720,18.279999999999987L746.6666666666666,17.960000000000022L773.3333333333334,18.199999999999996L800,18.040000000000013" stroke="#FF0000" stroke-width="3.05" opacity="0.05"/></g></g><path class="foreground" aria-hidden="true" d="" display="none"/></g><g transform="translate(0,0)"><path class="background" aria-hidden="true" d="M0,0h800v400h-800Z"/><g><g class="mark-line role-mark layer_1_layer_0_marks" role="graphics-symbol" aria-roledescription="line mark container"><path d="M26.666666666666668,283.6L53.333333333333336,268.03999999999996L80,200.07999999999998L106.66666666666667,152.92L133.33333333333331,127.84L160,107.32L186.66666666666666,105.32L213.33333333333334,95.63999999999999L240,88.92000000000002L266.66666666666663,85.16L293.3333333333333,85.44L320,83.63999999999999L346.6666666666667,79.44L373.3333333333333,76.96000000000001L400,76.35999999999999L426.6666666666667,73.11999999999999L453.3333333333333,73.11999999999999L480,73.95999999999998L506.66666666666663,71.20000000000002L533.3333333333333,71.91999999999999L560,72.2L586.6666666666666,73.47999999999999L613.3333333333334,73.8L640,74.12L666.6666666666667,74.75999999999998L693.3333333333334,73.68L720,75.32000000000001L746.6666666666666,75.72000000000001L773.3333333333334,77.64000000000001L800,78.56" stroke="#5f249f" stroke-width="3.05" opacity="0.05"/></g></g><path class="foreground" aria-hidden="true" d="" display="none"/></g><g transform="translate(0,0)"><path class="background" aria-hidden="true" d="M0,0h800v400h-800Z"/><g><g class="mark-line role-mark layer_1_layer_0_marks" role="graphics-symbol" aria-roledescription="line mark container"><path d="M26.666666666666668,309.64L53.333333333333336,287.15999999999997L80,217.19999999999996L106.66666666666667,157.48000000000002L133.33333333333331,129.36L160,95.75999999999998L186.66666666666666,91.67999999999998L213.33333333333334,79.72000000000001L240,76.32L266.66666666666663,71.44L293.3333333333333,70.19999999999999L320,67.96000000000002L346.6666666666667,64.27999999999999L373.3333333333333,63.28L400,62.88L426.6666666666667,63.039999999999985L453.3333333333333,61.83999999999998L480,61.479999999999976L506.66666666666663,62.27999999999998L533.3333333333333,60.15999999999999L560,60.400000000000006L586.6666666666666,60.59999999999999L613.3333333333334,61.39999999999999L640,57.920000000000016L666.6666666666667,62.23999999999998L693.3333333333334,60.00000000000001L720,61.16000000000001L746.6666666666666,59.399999999999984L773.3333333333334,61.79999999999999L800,60.919999999999995" stroke="#228C22" stroke-width="3.05" opacity="0.05"/></g></g><path class="foreground" aria-hidden="true" d="" display="none"/></g></g><g class="mark-group role-scope layer_1_layer_1_pathgroup" role="graphics-object" aria-roledescription="group mark container"><g transform="translate(0,0)"><path class="background" aria-hidden="true" d="M0,0h800v400h-800Z"/><g><g class="mark-line role-mark layer_1_layer_1_marks" role="graphics-symbol" aria-roledescription="line mark container"><path d="M26.666666666666668,309.64L53.333333333333336,271.23999999999995L80,183.72000000000003L106.66666666666667,122.12L133.33333333333331,94.83999999999999L160,62.76000000000002L186.66666666666666,57.359999999999985L213.33333333333334,47.92000000000001L240,42.24000000000001L266.66666666666663,36.83999999999998L293.3333333333333,33.72000000000001L320,32.880000000000024L346.6666666666667,29.439999999999998L373.3333333333333,28.6L400,27.32000000000001L426.6666666666667,26.319999999999986L453.3333333333333,26.399999999999977L480,25.51999999999999L506.66666666666663,24.880000000000013L533.3333333333333,25.119999999999987L560,24.840000000000018L586.6666666666666,23.95999999999998L613.3333333333334,23.87999999999999L640,24.120000000000008L666.6666666666667,23.360000000000003L693.3333333333334,23.47999999999999L720,22.67999999999999L746.6666666666666,22.520000000000007L773.3333333333334,21.839999999999993L800,22.239999999999995" stroke="#00FFFF" stroke-width="4.1" opacity="0.05"/></g></g><path class="foreground" aria-hidden="true" d="" display="none"/></g><g transform="translate(0,0)"><path class="background" aria-hidden="true" d="M0,0h800v400h-800Z"/><g><g class="mark-line role-mark layer_1_layer_1_marks" role="graphics-symbol" aria-roledescription="line mark container"><path d="M26.666666666666668,291.84000000000003L53.333333333333336,271.08L80,227.8L106.66666666666667,175L133.33333333333331,149.52L160,120.56L186.66666666666666,115.11999999999998L213.33333333333334,99.52000000000001L240,89.27999999999999L266.66666666666663,82.56000000000002L293.3333333333333,79.88L320,75.76L346.6666666666667,69.28L373.3333333333333,67.56000000000002L400,65.24000000000001L426.6666666666667,63.92000000000002L453.3333333333333,60.959999999999994L480,60.519999999999996L506.66666666666663,56.55999999999999L533.3333333333333,54.879999999999995L560,55.48000000000002L586.6666666666666,55.67999999999999L613.3333333333334,53.359999999999985L640,52.59999999999998L666.6666666666667,50.44L693.3333333333334,49.40000000000002L720,48.720000000000006L746.6666666666666,48.32000000000001L773.3333333333334,46.43999999999999L800,46.95999999999998" stroke="#ffff00" stroke-width="4.1" opacity="0.05"/></g></g><path class="foreground" aria-hidden="true" d="" display="none"/></g><g transform="translate(0,0)"><path class="background" aria-hidden="true" d="M0,0h800v400h-800Z"/><g><g class="mark-line role-mark layer_1_layer_1_marks" role="graphics-symbol" aria-roledescription="line mark container"><path d="M26.666666666666668,296.56L53.333333333333336,275.2L80,194.84L106.66666666666667,131.12L133.33333333333331,101.32L160,65.32L186.66666666666666,59.60000000000001L213.33333333333334,47.35999999999998L240,42.119999999999976L266.66666666666663,33.68000000000002L293.3333333333333,31.36000000000001L320,29.11999999999999L346.6666666666667,25.47999999999999L373.3333333333333,24.35999999999998L400,23.55999999999998L426.6666666666667,23.760000000000005L453.3333333333333,22.840000000000018L480,22.75999999999998L506.66666666666663,21.47999999999999L533.3333333333333,21.47999999999999L560,21.28000000000001L586.6666666666666,20.040000000000013L613.3333333333334,20.000000000000018L640,20.16L666.6666666666667,19.519999999999982L693.3333333333334,18.31999999999998L720,18.279999999999987L746.6666666666666,17.960000000000022L773.3333333333334,18.199999999999996L800,18.040000000000013" stroke="#FF0000" stroke-width="4.1" opacity="0.05"/></g></g><path class="foreground" aria-hidden="true" d="" display="none"/></g><g transform="translate(0,0)"><path class="background" aria-hidden="true" d="M0,0h800v400h-800Z"/><g><g class="mark-line role-mark layer_1_layer_1_marks" role="graphics-symbol" aria-roledescription="line mark container"><path d="M26.666666666666668,283.6L53.333333333333336,268.03999999999996L80,200.07999999999998L106.66666666666667,152.92L133.33333333333331,127.84L160,107.32L186.66666666666666,105.32L213.33333333333334,95.63999999999999L240,88.92000000000002L266.66666666666663,85.16L293.3333333333333,85.44L320,83.63999999999999L346.6666666666667,79.44L373.3333333333333,76.96000000000001L400,76.35999999999999L426.6666666666667,73.11999999999999L453.3333333333333,73.11999999999999L480,73.95999999999998L506.66666666666663,71.20000000000002L533.3333333333333,71.91999999999999L560,72.2L586.6666666666666,73.47999999999999L613.3333333333334,73.8L640,74.12L666.6666666666667,74.75999999999998L693.3333333333334,73.68L720,75.32000000000001L746.6666666666666,75.72000000000001L773.3333333333334,77.64000000000001L800,78.56" stroke="#5f249f" stroke-width="4.1" opacity="0.05"/></g></g><path class="foreground" aria-hidden="true" d="" display="none"/></g><g transform="translate(0,0)"><path class="background" aria-hidden="true" d="M0,0h800v400h-800Z"/><g><g class="mark-line role-mark layer_1_layer_1_marks" role="graphics-symbol" aria-roledescription="line mark container"><path d="M26.666666666666668,309.64L53.333333333333336,287.15999999999997L80,217.19999999999996L106.66666666666667,157.48000000000002L133.33333333333331,129.36L160,95.75999999999998L186.66666666666666,91.67999999999998L213.33333333333334,79.72000000000001L240,76.32L266.66666666666663,71.44L293.3333333333333,70.19999999999999L320,67.96000000000002L346.6666666666667,64.27999999999999L373.3333333333333,63.28L400,62.88L426.6666666666667,63.039999999999985L453.3333333333333,61.83999999999998L480,61.479999999999976L506.66666666666663,62.27999999999998L533.3333333333333,60.15999999999999L560,60.400000000000006L586.6666666666666,60.59999999999999L613.3333333333334,61.39999999999999L640,57.920000000000016L666.6666666666667,62.23999999999998L693.3333333333334,60.00000000000001L720,61.16000000000001L746.6666666666666,59.399999999999984L773.3333333333334,61.79999999999999L800,60.919999999999995" stroke="#228C22" stroke-width="4.1" opacity="0.05"/></g></g><path class="foreground" aria-hidden="true" d="" display="none"/></g></g><g class="mark-group role-scope layer_1_layer_2_pathgroup" role="graphics-object" aria-roledescription="group mark container"><g transform="translate(0,0)"><path class="background" aria-hidden="true" d="M0,0h800v400h-800Z"/><g><g class="mark-line role-mark layer_1_layer_2_marks" role="graphics-symbol" aria-roledescription="line mark container"><path d="M26.666666666666668,309.64L53.333333333333336,271.23999999999995L80,183.72000000000003L106.66666666666667,122.12L133.33333333333331,94.83999999999999L160,62.76000000000002L186.66666666666666,57.359999999999985L213.33333333333334,47.92000000000001L240,42.24000000000001L266.66666666666663,36.83999999999998L293.3333333333333,33.72000000000001L320,32.880000000000024L346.6666666666667,29.439999999999998L373.3333333333333,28.6L400,27.32000000000001L426.6666666666667,26.319999999999986L453.3333333333333,26.399999999999977L480,25.51999999999999L506.66666666666663,24.880000000000013L533.3333333333333,25.119999999999987L560,24.840000000000018L586.6666666666666,23.95999999999998L613.3333333333334,23.87999999999999L640,24.120000000000008L666.6666666666667,23.360000000000003L693.3333333333334,23.47999999999999L720,22.67999999999999L746.6666666666666,22.520000000000007L773.3333333333334,21.839999999999993L800,22.239999999999995" stroke="#00FFFF" stroke-width="5.15" opacity="0.05"/></g></g><path class="foreground" aria-hidden="true" d="" display="none"/></g><g transform="translate(0,0)"><path class="background" aria-hidden="true" d="M0,0h800v400h-800Z"/><g><g class="mark-line role-mark layer_1_layer_2_marks" role="graphics-symbol" aria-roledescription="line mark container"><path d="M26.666666666666668,291.84000000000003L53.333333333333336,271.08L80,227.8L106.66666666666667,175L133.33333333333331,149.52L160,120.56L186.66666666666666,115.11999999999998L213.33333333333334,99.52000000000001L240,89.27999999999999L266.66666666666663,82.56000000000002L293.3333333333333,79.88L320,75.76L346.6666666666667,69.28L373.3333333333333,67.56000000000002L400,65.24000000000001L426.6666666666667,63.92000000000002L453.3333333333333,60.959999999999994L480,60.519999999999996L506.66666666666663,56.55999999999999L533.3333333333333,54.879999999999995L560,55.48000000000002L586.6666666666666,55.67999999999999L613.3333333333334,53.359999999999985L640,52.59999999999998L666.6666666666667,50.44L693.3333333333334,49.40000000000002L720,48.720000000000006L746.6666666666666,48.32000000000001L773.3333333333334,46.43999999999999L800,46.95999999999998" stroke="#ffff00" stroke-width="5.15" opacity="0.05"/></g></g><path class="foreground" aria-hidden="true" d="" display="none"/></g><g transform="translate(0,0)"><path class="background" aria-hidden="true" d="M0,0h800v400h-800Z"/><g><g class="mark-line role-mark layer_1_layer_2_marks" role="graphics-symbol" aria-roledescription="line mark container"><path d="M26.666666666666668,296.56L53.333333333333336,275.2L80,194.84L106.66666666666667,131.12L133.33333333333331,101.32L160,65.32L186.66666666666666,59.60000000000001L213.33333333333334,47.35999999999998L240,42.119999999999976L266.66666666666663,33.68000000000002L293.3333333333333,31.36000000000001L320,29.11999999999999L346.6666666666667,25.47999999999999L373.3333333333333,24.35999999999998L400,23.55999999999998L426.6666666666667,23.760000000000005L453.3333333333333,22.840000000000018L480,22.75999999999998L506.66666666666663,21.47999999999999L533.3333333333333,21.47999999999999L560,21.28000000000001L586.6666666666666,20.040000000000013L613.3333333333334,20.000000000000018L640,20.16L666.6666666666667,19.519999999999982L693.3333333333334,18.31999999999998L720,18.279999999999987L746.6666666666666,17.960000000000022L773.3333333333334,18.199999999999996L800,18.040000000000013" stroke="#FF0000" stroke-width="5.15" opacity="0.05"/></g></g><path class="foreground" aria-hidden="true" d="" display="none"/></g><g transform="translate(0,0)"><path class="background" aria-hidden="true" d="M0,0h800v400h-800Z"/><g><g class="mark-line role-mark layer_1_layer_2_marks" role="graphics-symbol" aria-roledescription="line mark container"><path d="M26.666666666666668,283.6L53.333333333333336,268.03999999999996L80,200.07999999999998L106.66666666666667,152.92L133.33333333333331,127.84L160,107.32L186.66666666666666,105.32L213.33333333333334,95.63999999999999L240,88.92000000000002L266.66666666666663,85.16L293.3333333333333,85.44L320,83.63999999999999L346.6666666666667,79.44L373.3333333333333,76.96000000000001L400,76.35999999999999L426.6666666666667,73.11999999999999L453.3333333333333,73.11999999999999L480,73.95999999999998L506.66666666666663,71.20000000000002L533.3333333333333,71.91999999999999L560,72.2L586.6666666666666,73.47999999999999L613.3333333333334,73.8L640,74.12L666.6666666666667,74.75999999999998L693.3333333333334,73.68L720,75.32000000000001L746.6666666666666,75.72000000000001L773.3333333333334,77.64000000000001L800,78.56" stroke="#5f249f" stroke-width="5.15" opacity="0.05"/></g></g><path class="foreground" aria-hidden="true" d="" display="none"/></g><g transform="translate(0,0)"><path class="background" aria-hidden="true" d="M0,0h800v400h-800Z"/><g><g class="mark-line role-mark layer_1_layer_2_marks" role="graphics-symbol" aria-roledescription="line mark container"><path d="M26.666666666666668,309.64L53.333333333333336,287.15999999999997L80,217.19999999999996L106.66666666666667,157.48000000000002L133.33333333333331,129.36L160,95.75999999999998L186.66666666666666,91.67999999999998L213.33333333333334,79.72000000000001L240,76.32L266.66666666666663,71.44L293.3333333333333,70.19999999999999L320,67.96000000000002L346.6666666666667,64.27999999999999L373.3333333333333,63.28L400,62.88L426.6666666666667,63.039999999999985L453.3333333333333,61.83999999999998L480,61.479999999999976L506.66666666666663,62.27999999999998L533.3333333333333,60.15999999999999L560,60.400000000000006L586.6666666666666,60.59999999999999L613.3333333333334,61.39999999999999L640,57.920000000000016L666.6666666666667,62.23999999999998L693.3333333333334,60.00000000000001L720,61.16000000000001L746.6666666666666,59.399999999999984L773.3333333333334,61.79999999999999L800,60.919999999999995" stroke="#228C22" stroke-width="5.15" opacity="0.05"/></g></g><path class="foreground" aria-hidden="true" d="" display="none"/></g></g><g class="mark-group role-scope layer_1_layer_3_pathgroup" role="graphics-object" aria-roledescription="group mark container"><g transform="translate(0,0)"><path class="background" aria-hidden="true" d="M0,0h800v400h-800Z"/><g><g class="mark-line role-mark layer_1_layer_3_marks" role="graphics-symbol" aria-roledescription="line mark container"><path d="M26.666666666666668,309.64L53.333333333333336,271.23999999999995L80,183.72000000000003L106.66666666666667,122.12L133.33333333333331,94.83999999999999L160,62.76000000000002L186.66666666666666,57.359999999999985L213.33333333333334,47.92000000000001L240,42.24000000000001L266.66666666666663,36.83999999999998L293.3333333333333,33.72000000000001L320,32.880000000000024L346.6666666666667,29.439999999999998L373.3333333333333,28.6L400,27.32000000000001L426.6666666666667,26.319999999999986L453.3333333333333,26.399999999999977L480,25.51999999999999L506.66666666666663,24.880000000000013L533.3333333333333,25.119999999999987L560,24.840000000000018L586.6666666666666,23.95999999999998L613.3333333333334,23.87999999999999L640,24.120000000000008L666.6666666666667,23.360000000000003L693.3333333333334,23.47999999999999L720,22.67999999999999L746.6666666666666,22.520000000000007L773.3333333333334,21.839999999999993L800,22.239999999999995" stroke="#00FFFF" stroke-width="6.2" opacity="0.05"/></g></g><path class="foreground" aria-hidden="true" d="" display="none"/></g><g transform="translate(0,0)"><path class="background" aria-hidden="true" d="M0,0h800v400h-800Z"/><g><g class="mark-line role-mark layer_1_layer_3_marks" role="graphics-symbol" aria-roledescription="line mark container"><path d="M26.666666666666668,291.84000000000003L53.333333333333336,271.08L80,227.8L106.66666666666667,175L133.33333333333331,149.52L160,120.56L186.66666666666666,115.11999999999998L213.33333333333334,99.52000000000001L240,89.27999999999999L266.66666666666663,82.56000000000002L293.3333333333333,79.88L320,75.76L346.6666666666667,69.28L373.3333333333333,67.56000000000002L400,65.24000000000001L426.6666666666667,63.92000000000002L453.3333333333333,60.959999999999994L480,60.519999999999996L506.66666666666663,56.55999999999999L533.3333333333333,54.879999999999995L560,55.48000000000002L586.6666666666666,55.67999999999999L613.3333333333334,53.359999999999985L640,52.59999999999998L666.6666666666667,50.44L693.3333333333334,49.40000000000002L720,48.720000000000006L746.6666666666666,48.32000000000001L773.3333333333334,46.43999999999999L800,46.95999999999998" stroke="#ffff00" stroke-width="6.2" opacity="0.05"/></g></g><path class="foreground" aria-hidden="true" d="" display="none"/></g><g transform="translate(0,0)"><path class="background" aria-hidden="true" d="M0,0h800v400h-800Z"/><g><g class="mark-line role-mark layer_1_layer_3_marks" role="graphics-symbol" aria-roledescription="line mark container"><path d="M26.666666666666668,296.56L53.333333333333336,275.2L80,194.84L106.66666666666667,131.12L133.33333333333331,101.32L160,65.32L186.66666666666666,59.60000000000001L213.33333333333334,47.35999999999998L240,42.119999999999976L266.66666666666663,33.68000000000002L293.3333333333333,31.36000000000001L320,29.11999999999999L346.6666666666667,25.47999999999999L373.3333333333333,24.35999999999998L400,23.55999999999998L426.6666666666667,23.760000000000005L453.3333333333333,22.840000000000018L480,22.75999999999998L506.66666666666663,21.47999999999999L533.3333333333333,21.47999999999999L560,21.28000000000001L586.6666666666666,20.040000000000013L613.3333333333334,20.000000000000018L640,20.16L666.6666666666667,19.519999999999982L693.3333333333334,18.31999999999998L720,18.279999999999987L746.6666666666666,17.960000000000022L773.3333333333334,18.199999999999996L800,18.040000000000013" stroke="#FF0000" stroke-width="6.2" opacity="0.05"/></g></g><path class="foreground" aria-hidden="true" d="" display="none"/></g><g transform="translate(0,0)"><path class="background" aria-hidden="true" d="M0,0h800v400h-800Z"/><g><g class="mark-line role-mark layer_1_layer_3_marks" role="graphics-symbol" aria-roledescription="line mark container"><path d="M26.666666666666668,283.6L53.333333333333336,268.03999999999996L80,200.07999999999998L106.66666666666667,152.92L133.33333333333331,127.84L160,107.32L186.66666666666666,105.32L213.33333333333334,95.63999999999999L240,88.92000000000002L266.66666666666663,85.16L293.3333333333333,85.44L320,83.63999999999999L346.6666666666667,79.44L373.3333333333333,76.96000000000001L400,76.35999999999999L426.6666666666667,73.11999999999999L453.3333333333333,73.11999999999999L480,73.95999999999998L506.66666666666663,71.20000000000002L533.3333333333333,71.91999999999999L560,72.2L586.6666666666666,73.47999999999999L613.3333333333334,73.8L640,74.12L666.6666666666667,74.75999999999998L693.3333333333334,73.68L720,75.32000000000001L746.6666666666666,75.72000000000001L773.3333333333334,77.64000000000001L800,78.56" stroke="#5f249f" stroke-width="6.2" opacity="0.05"/></g></g><path class="foreground" aria-hidden="true" d="" display="none"/></g><g transform="translate(0,0)"><path class="background" aria-hidden="true" d="M0,0h800v400h-800Z"/><g><g class="mark-line role-mark layer_1_layer_3_marks" role="graphics-symbol" aria-roledescription="line mark container"><path d="M26.666666666666668,309.64L53.333333333333336,287.15999999999997L80,217.19999999999996L106.66666666666667,157.48000000000002L133.33333333333331,129.36L160,95.75999999999998L186.66666666666666,91.67999999999998L213.33333333333334,79.72000000000001L240,76.32L266.66666666666663,71.44L293.3333333333333,70.19999999999999L320,67.96000000000002L346.6666666666667,64.27999999999999L373.3333333333333,63.28L400,62.88L426.6666666666667,63.039999999999985L453.3333333333333,61.83999999999998L480,61.479999999999976L506.66666666666663,62.27999999999998L533.3333333333333,60.15999999999999L560,60.400000000000006L586.6666666666666,60.59999999999999L613.3333333333334,61.39999999999999L640,57.920000000000016L666.6666666666667,62.23999999999998L693.3333333333334,60.00000000000001L720,61.16000000000001L746.6666666666666,59.399999999999984L773.3333333333334,61.79999999999999L800,60.919999999999995" stroke="#228C22" stroke-width="6.2" opacity="0.05"/></g></g><path class="foreground" aria-hidden="true" d="" display="none"/></g></g><g class="mark-group role-scope layer_1_layer_4_pathgroup" role="graphics-object" aria-roledescription="group mark container"><g transform="translate(0,0)"><path class="background" aria-hidden="true" d="M0,0h800v400h-800Z"/><g><g class="mark-line role-mark layer_1_layer_4_marks" role="graphics-symbol" aria-roledescription="line mark container"><path d="M26.666666666666668,309.64L53.333333333333336,271.23999999999995L80,183.72000000000003L106.66666666666667,122.12L133.33333333333331,94.83999999999999L160,62.76000000000002L186.66666666666666,57.359999999999985L213.33333333333334,47.92000000000001L240,42.24000000000001L266.66666666666663,36.83999999999998L293.3333333333333,33.72000000000001L320,32.880000000000024L346.6666666666667,29.439999999999998L373.3333333333333,28.6L400,27.32000000000001L426.6666666666667,26.319999999999986L453.3333333333333,26.399999999999977L480,25.51999999999999L506.66666666666663,24.880000000000013L533.3333333333333,25.119999999999987L560,24.840000000000018L586.6666666666666,23.95999999999998L613.3333333333334,23.87999999999999L640,24.120000000000008L666.6666666666667,23.360000000000003L693.3333333333334,23.47999999999999L720,22.67999999999999L746.6666666666666,22.520000000000007L773.3333333333334,21.839999999999993L800,22.239999999999995" stroke="#00FFFF" stroke-width="7.25" opacity="0.05"/></g></g><path class="foreground" aria-hidden="true" d="" display="none"/></g><g transform="translate(0,0)"><path class="background" aria-hidden="true" d="M0,0h800v400h-800Z"/><g><g class="mark-line role-mark layer_1_layer_4_marks" role="graphics-symbol" aria-roledescription="line mark container"><path d="M26.666666666666668,291.84000000000003L53.333333333333336,271.08L80,227.8L106.66666666666667,175L133.33333333333331,149.52L160,120.56L186.66666666666666,115.11999999999998L213.33333333333334,99.52000000000001L240,89.27999999999999L266.66666666666663,82.56000000000002L293.3333333333333,79.88L320,75.76L346.6666666666667,69.28L373.3333333333333,67.56000000000002L400,65.24000000000001L426.6666666666667,63.92000000000002L453.3333333333333,60.959999999999994L480,60.519999999999996L506.66666666666663,56.55999999999999L533.3333333333333,54.879999999999995L560,55.48000000000002L586.6666666666666,55.67999999999999L613.3333333333334,53.359999999999985L640,52.59999999999998L666.6666666666667,50.44L693.3333333333334,49.40000000000002L720,48.720000000000006L746.6666666666666,48.32000000000001L773.3333333333334,46.43999999999999L800,46.95999999999998" stroke="#ffff00" stroke-width="7.25" opacity="0.05"/></g></g><path class="foreground" aria-hidden="true" d="" display="none"/></g><g transform="translate(0,0)"><path class="background" aria-hidden="true" d="M0,0h800v400h-800Z"/><g><g class="mark-line role-mark layer_1_layer_4_marks" role="graphics-symbol" aria-roledescription="line mark container"><path d="M26.666666666666668,296.56L53.333333333333336,275.2L80,194.84L106.66666666666667,131.12L133.33333333333331,101.32L160,65.32L186.66666666666666,59.60000000000001L213.33333333333334,47.35999999999998L240,42.119999999999976L266.66666666666663,33.68000000000002L293.3333333333333,31.36000000000001L320,29.11999999999999L346.6666666666667,25.47999999999999L373.3333333333333,24.35999999999998L400,23.55999999999998L426.6666666666667,23.760000000000005L453.3333333333333,22.840000000000018L480,22.75999999999998L506.66666666666663,21.47999999999999L533.3333333333333,21.47999999999999L560,21.28000000000001L586.6666666666666,20.040000000000013L613.3333333333334,20.000000000000018L640,20.16L666.6666666666667,19.519999999999982L693.3333333333334,18.31999999999998L720,18.279999999999987L746.6666666666666,17.960000000000022L773.3333333333334,18.199999999999996L800,18.040000000000013" stroke="#FF0000" stroke-width="7.25" opacity="0.05"/></g></g><path class="foreground" aria-hidden="true" d="" display="none"/></g><g transform="translate(0,0)"><path class="background" aria-hidden="true" d="M0,0h800v400h-800Z"/><g><g class="mark-line role-mark layer_1_layer_4_marks" role="graphics-symbol" aria-roledescription="line mark container"><path d="M26.666666666666668,283.6L53.333333333333336,268.03999999999996L80,200.07999999999998L106.66666666666667,152.92L133.33333333333331,127.84L160,107.32L186.66666666666666,105.32L213.33333333333334,95.63999999999999L240,88.92000000000002L266.66666666666663,85.16L293.3333333333333,85.44L320,83.63999999999999L346.6666666666667,79.44L373.3333333333333,76.96000000000001L400,76.35999999999999L426.6666666666667,73.11999999999999L453.3333333333333,73.11999999999999L480,73.95999999999998L506.66666666666663,71.20000000000002L533.3333333333333,71.91999999999999L560,72.2L586.6666666666666,73.47999999999999L613.3333333333334,73.8L640,74.12L666.6666666666667,74.75999999999998L693.3333333333334,73.68L720,75.32000000000001L746.6666666666666,75.72000000000001L773.3333333333334,77.64000000000001L800,78.56" stroke="#5f249f" stroke-width="7.25" opacity="0.05"/></g></g><path class="foreground" aria-hidden="true" d="" display="none"/></g><g transform="translate(0,0)"><path class="background" aria-hidden="true" d="M0,0h800v400h-800Z"/><g><g class="mark-line role-mark layer_1_layer_4_marks" role="graphics-symbol" aria-roledescription="line mark container"><path d="M26.666666666666668,309.64L53.333333333333336,287.15999999999997L80,217.19999999999996L106.66666666666667,157.48000000000002L133.33333333333331,129.36L160,95.75999999999998L186.66666666666666,91.67999999999998L213.33333333333334,79.72000000000001L240,76.32L266.66666666666663,71.44L293.3333333333333,70.19999999999999L320,67.96000000000002L346.6666666666667,64.27999999999999L373.3333333333333,63.28L400,62.88L426.6666666666667,63.039999999999985L453.3333333333333,61.83999999999998L480,61.479999999999976L506.66666666666663,62.27999999999998L533.3333333333333,60.15999999999999L560,60.400000000000006L586.6666666666666,60.59999999999999L613.3333333333334,61.39999999999999L640,57.920000000000016L666.6666666666667,62.23999999999998L693.3333333333334,60.00000000000001L720,61.16000000000001L746.6666666666666,59.399999999999984L773.3333333333334,61.79999999999999L800,60.919999999999995" stroke="#228C22" stroke-width="7.25" opacity="0.05"/></g></g><path class="foreground" aria-hidden="true" d="" display="none"/></g></g><g class="mark-group role-scope layer_1_layer_5_pathgroup" role="graphics-object" aria-roledescription="group mark container"><g transform="translate(0,0)"><path class="background" aria-hidden="true" d="M0,0h800v400h-800Z"/><g><g class="mark-line role-mark layer_1_layer_5_marks" role="graphics-symbol" aria-roledescription="line mark container"><path d="M26.666666666666668,309.64L53.333333333333336,271.23999999999995L80,183.72000000000003L106.66666666666667,122.12L133.33333333333331,94.83999999999999L160,62.76000000000002L186.66666666666666,57.359999999999985L213.33333333333334,47.92000000000001L240,42.24000000000001L266.66666666666663,36.83999999999998L293.3333333333333,33.72000000000001L320,32.880000000000024L346.6666666666667,29.439999999999998L373.3333333333333,28.6L400,27.32000000000001L426.6666666666667,26.319999999999986L453.3333333333333,26.399999999999977L480,25.51999999999999L506.66666666666663,24.880000000000013L533.3333333333333,25.119999999999987L560,24.840000000000018L586.6666666666666,23.95999999999998L613.3333333333334,23.87999999999999L640,24.120000000000008L666.6666666666667,23.360000000000003L693.3333333333334,23.47999999999999L720,22.67999999999999L746.6666666666666,22.520000000000007L773.3333333333334,21.839999999999993L800,22.239999999999995" stroke="#00FFFF" stroke-width="8.3" opacity="0.05"/></g></g><path class="foreground" aria-hidden="true" d="" display="none"/></g><g transform="translate(0,0)"><path class="background" aria-hidden="true" d="M0,0h800v400h-800Z"/><g><g class="mark-line role-mark layer_1_layer_5_marks" role="graphics-symbol" aria-roledescription="line mark container"><path d="M26.666666666666668,291.84000000000003L53.333333333333336,271.08L80,227.8L106.66666666666667,175L133.33333333333331,149.52L160,120.56L186.66666666666666,115.11999999999998L213.33333333333334,99.52000000000001L240,89.27999999999999L266.66666666666663,82.56000000000002L293.3333333333333,79.88L320,75.76L346.6666666666667,69.28L373.3333333333333,67.56000000000002L400,65.24000000000001L426.6666666666667,63.92000000000002L453.3333333333333,60.959999999999994L480,60.519999999999996L506.66666666666663,56.55999999999999L533.3333333333333,54.879999999999995L560,55.48000000000002L586.6666666666666,55.67999999999999L613.3333333333334,53.359999999999985L640,52.59999999999998L666.6666666666667,50.44L693.3333333333334,49.40000000000002L720,48.720000000000006L746.6666666666666,48.32000000000001L773.3333333333334,46.43999999999999L800,46.95999999999998" stroke="#ffff00" stroke-width="8.3" opacity="0.05"/></g></g><path class="foreground" aria-hidden="true" d="" display="none"/></g><g transform="translate(0,0)"><path class="background" aria-hidden="true" d="M0,0h800v400h-800Z"/><g><g class="mark-line role-mark layer_1_layer_5_marks" role="graphics-symbol" aria-roledescription="line mark container"><path d="M26.666666666666668,296.56L53.333333333333336,275.2L80,194.84L106.66666666666667,131.12L133.33333333333331,101.32L160,65.32L186.66666666666666,59.60000000000001L213.33333333333334,47.35999999999998L240,42.119999999999976L266.66666666666663,33.68000000000002L293.3333333333333,31.36000000000001L320,29.11999999999999L346.6666666666667,25.47999999999999L373.3333333333333,24.35999999999998L400,23.55999999999998L426.6666666666667,23.760000000000005L453.3333333333333,22.840000000000018L480,22.75999999999998L506.66666666666663,21.47999999999999L533.3333333333333,21.47999999999999L560,21.28000000000001L586.6666666666666,20.040000000000013L613.3333333333334,20.000000000000018L640,20.16L666.6666666666667,19.519999999999982L693.3333333333334,18.31999999999998L720,18.279999999999987L746.6666666666666,17.960000000000022L773.3333333333334,18.199999999999996L800,18.040000000000013" stroke="#FF0000" stroke-width="8.3" opacity="0.05"/></g></g><path class="foreground" aria-hidden="true" d="" display="none"/></g><g transform="translate(0,0)"><path class="background" aria-hidden="true" d="M0,0h800v400h-800Z"/><g><g class="mark-line role-mark layer_1_layer_5_marks" role="graphics-symbol" aria-roledescription="line mark container"><path d="M26.666666666666668,283.6L53.333333333333336,268.03999999999996L80,200.07999999999998L106.66666666666667,152.92L133.33333333333331,127.84L160,107.32L186.66666666666666,105.32L213.33333333333334,95.63999999999999L240,88.92000000000002L266.66666666666663,85.16L293.3333333333333,85.44L320,83.63999999999999L346.6666666666667,79.44L373.3333333333333,76.96000000000001L400,76.35999999999999L426.6666666666667,73.11999999999999L453.3333333333333,73.11999999999999L480,73.95999999999998L506.66666666666663,71.20000000000002L533.3333333333333,71.91999999999999L560,72.2L586.6666666666666,73.47999999999999L613.3333333333334,73.8L640,74.12L666.6666666666667,74.75999999999998L693.3333333333334,73.68L720,75.32000000000001L746.6666666666666,75.72000000000001L773.3333333333334,77.64000000000001L800,78.56" stroke="#5f249f" stroke-width="8.3" opacity="0.05"/></g></g><path class="foreground" aria-hidden="true" d="" display="none"/></g><g transform="translate(0,0)"><path class="background" aria-hidden="true" d="M0,0h800v400h-800Z"/><g><g class="mark-line role-mark layer_1_layer_5_marks" role="graphics-symbol" aria-roledescription="line mark container"><path d="M26.666666666666668,309.64L53.333333333333336,287.15999999999997L80,217.19999999999996L106.66666666666667,157.48000000000002L133.33333333333331,129.36L160,95.75999999999998L186.66666666666666,91.67999999999998L213.33333333333334,79.72000000000001L240,76.32L266.66666666666663,71.44L293.3333333333333,70.19999999999999L320,67.96000000000002L346.6666666666667,64.27999999999999L373.3333333333333,63.28L400,62.88L426.6666666666667,63.039999999999985L453.3333333333333,61.83999999999998L480,61.479999999999976L506.66666666666663,62.27999999999998L533.3333333333333,60.15999999999999L560,60.400000000000006L586.6666666666666,60.59999999999999L613.3333333333334,61.39999999999999L640,57.920000000000016L666.6666666666667,62.23999999999998L693.3333333333334,60.00000000000001L720,61.16000000000001L746.6666666666666,59.399999999999984L773.3333333333334,61.79999999999999L800,60.919999999999995" stroke="#228C22" stroke-width="8.3" opacity="0.05"/></g></g><path class="foreground" aria-hidden="true" d="" display="none"/></g></g><g class="mark-group role-scope layer_1_layer_6_pathgroup" role="graphics-object" aria-roledescription="group mark container"><g transform="translate(0,0)"><path class="background" aria-hidden="true" d="M0,0h800v400h-800Z"/><g><g class="mark-line role-mark layer_1_layer_6_marks" role="graphics-symbol" aria-roledescription="line mark container"><path d="M26.666666666666668,309.64L53.333333333333336,271.23999999999995L80,183.72000000000003L106.66666666666667,122.12L133.33333333333331,94.83999999999999L160,62.76000000000002L186.66666666666666,57.359999999999985L213.33333333333334,47.92000000000001L240,42.24000000000001L266.66666666666663,36.83999999999998L293.3333333333333,33.72000000000001L320,32.880000000000024L346.6666666666667,29.439999999999998L373.3333333333333,28.6L400,27.32000000000001L426.6666666666667,26.319999999999986L453.3333333333333,26.399999999999977L480,25.51999999999999L506.66666666666663,24.880000000000013L533.3333333333333,25.119999999999987L560,24.840000000000018L586.6666666666666,23.95999999999998L613.3333333333334,23.87999999999999L640,24.120000000000008L666.6666666666667,23.360000000000003L693.3333333333334,23.47999999999999L720,22.67999999999999L746.6666666666666,22.520000000000007L773.3333333333334,21.839999999999993L800,22.239999999999995" stroke="#00FFFF" stroke-width="9.350000000000001" opacity="0.05"/></g></g><path class="foreground" aria-hidden="true" d="" display="none"/></g><g transform="translate(0,0)"><path class="background" aria-hidden="true" d="M0,0h800v400h-800Z"/><g><g class="mark-line role-mark layer_1_layer_6_marks" role="graphics-symbol" aria-roledescription="line mark container"><path d="M26.666666666666668,291.84000000000003L53.333333333333336,271.08L80,227.8L106.66666666666667,175L133.33333333333331,149.52L160,120.56L186.66666666666666,115.11999999999998L213.33333333333334,99.52000000000001L240,89.27999999999999L266.66666666666663,82.56000000000002L293.3333333333333,79.88L320,75.76L346.6666666666667,69.28L373.3333333333333,67.56000000000002L400,65.24000000000001L426.6666666666667,63.92000000000002L453.3333333333333,60.959999999999994L480,60.519999999999996L506.66666666666663,56.55999999999999L533.3333333333333,54.879999999999995L560,55.48000000000002L586.6666666666666,55.67999999999999L613.3333333333334,53.359999999999985L640,52.59999999999998L666.6666666666667,50.44L693.3333333333334,49.40000000000002L720,48.720000000000006L746.6666666666666,48.32000000000001L773.3333333333334,46.43999999999999L800,46.95999999999998" stroke="#ffff00" stroke-width="9.350000000000001" opacity="0.05"/></g></g><path class="foreground" aria-hidden="true" d="" display="none"/></g><g transform="translate(0,0)"><path class="background" aria-hidden="true" d="M0,0h800v400h-800Z"/><g><g class="mark-line role-mark layer_1_layer_6_marks" role="graphics-symbol" aria-roledescription="line mark container"><path d="M26.666666666666668,296.56L53.333333333333336,275.2L80,194.84L106.66666666666667,131.12L133.33333333333331,101.32L160,65.32L186.66666666666666,59.60000000000001L213.33333333333334,47.35999999999998L240,42.119999999999976L266.66666666666663,33.68000000000002L293.3333333333333,31.36000000000001L320,29.11999999999999L346.6666666666667,25.47999999999999L373.3333333333333,24.35999999999998L400,23.55999999999998L426.6666666666667,23.760000000000005L453.3333333333333,22.840000000000018L480,22.75999999999998L506.66666666666663,21.47999999999999L533.3333333333333,21.47999999999999L560,21.28000000000001L586.6666666666666,20.040000000000013L613.3333333333334,20.000000000000018L640,20.16L666.6666666666667,19.519999999999982L693.3333333333334,18.31999999999998L720,18.279999999999987L746.6666666666666,17.960000000000022L773.3333333333334,18.199999999999996L800,18.040000000000013" stroke="#FF0000" stroke-width="9.350000000000001" opacity="0.05"/></g></g><path class="foreground" aria-hidden="true" d="" display="none"/></g><g transform="translate(0,0)"><path class="background" aria-hidden="true" d="M0,0h800v400h-800Z"/><g><g class="mark-line role-mark layer_1_layer_6_marks" role="graphics-symbol" aria-roledescription="line mark container"><path d="M26.666666666666668,283.6L53.333333333333336,268.03999999999996L80,200.07999999999998L106.66666666666667,152.92L133.33333333333331,127.84L160,107.32L186.66666666666666,105.32L213.33333333333334,95.63999999999999L240,88.92000000000002L266.66666666666663,85.16L293.3333333333333,85.44L320,83.63999999999999L346.6666666666667,79.44L373.3333333333333,76.96000000000001L400,76.35999999999999L426.6666666666667,73.11999999999999L453.3333333333333,73.11999999999999L480,73.95999999999998L506.66666666666663,71.20000000000002L533.3333333333333,71.91999999999999L560,72.2L586.6666666666666,73.47999999999999L613.3333333333334,73.8L640,74.12L666.6666666666667,74.75999999999998L693.3333333333334,73.68L720,75.32000000000001L746.6666666666666,75.72000000000001L773.3333333333334,77.64000000000001L800,78.56" stroke="#5f249f" stroke-width="9.350000000000001" opacity="0.05"/></g></g><path class="foreground" aria-hidden="true" d="" display="none"/></g><g transform="translate(0,0)"><path class="background" aria-hidden="true" d="M0,0h800v400h-800Z"/><g><g class="mark-line role-mark layer_1_layer_6_marks" role="graphics-symbol" aria-roledescription="line mark container"><path d="M26.666666666666668,309.64L53.333333333333336,287.15999999999997L80,217.19999999999996L106.66666666666667,157.48000000000002L133.33333333333331,129.36L160,95.75999999999998L186.66666666666666,91.67999999999998L213.33333333333334,79.72000000000001L240,76.32L266.66666666666663,71.44L293.3333333333333,70.19999999999999L320,67.96000000000002L346.6666666666667,64.27999999999999L373.3333333333333,63.28L400,62.88L426.6666666666667,63.039999999999985L453.3333333333333,61.83999999999998L480,61.479999999999976L506.66666666666663,62.27999999999998L533.3333333333333,60.15999999999999L560,60.400000000000006L586.6666666666666,60.59999999999999L613.3333333333334,61.39999999999999L640,57.920000000000016L666.6666666666667,62.23999999999998L693.3333333333334,60.00000000000001L720,61.16000000000001L746.6666666666666,59.399999999999984L773.3333333333334,61.79999999999999L800,60.919999999999995" stroke="#228C22" stroke-width="9.350000000000001" opacity="0.05"/></g></g><path class="foreground" aria-hidden="true" d="" display="none"/></g></g><g class="mark-group role-scope layer_1_layer_7_pathgroup" role="graphics-object" aria-roledescription="group mark container"><g transform="translate(0,0)"><path class="background" aria-hidden="true" d="M0,0h800v400h-800Z"/><g><g class="mark-line role-mark layer_1_layer_7_marks" role="graphics-symbol" aria-roledescription="line mark container"><path d="M26.666666666666668,309.64L53.333333333333336,271.23999999999995L80,183.72000000000003L106.66666666666667,122.12L133.33333333333331,94.83999999999999L160,62.76000000000002L186.66666666666666,57.359999999999985L213.33333333333334,47.92000000000001L240,42.24000000000001L266.66666666666663,36.83999999999998L293.3333333333333,33.72000000000001L320,32.880000000000024L346.6666666666667,29.439999999999998L373.3333333333333,28.6L400,27.32000000000001L426.6666666666667,26.319999999999986L453.3333333333333,26.399999999999977L480,25.51999999999999L506.66666666666663,24.880000000000013L533.3333333333333,25.119999999999987L560,24.840000000000018L586.6666666666666,23.95999999999998L613.3333333333334,23.87999999999999L640,24.120000000000008L666.6666666666667,23.360000000000003L693.3333333333334,23.47999999999999L720,22.67999999999999L746.6666666666666,22.520000000000007L773.3333333333334,21.839999999999993L800,22.239999999999995" stroke="#00FFFF" stroke-width="10.4" opacity="0.05"/></g></g><path class="foreground" aria-hidden="true" d="" display="none"/></g><g transform="translate(0,0)"><path class="background" aria-hidden="true" d="M0,0h800v400h-800Z"/><g><g class="mark-line role-mark layer_1_layer_7_marks" role="graphics-symbol" aria-roledescription="line mark container"><path d="M26.666666666666668,291.84000000000003L53.333333333333336,271.08L80,227.8L106.66666666666667,175L133.33333333333331,149.52L160,120.56L186.66666666666666,115.11999999999998L213.33333333333334,99.52000000000001L240,89.27999999999999L266.66666666666663,82.56000000000002L293.3333333333333,79.88L320,75.76L346.6666666666667,69.28L373.3333333333333,67.56000000000002L400,65.24000000000001L426.6666666666667,63.92000000000002L453.3333333333333,60.959999999999994L480,60.519999999999996L506.66666666666663,56.55999999999999L533.3333333333333,54.879999999999995L560,55.48000000000002L586.6666666666666,55.67999999999999L613.3333333333334,53.359999999999985L640,52.59999999999998L666.6666666666667,50.44L693.3333333333334,49.40000000000002L720,48.720000000000006L746.6666666666666,48.32000000000001L773.3333333333334,46.43999999999999L800,46.95999999999998" stroke="#ffff00" stroke-width="10.4" opacity="0.05"/></g></g><path class="foreground" aria-hidden="true" d="" display="none"/></g><g transform="translate(0,0)"><path class="background" aria-hidden="true" d="M0,0h800v400h-800Z"/><g><g class="mark-line role-mark layer_1_layer_7_marks" role="graphics-symbol" aria-roledescription="line mark container"><path d="M26.666666666666668,296.56L53.333333333333336,275.2L80,194.84L106.66666666666667,131.12L133.33333333333331,101.32L160,65.32L186.66666666666666,59.60000000000001L213.33333333333334,47.35999999999998L240,42.119999999999976L266.66666666666663,33.68000000000002L293.3333333333333,31.36000000000001L320,29.11999999999999L346.6666666666667,25.47999999999999L373.3333333333333,24.35999999999998L400,23.55999999999998L426.6666666666667,23.760000000000005L453.3333333333333,22.840000000000018L480,22.75999999999998L506.66666666666663,21.47999999999999L533.3333333333333,21.47999999999999L560,21.28000000000001L586.6666666666666,20.040000000000013L613.3333333333334,20.000000000000018L640,20.16L666.6666666666667,19.519999999999982L693.3333333333334,18.31999999999998L720,18.279999999999987L746.6666666666666,17.960000000000022L773.3333333333334,18.199999999999996L800,18.040000000000013" stroke="#FF0000" stroke-width="10.4" opacity="0.05"/></g></g><path class="foreground" aria-hidden="true" d="" display="none"/></g><g transform="translate(0,0)"><path class="background" aria-hidden="true" d="M0,0h800v400h-800Z"/><g><g class="mark-line role-mark layer_1_layer_7_marks" role="graphics-symbol" aria-roledescription="line mark container"><path d="M26.666666666666668,283.6L53.333333333333336,268.03999999999996L80,200.07999999999998L106.66666666666667,152.92L133.33333333333331,127.84L160,107.32L186.66666666666666,105.32L213.33333333333334,95.63999999999999L240,88.92000000000002L266.66666666666663,85.16L293.3333333333333,85.44L320,83.63999999999999L346.6666666666667,79.44L373.3333333333333,76.96000000000001L400,76.35999999999999L426.6666666666667,73.11999999999999L453.3333333333333,73.11999999999999L480,73.95999999999998L506.66666666666663,71.20000000000002L533.3333333333333,71.91999999999999L560,72.2L586.6666666666666,73.47999999999999L613.3333333333334,73.8L640,74.12L666.6666666666667,74.75999999999998L693.3333333333334,73.68L720,75.32000000000001L746.6666666666666,75.72000000000001L773.3333333333334,77.64000000000001L800,78.56" stroke="#5f249f" stroke-width="10.4" opacity="0.05"/></g></g><path class="foreground" aria-hidden="true" d="" display="none"/></g><g transform="translate(0,0)"><path class="background" aria-hidden="true" d="M0,0h800v400h-800Z"/><g><g class="mark-line role-mark layer_1_layer_7_marks" role="graphics-symbol" aria-roledescription="line mark container"><path d="M26.666666666666668,309.64L53.333333333333336,287.15999999999997L80,217.19999999999996L106.66666666666667,157.48000000000002L133.33333333333331,129.36L160,95.75999999999998L186.66666666666666,91.67999999999998L213.33333333333334,79.72000000000001L240,76.32L266.66666666666663,71.44L293.3333333333333,70.19999999999999L320,67.96000000000002L346.6666666666667,64.27999999999999L373.3333333333333,63.28L400,62.88L426.6666666666667,63.039999999999985L453.3333333333333,61.83999999999998L480,61.479999999999976L506.66666666666663,62.27999999999998L533.3333333333333,60.15999999999999L560,60.400000000000006L586.6666666666666,60.59999999999999L613.3333333333334,61.39999999999999L640,57.920000000000016L666.6666666666667,62.23999999999998L693.3333333333334,60.00000000000001L720,61.16000000000001L746.6666666666666,59.399999999999984L773.3333333333334,61.79999999999999L800,60.919999999999995" stroke="#228C22" stroke-width="10.4" opacity="0.05"/></g></g><path class="foreground" aria-hidden="true" d="" display="none"/></g></g><g class="mark-group role-scope layer_1_layer_8_pathgroup" role="graphics-object" aria-roledescription="group mark container"><g transform="translate(0,0)"><path class="background" aria-hidden="true" d="M0,0h800v400h-800Z"/><g><g class="mark-line role-mark layer_1_layer_8_marks" role="graphics-symbol" aria-roledescription="line mark container"><path d="M26.666666666666668,309.64L53.333333333333336,271.23999999999995L80,183.72000000000003L106.66666666666667,122.12L133.33333333333331,94.83999999999999L160,62.76000000000002L186.66666666666666,57.359999999999985L213.33333333333334,47.92000000000001L240,42.24000000000001L266.66666666666663,36.83999999999998L293.3333333333333,33.72000000000001L320,32.880000000000024L346.6666666666667,29.439999999999998L373.3333333333333,28.6L400,27.32000000000001L426.6666666666667,26.319999999999986L453.3333333333333,26.399999999999977L480,25.51999999999999L506.66666666666663,24.880000000000013L533.3333333333333,25.119999999999987L560,24.840000000000018L586.6666666666666,23.95999999999998L613.3333333333334,23.87999999999999L640,24.120000000000008L666.6666666666667,23.360000000000003L693.3333333333334,23.47999999999999L720,22.67999999999999L746.6666666666666,22.520000000000007L773.3333333333334,21.839999999999993L800,22.239999999999995" stroke="#00FFFF" stroke-width="11.450000000000001" opacity="0.05"/></g></g><path class="foreground" aria-hidden="true" d="" display="none"/></g><g transform="translate(0,0)"><path class="background" aria-hidden="true" d="M0,0h800v400h-800Z"/><g><g class="mark-line role-mark layer_1_layer_8_marks" role="graphics-symbol" aria-roledescription="line mark container"><path d="M26.666666666666668,291.84000000000003L53.333333333333336,271.08L80,227.8L106.66666666666667,175L133.33333333333331,149.52L160,120.56L186.66666666666666,115.11999999999998L213.33333333333334,99.52000000000001L240,89.27999999999999L266.66666666666663,82.56000000000002L293.3333333333333,79.88L320,75.76L346.6666666666667,69.28L373.3333333333333,67.56000000000002L400,65.24000000000001L426.6666666666667,63.92000000000002L453.3333333333333,60.959999999999994L480,60.519999999999996L506.66666666666663,56.55999999999999L533.3333333333333,54.879999999999995L560,55.48000000000002L586.6666666666666,55.67999999999999L613.3333333333334,53.359999999999985L640,52.59999999999998L666.6666666666667,50.44L693.3333333333334,49.40000000000002L720,48.720000000000006L746.6666666666666,48.32000000000001L773.3333333333334,46.43999999999999L800,46.95999999999998" stroke="#ffff00" stroke-width="11.450000000000001" opacity="0.05"/></g></g><path class="foreground" aria-hidden="true" d="" display="none"/></g><g transform="translate(0,0)"><path class="background" aria-hidden="true" d="M0,0h800v400h-800Z"/><g><g class="mark-line role-mark layer_1_layer_8_marks" role="graphics-symbol" aria-roledescription="line mark container"><path d="M26.666666666666668,296.56L53.333333333333336,275.2L80,194.84L106.66666666666667,131.12L133.33333333333331,101.32L160,65.32L186.66666666666666,59.60000000000001L213.33333333333334,47.35999999999998L240,42.119999999999976L266.66666666666663,33.68000000000002L293.3333333333333,31.36000000000001L320,29.11999999999999L346.6666666666667,25.47999999999999L373.3333333333333,24.35999999999998L400,23.55999999999998L426.6666666666667,23.760000000000005L453.3333333333333,22.840000000000018L480,22.75999999999998L506.66666666666663,21.47999999999999L533.3333333333333,21.47999999999999L560,21.28000000000001L586.6666666666666,20.040000000000013L613.3333333333334,20.000000000000018L640,20.16L666.6666666666667,19.519999999999982L693.3333333333334,18.31999999999998L720,18.279999999999987L746.6666666666666,17.960000000000022L773.3333333333334,18.199999999999996L800,18.040000000000013" stroke="#FF0000" stroke-width="11.450000000000001" opacity="0.05"/></g></g><path class="foreground" aria-hidden="true" d="" display="none"/></g><g transform="translate(0,0)"><path class="background" aria-hidden="true" d="M0,0h800v400h-800Z"/><g><g class="mark-line role-mark layer_1_layer_8_marks" role="graphics-symbol" aria-roledescription="line mark container"><path d="M26.666666666666668,283.6L53.333333333333336,268.03999999999996L80,200.07999999999998L106.66666666666667,152.92L133.33333333333331,127.84L160,107.32L186.66666666666666,105.32L213.33333333333334,95.63999999999999L240,88.92000000000002L266.66666666666663,85.16L293.3333333333333,85.44L320,83.63999999999999L346.6666666666667,79.44L373.3333333333333,76.96000000000001L400,76.35999999999999L426.6666666666667,73.11999999999999L453.3333333333333,73.11999999999999L480,73.95999999999998L506.66666666666663,71.20000000000002L533.3333333333333,71.91999999999999L560,72.2L586.6666666666666,73.47999999999999L613.3333333333334,73.8L640,74.12L666.6666666666667,74.75999999999998L693.3333333333334,73.68L720,75.32000000000001L746.6666666666666,75.72000000000001L773.3333333333334,77.64000000000001L800,78.56" stroke="#5f249f" stroke-width="11.450000000000001" opacity="0.05"/></g></g><path class="foreground" aria-hidden="true" d="" display="none"/></g><g transform="translate(0,0)"><path class="background" aria-hidden="true" d="M0,0h800v400h-800Z"/><g><g class="mark-line role-mark layer_1_layer_8_marks" role="graphics-symbol" aria-roledescription="line mark container"><path d="M26.666666666666668,309.64L53.333333333333336,287.15999999999997L80,217.19999999999996L106.66666666666667,157.48000000000002L133.33333333333331,129.36L160,95.75999999999998L186.66666666666666,91.67999999999998L213.33333333333334,79.72000000000001L240,76.32L266.66666666666663,71.44L293.3333333333333,70.19999999999999L320,67.96000000000002L346.6666666666667,64.27999999999999L373.3333333333333,63.28L400,62.88L426.6666666666667,63.039999999999985L453.3333333333333,61.83999999999998L480,61.479999999999976L506.66666666666663,62.27999999999998L533.3333333333333,60.15999999999999L560,60.400000000000006L586.6666666666666,60.59999999999999L613.3333333333334,61.39999999999999L640,57.920000000000016L666.6666666666667,62.23999999999998L693.3333333333334,60.00000000000001L720,61.16000000000001L746.6666666666666,59.399999999999984L773.3333333333334,61.79999999999999L800,60.919999999999995" stroke="#228C22" stroke-width="11.450000000000001" opacity="0.05"/></g></g><path class="foreground" aria-hidden="true" d="" display="none"/></g></g><g class="mark-group role-scope layer_1_layer_9_pathgroup" role="graphics-object" aria-roledescription="group mark container"><g transform="translate(0,0)"><path class="background" aria-hidden="true" d="M0,0h800v400h-800Z"/><g><g class="mark-line role-mark layer_1_layer_9_marks" role="graphics-symbol" aria-roledescription="line mark container"><path d="M26.666666666666668,309.64L53.333333333333336,271.23999999999995L80,183.72000000000003L106.66666666666667,122.12L133.33333333333331,94.83999999999999L160,62.76000000000002L186.66666666666666,57.359999999999985L213.33333333333334,47.92000000000001L240,42.24000000000001L266.66666666666663,36.83999999999998L293.3333333333333,33.72000000000001L320,32.880000000000024L346.6666666666667,29.439999999999998L373.3333333333333,28.6L400,27.32000000000001L426.6666666666667,26.319999999999986L453.3333333333333,26.399999999999977L480,25.51999999999999L506.66666666666663,24.880000000000013L533.3333333333333,25.119999999999987L560,24.840000000000018L586.6666666666666,23.95999999999998L613.3333333333334,23.87999999999999L640,24.120000000000008L666.6666666666667,23.360000000000003L693.3333333333334,23.47999999999999L720,22.67999999999999L746.6666666666666,22.520000000000007L773.3333333333334,21.839999999999993L800,22.239999999999995" stroke="#00FFFF" stroke-width="12.5" opacity="0.05"/></g></g><path class="foreground" aria-hidden="true" d="" display="none"/></g><g transform="translate(0,0)"><path class="background" aria-hidden="true" d="M0,0h800v400h-800Z"/><g><g class="mark-line role-mark layer_1_layer_9_marks" role="graphics-symbol" aria-roledescription="line mark container"><path d="M26.666666666666668,291.84000000000003L53.333333333333336,271.08L80,227.8L106.66666666666667,175L133.33333333333331,149.52L160,120.56L186.66666666666666,115.11999999999998L213.33333333333334,99.52000000000001L240,89.27999999999999L266.66666666666663,82.56000000000002L293.3333333333333,79.88L320,75.76L346.6666666666667,69.28L373.3333333333333,67.56000000000002L400,65.24000000000001L426.6666666666667,63.92000000000002L453.3333333333333,60.959999999999994L480,60.519999999999996L506.66666666666663,56.55999999999999L533.3333333333333,54.879999999999995L560,55.48000000000002L586.6666666666666,55.67999999999999L613.3333333333334,53.359999999999985L640,52.59999999999998L666.6666666666667,50.44L693.3333333333334,49.40000000000002L720,48.720000000000006L746.6666666666666,48.32000000000001L773.3333333333334,46.43999999999999L800,46.95999999999998" stroke="#ffff00" stroke-width="12.5" opacity="0.05"/></g></g><path class="foreground" aria-hidden="true" d="" display="none"/></g><g transform="translate(0,0)"><path class="background" aria-hidden="true" d="M0,0h800v400h-800Z"/><g><g class="mark-line role-mark layer_1_layer_9_marks" role="graphics-symbol" aria-roledescription="line mark container"><path d="M26.666666666666668,296.56L53.333333333333336,275.2L80,194.84L106.66666666666667,131.12L133.33333333333331,101.32L160,65.32L186.66666666666666,59.60000000000001L213.33333333333334,47.35999999999998L240,42.119999999999976L266.66666666666663,33.68000000000002L293.3333333333333,31.36000000000001L320,29.11999999999999L346.6666666666667,25.47999999999999L373.3333333333333,24.35999999999998L400,23.55999999999998L426.6666666666667,23.760000000000005L453.3333333333333,22.840000000000018L480,22.75999999999998L506.66666666666663,21.47999999999999L533.3333333333333,21.47999999999999L560,21.28000000000001L586.6666666666666,20.040000000000013L613.3333333333334,20.000000000000018L640,20.16L666.6666666666667,19.519999999999982L693.3333333333334,18.31999999999998L720,18.279999999999987L746.6666666666666,17.960000000000022L773.3333333333334,18.199999999999996L800,18.040000000000013" stroke="#FF0000" stroke-width="12.5" opacity="0.05"/></g></g><path class="foreground" aria-hidden="true" d="" display="none"/></g><g transform="translate(0,0)"><path class="background" aria-hidden="true" d="M0,0h800v400h-800Z"/><g><g class="mark-line role-mark layer_1_layer_9_marks" role="graphics-symbol" aria-roledescription="line mark container"><path d="M26.666666666666668,283.6L53.333333333333336,268.03999999999996L80,200.07999999999998L106.66666666666667,152.92L133.33333333333331,127.84L160,107.32L186.66666666666666,105.32L213.33333333333334,95.63999999999999L240,88.92000000000002L266.66666666666663,85.16L293.3333333333333,85.44L320,83.63999999999999L346.6666666666667,79.44L373.3333333333333,76.96000000000001L400,76.35999999999999L426.6666666666667,73.11999999999999L453.3333333333333,73.11999999999999L480,73.95999999999998L506.66666666666663,71.20000000000002L533.3333333333333,71.91999999999999L560,72.2L586.6666666666666,73.47999999999999L613.3333333333334,73.8L640,74.12L666.6666666666667,74.75999999999998L693.3333333333334,73.68L720,75.32000000000001L746.6666666666666,75.72000000000001L773.3333333333334,77.64000000000001L800,78.56" stroke="#5f249f" stroke-width="12.5" opacity="0.05"/></g></g><path class="foreground" aria-hidden="true" d="" display="none"/></g><g transform="translate(0,0)"><path class="background" aria-hidden="true" d="M0,0h800v400h-800Z"/><g><g class="mark-line role-mark layer_1_layer_9_marks" role="graphics-symbol" aria-roledescription="line mark container"><path d="M26.666666666666668,309.64L53.333333333333336,287.15999999999997L80,217.19999999999996L106.66666666666667,157.48000000000002L133.33333333333331,129.36L160,95.75999999999998L186.66666666666666,91.67999999999998L213.33333333333334,79.72000000000001L240,76.32L266.66666666666663,71.44L293.3333333333333,70.19999999999999L320,67.96000000000002L346.6666666666667,64.27999999999999L373.3333333333333,63.28L400,62.88L426.6666666666667,63.039999999999985L453.3333333333333,61.83999999999998L480,61.479999999999976L506.66666666666663,62.27999999999998L533.3333333333333,60.15999999999999L560,60.400000000000006L586.6666666666666,60.59999999999999L613.3333333333334,61.39999999999999L640,57.920000000000016L666.6666666666667,62.23999999999998L693.3333333333334,60.00000000000001L720,61.16000000000001L746.6666666666666,59.399999999999984L773.3333333333334,61.79999999999999L800,60.919999999999995" stroke="#228C22" stroke-width="12.5" opacity="0.05"/></g></g><path class="foreground" aria-hidden="true" d="" display="none"/></g></g><g class="mark-group role-legend" role="graphics-symbol" aria-roledescription="legend" aria-label="Symbol legend titled 'PCAs' for fill color and stroke color with 5 values: DecisionTree, GausianNB, KNN, LinearSVC, RandomForest"><g transform="translate(831,0)"><path class="background" aria-hidden="true" d="M0,0h83v93h-83Z" pointer-events="none"/><g><g class="mark-group role-legend-entry"><g transform="translate(0,16)"><path class="background" aria-hidden="true" d="M0,0h0v0h0Z" pointer-events="none"/><g><g class="mark-group role-scope" role="graphics-object" aria-roledescription="group mark container"><g transform="translate(0,0)"><path class="background" aria-hidden="true" d="M0,0h82.1376953125v12.5h-82.1376953125Z" pointer-events="none" opacity="1"/><g><g class="mark-symbol role-legend-symbol" pointer-events="none"><path transform="translate(6,6)" d="M5,0A5,5,0,1,1,-5,0A5,5,0,1,1,5,0" fill="#228C22" fill-opacity="0.4" stroke="#228C22" stroke-width="1.5" opacity="0.7"/></g><g class="mark-text role-legend-label" pointer-events="none"><text text-anchor="start" transform="translate(16,9)" font-family="sans-serif" font-size="10px" fill="#444444" opacity="1">DecisionTree</text></g></g><path class="foreground" aria-hidden="true" d="" pointer-events="none" display="none"/></g><g transform="translate(0,16)"><path class="background" aria-hidden="true" d="M0,0h82.1376953125v12.5h-82.1376953125Z" pointer-events="none" opacity="1"/><g><g class="mark-symbol role-legend-symbol" pointer-events="none"><path transform="translate(6,6)" d="M5,0A5,5,0,1,1,-5,0A5,5,0,1,1,5,0" fill="#5f249f" fill-opacity="0.4" stroke="#5f249f" stroke-width="1.5" opacity="0.7"/></g><g class="mark-text role-legend-label" pointer-events="none"><text text-anchor="start" transform="translate(16,9)" font-family="sans-serif" font-size="10px" fill="#444444" opacity="1">GausianNB</text></g></g><path class="foreground" aria-hidden="true" d="" pointer-events="none" display="none"/></g><g transform="translate(0,32)"><path class="background" aria-hidden="true" d="M0,0h82.1376953125v12.5h-82.1376953125Z" pointer-events="none" opacity="1"/><g><g class="mark-symbol role-legend-symbol" pointer-events="none"><path transform="translate(6,6)" d="M5,0A5,5,0,1,1,-5,0A5,5,0,1,1,5,0" fill="#FF0000" fill-opacity="0.4" stroke="#FF0000" stroke-width="1.5" opacity="0.7"/></g><g class="mark-text role-legend-label" pointer-events="none"><text text-anchor="start" transform="translate(16,9)" font-family="sans-serif" font-size="10px" fill="#444444" opacity="1">KNN</text></g></g><path class="foreground" aria-hidden="true" d="" pointer-events="none" display="none"/></g><g transform="translate(0,48)"><path class="background" aria-hidden="true" d="M0,0h82.1376953125v12.5h-82.1376953125Z" pointer-events="none" opacity="1"/><g><g class="mark-symbol role-legend-symbol" pointer-events="none"><path transform="translate(6,6)" d="M5,0A5,5,0,1,1,-5,0A5,5,0,1,1,5,0" fill="#ffff00" fill-opacity="0.4" stroke="#ffff00" stroke-width="1.5" opacity="0.7"/></g><g class="mark-text role-legend-label" pointer-events="none"><text text-anchor="start" transform="translate(16,9)" font-family="sans-serif" font-size="10px" fill="#444444" opacity="1">LinearSVC</text></g></g><path class="foreground" aria-hidden="true" d="" pointer-events="none" display="none"/></g><g transform="translate(0,64)"><path class="background" aria-hidden="true" d="M0,0h82.1376953125v12.5h-82.1376953125Z" pointer-events="none" opacity="1"/><g><g class="mark-symbol role-legend-symbol" pointer-events="none"><path transform="translate(6,6)" d="M5,0A5,5,0,1,1,-5,0A5,5,0,1,1,5,0" fill="#00FFFF" fill-opacity="0.4" stroke="#00FFFF" stroke-width="1.5" opacity="0.7"/></g><g class="mark-text role-legend-label" pointer-events="none"><text text-anchor="start" transform="translate(16,9)" font-family="sans-serif" font-size="10px" fill="#444444" opacity="1">RandomForest</text></g></g><path class="foreground" aria-hidden="true" d="" pointer-events="none" display="none"/></g></g></g><path class="foreground" aria-hidden="true" d="" pointer-events="none" display="none"/></g></g><g class="mark-text role-legend-title" pointer-events="none"><text text-anchor="start" transform="translate(0,9)" font-family="sans-serif" font-size="11px" font-weight="bold" fill="#444444" opacity="1">PCAs</text></g></g><path class="foreground" aria-hidden="true" d="" pointer-events="none" display="none"/></g></g></g><path class="foreground" aria-hidden="true" d="" display="none"/></g></g></g></svg>