<svg xmlns="http://www.w3.org/2000/svg" xmlns:xlink="http://www.w3.org/1999/xlink" version="1.1" class="marks" width="958" height="447" viewBox="0 0 958 447"><rect width="958" height="447" fill="#efefef"/><g fill="none" stroke-miterlimit="10" transform="translate(39,10)"><g class="mark-group role-frame root" role="graphics-object" aria-roledescription="group mark container"><g transform="translate(0,0)"><path class="background" aria-hidden="true" d="M0.5,0.5h800v400h-800Z" stroke="#ddd"/><g><g class="mark-group role-axis" role="graphics-symbol" aria-roledescription="axis" aria-label="X-axis for a linear scale with values from 0 to 30"><g transform="translate(0.5,400.5)"><path class="background" aria-hidden="true" d="M0,0h0v0h0Z" pointer-events="none"/><g><g class="mark-rule role-axis-grid" pointer-events="none"><line transform="translate(0,-400)" x2="0" y2="400" stroke="#ffffff" stroke-width="1" opacity="1"/><line transform="translate(53,-400)" x2="0" y2="400" stroke="#ffffff" stroke-width="1" opacity="1"/><line transform="translate(107,-400)" x2="0" y2="400" stroke="#ffffff" stroke-width="1" opacity="1"/><line transform="translate(160,-400)" x2="0" y2="400" stroke="#ffffff" stroke-width="1" opacity="1"/><line transform="translate(213,-400)" x2="0" y2="400" stroke="#ffffff" stroke-width="1" opacity="1"/><line transform="translate(267,-400)" x2="0" y2="400" stroke="#ffffff" stroke-width="1" opacity="1"/><line transform="translate(320,-400)" x2="0" y2="400" stroke="#ffffff" stroke-width="1" opacity="1"/><line transform="translate(373,-400)" x2="0" y2="400" stroke="#ffffff" stroke-width="1" opacity="1"/><line transform="translate(427,-400)" x2="0" y2="400" stroke="#ffffff" stroke-width="1" opacity="1"/><line transform="translate(480,-400)" x2="0" y2="400" stroke="#ffffff" stroke-width="1" opacity="1"/><line transform="translate(533,-400)" x2="0" y2="400" stroke="#ffffff" stroke-width="1" opacity="1"/><line transform="translate(587,-400)" x2="0" y2="400" stroke="#ffffff" stroke-width="1" opacity="1"/><line transform="translate(640,-400)" x2="0" y2="400" stroke="#ffffff" stroke-width="1" opacity="1"/><line transform="translate(693,-400)" x2="0" y2="400" stroke="#ffffff" stroke-width="1" opacity="1"/><line transform="translate(747,-400)" x2="0" y2="400" stroke="#ffffff" stroke-width="1" opacity="1"/><line transform="translate(800,-400)" x2="0" y2="400" stroke="#ffffff" stroke-width="1" opacity="1"/></g></g><path class="foreground" aria-hidden="true" d="" pointer-events="none" display="none"/></g></g><g class="mark-group role-axis" role="graphics-symbol" aria-roledescription="axis" aria-label="Y-axis for a linear scale with values from 0 to 16"><g transform="translate(0.5,0.5)"><path class="background" aria-hidden="true" d="M0,0h0v0h0Z" pointer-events="none"/><g><g class="mark-rule role-axis-grid" pointer-events="none"><line transform="translate(0,400)" x2="800" y2="0" stroke="#ffffff" stroke-width="1" opacity="1"/><line transform="translate(0,350)" x2="800" y2="0" stroke="#ffffff" stroke-width="1" opacity="1"/><line transform="translate(0,300)" x2="800" y2="0" stroke="#ffffff" stroke-width="1" opacity="1"/><line transform="translate(0,250)" x2="800" y2="0" stroke="#ffffff" stroke-width="1" opacity="1"/><line transform="translate(0,200)" x2="800" y2="0" stroke="#ffffff" stroke-width="1" opacity="1"/><line transform="translate(0,150)" x2="800" y2="0" stroke="#ffffff" stroke-width="1" opacity="1"/><line transform="translate(0,100)" x2="800" y2="0" stroke="#ffffff" stroke-width="1" opacity="1"/><line transform="translate(0,50)" x2="800" y2="0" stroke="#ffffff" stroke-width="1" opacity="1"/><line transform="translate(0,0)" x2="800" y2="0" stroke="#ffffff" stroke-width="1" opacity="1"/></g></g><path class="foreground" aria-hidden="true" d="" pointer-events="none" display="none"/></g></g><g class="mark-group role-axis" role="graphics-symbol" aria-roledescription="axis" aria-label="X-axis titled 'Number of Components' for a linear scale with values from 0 to 30"><g transform="translate(0.5,400.5)"><path class="background" aria-hidden="true" d="M0,0h0v0h0Z" pointer-events="none"/><g><g class="mark-rule role-axis-tick" pointer-events="none"><line transform="translate(0,0)" x2="0" y2="5" stroke-width="1" opacity="1"/><line transform="translate(53,0)" x2="0" y2="5" stroke-width="1" opacity="1"/><line transform="translate(107,0)" x2="0" y2="5" stroke-width="1" opacity="1"/><line transform="translate(160,0)" x2="0" y2="5" stroke-width="1" opacity="1"/><line transform="translate(213,0)" x2="0" y2="5" stroke-width="1" opacity="1"/><line transform="translate(267,0)" x2="0" y2="5" stroke-width="1" opacity="1"/><line transform="translate(320,0)" x2="0" y2="5" stroke-width="1" opacity="1"/><line transform="translate(373,0)" x2="0" y2="5" stroke-width="1" opacity="1"/><line transform="translate(427,0)" x2="0" y2="5" stroke-width="1" opacity="1"/><line transform="translate(480,0)" x2="0" y2="5" stroke-width="1" opacity="1"/><line transform="translate(533,0)" x2="0" y2="5" stroke-width="1" opacity="1"/><line transform="translate(587,0)" x2="0" y2="5" stroke-width="1" opacity="1"/><line transform="translate(640,0)" x2="0" y2="5" stroke-width="1" opacity="1"/><line transform="translate(693,0)" x2="0" y2="5" stroke-width="1" opacity="1"/><line transform="translate(747,0)" x2="0" y2="5" stroke-width="1" opacity="1"/><line transform="translate(800,0)" x2="0" y2="5" stroke-width="1" opacity="1"/></g><g class="mark-text role-axis-label" pointer-events="none"><text text-anchor="start" transform="translate(0,15)" font-family="sans-serif" font-size="10px" fill="#444444" opacity="1">0</text><text text-anchor="middle" transform="translate(53.333333333333336,15)" font-family="sans-serif" font-size="10px" fill="#444444" opacity="1">2</text><text text-anchor="middle" transform="translate(106.66666666666667,15)" font-family="sans-serif" font-size="10px" fill="#444444" opacity="1">4</text><text text-anchor="middle" transform="translate(160,15)" font-family="sans-serif" font-size="10px" fill="#444444" opacity="1">6</text><text text-anchor="middle" transform="translate(213.33333333333334,15)" font-family="sans-serif" font-size="10px" fill="#444444" opacity="1">8</text><text text-anchor="middle" transform="translate(266.66666666666663,15)" font-family="sans-serif" font-size="10px" fill="#444444" opacity="1">10</text><text text-anchor="middle" transform="translate(320,15)" font-family="sans-serif" font-size="10px" fill="#444444" opacity="1">12</text><text text-anchor="middle" transform="translate(373.3333333333333,15)" font-family="sans-serif" font-size="10px" fill="#444444" opacity="1">14</text><text text-anchor="middle" transform="translate(426.6666666666667,15)" font-family="sans-serif" font-size="10px" fill="#444444" opacity="1">16</text><text text-anchor="middle" transform="translate(480,15)" font-family="sans-serif" font-size="10px" fill="#444444" opacity="1">18</text><text text-anchor="middle" transform="translate(533.3333333333333,15)" font-family="sans-serif" font-size="10px" fill="#444444" opacity="1">20</text><text text-anchor="middle" transform="translate(586.6666666666666,15)" font-family="sans-serif" font-size="10px" fill="#444444" opacity="1">22</text><text text-anchor="middle" transform="translate(640,15)" font-family="sans-serif" font-size="10px" fill="#444444" opacity="1">24</text><text text-anchor="middle" transform="translate(693.3333333333334,15)" font-family="sans-serif" font-size="10px" fill="#444444" opacity="1">26</text><text text-anchor="middle" transform="translate(746.6666666666666,15)" font-family="sans-serif" font-size="10px" fill="#444444" opacity="1">28</text><text text-anchor="end" transform="translate(800,15)" font-family="sans-serif" font-size="10px" fill="#444444" opacity="1">30</text></g><g class="mark-rule role-axis-domain" pointer-events="none"><line transform="translate(0,0)" x2="800" y2="0" stroke-width="1" opacity="1"/></g><g class="mark-text role-axis-title" pointer-events="none"><text text-anchor="middle" transform="translate(400,30)" font-family="sans-serif" font-size="11px" font-weight="bold" fill="#444444" opacity="1">Number of Components</text></g></g><path class="foreground" aria-hidden="true" d="" pointer-events="none" display="none"/></g></g><g class="mark-group role-axis" role="graphics-symbol" aria-roledescription="axis" aria-label="Y-axis titled 'Time in seconds' for a linear scale with values from 0 to 16"><g transform="translate(0.5,0.5)"><path class="background" aria-hidden="true" d="M0,0h0v0h0Z" pointer-events="none"/><g><g class="mark-rule role-axis-tick" pointer-events="none"><line transform="translate(0,400)" x2="-5" y2="0" stroke-width="1" opacity="1"/><line transform="translate(0,350)" x2="-5" y2="0" stroke-width="1" opacity="1"/><line transform="translate(0,300)" x2="-5" y2="0" stroke-width="1" opacity="1"/><line transform="translate(0,250)" x2="-5" y2="0" stroke-width="1" opacity="1"/><line transform="translate(0,200)" x2="-5" y2="0" stroke-width="1" opacity="1"/><line transform="translate(0,150)" x2="-5" y2="0" stroke-width="1" opacity="1"/><line transform="translate(0,100)" x2="-5" y2="0" stroke-width="1" opacity="1"/><line transform="translate(0,50)" x2="-5" y2="0" stroke-width="1" opacity="1"/><line transform="translate(0,0)" x2="-5" y2="0" stroke-width="1" opacity="1"/></g><g class="mark-text role-axis-label" pointer-events="none"><text text-anchor="end" transform="translate(-7,403)" font-family="sans-serif" font-size="10px" fill="#444444" opacity="1">0</text><text text-anchor="end" transform="translate(-7,353)" font-family="sans-serif" font-size="10px" fill="#444444" opacity="1">2</text><text text-anchor="end" transform="translate(-7,303)" font-family="sans-serif" font-size="10px" fill="#444444" opacity="1">4</text><text text-anchor="end" transform="translate(-7,253)" font-family="sans-serif" font-size="10px" fill="#444444" opacity="1">6</text><text text-anchor="end" transform="translate(-7,203)" font-family="sans-serif" font-size="10px" fill="#444444" opacity="1">8</text><text text-anchor="end" transform="translate(-7,153)" font-family="sans-serif" font-size="10px" fill="#444444" opacity="1">10</text><text text-anchor="end" transform="translate(-7,103)" font-family="sans-serif" font-size="10px" fill="#444444" opacity="1">12</text><text text-anchor="end" transform="translate(-7,53)" font-family="sans-serif" font-size="10px" fill="#444444" opacity="1">14</text><text text-anchor="end" transform="translate(-7,3)" font-family="sans-serif" font-size="10px" fill="#444444" opacity="1">16</text></g><g class="mark-rule role-axis-domain" pointer-events="none"><line transform="translate(0,400)" x2="0" y2="-400" stroke-width="1" opacity="1"/></g><g class="mark-text role-axis-title" pointer-events="none"><text text-anchor="middle" transform="translate(-22.123046875,200) rotate(-90) translate(0,-2)" font-family="sans-serif" font-size="11px" font-weight="bold" fill="#444444" opacity="1">Time in seconds</text></g></g><path class="foreground" aria-hidden="true" d="" pointer-events="none" display="none"/></g></g><g class="mark-group role-scope layer_0_layer_0_pathgroup" role="graphics-object" aria-roledescription="group mark container"><g transform="translate(0,0)"><path class="background" aria-hidden="true" d="M0,0h800v400h-800Z"/><g><g class="mark-area role-mark layer_0_layer_0_marks" role="graphics-symbol" aria-roledescription="area mark container"><path d="M26.666666666666668,387.60995864868164L53.333333333333336,391.0368621349335L80,392.55024790763855L106.66666666666667,393.17078590393066L133.33333333333331,393.67247223854065L160,394.20215487480164L186.66666666666666,394.06687021255493L213.33333333333334,394.28274035453796L240,394.3527162075043L266.66666666666663,394.46826577186584L293.3333333333333,394.4961905479431L320,394.33706998825073L346.6666666666667,394.3279266357422L373.3333333333333,394.3819284439087L400,394.37113404273987L426.6666666666667,394.40574049949646L453.3333333333333,394.5510745048523L480,378.00166606903076L506.66666666666663,394.33499574661255L533.3333333333333,394.41792368888855L560,394.04057264328003L586.6666666666666,394.2538857460022L613.3333333333334,393.65159273147583L640,393.9851939678192L666.6666666666667,392.73258447647095L693.3333333333334,394.15446519851685L720,394.117796421051L746.6666666666666,394.1236734390259L773.3333333333334,394.2393898963928L800,394.2943215370178L800,400L773.3333333333334,400L746.6666666666666,400L720,400L693.3333333333334,400L666.6666666666667,400L640,400L613.3333333333334,400L586.6666666666666,400L560,400L533.3333333333333,400L506.66666666666663,400L480,400L453.3333333333333,400L426.6666666666667,400L400,400L373.3333333333333,400L346.6666666666667,400L320,400L293.3333333333333,400L266.66666666666663,400L240,400L213.33333333333334,400L186.66666666666666,400L160,400L133.33333333333331,400L106.66666666666667,400L80,400L53.333333333333336,400L26.666666666666668,400Z" fill="#00FFFF" fill-opacity="0.4" opacity="0.7"/></g></g><path class="foreground" aria-hidden="true" d="" display="none"/></g><g transform="translate(0,0)"><path class="background" aria-hidden="true" d="M0,0h800v400h-800Z"/><g><g class="mark-area role-mark layer_0_layer_0_marks" role="graphics-symbol" aria-roledescription="area mark container"><path d="M26.666666666666668,399.94635581970215L53.333333333333336,399.9474048614502L80,399.91113543510437L106.66666666666667,399.9140202999115L133.33333333333331,399.91483092308044L160,399.5659530162811L186.66666666666666,399.90482330322266L213.33333333333334,399.70070123672485L240,399.89949464797974L266.66666666666663,399.89821314811707L293.3333333333333,399.90307092666626L320,399.9025762081146L346.6666666666667,399.903804063797L373.3333333333333,399.90147948265076L400,399.9077260494232L426.6666666666667,399.7069239616394L453.3333333333333,399.89891052246094L480,399.7011065483093L506.66666666666663,399.7034788131714L533.3333333333333,399.88914132118225L560,399.89773631095886L586.6666666666666,399.8959243297577L613.3333333333334,399.8745799064636L640,399.8932421207428L666.6666666666667,399.9024569988251L693.3333333333334,399.89171624183655L720,399.6948778629303L746.6666666666666,399.8997926712036L773.3333333333334,399.8907446861267L800,399.8826026916504L800,400L773.3333333333334,400L746.6666666666666,400L720,400L693.3333333333334,400L666.6666666666667,400L640,400L613.3333333333334,400L586.6666666666666,400L560,400L533.3333333333333,400L506.66666666666663,400L480,400L453.3333333333333,400L426.6666666666667,400L400,400L373.3333333333333,400L346.6666666666667,400L320,400L293.3333333333333,400L266.66666666666663,400L240,400L213.33333333333334,400L186.66666666666666,400L160,400L133.33333333333331,400L106.66666666666667,400L80,400L53.333333333333336,400L26.666666666666668,400Z" fill="#ffff00" fill-opacity="0.4" opacity="0.7"/></g></g><path class="foreground" aria-hidden="true" d="" display="none"/></g><g transform="translate(0,0)"><path class="background" aria-hidden="true" d="M0,0h800v400h-800Z"/><g><g class="mark-area role-mark layer_0_layer_0_marks" role="graphics-symbol" aria-roledescription="area mark container"><path d="M26.666666666666668,393.22230219841003L53.333333333333336,392.44624972343445L80,392.26295948028564L106.66666666666667,391.27721786499023L133.33333333333331,387.3674809932709L160,380.3878664970398L186.66666666666666,385.9544634819031L213.33333333333334,378.93855571746826L240,374.121630191803L266.66666666666663,366.4550542831421L293.3333333333333,360.28725504875183L320,345.5333113670349L346.6666666666667,340.5131995677948L373.3333333333333,323.4425187110901L400,304.59311604499817L426.6666666666667,40.79194664955139L453.3333333333333,179.23986911773682L480,179.9830675125122L506.66666666666663,177.10696458816528L533.3333333333333,154.90424633026123L560,177.17888951301575L586.6666666666666,103.48283052444458L613.3333333333334,170.91383934020996L640,86.28447651863098L666.6666666666667,145.97644805908203L693.3333333333334,149.94049072265625L720,122.01186418533325L746.6666666666666,164.38264846801758L773.3333333333334,170.23229002952576L800,161.37678623199463L800,400L773.3333333333334,400L746.6666666666666,400L720,400L693.3333333333334,400L666.6666666666667,400L640,400L613.3333333333334,400L586.6666666666666,400L560,400L533.3333333333333,400L506.66666666666663,400L480,400L453.3333333333333,400L426.6666666666667,400L400,400L373.3333333333333,400L346.6666666666667,400L320,400L293.3333333333333,400L266.66666666666663,400L240,400L213.33333333333334,400L186.66666666666666,400L160,400L133.33333333333331,400L106.66666666666667,400L80,400L53.333333333333336,400L26.666666666666668,400Z" fill="#FF0000" fill-opacity="0.4" opacity="0.7"/></g></g><path class="foreground" aria-hidden="true" d="" display="none"/></g><g transform="translate(0,0)"><path class="background" aria-hidden="true" d="M0,0h800v400h-800Z"/><g><g class="mark-area role-mark layer_0_layer_0_marks" role="graphics-symbol" aria-roledescription="area mark container"><path d="M26.666666666666668,399.9554932117462L53.333333333333336,399.8627483844757L80,399.8804986476898L106.66666666666667,399.86430406570435L133.33333333333331,399.86761808395386L160,399.81070160865784L186.66666666666666,399.8500168323517L213.33333333333334,399.855101108551L240,399.83848333358765L266.66666666666663,399.83465671539307L293.3333333333333,399.8222529888153L320,399.8175024986267L346.6666666666667,399.81165528297424L373.3333333333333,399.80475306510925L400,399.7114658355713L426.6666666666667,399.786114692688L453.3333333333333,399.6848702430725L480,399.77827072143555L506.66666666666663,399.76757168769836L533.3333333333333,399.7535169124603L560,399.72764253616333L586.6666666666666,399.54655170440674L613.3333333333334,399.6857285499573L640,399.4940757751465L666.6666666666667,399.5834171772003L693.3333333333334,399.6888816356659L720,399.3937075138092L746.6666666666666,399.6964931488037L773.3333333333334,399.70070719718933L800,399.6421217918396L800,400L773.3333333333334,400L746.6666666666666,400L720,400L693.3333333333334,400L666.6666666666667,400L640,400L613.3333333333334,400L586.6666666666666,400L560,400L533.3333333333333,400L506.66666666666663,400L480,400L453.3333333333333,400L426.6666666666667,400L400,400L373.3333333333333,400L346.6666666666667,400L320,400L293.3333333333333,400L266.66666666666663,400L240,400L213.33333333333334,400L186.66666666666666,400L160,400L133.33333333333331,400L106.66666666666667,400L80,400L53.333333333333336,400L26.666666666666668,400Z" fill="#5f249f" fill-opacity="0.4" opacity="0.7"/></g></g><path class="foreground" aria-hidden="true" d="" display="none"/></g><g transform="translate(0,0)"><path class="background" aria-hidden="true" d="M0,0h800v400h-800Z"/><g><g class="mark-area role-mark layer_0_layer_0_marks" role="graphics-symbol" aria-roledescription="area mark container"><path d="M26.666666666666668,399.86485838890076L53.333333333333336,399.85864758491516L80,399.89609122276306L106.66666666666667,399.9106168746948L133.33333333333331,399.91998076438904L160,399.9221742153168L186.66666666666666,399.9224781990051L213.33333333333334,399.92467164993286L240,399.9245345592499L266.66666666666663,399.9234139919281L293.3333333333333,399.91952180862427L320,399.92477893829346L346.6666666666667,399.92201924324036L373.3333333333333,399.92392659187317L400,399.9211370944977L426.6666666666667,399.92382526397705L453.3333333333333,399.92014169692993L480,399.9052584171295L506.66666666666663,399.9207377433777L533.3333333333333,399.91857409477234L560,399.92039799690247L586.6666666666666,399.91544485092163L613.3333333333334,399.91544485092163L640,399.9183237552643L666.6666666666667,399.91759061813354L693.3333333333334,399.9010980129242L720,399.92029666900635L746.6666666666666,399.9148488044739L773.3333333333334,399.4533836841583L800,399.9138832092285L800,400L773.3333333333334,400L746.6666666666666,400L720,400L693.3333333333334,400L666.6666666666667,400L640,400L613.3333333333334,400L586.6666666666666,400L560,400L533.3333333333333,400L506.66666666666663,400L480,400L453.3333333333333,400L426.6666666666667,400L400,400L373.3333333333333,400L346.6666666666667,400L320,400L293.3333333333333,400L266.66666666666663,400L240,400L213.33333333333334,400L186.66666666666666,400L160,400L133.33333333333331,400L106.66666666666667,400L80,400L53.333333333333336,400L26.666666666666668,400Z" fill="#228C22" fill-opacity="0.4" opacity="0.7"/></g></g><path class="foreground" aria-hidden="true" d="" display="none"/></g></g><g class="mark-group role-scope layer_0_layer_1_pathgroup" role="graphics-object" aria-roledescription="group mark container"><g transform="translate(0,0)"><path class="background" aria-hidden="true" d="M0,0h800v400h-800Z"/><g><g class="mark-line role-mark layer_0_layer_1_marks" role="graphics-symbol" aria-roledescription="line mark container"><path d="M26.666666666666668,387.60995864868164L53.333333333333336,391.0368621349335L80,392.55024790763855L106.66666666666667,393.17078590393066L133.33333333333331,393.67247223854065L160,394.20215487480164L186.66666666666666,394.06687021255493L213.33333333333334,394.28274035453796L240,394.3527162075043L266.66666666666663,394.46826577186584L293.3333333333333,394.4961905479431L320,394.33706998825073L346.6666666666667,394.3279266357422L373.3333333333333,394.3819284439087L400,394.37113404273987L426.6666666666667,394.40574049949646L453.3333333333333,394.5510745048523L480,378.00166606903076L506.66666666666663,394.33499574661255L533.3333333333333,394.41792368888855L560,394.04057264328003L586.6666666666666,394.2538857460022L613.3333333333334,393.65159273147583L640,393.9851939678192L666.6666666666667,392.73258447647095L693.3333333333334,394.15446519851685L720,394.117796421051L746.6666666666666,394.1236734390259L773.3333333333334,394.2393898963928L800,394.2943215370178" stroke="#00FFFF" stroke-width="2"/></g></g><path class="foreground" aria-hidden="true" d="" display="none"/></g><g transform="translate(0,0)"><path class="background" aria-hidden="true" d="M0,0h800v400h-800Z"/><g><g class="mark-line role-mark layer_0_layer_1_marks" role="graphics-symbol" aria-roledescription="line mark container"><path d="M26.666666666666668,399.94635581970215L53.333333333333336,399.9474048614502L80,399.91113543510437L106.66666666666667,399.9140202999115L133.33333333333331,399.91483092308044L160,399.5659530162811L186.66666666666666,399.90482330322266L213.33333333333334,399.70070123672485L240,399.89949464797974L266.66666666666663,399.89821314811707L293.3333333333333,399.90307092666626L320,399.9025762081146L346.6666666666667,399.903804063797L373.3333333333333,399.90147948265076L400,399.9077260494232L426.6666666666667,399.7069239616394L453.3333333333333,399.89891052246094L480,399.7011065483093L506.66666666666663,399.7034788131714L533.3333333333333,399.88914132118225L560,399.89773631095886L586.6666666666666,399.8959243297577L613.3333333333334,399.8745799064636L640,399.8932421207428L666.6666666666667,399.9024569988251L693.3333333333334,399.89171624183655L720,399.6948778629303L746.6666666666666,399.8997926712036L773.3333333333334,399.8907446861267L800,399.8826026916504" stroke="#ffff00" stroke-width="2"/></g></g><path class="foreground" aria-hidden="true" d="" display="none"/></g><g transform="translate(0,0)"><path class="background" aria-hidden="true" d="M0,0h800v400h-800Z"/><g><g class="mark-line role-mark layer_0_layer_1_marks" role="graphics-symbol" aria-roledescription="line mark container"><path d="M26.666666666666668,393.22230219841003L53.333333333333336,392.44624972343445L80,392.26295948028564L106.66666666666667,391.27721786499023L133.33333333333331,387.3674809932709L160,380.3878664970398L186.66666666666666,385.9544634819031L213.33333333333334,378.93855571746826L240,374.121630191803L266.66666666666663,366.4550542831421L293.3333333333333,360.28725504875183L320,345.5333113670349L346.6666666666667,340.5131995677948L373.3333333333333,323.4425187110901L400,304.59311604499817L426.6666666666667,40.79194664955139L453.3333333333333,179.23986911773682L480,179.9830675125122L506.66666666666663,177.10696458816528L533.3333333333333,154.90424633026123L560,177.17888951301575L586.6666666666666,103.48283052444458L613.3333333333334,170.91383934020996L640,86.28447651863098L666.6666666666667,145.97644805908203L693.3333333333334,149.94049072265625L720,122.01186418533325L746.6666666666666,164.38264846801758L773.3333333333334,170.23229002952576L800,161.37678623199463" stroke="#FF0000" stroke-width="2"/></g></g><path class="foreground" aria-hidden="true" d="" display="none"/></g><g transform="translate(0,0)"><path class="background" aria-hidden="true" d="M0,0h800v400h-800Z"/><g><g class="mark-line role-mark layer_0_layer_1_marks" role="graphics-symbol" aria-roledescription="line mark container"><path d="M26.666666666666668,399.9554932117462L53.333333333333336,399.8627483844757L80,399.8804986476898L106.66666666666667,399.86430406570435L133.33333333333331,399.86761808395386L160,399.81070160865784L186.66666666666666,399.8500168323517L213.33333333333334,399.855101108551L240,399.83848333358765L266.66666666666663,399.83465671539307L293.3333333333333,399.8222529888153L320,399.8175024986267L346.6666666666667,399.81165528297424L373.3333333333333,399.80475306510925L400,399.7114658355713L426.6666666666667,399.786114692688L453.3333333333333,399.6848702430725L480,399.77827072143555L506.66666666666663,399.76757168769836L533.3333333333333,399.7535169124603L560,399.72764253616333L586.6666666666666,399.54655170440674L613.3333333333334,399.6857285499573L640,399.4940757751465L666.6666666666667,399.5834171772003L693.3333333333334,399.6888816356659L720,399.3937075138092L746.6666666666666,399.6964931488037L773.3333333333334,399.70070719718933L800,399.6421217918396" stroke="#5f249f" stroke-width="2"/></g></g><path class="foreground" aria-hidden="true" d="" display="none"/></g><g transform="translate(0,0)"><path class="background" aria-hidden="true" d="M0,0h800v400h-800Z"/><g><g class="mark-line role-mark layer_0_layer_1_marks" role="graphics-symbol" aria-roledescription="line mark container"><path d="M26.666666666666668,399.86485838890076L53.333333333333336,399.85864758491516L80,399.89609122276306L106.66666666666667,399.9106168746948L133.33333333333331,399.91998076438904L160,399.9221742153168L186.66666666666666,399.9224781990051L213.33333333333334,399.92467164993286L240,399.9245345592499L266.66666666666663,399.9234139919281L293.3333333333333,399.91952180862427L320,399.92477893829346L346.6666666666667,399.92201924324036L373.3333333333333,399.92392659187317L400,399.9211370944977L426.6666666666667,399.92382526397705L453.3333333333333,399.92014169692993L480,399.9052584171295L506.66666666666663,399.9207377433777L533.3333333333333,399.91857409477234L560,399.92039799690247L586.6666666666666,399.91544485092163L613.3333333333334,399.91544485092163L640,399.9183237552643L666.6666666666667,399.91759061813354L693.3333333333334,399.9010980129242L720,399.92029666900635L746.6666666666666,399.9148488044739L773.3333333333334,399.4533836841583L800,399.9138832092285" stroke="#228C22" stroke-width="2"/></g></g><path class="foreground" aria-hidden="true" d="" display="none"/></g></g><g class="mark-group role-scope layer_1_layer_0_pathgroup" role="graphics-object" aria-roledescription="group mark container"><g transform="translate(0,0)"><path class="background" aria-hidden="true" d="M0,0h800v400h-800Z"/><g><g class="mark-line role-mark layer_1_layer_0_marks" role="graphics-symbol" aria-roledescription="line mark container"><path d="M26.666666666666668,387.60995864868164L53.333333333333336,391.0368621349335L80,392.55024790763855L106.66666666666667,393.17078590393066L133.33333333333331,393.67247223854065L160,394.20215487480164L186.66666666666666,394.06687021255493L213.33333333333334,394.28274035453796L240,394.3527162075043L266.66666666666663,394.46826577186584L293.3333333333333,394.4961905479431L320,394.33706998825073L346.6666666666667,394.3279266357422L373.3333333333333,394.3819284439087L400,394.37113404273987L426.6666666666667,394.40574049949646L453.3333333333333,394.5510745048523L480,378.00166606903076L506.66666666666663,394.33499574661255L533.3333333333333,394.41792368888855L560,394.04057264328003L586.6666666666666,394.2538857460022L613.3333333333334,393.65159273147583L640,393.9851939678192L666.6666666666667,392.73258447647095L693.3333333333334,394.15446519851685L720,394.117796421051L746.6666666666666,394.1236734390259L773.3333333333334,394.2393898963928L800,394.2943215370178" stroke="#00FFFF" stroke-width="3.05" opacity="0.05"/></g></g><path class="foreground" aria-hidden="true" d="" display="none"/></g><g transform="translate(0,0)"><path class="background" aria-hidden="true" d="M0,0h800v400h-800Z"/><g><g class="mark-line role-mark layer_1_layer_0_marks" role="graphics-symbol" aria-roledescription="line mark container"><path d="M26.666666666666668,399.94635581970215L53.333333333333336,399.9474048614502L80,399.91113543510437L106.66666666666667,399.9140202999115L133.33333333333331,399.91483092308044L160,399.5659530162811L186.66666666666666,399.90482330322266L213.33333333333334,399.70070123672485L240,399.89949464797974L266.66666666666663,399.89821314811707L293.3333333333333,399.90307092666626L320,399.9025762081146L346.6666666666667,399.903804063797L373.3333333333333,399.90147948265076L400,399.9077260494232L426.6666666666667,399.7069239616394L453.3333333333333,399.89891052246094L480,399.7011065483093L506.66666666666663,399.7034788131714L533.3333333333333,399.88914132118225L560,399.89773631095886L586.6666666666666,399.8959243297577L613.3333333333334,399.8745799064636L640,399.8932421207428L666.6666666666667,399.9024569988251L693.3333333333334,399.89171624183655L720,399.6948778629303L746.6666666666666,399.8997926712036L773.3333333333334,399.8907446861267L800,399.8826026916504" stroke="#ffff00" stroke-width="3.05" opacity="0.05"/></g></g><path class="foreground" aria-hidden="true" d="" display="none"/></g><g transform="translate(0,0)"><path class="background" aria-hidden="true" d="M0,0h800v400h-800Z"/><g><g class="mark-line role-mark layer_1_layer_0_marks" role="graphics-symbol" aria-roledescription="line mark container"><path d="M26.666666666666668,393.22230219841003L53.333333333333336,392.44624972343445L80,392.26295948028564L106.66666666666667,391.27721786499023L133.33333333333331,387.3674809932709L160,380.3878664970398L186.66666666666666,385.9544634819031L213.33333333333334,378.93855571746826L240,374.121630191803L266.66666666666663,366.4550542831421L293.3333333333333,360.28725504875183L320,345.5333113670349L346.6666666666667,340.5131995677948L373.3333333333333,323.4425187110901L400,304.59311604499817L426.6666666666667,40.79194664955139L453.3333333333333,179.23986911773682L480,179.9830675125122L506.66666666666663,177.10696458816528L533.3333333333333,154.90424633026123L560,177.17888951301575L586.6666666666666,103.48283052444458L613.3333333333334,170.91383934020996L640,86.28447651863098L666.6666666666667,145.97644805908203L693.3333333333334,149.94049072265625L720,122.01186418533325L746.6666666666666,164.38264846801758L773.3333333333334,170.23229002952576L800,161.37678623199463" stroke="#FF0000" stroke-width="3.05" opacity="0.05"/></g></g><path class="foreground" aria-hidden="true" d="" display="none"/></g><g transform="translate(0,0)"><path class="background" aria-hidden="true" d="M0,0h800v400h-800Z"/><g><g class="mark-line role-mark layer_1_layer_0_marks" role="graphics-symbol" aria-roledescription="line mark container"><path d="M26.666666666666668,399.9554932117462L53.333333333333336,399.8627483844757L80,399.8804986476898L106.66666666666667,399.86430406570435L133.33333333333331,399.86761808395386L160,399.81070160865784L186.66666666666666,399.8500168323517L213.33333333333334,399.855101108551L240,399.83848333358765L266.66666666666663,399.83465671539307L293.3333333333333,399.8222529888153L320,399.8175024986267L346.6666666666667,399.81165528297424L373.3333333333333,399.80475306510925L400,399.7114658355713L426.6666666666667,399.786114692688L453.3333333333333,399.6848702430725L480,399.77827072143555L506.66666666666663,399.76757168769836L533.3333333333333,399.7535169124603L560,399.72764253616333L586.6666666666666,399.54655170440674L613.3333333333334,399.6857285499573L640,399.4940757751465L666.6666666666667,399.5834171772003L693.3333333333334,399.6888816356659L720,399.3937075138092L746.6666666666666,399.6964931488037L773.3333333333334,399.70070719718933L800,399.6421217918396" stroke="#5f249f" stroke-width="3.05" opacity="0.05"/></g></g><path class="foreground" aria-hidden="true" d="" display="none"/></g><g transform="translate(0,0)"><path class="background" aria-hidden="true" d="M0,0h800v400h-800Z"/><g><g class="mark-line role-mark layer_1_layer_0_marks" role="graphics-symbol" aria-roledescription="line mark container"><path d="M26.666666666666668,399.86485838890076L53.333333333333336,399.85864758491516L80,399.89609122276306L106.66666666666667,399.9106168746948L133.33333333333331,399.91998076438904L160,399.9221742153168L186.66666666666666,399.9224781990051L213.33333333333334,399.92467164993286L240,399.9245345592499L266.66666666666663,399.9234139919281L293.3333333333333,399.91952180862427L320,399.92477893829346L346.6666666666667,399.92201924324036L373.3333333333333,399.92392659187317L400,399.9211370944977L426.6666666666667,399.92382526397705L453.3333333333333,399.92014169692993L480,399.9052584171295L506.66666666666663,399.9207377433777L533.3333333333333,399.91857409477234L560,399.92039799690247L586.6666666666666,399.91544485092163L613.3333333333334,399.91544485092163L640,399.9183237552643L666.6666666666667,399.91759061813354L693.3333333333334,399.9010980129242L720,399.92029666900635L746.6666666666666,399.9148488044739L773.3333333333334,399.4533836841583L800,399.9138832092285" stroke="#228C22" stroke-width="3.05" opacity="0.05"/></g></g><path class="foreground" aria-hidden="true" d="" display="none"/></g></g><g class="mark-group role-scope layer_1_layer_1_pathgroup" role="graphics-object" aria-roledescription="group mark container"><g transform="translate(0,0)"><path class="background" aria-hidden="true" d="M0,0h800v400h-800Z"/><g><g class="mark-line role-mark layer_1_layer_1_marks" role="graphics-symbol" aria-roledescription="line mark container"><path d="M26.666666666666668,387.60995864868164L53.333333333333336,391.0368621349335L80,392.55024790763855L106.66666666666667,393.17078590393066L133.33333333333331,393.67247223854065L160,394.20215487480164L186.66666666666666,394.06687021255493L213.33333333333334,394.28274035453796L240,394.3527162075043L266.66666666666663,394.46826577186584L293.3333333333333,394.4961905479431L320,394.33706998825073L346.6666666666667,394.3279266357422L373.3333333333333,394.3819284439087L400,394.37113404273987L426.6666666666667,394.40574049949646L453.3333333333333,394.5510745048523L480,378.00166606903076L506.66666666666663,394.33499574661255L533.3333333333333,394.41792368888855L560,394.04057264328003L586.6666666666666,394.2538857460022L613.3333333333334,393.65159273147583L640,393.9851939678192L666.6666666666667,392.73258447647095L693.3333333333334,394.15446519851685L720,394.117796421051L746.6666666666666,394.1236734390259L773.3333333333334,394.2393898963928L800,394.2943215370178" stroke="#00FFFF" stroke-width="4.1" opacity="0.05"/></g></g><path class="foreground" aria-hidden="true" d="" display="none"/></g><g transform="translate(0,0)"><path class="background" aria-hidden="true" d="M0,0h800v400h-800Z"/><g><g class="mark-line role-mark layer_1_layer_1_marks" role="graphics-symbol" aria-roledescription="line mark container"><path d="M26.666666666666668,399.94635581970215L53.333333333333336,399.9474048614502L80,399.91113543510437L106.66666666666667,399.9140202999115L133.33333333333331,399.91483092308044L160,399.5659530162811L186.66666666666666,399.90482330322266L213.33333333333334,399.70070123672485L240,399.89949464797974L266.66666666666663,399.89821314811707L293.3333333333333,399.90307092666626L320,399.9025762081146L346.6666666666667,399.903804063797L373.3333333333333,399.90147948265076L400,399.9077260494232L426.6666666666667,399.7069239616394L453.3333333333333,399.89891052246094L480,399.7011065483093L506.66666666666663,399.7034788131714L533.3333333333333,399.88914132118225L560,399.89773631095886L586.6666666666666,399.8959243297577L613.3333333333334,399.8745799064636L640,399.8932421207428L666.6666666666667,399.9024569988251L693.3333333333334,399.89171624183655L720,399.6948778629303L746.6666666666666,399.8997926712036L773.3333333333334,399.8907446861267L800,399.8826026916504" stroke="#ffff00" stroke-width="4.1" opacity="0.05"/></g></g><path class="foreground" aria-hidden="true" d="" display="none"/></g><g transform="translate(0,0)"><path class="background" aria-hidden="true" d="M0,0h800v400h-800Z"/><g><g class="mark-line role-mark layer_1_layer_1_marks" role="graphics-symbol" aria-roledescription="line mark container"><path d="M26.666666666666668,393.22230219841003L53.333333333333336,392.44624972343445L80,392.26295948028564L106.66666666666667,391.27721786499023L133.33333333333331,387.3674809932709L160,380.3878664970398L186.66666666666666,385.9544634819031L213.33333333333334,378.93855571746826L240,374.121630191803L266.66666666666663,366.4550542831421L293.3333333333333,360.28725504875183L320,345.5333113670349L346.6666666666667,340.5131995677948L373.3333333333333,323.4425187110901L400,304.59311604499817L426.6666666666667,40.79194664955139L453.3333333333333,179.23986911773682L480,179.9830675125122L506.66666666666663,177.10696458816528L533.3333333333333,154.90424633026123L560,177.17888951301575L586.6666666666666,103.48283052444458L613.3333333333334,170.91383934020996L640,86.28447651863098L666.6666666666667,145.97644805908203L693.3333333333334,149.94049072265625L720,122.01186418533325L746.6666666666666,164.38264846801758L773.3333333333334,170.23229002952576L800,161.37678623199463" stroke="#FF0000" stroke-width="4.1" opacity="0.05"/></g></g><path class="foreground" aria-hidden="true" d="" display="none"/></g><g transform="translate(0,0)"><path class="background" aria-hidden="true" d="M0,0h800v400h-800Z"/><g><g class="mark-line role-mark layer_1_layer_1_marks" role="graphics-symbol" aria-roledescription="line mark container"><path d="M26.666666666666668,399.9554932117462L53.333333333333336,399.8627483844757L80,399.8804986476898L106.66666666666667,399.86430406570435L133.33333333333331,399.86761808395386L160,399.81070160865784L186.66666666666666,399.8500168323517L213.33333333333334,399.855101108551L240,399.83848333358765L266.66666666666663,399.83465671539307L293.3333333333333,399.8222529888153L320,399.8175024986267L346.6666666666667,399.81165528297424L373.3333333333333,399.80475306510925L400,399.7114658355713L426.6666666666667,399.786114692688L453.3333333333333,399.6848702430725L480,399.77827072143555L506.66666666666663,399.76757168769836L533.3333333333333,399.7535169124603L560,399.72764253616333L586.6666666666666,399.54655170440674L613.3333333333334,399.6857285499573L640,399.4940757751465L666.6666666666667,399.5834171772003L693.3333333333334,399.6888816356659L720,399.3937075138092L746.6666666666666,399.6964931488037L773.3333333333334,399.70070719718933L800,399.6421217918396" stroke="#5f249f" stroke-width="4.1" opacity="0.05"/></g></g><path class="foreground" aria-hidden="true" d="" display="none"/></g><g transform="translate(0,0)"><path class="background" aria-hidden="true" d="M0,0h800v400h-800Z"/><g><g class="mark-line role-mark layer_1_layer_1_marks" role="graphics-symbol" aria-roledescription="line mark container"><path d="M26.666666666666668,399.86485838890076L53.333333333333336,399.85864758491516L80,399.89609122276306L106.66666666666667,399.9106168746948L133.33333333333331,399.91998076438904L160,399.9221742153168L186.66666666666666,399.9224781990051L213.33333333333334,399.92467164993286L240,399.9245345592499L266.66666666666663,399.9234139919281L293.3333333333333,399.91952180862427L320,399.92477893829346L346.6666666666667,399.92201924324036L373.3333333333333,399.92392659187317L400,399.9211370944977L426.6666666666667,399.92382526397705L453.3333333333333,399.92014169692993L480,399.9052584171295L506.66666666666663,399.9207377433777L533.3333333333333,399.91857409477234L560,399.92039799690247L586.6666666666666,399.91544485092163L613.3333333333334,399.91544485092163L640,399.9183237552643L666.6666666666667,399.91759061813354L693.3333333333334,399.9010980129242L720,399.92029666900635L746.6666666666666,399.9148488044739L773.3333333333334,399.4533836841583L800,399.9138832092285" stroke="#228C22" stroke-width="4.1" opacity="0.05"/></g></g><path class="foreground" aria-hidden="true" d="" display="none"/></g></g><g class="mark-group role-scope layer_1_layer_2_pathgroup" role="graphics-object" aria-roledescription="group mark container"><g transform="translate(0,0)"><path class="background" aria-hidden="true" d="M0,0h800v400h-800Z"/><g><g class="mark-line role-mark layer_1_layer_2_marks" role="graphics-symbol" aria-roledescription="line mark container"><path d="M26.666666666666668,387.60995864868164L53.333333333333336,391.0368621349335L80,392.55024790763855L106.66666666666667,393.17078590393066L133.33333333333331,393.67247223854065L160,394.20215487480164L186.66666666666666,394.06687021255493L213.33333333333334,394.28274035453796L240,394.3527162075043L266.66666666666663,394.46826577186584L293.3333333333333,394.4961905479431L320,394.33706998825073L346.6666666666667,394.3279266357422L373.3333333333333,394.3819284439087L400,394.37113404273987L426.6666666666667,394.40574049949646L453.3333333333333,394.5510745048523L480,378.00166606903076L506.66666666666663,394.33499574661255L533.3333333333333,394.41792368888855L560,394.04057264328003L586.6666666666666,394.2538857460022L613.3333333333334,393.65159273147583L640,393.9851939678192L666.6666666666667,392.73258447647095L693.3333333333334,394.15446519851685L720,394.117796421051L746.6666666666666,394.1236734390259L773.3333333333334,394.2393898963928L800,394.2943215370178" stroke="#00FFFF" stroke-width="5.15" opacity="0.05"/></g></g><path class="foreground" aria-hidden="true" d="" display="none"/></g><g transform="translate(0,0)"><path class="background" aria-hidden="true" d="M0,0h800v400h-800Z"/><g><g class="mark-line role-mark layer_1_layer_2_marks" role="graphics-symbol" aria-roledescription="line mark container"><path d="M26.666666666666668,399.94635581970215L53.333333333333336,399.9474048614502L80,399.91113543510437L106.66666666666667,399.9140202999115L133.33333333333331,399.91483092308044L160,399.5659530162811L186.66666666666666,399.90482330322266L213.33333333333334,399.70070123672485L240,399.89949464797974L266.66666666666663,399.89821314811707L293.3333333333333,399.90307092666626L320,399.9025762081146L346.6666666666667,399.903804063797L373.3333333333333,399.90147948265076L400,399.9077260494232L426.6666666666667,399.7069239616394L453.3333333333333,399.89891052246094L480,399.7011065483093L506.66666666666663,399.7034788131714L533.3333333333333,399.88914132118225L560,399.89773631095886L586.6666666666666,399.8959243297577L613.3333333333334,399.8745799064636L640,399.8932421207428L666.6666666666667,399.9024569988251L693.3333333333334,399.89171624183655L720,399.6948778629303L746.6666666666666,399.8997926712036L773.3333333333334,399.8907446861267L800,399.8826026916504" stroke="#ffff00" stroke-width="5.15" opacity="0.05"/></g></g><path class="foreground" aria-hidden="true" d="" display="none"/></g><g transform="translate(0,0)"><path class="background" aria-hidden="true" d="M0,0h800v400h-800Z"/><g><g class="mark-line role-mark layer_1_layer_2_marks" role="graphics-symbol" aria-roledescription="line mark container"><path d="M26.666666666666668,393.22230219841003L53.333333333333336,392.44624972343445L80,392.26295948028564L106.66666666666667,391.27721786499023L133.33333333333331,387.3674809932709L160,380.3878664970398L186.66666666666666,385.9544634819031L213.33333333333334,378.93855571746826L240,374.121630191803L266.66666666666663,366.4550542831421L293.3333333333333,360.28725504875183L320,345.5333113670349L346.6666666666667,340.5131995677948L373.3333333333333,323.4425187110901L400,304.59311604499817L426.6666666666667,40.79194664955139L453.3333333333333,179.23986911773682L480,179.9830675125122L506.66666666666663,177.10696458816528L533.3333333333333,154.90424633026123L560,177.17888951301575L586.6666666666666,103.48283052444458L613.3333333333334,170.91383934020996L640,86.28447651863098L666.6666666666667,145.97644805908203L693.3333333333334,149.94049072265625L720,122.01186418533325L746.6666666666666,164.38264846801758L773.3333333333334,170.23229002952576L800,161.37678623199463" stroke="#FF0000" stroke-width="5.15" opacity="0.05"/></g></g><path class="foreground" aria-hidden="true" d="" display="none"/></g><g transform="translate(0,0)"><path class="background" aria-hidden="true" d="M0,0h800v400h-800Z"/><g><g class="mark-line role-mark layer_1_layer_2_marks" role="graphics-symbol" aria-roledescription="line mark container"><path d="M26.666666666666668,399.9554932117462L53.333333333333336,399.8627483844757L80,399.8804986476898L106.66666666666667,399.86430406570435L133.33333333333331,399.86761808395386L160,399.81070160865784L186.66666666666666,399.8500168323517L213.33333333333334,399.855101108551L240,399.83848333358765L266.66666666666663,399.83465671539307L293.3333333333333,399.8222529888153L320,399.8175024986267L346.6666666666667,399.81165528297424L373.3333333333333,399.80475306510925L400,399.7114658355713L426.6666666666667,399.786114692688L453.3333333333333,399.6848702430725L480,399.77827072143555L506.66666666666663,399.76757168769836L533.3333333333333,399.7535169124603L560,399.72764253616333L586.6666666666666,399.54655170440674L613.3333333333334,399.6857285499573L640,399.4940757751465L666.6666666666667,399.5834171772003L693.3333333333334,399.6888816356659L720,399.3937075138092L746.6666666666666,399.6964931488037L773.3333333333334,399.70070719718933L800,399.6421217918396" stroke="#5f249f" stroke-width="5.15" opacity="0.05"/></g></g><path class="foreground" aria-hidden="true" d="" display="none"/></g><g transform="translate(0,0)"><path class="background" aria-hidden="true" d="M0,0h800v400h-800Z"/><g><g class="mark-line role-mark layer_1_layer_2_marks" role="graphics-symbol" aria-roledescription="line mark container"><path d="M26.666666666666668,399.86485838890076L53.333333333333336,399.85864758491516L80,399.89609122276306L106.66666666666667,399.9106168746948L133.33333333333331,399.91998076438904L160,399.9221742153168L186.66666666666666,399.9224781990051L213.33333333333334,399.92467164993286L240,399.9245345592499L266.66666666666663,399.9234139919281L293.3333333333333,399.91952180862427L320,399.92477893829346L346.6666666666667,399.92201924324036L373.3333333333333,399.92392659187317L400,399.9211370944977L426.6666666666667,399.92382526397705L453.3333333333333,399.92014169692993L480,399.9052584171295L506.66666666666663,399.9207377433777L533.3333333333333,399.91857409477234L560,399.92039799690247L586.6666666666666,399.91544485092163L613.3333333333334,399.91544485092163L640,399.9183237552643L666.6666666666667,399.91759061813354L693.3333333333334,399.9010980129242L720,399.92029666900635L746.6666666666666,399.9148488044739L773.3333333333334,399.4533836841583L800,399.9138832092285" stroke="#228C22" stroke-width="5.15" opacity="0.05"/></g></g><path class="foreground" aria-hidden="true" d="" display="none"/></g></g><g class="mark-group role-scope layer_1_layer_3_pathgroup" role="graphics-object" aria-roledescription="group mark container"><g transform="translate(0,0)"><path class="background" aria-hidden="true" d="M0,0h800v400h-800Z"/><g><g class="mark-line role-mark layer_1_layer_3_marks" role="graphics-symbol" aria-roledescription="line mark container"><path d="M26.666666666666668,387.60995864868164L53.333333333333336,391.0368621349335L80,392.55024790763855L106.66666666666667,393.17078590393066L133.33333333333331,393.67247223854065L160,394.20215487480164L186.66666666666666,394.06687021255493L213.33333333333334,394.28274035453796L240,394.3527162075043L266.66666666666663,394.46826577186584L293.3333333333333,394.4961905479431L320,394.33706998825073L346.6666666666667,394.3279266357422L373.3333333333333,394.3819284439087L400,394.37113404273987L426.6666666666667,394.40574049949646L453.3333333333333,394.5510745048523L480,378.00166606903076L506.66666666666663,394.33499574661255L533.3333333333333,394.41792368888855L560,394.04057264328003L586.6666666666666,394.2538857460022L613.3333333333334,393.65159273147583L640,393.9851939678192L666.6666666666667,392.73258447647095L693.3333333333334,394.15446519851685L720,394.117796421051L746.6666666666666,394.1236734390259L773.3333333333334,394.2393898963928L800,394.2943215370178" stroke="#00FFFF" stroke-width="6.2" opacity="0.05"/></g></g><path class="foreground" aria-hidden="true" d="" display="none"/></g><g transform="translate(0,0)"><path class="background" aria-hidden="true" d="M0,0h800v400h-800Z"/><g><g class="mark-line role-mark layer_1_layer_3_marks" role="graphics-symbol" aria-roledescription="line mark container"><path d="M26.666666666666668,399.94635581970215L53.333333333333336,399.9474048614502L80,399.91113543510437L106.66666666666667,399.9140202999115L133.33333333333331,399.91483092308044L160,399.5659530162811L186.66666666666666,399.90482330322266L213.33333333333334,399.70070123672485L240,399.89949464797974L266.66666666666663,399.89821314811707L293.3333333333333,399.90307092666626L320,399.9025762081146L346.6666666666667,399.903804063797L373.3333333333333,399.90147948265076L400,399.9077260494232L426.6666666666667,399.7069239616394L453.3333333333333,399.89891052246094L480,399.7011065483093L506.66666666666663,399.7034788131714L533.3333333333333,399.88914132118225L560,399.89773631095886L586.6666666666666,399.8959243297577L613.3333333333334,399.8745799064636L640,399.8932421207428L666.6666666666667,399.9024569988251L693.3333333333334,399.89171624183655L720,399.6948778629303L746.6666666666666,399.8997926712036L773.3333333333334,399.8907446861267L800,399.8826026916504" stroke="#ffff00" stroke-width="6.2" opacity="0.05"/></g></g><path class="foreground" aria-hidden="true" d="" display="none"/></g><g transform="translate(0,0)"><path class="background" aria-hidden="true" d="M0,0h800v400h-800Z"/><g><g class="mark-line role-mark layer_1_layer_3_marks" role="graphics-symbol" aria-roledescription="line mark container"><path d="M26.666666666666668,393.22230219841003L53.333333333333336,392.44624972343445L80,392.26295948028564L106.66666666666667,391.27721786499023L133.33333333333331,387.3674809932709L160,380.3878664970398L186.66666666666666,385.9544634819031L213.33333333333334,378.93855571746826L240,374.121630191803L266.66666666666663,366.4550542831421L293.3333333333333,360.28725504875183L320,345.5333113670349L346.6666666666667,340.5131995677948L373.3333333333333,323.4425187110901L400,304.59311604499817L426.6666666666667,40.79194664955139L453.3333333333333,179.23986911773682L480,179.9830675125122L506.66666666666663,177.10696458816528L533.3333333333333,154.90424633026123L560,177.17888951301575L586.6666666666666,103.48283052444458L613.3333333333334,170.91383934020996L640,86.28447651863098L666.6666666666667,145.97644805908203L693.3333333333334,149.94049072265625L720,122.01186418533325L746.6666666666666,164.38264846801758L773.3333333333334,170.23229002952576L800,161.37678623199463" stroke="#FF0000" stroke-width="6.2" opacity="0.05"/></g></g><path class="foreground" aria-hidden="true" d="" display="none"/></g><g transform="translate(0,0)"><path class="background" aria-hidden="true" d="M0,0h800v400h-800Z"/><g><g class="mark-line role-mark layer_1_layer_3_marks" role="graphics-symbol" aria-roledescription="line mark container"><path d="M26.666666666666668,399.9554932117462L53.333333333333336,399.8627483844757L80,399.8804986476898L106.66666666666667,399.86430406570435L133.33333333333331,399.86761808395386L160,399.81070160865784L186.66666666666666,399.8500168323517L213.33333333333334,399.855101108551L240,399.83848333358765L266.66666666666663,399.83465671539307L293.3333333333333,399.8222529888153L320,399.8175024986267L346.6666666666667,399.81165528297424L373.3333333333333,399.80475306510925L400,399.7114658355713L426.6666666666667,399.786114692688L453.3333333333333,399.6848702430725L480,399.77827072143555L506.66666666666663,399.76757168769836L533.3333333333333,399.7535169124603L560,399.72764253616333L586.6666666666666,399.54655170440674L613.3333333333334,399.6857285499573L640,399.4940757751465L666.6666666666667,399.5834171772003L693.3333333333334,399.6888816356659L720,399.3937075138092L746.6666666666666,399.6964931488037L773.3333333333334,399.70070719718933L800,399.6421217918396" stroke="#5f249f" stroke-width="6.2" opacity="0.05"/></g></g><path class="foreground" aria-hidden="true" d="" display="none"/></g><g transform="translate(0,0)"><path class="background" aria-hidden="true" d="M0,0h800v400h-800Z"/><g><g class="mark-line role-mark layer_1_layer_3_marks" role="graphics-symbol" aria-roledescription="line mark container"><path d="M26.666666666666668,399.86485838890076L53.333333333333336,399.85864758491516L80,399.89609122276306L106.66666666666667,399.9106168746948L133.33333333333331,399.91998076438904L160,399.9221742153168L186.66666666666666,399.9224781990051L213.33333333333334,399.92467164993286L240,399.9245345592499L266.66666666666663,399.9234139919281L293.3333333333333,399.91952180862427L320,399.92477893829346L346.6666666666667,399.92201924324036L373.3333333333333,399.92392659187317L400,399.9211370944977L426.6666666666667,399.92382526397705L453.3333333333333,399.92014169692993L480,399.9052584171295L506.66666666666663,399.9207377433777L533.3333333333333,399.91857409477234L560,399.92039799690247L586.6666666666666,399.91544485092163L613.3333333333334,399.91544485092163L640,399.9183237552643L666.6666666666667,399.91759061813354L693.3333333333334,399.9010980129242L720,399.92029666900635L746.6666666666666,399.9148488044739L773.3333333333334,399.4533836841583L800,399.9138832092285" stroke="#228C22" stroke-width="6.2" opacity="0.05"/></g></g><path class="foreground" aria-hidden="true" d="" display="none"/></g></g><g class="mark-group role-scope layer_1_layer_4_pathgroup" role="graphics-object" aria-roledescription="group mark container"><g transform="translate(0,0)"><path class="background" aria-hidden="true" d="M0,0h800v400h-800Z"/><g><g class="mark-line role-mark layer_1_layer_4_marks" role="graphics-symbol" aria-roledescription="line mark container"><path d="M26.666666666666668,387.60995864868164L53.333333333333336,391.0368621349335L80,392.55024790763855L106.66666666666667,393.17078590393066L133.33333333333331,393.67247223854065L160,394.20215487480164L186.66666666666666,394.06687021255493L213.33333333333334,394.28274035453796L240,394.3527162075043L266.66666666666663,394.46826577186584L293.3333333333333,394.4961905479431L320,394.33706998825073L346.6666666666667,394.3279266357422L373.3333333333333,394.3819284439087L400,394.37113404273987L426.6666666666667,394.40574049949646L453.3333333333333,394.5510745048523L480,378.00166606903076L506.66666666666663,394.33499574661255L533.3333333333333,394.41792368888855L560,394.04057264328003L586.6666666666666,394.2538857460022L613.3333333333334,393.65159273147583L640,393.9851939678192L666.6666666666667,392.73258447647095L693.3333333333334,394.15446519851685L720,394.117796421051L746.6666666666666,394.1236734390259L773.3333333333334,394.2393898963928L800,394.2943215370178" stroke="#00FFFF" stroke-width="7.25" opacity="0.05"/></g></g><path class="foreground" aria-hidden="true" d="" display="none"/></g><g transform="translate(0,0)"><path class="background" aria-hidden="true" d="M0,0h800v400h-800Z"/><g><g class="mark-line role-mark layer_1_layer_4_marks" role="graphics-symbol" aria-roledescription="line mark container"><path d="M26.666666666666668,399.94635581970215L53.333333333333336,399.9474048614502L80,399.91113543510437L106.66666666666667,399.9140202999115L133.33333333333331,399.91483092308044L160,399.5659530162811L186.66666666666666,399.90482330322266L213.33333333333334,399.70070123672485L240,399.89949464797974L266.66666666666663,399.89821314811707L293.3333333333333,399.90307092666626L320,399.9025762081146L346.6666666666667,399.903804063797L373.3333333333333,399.90147948265076L400,399.9077260494232L426.6666666666667,399.7069239616394L453.3333333333333,399.89891052246094L480,399.7011065483093L506.66666666666663,399.7034788131714L533.3333333333333,399.88914132118225L560,399.89773631095886L586.6666666666666,399.8959243297577L613.3333333333334,399.8745799064636L640,399.8932421207428L666.6666666666667,399.9024569988251L693.3333333333334,399.89171624183655L720,399.6948778629303L746.6666666666666,399.8997926712036L773.3333333333334,399.8907446861267L800,399.8826026916504" stroke="#ffff00" stroke-width="7.25" opacity="0.05"/></g></g><path class="foreground" aria-hidden="true" d="" display="none"/></g><g transform="translate(0,0)"><path class="background" aria-hidden="true" d="M0,0h800v400h-800Z"/><g><g class="mark-line role-mark layer_1_layer_4_marks" role="graphics-symbol" aria-roledescription="line mark container"><path d="M26.666666666666668,393.22230219841003L53.333333333333336,392.44624972343445L80,392.26295948028564L106.66666666666667,391.27721786499023L133.33333333333331,387.3674809932709L160,380.3878664970398L186.66666666666666,385.9544634819031L213.33333333333334,378.93855571746826L240,374.121630191803L266.66666666666663,366.4550542831421L293.3333333333333,360.28725504875183L320,345.5333113670349L346.6666666666667,340.5131995677948L373.3333333333333,323.4425187110901L400,304.59311604499817L426.6666666666667,40.79194664955139L453.3333333333333,179.23986911773682L480,179.9830675125122L506.66666666666663,177.10696458816528L533.3333333333333,154.90424633026123L560,177.17888951301575L586.6666666666666,103.48283052444458L613.3333333333334,170.91383934020996L640,86.28447651863098L666.6666666666667,145.97644805908203L693.3333333333334,149.94049072265625L720,122.01186418533325L746.6666666666666,164.38264846801758L773.3333333333334,170.23229002952576L800,161.37678623199463" stroke="#FF0000" stroke-width="7.25" opacity="0.05"/></g></g><path class="foreground" aria-hidden="true" d="" display="none"/></g><g transform="translate(0,0)"><path class="background" aria-hidden="true" d="M0,0h800v400h-800Z"/><g><g class="mark-line role-mark layer_1_layer_4_marks" role="graphics-symbol" aria-roledescription="line mark container"><path d="M26.666666666666668,399.9554932117462L53.333333333333336,399.8627483844757L80,399.8804986476898L106.66666666666667,399.86430406570435L133.33333333333331,399.86761808395386L160,399.81070160865784L186.66666666666666,399.8500168323517L213.33333333333334,399.855101108551L240,399.83848333358765L266.66666666666663,399.83465671539307L293.3333333333333,399.8222529888153L320,399.8175024986267L346.6666666666667,399.81165528297424L373.3333333333333,399.80475306510925L400,399.7114658355713L426.6666666666667,399.786114692688L453.3333333333333,399.6848702430725L480,399.77827072143555L506.66666666666663,399.76757168769836L533.3333333333333,399.7535169124603L560,399.72764253616333L586.6666666666666,399.54655170440674L613.3333333333334,399.6857285499573L640,399.4940757751465L666.6666666666667,399.5834171772003L693.3333333333334,399.6888816356659L720,399.3937075138092L746.6666666666666,399.6964931488037L773.3333333333334,399.70070719718933L800,399.6421217918396" stroke="#5f249f" stroke-width="7.25" opacity="0.05"/></g></g><path class="foreground" aria-hidden="true" d="" display="none"/></g><g transform="translate(0,0)"><path class="background" aria-hidden="true" d="M0,0h800v400h-800Z"/><g><g class="mark-line role-mark layer_1_layer_4_marks" role="graphics-symbol" aria-roledescription="line mark container"><path d="M26.666666666666668,399.86485838890076L53.333333333333336,399.85864758491516L80,399.89609122276306L106.66666666666667,399.9106168746948L133.33333333333331,399.91998076438904L160,399.9221742153168L186.66666666666666,399.9224781990051L213.33333333333334,399.92467164993286L240,399.9245345592499L266.66666666666663,399.9234139919281L293.3333333333333,399.91952180862427L320,399.92477893829346L346.6666666666667,399.92201924324036L373.3333333333333,399.92392659187317L400,399.9211370944977L426.6666666666667,399.92382526397705L453.3333333333333,399.92014169692993L480,399.9052584171295L506.66666666666663,399.9207377433777L533.3333333333333,399.91857409477234L560,399.92039799690247L586.6666666666666,399.91544485092163L613.3333333333334,399.91544485092163L640,399.9183237552643L666.6666666666667,399.91759061813354L693.3333333333334,399.9010980129242L720,399.92029666900635L746.6666666666666,399.9148488044739L773.3333333333334,399.4533836841583L800,399.9138832092285" stroke="#228C22" stroke-width="7.25" opacity="0.05"/></g></g><path class="foreground" aria-hidden="true" d="" display="none"/></g></g><g class="mark-group role-scope layer_1_layer_5_pathgroup" role="graphics-object" aria-roledescription="group mark container"><g transform="translate(0,0)"><path class="background" aria-hidden="true" d="M0,0h800v400h-800Z"/><g><g class="mark-line role-mark layer_1_layer_5_marks" role="graphics-symbol" aria-roledescription="line mark container"><path d="M26.666666666666668,387.60995864868164L53.333333333333336,391.0368621349335L80,392.55024790763855L106.66666666666667,393.17078590393066L133.33333333333331,393.67247223854065L160,394.20215487480164L186.66666666666666,394.06687021255493L213.33333333333334,394.28274035453796L240,394.3527162075043L266.66666666666663,394.46826577186584L293.3333333333333,394.4961905479431L320,394.33706998825073L346.6666666666667,394.3279266357422L373.3333333333333,394.3819284439087L400,394.37113404273987L426.6666666666667,394.40574049949646L453.3333333333333,394.5510745048523L480,378.00166606903076L506.66666666666663,394.33499574661255L533.3333333333333,394.41792368888855L560,394.04057264328003L586.6666666666666,394.2538857460022L613.3333333333334,393.65159273147583L640,393.9851939678192L666.6666666666667,392.73258447647095L693.3333333333334,394.15446519851685L720,394.117796421051L746.6666666666666,394.1236734390259L773.3333333333334,394.2393898963928L800,394.2943215370178" stroke="#00FFFF" stroke-width="8.3" opacity="0.05"/></g></g><path class="foreground" aria-hidden="true" d="" display="none"/></g><g transform="translate(0,0)"><path class="background" aria-hidden="true" d="M0,0h800v400h-800Z"/><g><g class="mark-line role-mark layer_1_layer_5_marks" role="graphics-symbol" aria-roledescription="line mark container"><path d="M26.666666666666668,399.94635581970215L53.333333333333336,399.9474048614502L80,399.91113543510437L106.66666666666667,399.9140202999115L133.33333333333331,399.91483092308044L160,399.5659530162811L186.66666666666666,399.90482330322266L213.33333333333334,399.70070123672485L240,399.89949464797974L266.66666666666663,399.89821314811707L293.3333333333333,399.90307092666626L320,399.9025762081146L346.6666666666667,399.903804063797L373.3333333333333,399.90147948265076L400,399.9077260494232L426.6666666666667,399.7069239616394L453.3333333333333,399.89891052246094L480,399.7011065483093L506.66666666666663,399.7034788131714L533.3333333333333,399.88914132118225L560,399.89773631095886L586.6666666666666,399.8959243297577L613.3333333333334,399.8745799064636L640,399.8932421207428L666.6666666666667,399.9024569988251L693.3333333333334,399.89171624183655L720,399.6948778629303L746.6666666666666,399.8997926712036L773.3333333333334,399.8907446861267L800,399.8826026916504" stroke="#ffff00" stroke-width="8.3" opacity="0.05"/></g></g><path class="foreground" aria-hidden="true" d="" display="none"/></g><g transform="translate(0,0)"><path class="background" aria-hidden="true" d="M0,0h800v400h-800Z"/><g><g class="mark-line role-mark layer_1_layer_5_marks" role="graphics-symbol" aria-roledescription="line mark container"><path d="M26.666666666666668,393.22230219841003L53.333333333333336,392.44624972343445L80,392.26295948028564L106.66666666666667,391.27721786499023L133.33333333333331,387.3674809932709L160,380.3878664970398L186.66666666666666,385.9544634819031L213.33333333333334,378.93855571746826L240,374.121630191803L266.66666666666663,366.4550542831421L293.3333333333333,360.28725504875183L320,345.5333113670349L346.6666666666667,340.5131995677948L373.3333333333333,323.4425187110901L400,304.59311604499817L426.6666666666667,40.79194664955139L453.3333333333333,179.23986911773682L480,179.9830675125122L506.66666666666663,177.10696458816528L533.3333333333333,154.90424633026123L560,177.17888951301575L586.6666666666666,103.48283052444458L613.3333333333334,170.91383934020996L640,86.28447651863098L666.6666666666667,145.97644805908203L693.3333333333334,149.94049072265625L720,122.01186418533325L746.6666666666666,164.38264846801758L773.3333333333334,170.23229002952576L800,161.37678623199463" stroke="#FF0000" stroke-width="8.3" opacity="0.05"/></g></g><path class="foreground" aria-hidden="true" d="" display="none"/></g><g transform="translate(0,0)"><path class="background" aria-hidden="true" d="M0,0h800v400h-800Z"/><g><g class="mark-line role-mark layer_1_layer_5_marks" role="graphics-symbol" aria-roledescription="line mark container"><path d="M26.666666666666668,399.9554932117462L53.333333333333336,399.8627483844757L80,399.8804986476898L106.66666666666667,399.86430406570435L133.33333333333331,399.86761808395386L160,399.81070160865784L186.66666666666666,399.8500168323517L213.33333333333334,399.855101108551L240,399.83848333358765L266.66666666666663,399.83465671539307L293.3333333333333,399.8222529888153L320,399.8175024986267L346.6666666666667,399.81165528297424L373.3333333333333,399.80475306510925L400,399.7114658355713L426.6666666666667,399.786114692688L453.3333333333333,399.6848702430725L480,399.77827072143555L506.66666666666663,399.76757168769836L533.3333333333333,399.7535169124603L560,399.72764253616333L586.6666666666666,399.54655170440674L613.3333333333334,399.6857285499573L640,399.4940757751465L666.6666666666667,399.5834171772003L693.3333333333334,399.6888816356659L720,399.3937075138092L746.6666666666666,399.6964931488037L773.3333333333334,399.70070719718933L800,399.6421217918396" stroke="#5f249f" stroke-width="8.3" opacity="0.05"/></g></g><path class="foreground" aria-hidden="true" d="" display="none"/></g><g transform="translate(0,0)"><path class="background" aria-hidden="true" d="M0,0h800v400h-800Z"/><g><g class="mark-line role-mark layer_1_layer_5_marks" role="graphics-symbol" aria-roledescription="line mark container"><path d="M26.666666666666668,399.86485838890076L53.333333333333336,399.85864758491516L80,399.89609122276306L106.66666666666667,399.9106168746948L133.33333333333331,399.91998076438904L160,399.9221742153168L186.66666666666666,399.9224781990051L213.33333333333334,399.92467164993286L240,399.9245345592499L266.66666666666663,399.9234139919281L293.3333333333333,399.91952180862427L320,399.92477893829346L346.6666666666667,399.92201924324036L373.3333333333333,399.92392659187317L400,399.9211370944977L426.6666666666667,399.92382526397705L453.3333333333333,399.92014169692993L480,399.9052584171295L506.66666666666663,399.9207377433777L533.3333333333333,399.91857409477234L560,399.92039799690247L586.6666666666666,399.91544485092163L613.3333333333334,399.91544485092163L640,399.9183237552643L666.6666666666667,399.91759061813354L693.3333333333334,399.9010980129242L720,399.92029666900635L746.6666666666666,399.9148488044739L773.3333333333334,399.4533836841583L800,399.9138832092285" stroke="#228C22" stroke-width="8.3" opacity="0.05"/></g></g><path class="foreground" aria-hidden="true" d="" display="none"/></g></g><g class="mark-group role-scope layer_1_layer_6_pathgroup" role="graphics-object" aria-roledescription="group mark container"><g transform="translate(0,0)"><path class="background" aria-hidden="true" d="M0,0h800v400h-800Z"/><g><g class="mark-line role-mark layer_1_layer_6_marks" role="graphics-symbol" aria-roledescription="line mark container"><path d="M26.666666666666668,387.60995864868164L53.333333333333336,391.0368621349335L80,392.55024790763855L106.66666666666667,393.17078590393066L133.33333333333331,393.67247223854065L160,394.20215487480164L186.66666666666666,394.06687021255493L213.33333333333334,394.28274035453796L240,394.3527162075043L266.66666666666663,394.46826577186584L293.3333333333333,394.4961905479431L320,394.33706998825073L346.6666666666667,394.3279266357422L373.3333333333333,394.3819284439087L400,394.37113404273987L426.6666666666667,394.40574049949646L453.3333333333333,394.5510745048523L480,378.00166606903076L506.66666666666663,394.33499574661255L533.3333333333333,394.41792368888855L560,394.04057264328003L586.6666666666666,394.2538857460022L613.3333333333334,393.65159273147583L640,393.9851939678192L666.6666666666667,392.73258447647095L693.3333333333334,394.15446519851685L720,394.117796421051L746.6666666666666,394.1236734390259L773.3333333333334,394.2393898963928L800,394.2943215370178" stroke="#00FFFF" stroke-width="9.350000000000001" opacity="0.05"/></g></g><path class="foreground" aria-hidden="true" d="" display="none"/></g><g transform="translate(0,0)"><path class="background" aria-hidden="true" d="M0,0h800v400h-800Z"/><g><g class="mark-line role-mark layer_1_layer_6_marks" role="graphics-symbol" aria-roledescription="line mark container"><path d="M26.666666666666668,399.94635581970215L53.333333333333336,399.9474048614502L80,399.91113543510437L106.66666666666667,399.9140202999115L133.33333333333331,399.91483092308044L160,399.5659530162811L186.66666666666666,399.90482330322266L213.33333333333334,399.70070123672485L240,399.89949464797974L266.66666666666663,399.89821314811707L293.3333333333333,399.90307092666626L320,399.9025762081146L346.6666666666667,399.903804063797L373.3333333333333,399.90147948265076L400,399.9077260494232L426.6666666666667,399.7069239616394L453.3333333333333,399.89891052246094L480,399.7011065483093L506.66666666666663,399.7034788131714L533.3333333333333,399.88914132118225L560,399.89773631095886L586.6666666666666,399.8959243297577L613.3333333333334,399.8745799064636L640,399.8932421207428L666.6666666666667,399.9024569988251L693.3333333333334,399.89171624183655L720,399.6948778629303L746.6666666666666,399.8997926712036L773.3333333333334,399.8907446861267L800,399.8826026916504" stroke="#ffff00" stroke-width="9.350000000000001" opacity="0.05"/></g></g><path class="foreground" aria-hidden="true" d="" display="none"/></g><g transform="translate(0,0)"><path class="background" aria-hidden="true" d="M0,0h800v400h-800Z"/><g><g class="mark-line role-mark layer_1_layer_6_marks" role="graphics-symbol" aria-roledescription="line mark container"><path d="M26.666666666666668,393.22230219841003L53.333333333333336,392.44624972343445L80,392.26295948028564L106.66666666666667,391.27721786499023L133.33333333333331,387.3674809932709L160,380.3878664970398L186.66666666666666,385.9544634819031L213.33333333333334,378.93855571746826L240,374.121630191803L266.66666666666663,366.4550542831421L293.3333333333333,360.28725504875183L320,345.5333113670349L346.6666666666667,340.5131995677948L373.3333333333333,323.4425187110901L400,304.59311604499817L426.6666666666667,40.79194664955139L453.3333333333333,179.23986911773682L480,179.9830675125122L506.66666666666663,177.10696458816528L533.3333333333333,154.90424633026123L560,177.17888951301575L586.6666666666666,103.48283052444458L613.3333333333334,170.91383934020996L640,86.28447651863098L666.6666666666667,145.97644805908203L693.3333333333334,149.94049072265625L720,122.01186418533325L746.6666666666666,164.38264846801758L773.3333333333334,170.23229002952576L800,161.37678623199463" stroke="#FF0000" stroke-width="9.350000000000001" opacity="0.05"/></g></g><path class="foreground" aria-hidden="true" d="" display="none"/></g><g transform="translate(0,0)"><path class="background" aria-hidden="true" d="M0,0h800v400h-800Z"/><g><g class="mark-line role-mark layer_1_layer_6_marks" role="graphics-symbol" aria-roledescription="line mark container"><path d="M26.666666666666668,399.9554932117462L53.333333333333336,399.8627483844757L80,399.8804986476898L106.66666666666667,399.86430406570435L133.33333333333331,399.86761808395386L160,399.81070160865784L186.66666666666666,399.8500168323517L213.33333333333334,399.855101108551L240,399.83848333358765L266.66666666666663,399.83465671539307L293.3333333333333,399.8222529888153L320,399.8175024986267L346.6666666666667,399.81165528297424L373.3333333333333,399.80475306510925L400,399.7114658355713L426.6666666666667,399.786114692688L453.3333333333333,399.6848702430725L480,399.77827072143555L506.66666666666663,399.76757168769836L533.3333333333333,399.7535169124603L560,399.72764253616333L586.6666666666666,399.54655170440674L613.3333333333334,399.6857285499573L640,399.4940757751465L666.6666666666667,399.5834171772003L693.3333333333334,399.6888816356659L720,399.3937075138092L746.6666666666666,399.6964931488037L773.3333333333334,399.70070719718933L800,399.6421217918396" stroke="#5f249f" stroke-width="9.350000000000001" opacity="0.05"/></g></g><path class="foreground" aria-hidden="true" d="" display="none"/></g><g transform="translate(0,0)"><path class="background" aria-hidden="true" d="M0,0h800v400h-800Z"/><g><g class="mark-line role-mark layer_1_layer_6_marks" role="graphics-symbol" aria-roledescription="line mark container"><path d="M26.666666666666668,399.86485838890076L53.333333333333336,399.85864758491516L80,399.89609122276306L106.66666666666667,399.9106168746948L133.33333333333331,399.91998076438904L160,399.9221742153168L186.66666666666666,399.9224781990051L213.33333333333334,399.92467164993286L240,399.9245345592499L266.66666666666663,399.9234139919281L293.3333333333333,399.91952180862427L320,399.92477893829346L346.6666666666667,399.92201924324036L373.3333333333333,399.92392659187317L400,399.9211370944977L426.6666666666667,399.92382526397705L453.3333333333333,399.92014169692993L480,399.9052584171295L506.66666666666663,399.9207377433777L533.3333333333333,399.91857409477234L560,399.92039799690247L586.6666666666666,399.91544485092163L613.3333333333334,399.91544485092163L640,399.9183237552643L666.6666666666667,399.91759061813354L693.3333333333334,399.9010980129242L720,399.92029666900635L746.6666666666666,399.9148488044739L773.3333333333334,399.4533836841583L800,399.9138832092285" stroke="#228C22" stroke-width="9.350000000000001" opacity="0.05"/></g></g><path class="foreground" aria-hidden="true" d="" display="none"/></g></g><g class="mark-group role-scope layer_1_layer_7_pathgroup" role="graphics-object" aria-roledescription="group mark container"><g transform="translate(0,0)"><path class="background" aria-hidden="true" d="M0,0h800v400h-800Z"/><g><g class="mark-line role-mark layer_1_layer_7_marks" role="graphics-symbol" aria-roledescription="line mark container"><path d="M26.666666666666668,387.60995864868164L53.333333333333336,391.0368621349335L80,392.55024790763855L106.66666666666667,393.17078590393066L133.33333333333331,393.67247223854065L160,394.20215487480164L186.66666666666666,394.06687021255493L213.33333333333334,394.28274035453796L240,394.3527162075043L266.66666666666663,394.46826577186584L293.3333333333333,394.4961905479431L320,394.33706998825073L346.6666666666667,394.3279266357422L373.3333333333333,394.3819284439087L400,394.37113404273987L426.6666666666667,394.40574049949646L453.3333333333333,394.5510745048523L480,378.00166606903076L506.66666666666663,394.33499574661255L533.3333333333333,394.41792368888855L560,394.04057264328003L586.6666666666666,394.2538857460022L613.3333333333334,393.65159273147583L640,393.9851939678192L666.6666666666667,392.73258447647095L693.3333333333334,394.15446519851685L720,394.117796421051L746.6666666666666,394.1236734390259L773.3333333333334,394.2393898963928L800,394.2943215370178" stroke="#00FFFF" stroke-width="10.4" opacity="0.05"/></g></g><path class="foreground" aria-hidden="true" d="" display="none"/></g><g transform="translate(0,0)"><path class="background" aria-hidden="true" d="M0,0h800v400h-800Z"/><g><g class="mark-line role-mark layer_1_layer_7_marks" role="graphics-symbol" aria-roledescription="line mark container"><path d="M26.666666666666668,399.94635581970215L53.333333333333336,399.9474048614502L80,399.91113543510437L106.66666666666667,399.9140202999115L133.33333333333331,399.91483092308044L160,399.5659530162811L186.66666666666666,399.90482330322266L213.33333333333334,399.70070123672485L240,399.89949464797974L266.66666666666663,399.89821314811707L293.3333333333333,399.90307092666626L320,399.9025762081146L346.6666666666667,399.903804063797L373.3333333333333,399.90147948265076L400,399.9077260494232L426.6666666666667,399.7069239616394L453.3333333333333,399.89891052246094L480,399.7011065483093L506.66666666666663,399.7034788131714L533.3333333333333,399.88914132118225L560,399.89773631095886L586.6666666666666,399.8959243297577L613.3333333333334,399.8745799064636L640,399.8932421207428L666.6666666666667,399.9024569988251L693.3333333333334,399.89171624183655L720,399.6948778629303L746.6666666666666,399.8997926712036L773.3333333333334,399.8907446861267L800,399.8826026916504" stroke="#ffff00" stroke-width="10.4" opacity="0.05"/></g></g><path class="foreground" aria-hidden="true" d="" display="none"/></g><g transform="translate(0,0)"><path class="background" aria-hidden="true" d="M0,0h800v400h-800Z"/><g><g class="mark-line role-mark layer_1_layer_7_marks" role="graphics-symbol" aria-roledescription="line mark container"><path d="M26.666666666666668,393.22230219841003L53.333333333333336,392.44624972343445L80,392.26295948028564L106.66666666666667,391.27721786499023L133.33333333333331,387.3674809932709L160,380.3878664970398L186.66666666666666,385.9544634819031L213.33333333333334,378.93855571746826L240,374.121630191803L266.66666666666663,366.4550542831421L293.3333333333333,360.28725504875183L320,345.5333113670349L346.6666666666667,340.5131995677948L373.3333333333333,323.4425187110901L400,304.59311604499817L426.6666666666667,40.79194664955139L453.3333333333333,179.23986911773682L480,179.9830675125122L506.66666666666663,177.10696458816528L533.3333333333333,154.90424633026123L560,177.17888951301575L586.6666666666666,103.48283052444458L613.3333333333334,170.91383934020996L640,86.28447651863098L666.6666666666667,145.97644805908203L693.3333333333334,149.94049072265625L720,122.01186418533325L746.6666666666666,164.38264846801758L773.3333333333334,170.23229002952576L800,161.37678623199463" stroke="#FF0000" stroke-width="10.4" opacity="0.05"/></g></g><path class="foreground" aria-hidden="true" d="" display="none"/></g><g transform="translate(0,0)"><path class="background" aria-hidden="true" d="M0,0h800v400h-800Z"/><g><g class="mark-line role-mark layer_1_layer_7_marks" role="graphics-symbol" aria-roledescription="line mark container"><path d="M26.666666666666668,399.9554932117462L53.333333333333336,399.8627483844757L80,399.8804986476898L106.66666666666667,399.86430406570435L133.33333333333331,399.86761808395386L160,399.81070160865784L186.66666666666666,399.8500168323517L213.33333333333334,399.855101108551L240,399.83848333358765L266.66666666666663,399.83465671539307L293.3333333333333,399.8222529888153L320,399.8175024986267L346.6666666666667,399.81165528297424L373.3333333333333,399.80475306510925L400,399.7114658355713L426.6666666666667,399.786114692688L453.3333333333333,399.6848702430725L480,399.77827072143555L506.66666666666663,399.76757168769836L533.3333333333333,399.7535169124603L560,399.72764253616333L586.6666666666666,399.54655170440674L613.3333333333334,399.6857285499573L640,399.4940757751465L666.6666666666667,399.5834171772003L693.3333333333334,399.6888816356659L720,399.3937075138092L746.6666666666666,399.6964931488037L773.3333333333334,399.70070719718933L800,399.6421217918396" stroke="#5f249f" stroke-width="10.4" opacity="0.05"/></g></g><path class="foreground" aria-hidden="true" d="" display="none"/></g><g transform="translate(0,0)"><path class="background" aria-hidden="true" d="M0,0h800v400h-800Z"/><g><g class="mark-line role-mark layer_1_layer_7_marks" role="graphics-symbol" aria-roledescription="line mark container"><path d="M26.666666666666668,399.86485838890076L53.333333333333336,399.85864758491516L80,399.89609122276306L106.66666666666667,399.9106168746948L133.33333333333331,399.91998076438904L160,399.9221742153168L186.66666666666666,399.9224781990051L213.33333333333334,399.92467164993286L240,399.9245345592499L266.66666666666663,399.9234139919281L293.3333333333333,399.91952180862427L320,399.92477893829346L346.6666666666667,399.92201924324036L373.3333333333333,399.92392659187317L400,399.9211370944977L426.6666666666667,399.92382526397705L453.3333333333333,399.92014169692993L480,399.9052584171295L506.66666666666663,399.9207377433777L533.3333333333333,399.91857409477234L560,399.92039799690247L586.6666666666666,399.91544485092163L613.3333333333334,399.91544485092163L640,399.9183237552643L666.6666666666667,399.91759061813354L693.3333333333334,399.9010980129242L720,399.92029666900635L746.6666666666666,399.9148488044739L773.3333333333334,399.4533836841583L800,399.9138832092285" stroke="#228C22" stroke-width="10.4" opacity="0.05"/></g></g><path class="foreground" aria-hidden="true" d="" display="none"/></g></g><g class="mark-group role-scope layer_1_layer_8_pathgroup" role="graphics-object" aria-roledescription="group mark container"><g transform="translate(0,0)"><path class="background" aria-hidden="true" d="M0,0h800v400h-800Z"/><g><g class="mark-line role-mark layer_1_layer_8_marks" role="graphics-symbol" aria-roledescription="line mark container"><path d="M26.666666666666668,387.60995864868164L53.333333333333336,391.0368621349335L80,392.55024790763855L106.66666666666667,393.17078590393066L133.33333333333331,393.67247223854065L160,394.20215487480164L186.66666666666666,394.06687021255493L213.33333333333334,394.28274035453796L240,394.3527162075043L266.66666666666663,394.46826577186584L293.3333333333333,394.4961905479431L320,394.33706998825073L346.6666666666667,394.3279266357422L373.3333333333333,394.3819284439087L400,394.37113404273987L426.6666666666667,394.40574049949646L453.3333333333333,394.5510745048523L480,378.00166606903076L506.66666666666663,394.33499574661255L533.3333333333333,394.41792368888855L560,394.04057264328003L586.6666666666666,394.2538857460022L613.3333333333334,393.65159273147583L640,393.9851939678192L666.6666666666667,392.73258447647095L693.3333333333334,394.15446519851685L720,394.117796421051L746.6666666666666,394.1236734390259L773.3333333333334,394.2393898963928L800,394.2943215370178" stroke="#00FFFF" stroke-width="11.450000000000001" opacity="0.05"/></g></g><path class="foreground" aria-hidden="true" d="" display="none"/></g><g transform="translate(0,0)"><path class="background" aria-hidden="true" d="M0,0h800v400h-800Z"/><g><g class="mark-line role-mark layer_1_layer_8_marks" role="graphics-symbol" aria-roledescription="line mark container"><path d="M26.666666666666668,399.94635581970215L53.333333333333336,399.9474048614502L80,399.91113543510437L106.66666666666667,399.9140202999115L133.33333333333331,399.91483092308044L160,399.5659530162811L186.66666666666666,399.90482330322266L213.33333333333334,399.70070123672485L240,399.89949464797974L266.66666666666663,399.89821314811707L293.3333333333333,399.90307092666626L320,399.9025762081146L346.6666666666667,399.903804063797L373.3333333333333,399.90147948265076L400,399.9077260494232L426.6666666666667,399.7069239616394L453.3333333333333,399.89891052246094L480,399.7011065483093L506.66666666666663,399.7034788131714L533.3333333333333,399.88914132118225L560,399.89773631095886L586.6666666666666,399.8959243297577L613.3333333333334,399.8745799064636L640,399.8932421207428L666.6666666666667,399.9024569988251L693.3333333333334,399.89171624183655L720,399.6948778629303L746.6666666666666,399.8997926712036L773.3333333333334,399.8907446861267L800,399.8826026916504" stroke="#ffff00" stroke-width="11.450000000000001" opacity="0.05"/></g></g><path class="foreground" aria-hidden="true" d="" display="none"/></g><g transform="translate(0,0)"><path class="background" aria-hidden="true" d="M0,0h800v400h-800Z"/><g><g class="mark-line role-mark layer_1_layer_8_marks" role="graphics-symbol" aria-roledescription="line mark container"><path d="M26.666666666666668,393.22230219841003L53.333333333333336,392.44624972343445L80,392.26295948028564L106.66666666666667,391.27721786499023L133.33333333333331,387.3674809932709L160,380.3878664970398L186.66666666666666,385.9544634819031L213.33333333333334,378.93855571746826L240,374.121630191803L266.66666666666663,366.4550542831421L293.3333333333333,360.28725504875183L320,345.5333113670349L346.6666666666667,340.5131995677948L373.3333333333333,323.4425187110901L400,304.59311604499817L426.6666666666667,40.79194664955139L453.3333333333333,179.23986911773682L480,179.9830675125122L506.66666666666663,177.10696458816528L533.3333333333333,154.90424633026123L560,177.17888951301575L586.6666666666666,103.48283052444458L613.3333333333334,170.91383934020996L640,86.28447651863098L666.6666666666667,145.97644805908203L693.3333333333334,149.94049072265625L720,122.01186418533325L746.6666666666666,164.38264846801758L773.3333333333334,170.23229002952576L800,161.37678623199463" stroke="#FF0000" stroke-width="11.450000000000001" opacity="0.05"/></g></g><path class="foreground" aria-hidden="true" d="" display="none"/></g><g transform="translate(0,0)"><path class="background" aria-hidden="true" d="M0,0h800v400h-800Z"/><g><g class="mark-line role-mark layer_1_layer_8_marks" role="graphics-symbol" aria-roledescription="line mark container"><path d="M26.666666666666668,399.9554932117462L53.333333333333336,399.8627483844757L80,399.8804986476898L106.66666666666667,399.86430406570435L133.33333333333331,399.86761808395386L160,399.81070160865784L186.66666666666666,399.8500168323517L213.33333333333334,399.855101108551L240,399.83848333358765L266.66666666666663,399.83465671539307L293.3333333333333,399.8222529888153L320,399.8175024986267L346.6666666666667,399.81165528297424L373.3333333333333,399.80475306510925L400,399.7114658355713L426.6666666666667,399.786114692688L453.3333333333333,399.6848702430725L480,399.77827072143555L506.66666666666663,399.76757168769836L533.3333333333333,399.7535169124603L560,399.72764253616333L586.6666666666666,399.54655170440674L613.3333333333334,399.6857285499573L640,399.4940757751465L666.6666666666667,399.5834171772003L693.3333333333334,399.6888816356659L720,399.3937075138092L746.6666666666666,399.6964931488037L773.3333333333334,399.70070719718933L800,399.6421217918396" stroke="#5f249f" stroke-width="11.450000000000001" opacity="0.05"/></g></g><path class="foreground" aria-hidden="true" d="" display="none"/></g><g transform="translate(0,0)"><path class="background" aria-hidden="true" d="M0,0h800v400h-800Z"/><g><g class="mark-line role-mark layer_1_layer_8_marks" role="graphics-symbol" aria-roledescription="line mark container"><path d="M26.666666666666668,399.86485838890076L53.333333333333336,399.85864758491516L80,399.89609122276306L106.66666666666667,399.9106168746948L133.33333333333331,399.91998076438904L160,399.9221742153168L186.66666666666666,399.9224781990051L213.33333333333334,399.92467164993286L240,399.9245345592499L266.66666666666663,399.9234139919281L293.3333333333333,399.91952180862427L320,399.92477893829346L346.6666666666667,399.92201924324036L373.3333333333333,399.92392659187317L400,399.9211370944977L426.6666666666667,399.92382526397705L453.3333333333333,399.92014169692993L480,399.9052584171295L506.66666666666663,399.9207377433777L533.3333333333333,399.91857409477234L560,399.92039799690247L586.6666666666666,399.91544485092163L613.3333333333334,399.91544485092163L640,399.9183237552643L666.6666666666667,399.91759061813354L693.3333333333334,399.9010980129242L720,399.92029666900635L746.6666666666666,399.9148488044739L773.3333333333334,399.4533836841583L800,399.9138832092285" stroke="#228C22" stroke-width="11.450000000000001" opacity="0.05"/></g></g><path class="foreground" aria-hidden="true" d="" display="none"/></g></g><g class="mark-group role-scope layer_1_layer_9_pathgroup" role="graphics-object" aria-roledescription="group mark container"><g transform="translate(0,0)"><path class="background" aria-hidden="true" d="M0,0h800v400h-800Z"/><g><g class="mark-line role-mark layer_1_layer_9_marks" role="graphics-symbol" aria-roledescription="line mark container"><path d="M26.666666666666668,387.60995864868164L53.333333333333336,391.0368621349335L80,392.55024790763855L106.66666666666667,393.17078590393066L133.33333333333331,393.67247223854065L160,394.20215487480164L186.66666666666666,394.06687021255493L213.33333333333334,394.28274035453796L240,394.3527162075043L266.66666666666663,394.46826577186584L293.3333333333333,394.4961905479431L320,394.33706998825073L346.6666666666667,394.3279266357422L373.3333333333333,394.3819284439087L400,394.37113404273987L426.6666666666667,394.40574049949646L453.3333333333333,394.5510745048523L480,378.00166606903076L506.66666666666663,394.33499574661255L533.3333333333333,394.41792368888855L560,394.04057264328003L586.6666666666666,394.2538857460022L613.3333333333334,393.65159273147583L640,393.9851939678192L666.6666666666667,392.73258447647095L693.3333333333334,394.15446519851685L720,394.117796421051L746.6666666666666,394.1236734390259L773.3333333333334,394.2393898963928L800,394.2943215370178" stroke="#00FFFF" stroke-width="12.5" opacity="0.05"/></g></g><path class="foreground" aria-hidden="true" d="" display="none"/></g><g transform="translate(0,0)"><path class="background" aria-hidden="true" d="M0,0h800v400h-800Z"/><g><g class="mark-line role-mark layer_1_layer_9_marks" role="graphics-symbol" aria-roledescription="line mark container"><path d="M26.666666666666668,399.94635581970215L53.333333333333336,399.9474048614502L80,399.91113543510437L106.66666666666667,399.9140202999115L133.33333333333331,399.91483092308044L160,399.5659530162811L186.66666666666666,399.90482330322266L213.33333333333334,399.70070123672485L240,399.89949464797974L266.66666666666663,399.89821314811707L293.3333333333333,399.90307092666626L320,399.9025762081146L346.6666666666667,399.903804063797L373.3333333333333,399.90147948265076L400,399.9077260494232L426.6666666666667,399.7069239616394L453.3333333333333,399.89891052246094L480,399.7011065483093L506.66666666666663,399.7034788131714L533.3333333333333,399.88914132118225L560,399.89773631095886L586.6666666666666,399.8959243297577L613.3333333333334,399.8745799064636L640,399.8932421207428L666.6666666666667,399.9024569988251L693.3333333333334,399.89171624183655L720,399.6948778629303L746.6666666666666,399.8997926712036L773.3333333333334,399.8907446861267L800,399.8826026916504" stroke="#ffff00" stroke-width="12.5" opacity="0.05"/></g></g><path class="foreground" aria-hidden="true" d="" display="none"/></g><g transform="translate(0,0)"><path class="background" aria-hidden="true" d="M0,0h800v400h-800Z"/><g><g class="mark-line role-mark layer_1_layer_9_marks" role="graphics-symbol" aria-roledescription="line mark container"><path d="M26.666666666666668,393.22230219841003L53.333333333333336,392.44624972343445L80,392.26295948028564L106.66666666666667,391.27721786499023L133.33333333333331,387.3674809932709L160,380.3878664970398L186.66666666666666,385.9544634819031L213.33333333333334,378.93855571746826L240,374.121630191803L266.66666666666663,366.4550542831421L293.3333333333333,360.28725504875183L320,345.5333113670349L346.6666666666667,340.5131995677948L373.3333333333333,323.4425187110901L400,304.59311604499817L426.6666666666667,40.79194664955139L453.3333333333333,179.23986911773682L480,179.9830675125122L506.66666666666663,177.10696458816528L533.3333333333333,154.90424633026123L560,177.17888951301575L586.6666666666666,103.48283052444458L613.3333333333334,170.91383934020996L640,86.28447651863098L666.6666666666667,145.97644805908203L693.3333333333334,149.94049072265625L720,122.01186418533325L746.6666666666666,164.38264846801758L773.3333333333334,170.23229002952576L800,161.37678623199463" stroke="#FF0000" stroke-width="12.5" opacity="0.05"/></g></g><path class="foreground" aria-hidden="true" d="" display="none"/></g><g transform="translate(0,0)"><path class="background" aria-hidden="true" d="M0,0h800v400h-800Z"/><g><g class="mark-line role-mark layer_1_layer_9_marks" role="graphics-symbol" aria-roledescription="line mark container"><path d="M26.666666666666668,399.9554932117462L53.333333333333336,399.8627483844757L80,399.8804986476898L106.66666666666667,399.86430406570435L133.33333333333331,399.86761808395386L160,399.81070160865784L186.66666666666666,399.8500168323517L213.33333333333334,399.855101108551L240,399.83848333358765L266.66666666666663,399.83465671539307L293.3333333333333,399.8222529888153L320,399.8175024986267L346.6666666666667,399.81165528297424L373.3333333333333,399.80475306510925L400,399.7114658355713L426.6666666666667,399.786114692688L453.3333333333333,399.6848702430725L480,399.77827072143555L506.66666666666663,399.76757168769836L533.3333333333333,399.7535169124603L560,399.72764253616333L586.6666666666666,399.54655170440674L613.3333333333334,399.6857285499573L640,399.4940757751465L666.6666666666667,399.5834171772003L693.3333333333334,399.6888816356659L720,399.3937075138092L746.6666666666666,399.6964931488037L773.3333333333334,399.70070719718933L800,399.6421217918396" stroke="#5f249f" stroke-width="12.5" opacity="0.05"/></g></g><path class="foreground" aria-hidden="true" d="" display="none"/></g><g transform="translate(0,0)"><path class="background" aria-hidden="true" d="M0,0h800v400h-800Z"/><g><g class="mark-line role-mark layer_1_layer_9_marks" role="graphics-symbol" aria-roledescription="line mark container"><path d="M26.666666666666668,399.86485838890076L53.333333333333336,399.85864758491516L80,399.89609122276306L106.66666666666667,399.9106168746948L133.33333333333331,399.91998076438904L160,399.9221742153168L186.66666666666666,399.9224781990051L213.33333333333334,399.92467164993286L240,399.9245345592499L266.66666666666663,399.9234139919281L293.3333333333333,399.91952180862427L320,399.92477893829346L346.6666666666667,399.92201924324036L373.3333333333333,399.92392659187317L400,399.9211370944977L426.6666666666667,399.92382526397705L453.3333333333333,399.92014169692993L480,399.9052584171295L506.66666666666663,399.9207377433777L533.3333333333333,399.91857409477234L560,399.92039799690247L586.6666666666666,399.91544485092163L613.3333333333334,399.91544485092163L640,399.9183237552643L666.6666666666667,399.91759061813354L693.3333333333334,399.9010980129242L720,399.92029666900635L746.6666666666666,399.9148488044739L773.3333333333334,399.4533836841583L800,399.9138832092285" stroke="#228C22" stroke-width="12.5" opacity="0.05"/></g></g><path class="foreground" aria-hidden="true" d="" display="none"/></g></g><g class="mark-group role-legend" role="graphics-symbol" aria-roledescription="legend" aria-label="Symbol legend titled 'Classifiers' for fill color and stroke color with 5 values: DecisionTree, GausianNB, KNN, LinearSVC, RandomForest"><g transform="translate(831,0)"><path class="background" aria-hidden="true" d="M0,0h83v93h-83Z" pointer-events="none"/><g><g class="mark-group role-legend-entry"><g transform="translate(0,16)"><path class="background" aria-hidden="true" d="M0,0h0v0h0Z" pointer-events="none"/><g><g class="mark-group role-scope" role="graphics-object" aria-roledescription="group mark container"><g transform="translate(0,0)"><path class="background" aria-hidden="true" d="M0,0h82.1376953125v12.5h-82.1376953125Z" pointer-events="none" opacity="1"/><g><g class="mark-symbol role-legend-symbol" pointer-events="none"><path transform="translate(6,6)" d="M5,0A5,5,0,1,1,-5,0A5,5,0,1,1,5,0" fill="#228C22" fill-opacity="0.4" stroke="#228C22" stroke-width="1.5" opacity="0.7"/></g><g class="mark-text role-legend-label" pointer-events="none"><text text-anchor="start" transform="translate(16,9)" font-family="sans-serif" font-size="10px" fill="#444444" opacity="1">DecisionTree</text></g></g><path class="foreground" aria-hidden="true" d="" pointer-events="none" display="none"/></g><g transform="translate(0,16)"><path class="background" aria-hidden="true" d="M0,0h82.1376953125v12.5h-82.1376953125Z" pointer-events="none" opacity="1"/><g><g class="mark-symbol role-legend-symbol" pointer-events="none"><path transform="translate(6,6)" d="M5,0A5,5,0,1,1,-5,0A5,5,0,1,1,5,0" fill="#5f249f" fill-opacity="0.4" stroke="#5f249f" stroke-width="1.5" opacity="0.7"/></g><g class="mark-text role-legend-label" pointer-events="none"><text text-anchor="start" transform="translate(16,9)" font-family="sans-serif" font-size="10px" fill="#444444" opacity="1">GausianNB</text></g></g><path class="foreground" aria-hidden="true" d="" pointer-events="none" display="none"/></g><g transform="translate(0,32)"><path class="background" aria-hidden="true" d="M0,0h82.1376953125v12.5h-82.1376953125Z" pointer-events="none" opacity="1"/><g><g class="mark-symbol role-legend-symbol" pointer-events="none"><path transform="translate(6,6)" d="M5,0A5,5,0,1,1,-5,0A5,5,0,1,1,5,0" fill="#FF0000" fill-opacity="0.4" stroke="#FF0000" stroke-width="1.5" opacity="0.7"/></g><g class="mark-text role-legend-label" pointer-events="none"><text text-anchor="start" transform="translate(16,9)" font-family="sans-serif" font-size="10px" fill="#444444" opacity="1">KNN</text></g></g><path class="foreground" aria-hidden="true" d="" pointer-events="none" display="none"/></g><g transform="translate(0,48)"><path class="background" aria-hidden="true" d="M0,0h82.1376953125v12.5h-82.1376953125Z" pointer-events="none" opacity="1"/><g><g class="mark-symbol role-legend-symbol" pointer-events="none"><path transform="translate(6,6)" d="M5,0A5,5,0,1,1,-5,0A5,5,0,1,1,5,0" fill="#ffff00" fill-opacity="0.4" stroke="#ffff00" stroke-width="1.5" opacity="0.7"/></g><g class="mark-text role-legend-label" pointer-events="none"><text text-anchor="start" transform="translate(16,9)" font-family="sans-serif" font-size="10px" fill="#444444" opacity="1">LinearSVC</text></g></g><path class="foreground" aria-hidden="true" d="" pointer-events="none" display="none"/></g><g transform="translate(0,64)"><path class="background" aria-hidden="true" d="M0,0h82.1376953125v12.5h-82.1376953125Z" pointer-events="none" opacity="1"/><g><g class="mark-symbol role-legend-symbol" pointer-events="none"><path transform="translate(6,6)" d="M5,0A5,5,0,1,1,-5,0A5,5,0,1,1,5,0" fill="#00FFFF" fill-opacity="0.4" stroke="#00FFFF" stroke-width="1.5" opacity="0.7"/></g><g class="mark-text role-legend-label" pointer-events="none"><text text-anchor="start" transform="translate(16,9)" font-family="sans-serif" font-size="10px" fill="#444444" opacity="1">RandomForest</text></g></g><path class="foreground" aria-hidden="true" d="" pointer-events="none" display="none"/></g></g></g><path class="foreground" aria-hidden="true" d="" pointer-events="none" display="none"/></g></g><g class="mark-text role-legend-title" pointer-events="none"><text text-anchor="start" transform="translate(0,9)" font-family="sans-serif" font-size="11px" font-weight="bold" fill="#444444" opacity="1">Classifiers</text></g></g><path class="foreground" aria-hidden="true" d="" pointer-events="none" display="none"/></g></g></g><path class="foreground" aria-hidden="true" d="" display="none"/></g></g></g></svg>
