<svg xmlns="http://www.w3.org/2000/svg" xmlns:xlink="http://www.w3.org/1999/xlink" version="1.1" class="marks" width="936" height="447" viewBox="0 0 936 447"><rect width="936" height="447" fill="#efefef"/><g fill="none" stroke-miterlimit="10" transform="translate(41,10)"><g class="mark-group role-frame root" role="graphics-object" aria-roledescription="group mark container"><g transform="translate(0,0)"><path class="background" aria-hidden="true" d="M0.5,0.5h800v400h-800Z" stroke="#ddd"/><g><g class="mark-group role-axis" role="graphics-symbol" aria-roledescription="axis" aria-label="X-axis for a linear scale with values from 0 to 160"><g transform="translate(0.5,400.5)"><path class="background" aria-hidden="true" d="M0,0h0v0h0Z" pointer-events="none"/><g><g class="mark-rule role-axis-grid" pointer-events="none"><line transform="translate(0,-400)" x2="0" y2="400" stroke="#ffffff" stroke-width="1" opacity="1"/><line transform="translate(50,-400)" x2="0" y2="400" stroke="#ffffff" stroke-width="1" opacity="1"/><line transform="translate(100,-400)" x2="0" y2="400" stroke="#ffffff" stroke-width="1" opacity="1"/><line transform="translate(150,-400)" x2="0" y2="400" stroke="#ffffff" stroke-width="1" opacity="1"/><line transform="translate(200,-400)" x2="0" y2="400" stroke="#ffffff" stroke-width="1" opacity="1"/><line transform="translate(250,-400)" x2="0" y2="400" stroke="#ffffff" stroke-width="1" opacity="1"/><line transform="translate(300,-400)" x2="0" y2="400" stroke="#ffffff" stroke-width="1" opacity="1"/><line transform="translate(350,-400)" x2="0" y2="400" stroke="#ffffff" stroke-width="1" opacity="1"/><line transform="translate(400,-400)" x2="0" y2="400" stroke="#ffffff" stroke-width="1" opacity="1"/><line transform="translate(450,-400)" x2="0" y2="400" stroke="#ffffff" stroke-width="1" opacity="1"/><line transform="translate(500,-400)" x2="0" y2="400" stroke="#ffffff" stroke-width="1" opacity="1"/><line transform="translate(550,-400)" x2="0" y2="400" stroke="#ffffff" stroke-width="1" opacity="1"/><line transform="translate(600,-400)" x2="0" y2="400" stroke="#ffffff" stroke-width="1" opacity="1"/><line transform="translate(650,-400)" x2="0" y2="400" stroke="#ffffff" stroke-width="1" opacity="1"/><line transform="translate(700,-400)" x2="0" y2="400" stroke="#ffffff" stroke-width="1" opacity="1"/><line transform="translate(750,-400)" x2="0" y2="400" stroke="#ffffff" stroke-width="1" opacity="1"/><line transform="translate(800,-400)" x2="0" y2="400" stroke="#ffffff" stroke-width="1" opacity="1"/></g></g><path class="foreground" aria-hidden="true" d="" pointer-events="none" display="none"/></g></g><g class="mark-group role-axis" role="graphics-symbol" aria-roledescription="axis" aria-label="Y-axis for a linear scale with values from 0.0 to 1.0"><g transform="translate(0.5,0.5)"><path class="background" aria-hidden="true" d="M0,0h0v0h0Z" pointer-events="none"/><g><g class="mark-rule role-axis-grid" pointer-events="none"><line transform="translate(0,400)" x2="800" y2="0" stroke="#ffffff" stroke-width="1" opacity="1"/><line transform="translate(0,360)" x2="800" y2="0" stroke="#ffffff" stroke-width="1" opacity="1"/><line transform="translate(0,320)" x2="800" y2="0" stroke="#ffffff" stroke-width="1" opacity="1"/><line transform="translate(0,280)" x2="800" y2="0" stroke="#ffffff" stroke-width="1" opacity="1"/><line transform="translate(0,240)" x2="800" y2="0" stroke="#ffffff" stroke-width="1" opacity="1"/><line transform="translate(0,200)" x2="800" y2="0" stroke="#ffffff" stroke-width="1" opacity="1"/><line transform="translate(0,160)" x2="800" y2="0" stroke="#ffffff" stroke-width="1" opacity="1"/><line transform="translate(0,120)" x2="800" y2="0" stroke="#ffffff" stroke-width="1" opacity="1"/><line transform="translate(0,80)" x2="800" y2="0" stroke="#ffffff" stroke-width="1" opacity="1"/><line transform="translate(0,40)" x2="800" y2="0" stroke="#ffffff" stroke-width="1" opacity="1"/><line transform="translate(0,0)" x2="800" y2="0" stroke="#ffffff" stroke-width="1" opacity="1"/></g></g><path class="foreground" aria-hidden="true" d="" pointer-events="none" display="none"/></g></g><g class="mark-group role-axis" role="graphics-symbol" aria-roledescription="axis" aria-label="X-axis titled 'Number of Components' for a linear scale with values from 0 to 160"><g transform="translate(0.5,400.5)"><path class="background" aria-hidden="true" d="M0,0h0v0h0Z" pointer-events="none"/><g><g class="mark-rule role-axis-tick" pointer-events="none"><line transform="translate(0,0)" x2="0" y2="5" stroke-width="1" opacity="1"/><line transform="translate(50,0)" x2="0" y2="5" stroke-width="1" opacity="1"/><line transform="translate(100,0)" x2="0" y2="5" stroke-width="1" opacity="1"/><line transform="translate(150,0)" x2="0" y2="5" stroke-width="1" opacity="1"/><line transform="translate(200,0)" x2="0" y2="5" stroke-width="1" opacity="1"/><line transform="translate(250,0)" x2="0" y2="5" stroke-width="1" opacity="1"/><line transform="translate(300,0)" x2="0" y2="5" stroke-width="1" opacity="1"/><line transform="translate(350,0)" x2="0" y2="5" stroke-width="1" opacity="1"/><line transform="translate(400,0)" x2="0" y2="5" stroke-width="1" opacity="1"/><line transform="translate(450,0)" x2="0" y2="5" stroke-width="1" opacity="1"/><line transform="translate(500,0)" x2="0" y2="5" stroke-width="1" opacity="1"/><line transform="translate(550,0)" x2="0" y2="5" stroke-width="1" opacity="1"/><line transform="translate(600,0)" x2="0" y2="5" stroke-width="1" opacity="1"/><line transform="translate(650,0)" x2="0" y2="5" stroke-width="1" opacity="1"/><line transform="translate(700,0)" x2="0" y2="5" stroke-width="1" opacity="1"/><line transform="translate(750,0)" x2="0" y2="5" stroke-width="1" opacity="1"/><line transform="translate(800,0)" x2="0" y2="5" stroke-width="1" opacity="1"/></g><g class="mark-text role-axis-label" pointer-events="none"><text text-anchor="start" transform="translate(0,15)" font-family="sans-serif" font-size="10px" fill="#444444" opacity="1">0</text><text text-anchor="middle" transform="translate(50,15)" font-family="sans-serif" font-size="10px" fill="#444444" opacity="1">10</text><text text-anchor="middle" transform="translate(100,15)" font-family="sans-serif" font-size="10px" fill="#444444" opacity="1">20</text><text text-anchor="middle" transform="translate(150,15)" font-family="sans-serif" font-size="10px" fill="#444444" opacity="1">30</text><text text-anchor="middle" transform="translate(200,15)" font-family="sans-serif" font-size="10px" fill="#444444" opacity="1">40</text><text text-anchor="middle" transform="translate(250,15)" font-family="sans-serif" font-size="10px" fill="#444444" opacity="1">50</text><text text-anchor="middle" transform="translate(300,15)" font-family="sans-serif" font-size="10px" fill="#444444" opacity="1">60</text><text text-anchor="middle" transform="translate(350,15)" font-family="sans-serif" font-size="10px" fill="#444444" opacity="1">70</text><text text-anchor="middle" transform="translate(400,15)" font-family="sans-serif" font-size="10px" fill="#444444" opacity="1">80</text><text text-anchor="middle" transform="translate(450,15)" font-family="sans-serif" font-size="10px" fill="#444444" opacity="1">90</text><text text-anchor="middle" transform="translate(500,15)" font-family="sans-serif" font-size="10px" fill="#444444" opacity="1">100</text><text text-anchor="middle" transform="translate(550,15)" font-family="sans-serif" font-size="10px" fill="#444444" opacity="1">110</text><text text-anchor="middle" transform="translate(600,15)" font-family="sans-serif" font-size="10px" fill="#444444" opacity="1">120</text><text text-anchor="middle" transform="translate(650,15)" font-family="sans-serif" font-size="10px" fill="#444444" opacity="1">130</text><text text-anchor="middle" transform="translate(700,15)" font-family="sans-serif" font-size="10px" fill="#444444" opacity="1">140</text><text text-anchor="middle" transform="translate(750,15)" font-family="sans-serif" font-size="10px" fill="#444444" opacity="1">150</text><text text-anchor="end" transform="translate(800,15)" font-family="sans-serif" font-size="10px" fill="#444444" opacity="1">160</text></g><g class="mark-rule role-axis-domain" pointer-events="none"><line transform="translate(0,0)" x2="800" y2="0" stroke-width="1" opacity="1"/></g><g class="mark-text role-axis-title" pointer-events="none"><text text-anchor="middle" transform="translate(400,30)" font-family="sans-serif" font-size="11px" font-weight="bold" fill="#444444" opacity="1">Number of Components</text></g></g><path class="foreground" aria-hidden="true" d="" pointer-events="none" display="none"/></g></g><g class="mark-group role-axis" role="graphics-symbol" aria-roledescription="axis" aria-label="Y-axis titled 'Accuracy' for a linear scale with values from 0.0 to 1.0"><g transform="translate(0.5,0.5)"><path class="background" aria-hidden="true" d="M0,0h0v0h0Z" pointer-events="none"/><g><g class="mark-rule role-axis-tick" pointer-events="none"><line transform="translate(0,400)" x2="-5" y2="0" stroke-width="1" opacity="1"/><line transform="translate(0,360)" x2="-5" y2="0" stroke-width="1" opacity="1"/><line transform="translate(0,320)" x2="-5" y2="0" stroke-width="1" opacity="1"/><line transform="translate(0,280)" x2="-5" y2="0" stroke-width="1" opacity="1"/><line transform="translate(0,240)" x2="-5" y2="0" stroke-width="1" opacity="1"/><line transform="translate(0,200)" x2="-5" y2="0" stroke-width="1" opacity="1"/><line transform="translate(0,160)" x2="-5" y2="0" stroke-width="1" opacity="1"/><line transform="translate(0,120)" x2="-5" y2="0" stroke-width="1" opacity="1"/><line transform="translate(0,80)" x2="-5" y2="0" stroke-width="1" opacity="1"/><line transform="translate(0,40)" x2="-5" y2="0" stroke-width="1" opacity="1"/><line transform="translate(0,0)" x2="-5" y2="0" stroke-width="1" opacity="1"/></g><g class="mark-text role-axis-label" pointer-events="none"><text text-anchor="end" transform="translate(-7,403)" font-family="sans-serif" font-size="10px" fill="#444444" opacity="1">0.0</text><text text-anchor="end" transform="translate(-7,363)" font-family="sans-serif" font-size="10px" fill="#444444" opacity="1">0.1</text><text text-anchor="end" transform="translate(-7,323)" font-family="sans-serif" font-size="10px" fill="#444444" opacity="1">0.2</text><text text-anchor="end" transform="translate(-7,283)" font-family="sans-serif" font-size="10px" fill="#444444" opacity="1">0.3</text><text text-anchor="end" transform="translate(-7,243)" font-family="sans-serif" font-size="10px" fill="#444444" opacity="1">0.4</text><text text-anchor="end" transform="translate(-7,203)" font-family="sans-serif" font-size="10px" fill="#444444" opacity="1">0.5</text><text text-anchor="end" transform="translate(-7,163)" font-family="sans-serif" font-size="10px" fill="#444444" opacity="1">0.6</text><text text-anchor="end" transform="translate(-7,123.00000000000001)" font-family="sans-serif" font-size="10px" fill="#444444" opacity="1">0.7</text><text text-anchor="end" transform="translate(-7,82.99999999999999)" font-family="sans-serif" font-size="10px" fill="#444444" opacity="1">0.8</text><text text-anchor="end" transform="translate(-7,42.99999999999999)" font-family="sans-serif" font-size="10px" fill="#444444" opacity="1">0.9</text><text text-anchor="end" transform="translate(-7,3)" font-family="sans-serif" font-size="10px" fill="#444444" opacity="1">1.0</text></g><g class="mark-rule role-axis-domain" pointer-events="none"><line transform="translate(0,400)" x2="0" y2="-400" stroke-width="1" opacity="1"/></g><g class="mark-text role-axis-title" pointer-events="none"><text text-anchor="middle" transform="translate(-24.9013671875,200) rotate(-90) translate(0,-2)" font-family="sans-serif" font-size="11px" font-weight="bold" fill="#444444" opacity="1">Accuracy</text></g></g><path class="foreground" aria-hidden="true" d="" pointer-events="none" display="none"/></g></g><g class="mark-group role-scope layer_0_layer_0_pathgroup" role="graphics-object" aria-roledescription="group mark container"><g transform="translate(0,0)"><path class="background" aria-hidden="true" d="M0,0h800v400h-800Z"/><g><g class="mark-area role-mark layer_0_layer_0_marks" role="graphics-symbol" aria-roledescription="area mark container"><path d="M5,195.15199368337937L10,193.03592577970784L15,110.00394788787999L20,98.41294907224633L25,135.9020923805764L30,131.22779313067508L35,120.01579155151995L40,64.6190288195815L45,65.40860639557837L50,70.71456770627714L55.00000000000001,46.206079747335195L60,55.52309514409792L65,35.30990919857877L70,58.58665613896563L75,49.6486379786814L80,48.10106592972758L85,49.932885906040255L90,44.721673904461134L95,59.09198578760364L100,41.4054480852744L105,49.52230556652193L110.00000000000001,39.73154362416107L114.99999999999999,52.080536912751676L120,44.247927358863L125,33.38333991314646L130,43.45834978286618L135,45.700750098697185L140,44.43742597710223L145,52.933280694828255L150,44.31109356494276L155,45.29016975917885L160,49.99605211212001L165,31.993683379392035L170,43.521515988945936L175,45.66916699565731L180,42.57402289774972L185,45.63758389261743L190,43.363600473746544L195,43.45834978286618L200,43.96367943150415L204.99999999999997,39.66837741808131L210,40.679036715357284L215,42.13185945519147L220.00000000000003,50.280300039478874L225,52.39636794315041L229.99999999999997,39.41571259376233L235,52.491117252270044L240,38.08922226608766L245.00000000000003,56.09159099881565L250,48.03789972364787L254.99999999999997,45.353335965258566L260,41.56336360047375L265,49.52230556652193L270,58.36557441768653L275,39.38412949072245L280,37.04697986577181L285,43.39518357678642L290,39.76312672720095L295,41.658112909593385L300,47.12198973549153L305,43.647848401105406L310,39.19463087248323L315,40.90011843663639L320,39.131464666403474L325,40.8053691275168L330,47.406237662850394L335,54.607185155941586L340,46.4271614686143L345,58.491906829846045L350,53.280694828266874L355,49.33280694828266L360,36.57323332017373L365,55.90209238057638L370,37.55230951440978L375,43.11093564942756L380,46.45874457165418L385,48.32214765100673L390,51.19621002763522L395,54.22818791946309L400,54.57560205290171L405,55.617844453217515L409.99999999999994,56.53375444137385L415.00000000000006,43.90051322542439L420,59.028819581523884L425,47.248322147651L430,47.31148835373076L434.99999999999994,36.446900908014214L440.00000000000006,37.74180813264905L445,54.48085274378207L450,62.62929332806948L455,41.50019739439399L459.99999999999994,51.00671140939599L465.00000000000006,42.479273588630086L470,36.57323332017373L475,47.53257007500986L480,49.743387287801035L484.99999999999994,50.65929727595737L490.00000000000006,39.76312672720095L495,48.574812475325714L500,38.7208843268851L505,55.933675483616256L509.99999999999994,38.05763916304778L515,45.00592183182L520,58.460323726806166L525,50.78562968811684L530,41.658112909593385L535,40.26845637583891L540,46.90090801421238L545,38.87879984208449L550,47.185155941571246L555,49.427556257402294L560,41.81602842479273L565,38.784050532964855L570,50.4697986577181L575,50.596131069877615L580,42.163442558231345L585,39.636794315041435L590,54.796683774180806L595,37.23647848401104L600,48.32214765100673L605,55.175681010659304L610,47.69048559020925L615,45.66916699565731L620,44.78484011054085L625,49.8697196999605L630,46.96407422029214L635,50.4697986577181L640,56.88116857481247L645,44.27951046190288L650,55.74417686537703L655,41.18436636399525L660,50.78562968811684L665,50.53296486379786L670,66.4192656928543L675,48.85906040268458L680,37.67864192656929L685,54.57560205290171L690,47.27990525069088L695,45.32175286221873L700,48.29056454796685L705,44.75325700750097L710,48.4484800631662L715,52.52270035530992L720,52.491117252270044L725,51.03829451243587L730,36.88906435057247L735,36.82589814449271L740,56.21792341097511L745,53.37544413738651L750,50.05921831819977L750,400L745,400L740,400L735,400L730,400L725,400L720,400L715,400L710,400L705,400L700,400L695,400L690,400L685,400L680,400L675,400L670,400L665,400L660,400L655,400L650,400L645,400L640,400L635,400L630,400L625,400L620,400L615,400L610,400L605,400L600,400L595,400L590,400L585,400L580,400L575,400L570,400L565,400L560,400L555,400L550,400L545,400L540,400L535,400L530,400L525,400L520,400L515,400L509.99999999999994,400L505,400L500,400L495,400L490.00000000000006,400L484.99999999999994,400L480,400L475,400L470,400L465.00000000000006,400L459.99999999999994,400L455,400L450,400L445,400L440.00000000000006,400L434.99999999999994,400L430,400L425,400L420,400L415.00000000000006,400L409.99999999999994,400L405,400L400,400L395,400L390,400L385,400L380,400L375,400L370,400L365,400L360,400L355,400L350,400L345,400L340,400L335,400L330,400L325,400L320,400L315,400L310,400L305,400L300,400L295,400L290,400L285,400L280,400L275,400L270,400L265,400L260,400L254.99999999999997,400L250,400L245.00000000000003,400L240,400L235,400L229.99999999999997,400L225,400L220.00000000000003,400L215,400L210,400L204.99999999999997,400L200,400L195,400L190,400L185,400L180,400L175,400L170,400L165,400L160,400L155,400L150,400L145,400L140,400L135,400L130,400L125,400L120,400L114.99999999999999,400L110.00000000000001,400L105,400L100,400L95,400L90,400L85,400L80,400L75,400L70,400L65,400L60,400L55.00000000000001,400L50,400L45,400L40,400L35,400L30,400L25,400L20,400L15,400L10,400L5,400Z" fill="#228C22" fill-opacity="0.4" opacity="0.7"/></g></g><path class="foreground" aria-hidden="true" d="" display="none"/></g></g><g class="mark-group role-scope layer_0_layer_1_pathgroup" role="graphics-object" aria-roledescription="group mark container"><g transform="translate(0,0)"><path class="background" aria-hidden="true" d="M0,0h800v400h-800Z"/><g><g class="mark-line role-mark layer_0_layer_1_marks" role="graphics-symbol" aria-roledescription="line mark container"><path d="M5,195.15199368337937L10,193.03592577970784L15,110.00394788787999L20,98.41294907224633L25,135.9020923805764L30,131.22779313067508L35,120.01579155151995L40,64.6190288195815L45,65.40860639557837L50,70.71456770627714L55.00000000000001,46.206079747335195L60,55.52309514409792L65,35.30990919857877L70,58.58665613896563L75,49.6486379786814L80,48.10106592972758L85,49.932885906040255L90,44.721673904461134L95,59.09198578760364L100,41.4054480852744L105,49.52230556652193L110.00000000000001,39.73154362416107L114.99999999999999,52.080536912751676L120,44.247927358863L125,33.38333991314646L130,43.45834978286618L135,45.700750098697185L140,44.43742597710223L145,52.933280694828255L150,44.31109356494276L155,45.29016975917885L160,49.99605211212001L165,31.993683379392035L170,43.521515988945936L175,45.66916699565731L180,42.57402289774972L185,45.63758389261743L190,43.363600473746544L195,43.45834978286618L200,43.96367943150415L204.99999999999997,39.66837741808131L210,40.679036715357284L215,42.13185945519147L220.00000000000003,50.280300039478874L225,52.39636794315041L229.99999999999997,39.41571259376233L235,52.491117252270044L240,38.08922226608766L245.00000000000003,56.09159099881565L250,48.03789972364787L254.99999999999997,45.353335965258566L260,41.56336360047375L265,49.52230556652193L270,58.36557441768653L275,39.38412949072245L280,37.04697986577181L285,43.39518357678642L290,39.76312672720095L295,41.658112909593385L300,47.12198973549153L305,43.647848401105406L310,39.19463087248323L315,40.90011843663639L320,39.131464666403474L325,40.8053691275168L330,47.406237662850394L335,54.607185155941586L340,46.4271614686143L345,58.491906829846045L350,53.280694828266874L355,49.33280694828266L360,36.57323332017373L365,55.90209238057638L370,37.55230951440978L375,43.11093564942756L380,46.45874457165418L385,48.32214765100673L390,51.19621002763522L395,54.22818791946309L400,54.57560205290171L405,55.617844453217515L409.99999999999994,56.53375444137385L415.00000000000006,43.90051322542439L420,59.028819581523884L425,47.248322147651L430,47.31148835373076L434.99999999999994,36.446900908014214L440.00000000000006,37.74180813264905L445,54.48085274378207L450,62.62929332806948L455,41.50019739439399L459.99999999999994,51.00671140939599L465.00000000000006,42.479273588630086L470,36.57323332017373L475,47.53257007500986L480,49.743387287801035L484.99999999999994,50.65929727595737L490.00000000000006,39.76312672720095L495,48.574812475325714L500,38.7208843268851L505,55.933675483616256L509.99999999999994,38.05763916304778L515,45.00592183182L520,58.460323726806166L525,50.78562968811684L530,41.658112909593385L535,40.26845637583891L540,46.90090801421238L545,38.87879984208449L550,47.185155941571246L555,49.427556257402294L560,41.81602842479273L565,38.784050532964855L570,50.4697986577181L575,50.596131069877615L580,42.163442558231345L585,39.636794315041435L590,54.796683774180806L595,37.23647848401104L600,48.32214765100673L605,55.175681010659304L610,47.69048559020925L615,45.66916699565731L620,44.78484011054085L625,49.8697196999605L630,46.96407422029214L635,50.4697986577181L640,56.88116857481247L645,44.27951046190288L650,55.74417686537703L655,41.18436636399525L660,50.78562968811684L665,50.53296486379786L670,66.4192656928543L675,48.85906040268458L680,37.67864192656929L685,54.57560205290171L690,47.27990525069088L695,45.32175286221873L700,48.29056454796685L705,44.75325700750097L710,48.4484800631662L715,52.52270035530992L720,52.491117252270044L725,51.03829451243587L730,36.88906435057247L735,36.82589814449271L740,56.21792341097511L745,53.37544413738651L750,50.05921831819977" stroke="#228C22" stroke-width="2"/></g></g><path class="foreground" aria-hidden="true" d="" display="none"/></g></g><g class="mark-group role-scope layer_1_layer_0_pathgroup" role="graphics-object" aria-roledescription="group mark container"><g transform="translate(0,0)"><path class="background" aria-hidden="true" d="M0,0h800v400h-800Z"/><g><g class="mark-line role-mark layer_1_layer_0_marks" role="graphics-symbol" aria-roledescription="line mark container"><path d="M5,195.15199368337937L10,193.03592577970784L15,110.00394788787999L20,98.41294907224633L25,135.9020923805764L30,131.22779313067508L35,120.01579155151995L40,64.6190288195815L45,65.40860639557837L50,70.71456770627714L55.00000000000001,46.206079747335195L60,55.52309514409792L65,35.30990919857877L70,58.58665613896563L75,49.6486379786814L80,48.10106592972758L85,49.932885906040255L90,44.721673904461134L95,59.09198578760364L100,41.4054480852744L105,49.52230556652193L110.00000000000001,39.73154362416107L114.99999999999999,52.080536912751676L120,44.247927358863L125,33.38333991314646L130,43.45834978286618L135,45.700750098697185L140,44.43742597710223L145,52.933280694828255L150,44.31109356494276L155,45.29016975917885L160,49.99605211212001L165,31.993683379392035L170,43.521515988945936L175,45.66916699565731L180,42.57402289774972L185,45.63758389261743L190,43.363600473746544L195,43.45834978286618L200,43.96367943150415L204.99999999999997,39.66837741808131L210,40.679036715357284L215,42.13185945519147L220.00000000000003,50.280300039478874L225,52.39636794315041L229.99999999999997,39.41571259376233L235,52.491117252270044L240,38.08922226608766L245.00000000000003,56.09159099881565L250,48.03789972364787L254.99999999999997,45.353335965258566L260,41.56336360047375L265,49.52230556652193L270,58.36557441768653L275,39.38412949072245L280,37.04697986577181L285,43.39518357678642L290,39.76312672720095L295,41.658112909593385L300,47.12198973549153L305,43.647848401105406L310,39.19463087248323L315,40.90011843663639L320,39.131464666403474L325,40.8053691275168L330,47.406237662850394L335,54.607185155941586L340,46.4271614686143L345,58.491906829846045L350,53.280694828266874L355,49.33280694828266L360,36.57323332017373L365,55.90209238057638L370,37.55230951440978L375,43.11093564942756L380,46.45874457165418L385,48.32214765100673L390,51.19621002763522L395,54.22818791946309L400,54.57560205290171L405,55.617844453217515L409.99999999999994,56.53375444137385L415.00000000000006,43.90051322542439L420,59.028819581523884L425,47.248322147651L430,47.31148835373076L434.99999999999994,36.446900908014214L440.00000000000006,37.74180813264905L445,54.48085274378207L450,62.62929332806948L455,41.50019739439399L459.99999999999994,51.00671140939599L465.00000000000006,42.479273588630086L470,36.57323332017373L475,47.53257007500986L480,49.743387287801035L484.99999999999994,50.65929727595737L490.00000000000006,39.76312672720095L495,48.574812475325714L500,38.7208843268851L505,55.933675483616256L509.99999999999994,38.05763916304778L515,45.00592183182L520,58.460323726806166L525,50.78562968811684L530,41.658112909593385L535,40.26845637583891L540,46.90090801421238L545,38.87879984208449L550,47.185155941571246L555,49.427556257402294L560,41.81602842479273L565,38.784050532964855L570,50.4697986577181L575,50.596131069877615L580,42.163442558231345L585,39.636794315041435L590,54.796683774180806L595,37.23647848401104L600,48.32214765100673L605,55.175681010659304L610,47.69048559020925L615,45.66916699565731L620,44.78484011054085L625,49.8697196999605L630,46.96407422029214L635,50.4697986577181L640,56.88116857481247L645,44.27951046190288L650,55.74417686537703L655,41.18436636399525L660,50.78562968811684L665,50.53296486379786L670,66.4192656928543L675,48.85906040268458L680,37.67864192656929L685,54.57560205290171L690,47.27990525069088L695,45.32175286221873L700,48.29056454796685L705,44.75325700750097L710,48.4484800631662L715,52.52270035530992L720,52.491117252270044L725,51.03829451243587L730,36.88906435057247L735,36.82589814449271L740,56.21792341097511L745,53.37544413738651L750,50.05921831819977" stroke="#228C22" stroke-width="3.05" opacity="0.05"/></g></g><path class="foreground" aria-hidden="true" d="" display="none"/></g></g><g class="mark-group role-scope layer_1_layer_1_pathgroup" role="graphics-object" aria-roledescription="group mark container"><g transform="translate(0,0)"><path class="background" aria-hidden="true" d="M0,0h800v400h-800Z"/><g><g class="mark-line role-mark layer_1_layer_1_marks" role="graphics-symbol" aria-roledescription="line mark container"><path d="M5,195.15199368337937L10,193.03592577970784L15,110.00394788787999L20,98.41294907224633L25,135.9020923805764L30,131.22779313067508L35,120.01579155151995L40,64.6190288195815L45,65.40860639557837L50,70.71456770627714L55.00000000000001,46.206079747335195L60,55.52309514409792L65,35.30990919857877L70,58.58665613896563L75,49.6486379786814L80,48.10106592972758L85,49.932885906040255L90,44.721673904461134L95,59.09198578760364L100,41.4054480852744L105,49.52230556652193L110.00000000000001,39.73154362416107L114.99999999999999,52.080536912751676L120,44.247927358863L125,33.38333991314646L130,43.45834978286618L135,45.700750098697185L140,44.43742597710223L145,52.933280694828255L150,44.31109356494276L155,45.29016975917885L160,49.99605211212001L165,31.993683379392035L170,43.521515988945936L175,45.66916699565731L180,42.57402289774972L185,45.63758389261743L190,43.363600473746544L195,43.45834978286618L200,43.96367943150415L204.99999999999997,39.66837741808131L210,40.679036715357284L215,42.13185945519147L220.00000000000003,50.280300039478874L225,52.39636794315041L229.99999999999997,39.41571259376233L235,52.491117252270044L240,38.08922226608766L245.00000000000003,56.09159099881565L250,48.03789972364787L254.99999999999997,45.353335965258566L260,41.56336360047375L265,49.52230556652193L270,58.36557441768653L275,39.38412949072245L280,37.04697986577181L285,43.39518357678642L290,39.76312672720095L295,41.658112909593385L300,47.12198973549153L305,43.647848401105406L310,39.19463087248323L315,40.90011843663639L320,39.131464666403474L325,40.8053691275168L330,47.406237662850394L335,54.607185155941586L340,46.4271614686143L345,58.491906829846045L350,53.280694828266874L355,49.33280694828266L360,36.57323332017373L365,55.90209238057638L370,37.55230951440978L375,43.11093564942756L380,46.45874457165418L385,48.32214765100673L390,51.19621002763522L395,54.22818791946309L400,54.57560205290171L405,55.617844453217515L409.99999999999994,56.53375444137385L415.00000000000006,43.90051322542439L420,59.028819581523884L425,47.248322147651L430,47.31148835373076L434.99999999999994,36.446900908014214L440.00000000000006,37.74180813264905L445,54.48085274378207L450,62.62929332806948L455,41.50019739439399L459.99999999999994,51.00671140939599L465.00000000000006,42.479273588630086L470,36.57323332017373L475,47.53257007500986L480,49.743387287801035L484.99999999999994,50.65929727595737L490.00000000000006,39.76312672720095L495,48.574812475325714L500,38.7208843268851L505,55.933675483616256L509.99999999999994,38.05763916304778L515,45.00592183182L520,58.460323726806166L525,50.78562968811684L530,41.658112909593385L535,40.26845637583891L540,46.90090801421238L545,38.87879984208449L550,47.185155941571246L555,49.427556257402294L560,41.81602842479273L565,38.784050532964855L570,50.4697986577181L575,50.596131069877615L580,42.163442558231345L585,39.636794315041435L590,54.796683774180806L595,37.23647848401104L600,48.32214765100673L605,55.175681010659304L610,47.69048559020925L615,45.66916699565731L620,44.78484011054085L625,49.8697196999605L630,46.96407422029214L635,50.4697986577181L640,56.88116857481247L645,44.27951046190288L650,55.74417686537703L655,41.18436636399525L660,50.78562968811684L665,50.53296486379786L670,66.4192656928543L675,48.85906040268458L680,37.67864192656929L685,54.57560205290171L690,47.27990525069088L695,45.32175286221873L700,48.29056454796685L705,44.75325700750097L710,48.4484800631662L715,52.52270035530992L720,52.491117252270044L725,51.03829451243587L730,36.88906435057247L735,36.82589814449271L740,56.21792341097511L745,53.37544413738651L750,50.05921831819977" stroke="#228C22" stroke-width="4.1" opacity="0.05"/></g></g><path class="foreground" aria-hidden="true" d="" display="none"/></g></g><g class="mark-group role-scope layer_1_layer_2_pathgroup" role="graphics-object" aria-roledescription="group mark container"><g transform="translate(0,0)"><path class="background" aria-hidden="true" d="M0,0h800v400h-800Z"/><g><g class="mark-line role-mark layer_1_layer_2_marks" role="graphics-symbol" aria-roledescription="line mark container"><path d="M5,195.15199368337937L10,193.03592577970784L15,110.00394788787999L20,98.41294907224633L25,135.9020923805764L30,131.22779313067508L35,120.01579155151995L40,64.6190288195815L45,65.40860639557837L50,70.71456770627714L55.00000000000001,46.206079747335195L60,55.52309514409792L65,35.30990919857877L70,58.58665613896563L75,49.6486379786814L80,48.10106592972758L85,49.932885906040255L90,44.721673904461134L95,59.09198578760364L100,41.4054480852744L105,49.52230556652193L110.00000000000001,39.73154362416107L114.99999999999999,52.080536912751676L120,44.247927358863L125,33.38333991314646L130,43.45834978286618L135,45.700750098697185L140,44.43742597710223L145,52.933280694828255L150,44.31109356494276L155,45.29016975917885L160,49.99605211212001L165,31.993683379392035L170,43.521515988945936L175,45.66916699565731L180,42.57402289774972L185,45.63758389261743L190,43.363600473746544L195,43.45834978286618L200,43.96367943150415L204.99999999999997,39.66837741808131L210,40.679036715357284L215,42.13185945519147L220.00000000000003,50.280300039478874L225,52.39636794315041L229.99999999999997,39.41571259376233L235,52.491117252270044L240,38.08922226608766L245.00000000000003,56.09159099881565L250,48.03789972364787L254.99999999999997,45.353335965258566L260,41.56336360047375L265,49.52230556652193L270,58.36557441768653L275,39.38412949072245L280,37.04697986577181L285,43.39518357678642L290,39.76312672720095L295,41.658112909593385L300,47.12198973549153L305,43.647848401105406L310,39.19463087248323L315,40.90011843663639L320,39.131464666403474L325,40.8053691275168L330,47.406237662850394L335,54.607185155941586L340,46.4271614686143L345,58.491906829846045L350,53.280694828266874L355,49.33280694828266L360,36.57323332017373L365,55.90209238057638L370,37.55230951440978L375,43.11093564942756L380,46.45874457165418L385,48.32214765100673L390,51.19621002763522L395,54.22818791946309L400,54.57560205290171L405,55.617844453217515L409.99999999999994,56.53375444137385L415.00000000000006,43.90051322542439L420,59.028819581523884L425,47.248322147651L430,47.31148835373076L434.99999999999994,36.446900908014214L440.00000000000006,37.74180813264905L445,54.48085274378207L450,62.62929332806948L455,41.50019739439399L459.99999999999994,51.00671140939599L465.00000000000006,42.479273588630086L470,36.57323332017373L475,47.53257007500986L480,49.743387287801035L484.99999999999994,50.65929727595737L490.00000000000006,39.76312672720095L495,48.574812475325714L500,38.7208843268851L505,55.933675483616256L509.99999999999994,38.05763916304778L515,45.00592183182L520,58.460323726806166L525,50.78562968811684L530,41.658112909593385L535,40.26845637583891L540,46.90090801421238L545,38.87879984208449L550,47.185155941571246L555,49.427556257402294L560,41.81602842479273L565,38.784050532964855L570,50.4697986577181L575,50.596131069877615L580,42.163442558231345L585,39.636794315041435L590,54.796683774180806L595,37.23647848401104L600,48.32214765100673L605,55.175681010659304L610,47.69048559020925L615,45.66916699565731L620,44.78484011054085L625,49.8697196999605L630,46.96407422029214L635,50.4697986577181L640,56.88116857481247L645,44.27951046190288L650,55.74417686537703L655,41.18436636399525L660,50.78562968811684L665,50.53296486379786L670,66.4192656928543L675,48.85906040268458L680,37.67864192656929L685,54.57560205290171L690,47.27990525069088L695,45.32175286221873L700,48.29056454796685L705,44.75325700750097L710,48.4484800631662L715,52.52270035530992L720,52.491117252270044L725,51.03829451243587L730,36.88906435057247L735,36.82589814449271L740,56.21792341097511L745,53.37544413738651L750,50.05921831819977" stroke="#228C22" stroke-width="5.15" opacity="0.05"/></g></g><path class="foreground" aria-hidden="true" d="" display="none"/></g></g><g class="mark-group role-scope layer_1_layer_3_pathgroup" role="graphics-object" aria-roledescription="group mark container"><g transform="translate(0,0)"><path class="background" aria-hidden="true" d="M0,0h800v400h-800Z"/><g><g class="mark-line role-mark layer_1_layer_3_marks" role="graphics-symbol" aria-roledescription="line mark container"><path d="M5,195.15199368337937L10,193.03592577970784L15,110.00394788787999L20,98.41294907224633L25,135.9020923805764L30,131.22779313067508L35,120.01579155151995L40,64.6190288195815L45,65.40860639557837L50,70.71456770627714L55.00000000000001,46.206079747335195L60,55.52309514409792L65,35.30990919857877L70,58.58665613896563L75,49.6486379786814L80,48.10106592972758L85,49.932885906040255L90,44.721673904461134L95,59.09198578760364L100,41.4054480852744L105,49.52230556652193L110.00000000000001,39.73154362416107L114.99999999999999,52.080536912751676L120,44.247927358863L125,33.38333991314646L130,43.45834978286618L135,45.700750098697185L140,44.43742597710223L145,52.933280694828255L150,44.31109356494276L155,45.29016975917885L160,49.99605211212001L165,31.993683379392035L170,43.521515988945936L175,45.66916699565731L180,42.57402289774972L185,45.63758389261743L190,43.363600473746544L195,43.45834978286618L200,43.96367943150415L204.99999999999997,39.66837741808131L210,40.679036715357284L215,42.13185945519147L220.00000000000003,50.280300039478874L225,52.39636794315041L229.99999999999997,39.41571259376233L235,52.491117252270044L240,38.08922226608766L245.00000000000003,56.09159099881565L250,48.03789972364787L254.99999999999997,45.353335965258566L260,41.56336360047375L265,49.52230556652193L270,58.36557441768653L275,39.38412949072245L280,37.04697986577181L285,43.39518357678642L290,39.76312672720095L295,41.658112909593385L300,47.12198973549153L305,43.647848401105406L310,39.19463087248323L315,40.90011843663639L320,39.131464666403474L325,40.8053691275168L330,47.406237662850394L335,54.607185155941586L340,46.4271614686143L345,58.491906829846045L350,53.280694828266874L355,49.33280694828266L360,36.57323332017373L365,55.90209238057638L370,37.55230951440978L375,43.11093564942756L380,46.45874457165418L385,48.32214765100673L390,51.19621002763522L395,54.22818791946309L400,54.57560205290171L405,55.617844453217515L409.99999999999994,56.53375444137385L415.00000000000006,43.90051322542439L420,59.028819581523884L425,47.248322147651L430,47.31148835373076L434.99999999999994,36.446900908014214L440.00000000000006,37.74180813264905L445,54.48085274378207L450,62.62929332806948L455,41.50019739439399L459.99999999999994,51.00671140939599L465.00000000000006,42.479273588630086L470,36.57323332017373L475,47.53257007500986L480,49.743387287801035L484.99999999999994,50.65929727595737L490.00000000000006,39.76312672720095L495,48.574812475325714L500,38.7208843268851L505,55.933675483616256L509.99999999999994,38.05763916304778L515,45.00592183182L520,58.460323726806166L525,50.78562968811684L530,41.658112909593385L535,40.26845637583891L540,46.90090801421238L545,38.87879984208449L550,47.185155941571246L555,49.427556257402294L560,41.81602842479273L565,38.784050532964855L570,50.4697986577181L575,50.596131069877615L580,42.163442558231345L585,39.636794315041435L590,54.796683774180806L595,37.23647848401104L600,48.32214765100673L605,55.175681010659304L610,47.69048559020925L615,45.66916699565731L620,44.78484011054085L625,49.8697196999605L630,46.96407422029214L635,50.4697986577181L640,56.88116857481247L645,44.27951046190288L650,55.74417686537703L655,41.18436636399525L660,50.78562968811684L665,50.53296486379786L670,66.4192656928543L675,48.85906040268458L680,37.67864192656929L685,54.57560205290171L690,47.27990525069088L695,45.32175286221873L700,48.29056454796685L705,44.75325700750097L710,48.4484800631662L715,52.52270035530992L720,52.491117252270044L725,51.03829451243587L730,36.88906435057247L735,36.82589814449271L740,56.21792341097511L745,53.37544413738651L750,50.05921831819977" stroke="#228C22" stroke-width="6.2" opacity="0.05"/></g></g><path class="foreground" aria-hidden="true" d="" display="none"/></g></g><g class="mark-group role-scope layer_1_layer_4_pathgroup" role="graphics-object" aria-roledescription="group mark container"><g transform="translate(0,0)"><path class="background" aria-hidden="true" d="M0,0h800v400h-800Z"/><g><g class="mark-line role-mark layer_1_layer_4_marks" role="graphics-symbol" aria-roledescription="line mark container"><path d="M5,195.15199368337937L10,193.03592577970784L15,110.00394788787999L20,98.41294907224633L25,135.9020923805764L30,131.22779313067508L35,120.01579155151995L40,64.6190288195815L45,65.40860639557837L50,70.71456770627714L55.00000000000001,46.206079747335195L60,55.52309514409792L65,35.30990919857877L70,58.58665613896563L75,49.6486379786814L80,48.10106592972758L85,49.932885906040255L90,44.721673904461134L95,59.09198578760364L100,41.4054480852744L105,49.52230556652193L110.00000000000001,39.73154362416107L114.99999999999999,52.080536912751676L120,44.247927358863L125,33.38333991314646L130,43.45834978286618L135,45.700750098697185L140,44.43742597710223L145,52.933280694828255L150,44.31109356494276L155,45.29016975917885L160,49.99605211212001L165,31.993683379392035L170,43.521515988945936L175,45.66916699565731L180,42.57402289774972L185,45.63758389261743L190,43.363600473746544L195,43.45834978286618L200,43.96367943150415L204.99999999999997,39.66837741808131L210,40.679036715357284L215,42.13185945519147L220.00000000000003,50.280300039478874L225,52.39636794315041L229.99999999999997,39.41571259376233L235,52.491117252270044L240,38.08922226608766L245.00000000000003,56.09159099881565L250,48.03789972364787L254.99999999999997,45.353335965258566L260,41.56336360047375L265,49.52230556652193L270,58.36557441768653L275,39.38412949072245L280,37.04697986577181L285,43.39518357678642L290,39.76312672720095L295,41.658112909593385L300,47.12198973549153L305,43.647848401105406L310,39.19463087248323L315,40.90011843663639L320,39.131464666403474L325,40.8053691275168L330,47.406237662850394L335,54.607185155941586L340,46.4271614686143L345,58.491906829846045L350,53.280694828266874L355,49.33280694828266L360,36.57323332017373L365,55.90209238057638L370,37.55230951440978L375,43.11093564942756L380,46.45874457165418L385,48.32214765100673L390,51.19621002763522L395,54.22818791946309L400,54.57560205290171L405,55.617844453217515L409.99999999999994,56.53375444137385L415.00000000000006,43.90051322542439L420,59.028819581523884L425,47.248322147651L430,47.31148835373076L434.99999999999994,36.446900908014214L440.00000000000006,37.74180813264905L445,54.48085274378207L450,62.62929332806948L455,41.50019739439399L459.99999999999994,51.00671140939599L465.00000000000006,42.479273588630086L470,36.57323332017373L475,47.53257007500986L480,49.743387287801035L484.99999999999994,50.65929727595737L490.00000000000006,39.76312672720095L495,48.574812475325714L500,38.7208843268851L505,55.933675483616256L509.99999999999994,38.05763916304778L515,45.00592183182L520,58.460323726806166L525,50.78562968811684L530,41.658112909593385L535,40.26845637583891L540,46.90090801421238L545,38.87879984208449L550,47.185155941571246L555,49.427556257402294L560,41.81602842479273L565,38.784050532964855L570,50.4697986577181L575,50.596131069877615L580,42.163442558231345L585,39.636794315041435L590,54.796683774180806L595,37.23647848401104L600,48.32214765100673L605,55.175681010659304L610,47.69048559020925L615,45.66916699565731L620,44.78484011054085L625,49.8697196999605L630,46.96407422029214L635,50.4697986577181L640,56.88116857481247L645,44.27951046190288L650,55.74417686537703L655,41.18436636399525L660,50.78562968811684L665,50.53296486379786L670,66.4192656928543L675,48.85906040268458L680,37.67864192656929L685,54.57560205290171L690,47.27990525069088L695,45.32175286221873L700,48.29056454796685L705,44.75325700750097L710,48.4484800631662L715,52.52270035530992L720,52.491117252270044L725,51.03829451243587L730,36.88906435057247L735,36.82589814449271L740,56.21792341097511L745,53.37544413738651L750,50.05921831819977" stroke="#228C22" stroke-width="7.25" opacity="0.05"/></g></g><path class="foreground" aria-hidden="true" d="" display="none"/></g></g><g class="mark-group role-scope layer_1_layer_5_pathgroup" role="graphics-object" aria-roledescription="group mark container"><g transform="translate(0,0)"><path class="background" aria-hidden="true" d="M0,0h800v400h-800Z"/><g><g class="mark-line role-mark layer_1_layer_5_marks" role="graphics-symbol" aria-roledescription="line mark container"><path d="M5,195.15199368337937L10,193.03592577970784L15,110.00394788787999L20,98.41294907224633L25,135.9020923805764L30,131.22779313067508L35,120.01579155151995L40,64.6190288195815L45,65.40860639557837L50,70.71456770627714L55.00000000000001,46.206079747335195L60,55.52309514409792L65,35.30990919857877L70,58.58665613896563L75,49.6486379786814L80,48.10106592972758L85,49.932885906040255L90,44.721673904461134L95,59.09198578760364L100,41.4054480852744L105,49.52230556652193L110.00000000000001,39.73154362416107L114.99999999999999,52.080536912751676L120,44.247927358863L125,33.38333991314646L130,43.45834978286618L135,45.700750098697185L140,44.43742597710223L145,52.933280694828255L150,44.31109356494276L155,45.29016975917885L160,49.99605211212001L165,31.993683379392035L170,43.521515988945936L175,45.66916699565731L180,42.57402289774972L185,45.63758389261743L190,43.363600473746544L195,43.45834978286618L200,43.96367943150415L204.99999999999997,39.66837741808131L210,40.679036715357284L215,42.13185945519147L220.00000000000003,50.280300039478874L225,52.39636794315041L229.99999999999997,39.41571259376233L235,52.491117252270044L240,38.08922226608766L245.00000000000003,56.09159099881565L250,48.03789972364787L254.99999999999997,45.353335965258566L260,41.56336360047375L265,49.52230556652193L270,58.36557441768653L275,39.38412949072245L280,37.04697986577181L285,43.39518357678642L290,39.76312672720095L295,41.658112909593385L300,47.12198973549153L305,43.647848401105406L310,39.19463087248323L315,40.90011843663639L320,39.131464666403474L325,40.8053691275168L330,47.406237662850394L335,54.607185155941586L340,46.4271614686143L345,58.491906829846045L350,53.280694828266874L355,49.33280694828266L360,36.57323332017373L365,55.90209238057638L370,37.55230951440978L375,43.11093564942756L380,46.45874457165418L385,48.32214765100673L390,51.19621002763522L395,54.22818791946309L400,54.57560205290171L405,55.617844453217515L409.99999999999994,56.53375444137385L415.00000000000006,43.90051322542439L420,59.028819581523884L425,47.248322147651L430,47.31148835373076L434.99999999999994,36.446900908014214L440.00000000000006,37.74180813264905L445,54.48085274378207L450,62.62929332806948L455,41.50019739439399L459.99999999999994,51.00671140939599L465.00000000000006,42.479273588630086L470,36.57323332017373L475,47.53257007500986L480,49.743387287801035L484.99999999999994,50.65929727595737L490.00000000000006,39.76312672720095L495,48.574812475325714L500,38.7208843268851L505,55.933675483616256L509.99999999999994,38.05763916304778L515,45.00592183182L520,58.460323726806166L525,50.78562968811684L530,41.658112909593385L535,40.26845637583891L540,46.90090801421238L545,38.87879984208449L550,47.185155941571246L555,49.427556257402294L560,41.81602842479273L565,38.784050532964855L570,50.4697986577181L575,50.596131069877615L580,42.163442558231345L585,39.636794315041435L590,54.796683774180806L595,37.23647848401104L600,48.32214765100673L605,55.175681010659304L610,47.69048559020925L615,45.66916699565731L620,44.78484011054085L625,49.8697196999605L630,46.96407422029214L635,50.4697986577181L640,56.88116857481247L645,44.27951046190288L650,55.74417686537703L655,41.18436636399525L660,50.78562968811684L665,50.53296486379786L670,66.4192656928543L675,48.85906040268458L680,37.67864192656929L685,54.57560205290171L690,47.27990525069088L695,45.32175286221873L700,48.29056454796685L705,44.75325700750097L710,48.4484800631662L715,52.52270035530992L720,52.491117252270044L725,51.03829451243587L730,36.88906435057247L735,36.82589814449271L740,56.21792341097511L745,53.37544413738651L750,50.05921831819977" stroke="#228C22" stroke-width="8.3" opacity="0.05"/></g></g><path class="foreground" aria-hidden="true" d="" display="none"/></g></g><g class="mark-group role-scope layer_1_layer_6_pathgroup" role="graphics-object" aria-roledescription="group mark container"><g transform="translate(0,0)"><path class="background" aria-hidden="true" d="M0,0h800v400h-800Z"/><g><g class="mark-line role-mark layer_1_layer_6_marks" role="graphics-symbol" aria-roledescription="line mark container"><path d="M5,195.15199368337937L10,193.03592577970784L15,110.00394788787999L20,98.41294907224633L25,135.9020923805764L30,131.22779313067508L35,120.01579155151995L40,64.6190288195815L45,65.40860639557837L50,70.71456770627714L55.00000000000001,46.206079747335195L60,55.52309514409792L65,35.30990919857877L70,58.58665613896563L75,49.6486379786814L80,48.10106592972758L85,49.932885906040255L90,44.721673904461134L95,59.09198578760364L100,41.4054480852744L105,49.52230556652193L110.00000000000001,39.73154362416107L114.99999999999999,52.080536912751676L120,44.247927358863L125,33.38333991314646L130,43.45834978286618L135,45.700750098697185L140,44.43742597710223L145,52.933280694828255L150,44.31109356494276L155,45.29016975917885L160,49.99605211212001L165,31.993683379392035L170,43.521515988945936L175,45.66916699565731L180,42.57402289774972L185,45.63758389261743L190,43.363600473746544L195,43.45834978286618L200,43.96367943150415L204.99999999999997,39.66837741808131L210,40.679036715357284L215,42.13185945519147L220.00000000000003,50.280300039478874L225,52.39636794315041L229.99999999999997,39.41571259376233L235,52.491117252270044L240,38.08922226608766L245.00000000000003,56.09159099881565L250,48.03789972364787L254.99999999999997,45.353335965258566L260,41.56336360047375L265,49.52230556652193L270,58.36557441768653L275,39.38412949072245L280,37.04697986577181L285,43.39518357678642L290,39.76312672720095L295,41.658112909593385L300,47.12198973549153L305,43.647848401105406L310,39.19463087248323L315,40.90011843663639L320,39.131464666403474L325,40.8053691275168L330,47.406237662850394L335,54.607185155941586L340,46.4271614686143L345,58.491906829846045L350,53.280694828266874L355,49.33280694828266L360,36.57323332017373L365,55.90209238057638L370,37.55230951440978L375,43.11093564942756L380,46.45874457165418L385,48.32214765100673L390,51.19621002763522L395,54.22818791946309L400,54.57560205290171L405,55.617844453217515L409.99999999999994,56.53375444137385L415.00000000000006,43.90051322542439L420,59.028819581523884L425,47.248322147651L430,47.31148835373076L434.99999999999994,36.446900908014214L440.00000000000006,37.74180813264905L445,54.48085274378207L450,62.62929332806948L455,41.50019739439399L459.99999999999994,51.00671140939599L465.00000000000006,42.479273588630086L470,36.57323332017373L475,47.53257007500986L480,49.743387287801035L484.99999999999994,50.65929727595737L490.00000000000006,39.76312672720095L495,48.574812475325714L500,38.7208843268851L505,55.933675483616256L509.99999999999994,38.05763916304778L515,45.00592183182L520,58.460323726806166L525,50.78562968811684L530,41.658112909593385L535,40.26845637583891L540,46.90090801421238L545,38.87879984208449L550,47.185155941571246L555,49.427556257402294L560,41.81602842479273L565,38.784050532964855L570,50.4697986577181L575,50.596131069877615L580,42.163442558231345L585,39.636794315041435L590,54.796683774180806L595,37.23647848401104L600,48.32214765100673L605,55.175681010659304L610,47.69048559020925L615,45.66916699565731L620,44.78484011054085L625,49.8697196999605L630,46.96407422029214L635,50.4697986577181L640,56.88116857481247L645,44.27951046190288L650,55.74417686537703L655,41.18436636399525L660,50.78562968811684L665,50.53296486379786L670,66.4192656928543L675,48.85906040268458L680,37.67864192656929L685,54.57560205290171L690,47.27990525069088L695,45.32175286221873L700,48.29056454796685L705,44.75325700750097L710,48.4484800631662L715,52.52270035530992L720,52.491117252270044L725,51.03829451243587L730,36.88906435057247L735,36.82589814449271L740,56.21792341097511L745,53.37544413738651L750,50.05921831819977" stroke="#228C22" stroke-width="9.350000000000001" opacity="0.05"/></g></g><path class="foreground" aria-hidden="true" d="" display="none"/></g></g><g class="mark-group role-scope layer_1_layer_7_pathgroup" role="graphics-object" aria-roledescription="group mark container"><g transform="translate(0,0)"><path class="background" aria-hidden="true" d="M0,0h800v400h-800Z"/><g><g class="mark-line role-mark layer_1_layer_7_marks" role="graphics-symbol" aria-roledescription="line mark container"><path d="M5,195.15199368337937L10,193.03592577970784L15,110.00394788787999L20,98.41294907224633L25,135.9020923805764L30,131.22779313067508L35,120.01579155151995L40,64.6190288195815L45,65.40860639557837L50,70.71456770627714L55.00000000000001,46.206079747335195L60,55.52309514409792L65,35.30990919857877L70,58.58665613896563L75,49.6486379786814L80,48.10106592972758L85,49.932885906040255L90,44.721673904461134L95,59.09198578760364L100,41.4054480852744L105,49.52230556652193L110.00000000000001,39.73154362416107L114.99999999999999,52.080536912751676L120,44.247927358863L125,33.38333991314646L130,43.45834978286618L135,45.700750098697185L140,44.43742597710223L145,52.933280694828255L150,44.31109356494276L155,45.29016975917885L160,49.99605211212001L165,31.993683379392035L170,43.521515988945936L175,45.66916699565731L180,42.57402289774972L185,45.63758389261743L190,43.363600473746544L195,43.45834978286618L200,43.96367943150415L204.99999999999997,39.66837741808131L210,40.679036715357284L215,42.13185945519147L220.00000000000003,50.280300039478874L225,52.39636794315041L229.99999999999997,39.41571259376233L235,52.491117252270044L240,38.08922226608766L245.00000000000003,56.09159099881565L250,48.03789972364787L254.99999999999997,45.353335965258566L260,41.56336360047375L265,49.52230556652193L270,58.36557441768653L275,39.38412949072245L280,37.04697986577181L285,43.39518357678642L290,39.76312672720095L295,41.658112909593385L300,47.12198973549153L305,43.647848401105406L310,39.19463087248323L315,40.90011843663639L320,39.131464666403474L325,40.8053691275168L330,47.406237662850394L335,54.607185155941586L340,46.4271614686143L345,58.491906829846045L350,53.280694828266874L355,49.33280694828266L360,36.57323332017373L365,55.90209238057638L370,37.55230951440978L375,43.11093564942756L380,46.45874457165418L385,48.32214765100673L390,51.19621002763522L395,54.22818791946309L400,54.57560205290171L405,55.617844453217515L409.99999999999994,56.53375444137385L415.00000000000006,43.90051322542439L420,59.028819581523884L425,47.248322147651L430,47.31148835373076L434.99999999999994,36.446900908014214L440.00000000000006,37.74180813264905L445,54.48085274378207L450,62.62929332806948L455,41.50019739439399L459.99999999999994,51.00671140939599L465.00000000000006,42.479273588630086L470,36.57323332017373L475,47.53257007500986L480,49.743387287801035L484.99999999999994,50.65929727595737L490.00000000000006,39.76312672720095L495,48.574812475325714L500,38.7208843268851L505,55.933675483616256L509.99999999999994,38.05763916304778L515,45.00592183182L520,58.460323726806166L525,50.78562968811684L530,41.658112909593385L535,40.26845637583891L540,46.90090801421238L545,38.87879984208449L550,47.185155941571246L555,49.427556257402294L560,41.81602842479273L565,38.784050532964855L570,50.4697986577181L575,50.596131069877615L580,42.163442558231345L585,39.636794315041435L590,54.796683774180806L595,37.23647848401104L600,48.32214765100673L605,55.175681010659304L610,47.69048559020925L615,45.66916699565731L620,44.78484011054085L625,49.8697196999605L630,46.96407422029214L635,50.4697986577181L640,56.88116857481247L645,44.27951046190288L650,55.74417686537703L655,41.18436636399525L660,50.78562968811684L665,50.53296486379786L670,66.4192656928543L675,48.85906040268458L680,37.67864192656929L685,54.57560205290171L690,47.27990525069088L695,45.32175286221873L700,48.29056454796685L705,44.75325700750097L710,48.4484800631662L715,52.52270035530992L720,52.491117252270044L725,51.03829451243587L730,36.88906435057247L735,36.82589814449271L740,56.21792341097511L745,53.37544413738651L750,50.05921831819977" stroke="#228C22" stroke-width="10.4" opacity="0.05"/></g></g><path class="foreground" aria-hidden="true" d="" display="none"/></g></g><g class="mark-group role-scope layer_1_layer_8_pathgroup" role="graphics-object" aria-roledescription="group mark container"><g transform="translate(0,0)"><path class="background" aria-hidden="true" d="M0,0h800v400h-800Z"/><g><g class="mark-line role-mark layer_1_layer_8_marks" role="graphics-symbol" aria-roledescription="line mark container"><path d="M5,195.15199368337937L10,193.03592577970784L15,110.00394788787999L20,98.41294907224633L25,135.9020923805764L30,131.22779313067508L35,120.01579155151995L40,64.6190288195815L45,65.40860639557837L50,70.71456770627714L55.00000000000001,46.206079747335195L60,55.52309514409792L65,35.30990919857877L70,58.58665613896563L75,49.6486379786814L80,48.10106592972758L85,49.932885906040255L90,44.721673904461134L95,59.09198578760364L100,41.4054480852744L105,49.52230556652193L110.00000000000001,39.73154362416107L114.99999999999999,52.080536912751676L120,44.247927358863L125,33.38333991314646L130,43.45834978286618L135,45.700750098697185L140,44.43742597710223L145,52.933280694828255L150,44.31109356494276L155,45.29016975917885L160,49.99605211212001L165,31.993683379392035L170,43.521515988945936L175,45.66916699565731L180,42.57402289774972L185,45.63758389261743L190,43.363600473746544L195,43.45834978286618L200,43.96367943150415L204.99999999999997,39.66837741808131L210,40.679036715357284L215,42.13185945519147L220.00000000000003,50.280300039478874L225,52.39636794315041L229.99999999999997,39.41571259376233L235,52.491117252270044L240,38.08922226608766L245.00000000000003,56.09159099881565L250,48.03789972364787L254.99999999999997,45.353335965258566L260,41.56336360047375L265,49.52230556652193L270,58.36557441768653L275,39.38412949072245L280,37.04697986577181L285,43.39518357678642L290,39.76312672720095L295,41.658112909593385L300,47.12198973549153L305,43.647848401105406L310,39.19463087248323L315,40.90011843663639L320,39.131464666403474L325,40.8053691275168L330,47.406237662850394L335,54.607185155941586L340,46.4271614686143L345,58.491906829846045L350,53.280694828266874L355,49.33280694828266L360,36.57323332017373L365,55.90209238057638L370,37.55230951440978L375,43.11093564942756L380,46.45874457165418L385,48.32214765100673L390,51.19621002763522L395,54.22818791946309L400,54.57560205290171L405,55.617844453217515L409.99999999999994,56.53375444137385L415.00000000000006,43.90051322542439L420,59.028819581523884L425,47.248322147651L430,47.31148835373076L434.99999999999994,36.446900908014214L440.00000000000006,37.74180813264905L445,54.48085274378207L450,62.62929332806948L455,41.50019739439399L459.99999999999994,51.00671140939599L465.00000000000006,42.479273588630086L470,36.57323332017373L475,47.53257007500986L480,49.743387287801035L484.99999999999994,50.65929727595737L490.00000000000006,39.76312672720095L495,48.574812475325714L500,38.7208843268851L505,55.933675483616256L509.99999999999994,38.05763916304778L515,45.00592183182L520,58.460323726806166L525,50.78562968811684L530,41.658112909593385L535,40.26845637583891L540,46.90090801421238L545,38.87879984208449L550,47.185155941571246L555,49.427556257402294L560,41.81602842479273L565,38.784050532964855L570,50.4697986577181L575,50.596131069877615L580,42.163442558231345L585,39.636794315041435L590,54.796683774180806L595,37.23647848401104L600,48.32214765100673L605,55.175681010659304L610,47.69048559020925L615,45.66916699565731L620,44.78484011054085L625,49.8697196999605L630,46.96407422029214L635,50.4697986577181L640,56.88116857481247L645,44.27951046190288L650,55.74417686537703L655,41.18436636399525L660,50.78562968811684L665,50.53296486379786L670,66.4192656928543L675,48.85906040268458L680,37.67864192656929L685,54.57560205290171L690,47.27990525069088L695,45.32175286221873L700,48.29056454796685L705,44.75325700750097L710,48.4484800631662L715,52.52270035530992L720,52.491117252270044L725,51.03829451243587L730,36.88906435057247L735,36.82589814449271L740,56.21792341097511L745,53.37544413738651L750,50.05921831819977" stroke="#228C22" stroke-width="11.450000000000001" opacity="0.05"/></g></g><path class="foreground" aria-hidden="true" d="" display="none"/></g></g><g class="mark-group role-scope layer_1_layer_9_pathgroup" role="graphics-object" aria-roledescription="group mark container"><g transform="translate(0,0)"><path class="background" aria-hidden="true" d="M0,0h800v400h-800Z"/><g><g class="mark-line role-mark layer_1_layer_9_marks" role="graphics-symbol" aria-roledescription="line mark container"><path d="M5,195.15199368337937L10,193.03592577970784L15,110.00394788787999L20,98.41294907224633L25,135.9020923805764L30,131.22779313067508L35,120.01579155151995L40,64.6190288195815L45,65.40860639557837L50,70.71456770627714L55.00000000000001,46.206079747335195L60,55.52309514409792L65,35.30990919857877L70,58.58665613896563L75,49.6486379786814L80,48.10106592972758L85,49.932885906040255L90,44.721673904461134L95,59.09198578760364L100,41.4054480852744L105,49.52230556652193L110.00000000000001,39.73154362416107L114.99999999999999,52.080536912751676L120,44.247927358863L125,33.38333991314646L130,43.45834978286618L135,45.700750098697185L140,44.43742597710223L145,52.933280694828255L150,44.31109356494276L155,45.29016975917885L160,49.99605211212001L165,31.993683379392035L170,43.521515988945936L175,45.66916699565731L180,42.57402289774972L185,45.63758389261743L190,43.363600473746544L195,43.45834978286618L200,43.96367943150415L204.99999999999997,39.66837741808131L210,40.679036715357284L215,42.13185945519147L220.00000000000003,50.280300039478874L225,52.39636794315041L229.99999999999997,39.41571259376233L235,52.491117252270044L240,38.08922226608766L245.00000000000003,56.09159099881565L250,48.03789972364787L254.99999999999997,45.353335965258566L260,41.56336360047375L265,49.52230556652193L270,58.36557441768653L275,39.38412949072245L280,37.04697986577181L285,43.39518357678642L290,39.76312672720095L295,41.658112909593385L300,47.12198973549153L305,43.647848401105406L310,39.19463087248323L315,40.90011843663639L320,39.131464666403474L325,40.8053691275168L330,47.406237662850394L335,54.607185155941586L340,46.4271614686143L345,58.491906829846045L350,53.280694828266874L355,49.33280694828266L360,36.57323332017373L365,55.90209238057638L370,37.55230951440978L375,43.11093564942756L380,46.45874457165418L385,48.32214765100673L390,51.19621002763522L395,54.22818791946309L400,54.57560205290171L405,55.617844453217515L409.99999999999994,56.53375444137385L415.00000000000006,43.90051322542439L420,59.028819581523884L425,47.248322147651L430,47.31148835373076L434.99999999999994,36.446900908014214L440.00000000000006,37.74180813264905L445,54.48085274378207L450,62.62929332806948L455,41.50019739439399L459.99999999999994,51.00671140939599L465.00000000000006,42.479273588630086L470,36.57323332017373L475,47.53257007500986L480,49.743387287801035L484.99999999999994,50.65929727595737L490.00000000000006,39.76312672720095L495,48.574812475325714L500,38.7208843268851L505,55.933675483616256L509.99999999999994,38.05763916304778L515,45.00592183182L520,58.460323726806166L525,50.78562968811684L530,41.658112909593385L535,40.26845637583891L540,46.90090801421238L545,38.87879984208449L550,47.185155941571246L555,49.427556257402294L560,41.81602842479273L565,38.784050532964855L570,50.4697986577181L575,50.596131069877615L580,42.163442558231345L585,39.636794315041435L590,54.796683774180806L595,37.23647848401104L600,48.32214765100673L605,55.175681010659304L610,47.69048559020925L615,45.66916699565731L620,44.78484011054085L625,49.8697196999605L630,46.96407422029214L635,50.4697986577181L640,56.88116857481247L645,44.27951046190288L650,55.74417686537703L655,41.18436636399525L660,50.78562968811684L665,50.53296486379786L670,66.4192656928543L675,48.85906040268458L680,37.67864192656929L685,54.57560205290171L690,47.27990525069088L695,45.32175286221873L700,48.29056454796685L705,44.75325700750097L710,48.4484800631662L715,52.52270035530992L720,52.491117252270044L725,51.03829451243587L730,36.88906435057247L735,36.82589814449271L740,56.21792341097511L745,53.37544413738651L750,50.05921831819977" stroke="#228C22" stroke-width="12.5" opacity="0.05"/></g></g><path class="foreground" aria-hidden="true" d="" display="none"/></g></g><g class="mark-group role-legend" role="graphics-symbol" aria-roledescription="legend" aria-label="Symbol legend titled 'PCAs' for fill color and stroke color with 1 value: from scratch"><g transform="translate(818,0)"><path class="background" aria-hidden="true" d="M0,0h72v29h-72Z" pointer-events="none"/><g><g class="mark-group role-legend-entry"><g transform="translate(0,16)"><path class="background" aria-hidden="true" d="M0,0h0v0h0Z" pointer-events="none"/><g><g class="mark-group role-scope" role="graphics-object" aria-roledescription="group mark container"><g transform="translate(0,0)"><path class="background" aria-hidden="true" d="M0,0h71.009765625v12.5h-71.009765625Z" pointer-events="none" opacity="1"/><g><g class="mark-symbol role-legend-symbol" pointer-events="none"><path transform="translate(6,6)" d="M5,0A5,5,0,1,1,-5,0A5,5,0,1,1,5,0" fill="#228C22" fill-opacity="0.4" stroke="#228C22" stroke-width="1.5" opacity="0.7"/></g><g class="mark-text role-legend-label" pointer-events="none"><text text-anchor="start" transform="translate(16,9)" font-family="sans-serif" font-size="10px" fill="#444444" opacity="1">from scratch</text></g></g><path class="foreground" aria-hidden="true" d="" pointer-events="none" display="none"/></g></g></g><path class="foreground" aria-hidden="true" d="" pointer-events="none" display="none"/></g></g><g class="mark-text role-legend-title" pointer-events="none"><text text-anchor="start" transform="translate(0,9)" font-family="sans-serif" font-size="11px" font-weight="bold" fill="#444444" opacity="1">PCAs</text></g></g><path class="foreground" aria-hidden="true" d="" pointer-events="none" display="none"/></g></g></g><path class="foreground" aria-hidden="true" d="" display="none"/></g></g></g></svg>