<svg xmlns="http://www.w3.org/2000/svg" xmlns:xlink="http://www.w3.org/1999/xlink" version="1.1" class="marks" width="942" height="447" viewBox="0 0 942 447"><rect width="942" height="447" fill="#efefef"/><g fill="none" stroke-miterlimit="10" transform="translate(47,10)"><g class="mark-group role-frame root" role="graphics-object" aria-roledescription="group mark container"><g transform="translate(0,0)"><path class="background" aria-hidden="true" d="M0.5,0.5h800v400h-800Z" stroke="#ddd"/><g><g class="mark-group role-axis" role="graphics-symbol" aria-roledescription="axis" aria-label="X-axis for a linear scale with values from 0 to 160"><g transform="translate(0.5,400.5)"><path class="background" aria-hidden="true" d="M0,0h0v0h0Z" pointer-events="none"/><g><g class="mark-rule role-axis-grid" pointer-events="none"><line transform="translate(0,-400)" x2="0" y2="400" stroke="#ffffff" stroke-width="1" opacity="1"/><line transform="translate(50,-400)" x2="0" y2="400" stroke="#ffffff" stroke-width="1" opacity="1"/><line transform="translate(100,-400)" x2="0" y2="400" stroke="#ffffff" stroke-width="1" opacity="1"/><line transform="translate(150,-400)" x2="0" y2="400" stroke="#ffffff" stroke-width="1" opacity="1"/><line transform="translate(200,-400)" x2="0" y2="400" stroke="#ffffff" stroke-width="1" opacity="1"/><line transform="translate(250,-400)" x2="0" y2="400" stroke="#ffffff" stroke-width="1" opacity="1"/><line transform="translate(300,-400)" x2="0" y2="400" stroke="#ffffff" stroke-width="1" opacity="1"/><line transform="translate(350,-400)" x2="0" y2="400" stroke="#ffffff" stroke-width="1" opacity="1"/><line transform="translate(400,-400)" x2="0" y2="400" stroke="#ffffff" stroke-width="1" opacity="1"/><line transform="translate(450,-400)" x2="0" y2="400" stroke="#ffffff" stroke-width="1" opacity="1"/><line transform="translate(500,-400)" x2="0" y2="400" stroke="#ffffff" stroke-width="1" opacity="1"/><line transform="translate(550,-400)" x2="0" y2="400" stroke="#ffffff" stroke-width="1" opacity="1"/><line transform="translate(600,-400)" x2="0" y2="400" stroke="#ffffff" stroke-width="1" opacity="1"/><line transform="translate(650,-400)" x2="0" y2="400" stroke="#ffffff" stroke-width="1" opacity="1"/><line transform="translate(700,-400)" x2="0" y2="400" stroke="#ffffff" stroke-width="1" opacity="1"/><line transform="translate(750,-400)" x2="0" y2="400" stroke="#ffffff" stroke-width="1" opacity="1"/><line transform="translate(800,-400)" x2="0" y2="400" stroke="#ffffff" stroke-width="1" opacity="1"/></g></g><path class="foreground" aria-hidden="true" d="" pointer-events="none" display="none"/></g></g><g class="mark-group role-axis" role="graphics-symbol" aria-roledescription="axis" aria-label="Y-axis for a linear scale with values from 0.0 to 0.6"><g transform="translate(0.5,0.5)"><path class="background" aria-hidden="true" d="M0,0h0v0h0Z" pointer-events="none"/><g><g class="mark-rule role-axis-grid" pointer-events="none"><line transform="translate(0,400)" x2="800" y2="0" stroke="#ffffff" stroke-width="1" opacity="1"/><line transform="translate(0,367)" x2="800" y2="0" stroke="#ffffff" stroke-width="1" opacity="1"/><line transform="translate(0,333)" x2="800" y2="0" stroke="#ffffff" stroke-width="1" opacity="1"/><line transform="translate(0,300)" x2="800" y2="0" stroke="#ffffff" stroke-width="1" opacity="1"/><line transform="translate(0,267)" x2="800" y2="0" stroke="#ffffff" stroke-width="1" opacity="1"/><line transform="translate(0,233)" x2="800" y2="0" stroke="#ffffff" stroke-width="1" opacity="1"/><line transform="translate(0,200)" x2="800" y2="0" stroke="#ffffff" stroke-width="1" opacity="1"/><line transform="translate(0,167)" x2="800" y2="0" stroke="#ffffff" stroke-width="1" opacity="1"/><line transform="translate(0,133)" x2="800" y2="0" stroke="#ffffff" stroke-width="1" opacity="1"/><line transform="translate(0,100)" x2="800" y2="0" stroke="#ffffff" stroke-width="1" opacity="1"/><line transform="translate(0,67)" x2="800" y2="0" stroke="#ffffff" stroke-width="1" opacity="1"/><line transform="translate(0,33)" x2="800" y2="0" stroke="#ffffff" stroke-width="1" opacity="1"/><line transform="translate(0,0)" x2="800" y2="0" stroke="#ffffff" stroke-width="1" opacity="1"/></g></g><path class="foreground" aria-hidden="true" d="" pointer-events="none" display="none"/></g></g><g class="mark-group role-axis" role="graphics-symbol" aria-roledescription="axis" aria-label="X-axis titled 'Number of Components' for a linear scale with values from 0 to 160"><g transform="translate(0.5,400.5)"><path class="background" aria-hidden="true" d="M0,0h0v0h0Z" pointer-events="none"/><g><g class="mark-rule role-axis-tick" pointer-events="none"><line transform="translate(0,0)" x2="0" y2="5" stroke-width="1" opacity="1"/><line transform="translate(50,0)" x2="0" y2="5" stroke-width="1" opacity="1"/><line transform="translate(100,0)" x2="0" y2="5" stroke-width="1" opacity="1"/><line transform="translate(150,0)" x2="0" y2="5" stroke-width="1" opacity="1"/><line transform="translate(200,0)" x2="0" y2="5" stroke-width="1" opacity="1"/><line transform="translate(250,0)" x2="0" y2="5" stroke-width="1" opacity="1"/><line transform="translate(300,0)" x2="0" y2="5" stroke-width="1" opacity="1"/><line transform="translate(350,0)" x2="0" y2="5" stroke-width="1" opacity="1"/><line transform="translate(400,0)" x2="0" y2="5" stroke-width="1" opacity="1"/><line transform="translate(450,0)" x2="0" y2="5" stroke-width="1" opacity="1"/><line transform="translate(500,0)" x2="0" y2="5" stroke-width="1" opacity="1"/><line transform="translate(550,0)" x2="0" y2="5" stroke-width="1" opacity="1"/><line transform="translate(600,0)" x2="0" y2="5" stroke-width="1" opacity="1"/><line transform="translate(650,0)" x2="0" y2="5" stroke-width="1" opacity="1"/><line transform="translate(700,0)" x2="0" y2="5" stroke-width="1" opacity="1"/><line transform="translate(750,0)" x2="0" y2="5" stroke-width="1" opacity="1"/><line transform="translate(800,0)" x2="0" y2="5" stroke-width="1" opacity="1"/></g><g class="mark-text role-axis-label" pointer-events="none"><text text-anchor="start" transform="translate(0,15)" font-family="sans-serif" font-size="10px" fill="#444444" opacity="1">0</text><text text-anchor="middle" transform="translate(50,15)" font-family="sans-serif" font-size="10px" fill="#444444" opacity="1">10</text><text text-anchor="middle" transform="translate(100,15)" font-family="sans-serif" font-size="10px" fill="#444444" opacity="1">20</text><text text-anchor="middle" transform="translate(150,15)" font-family="sans-serif" font-size="10px" fill="#444444" opacity="1">30</text><text text-anchor="middle" transform="translate(200,15)" font-family="sans-serif" font-size="10px" fill="#444444" opacity="1">40</text><text text-anchor="middle" transform="translate(250,15)" font-family="sans-serif" font-size="10px" fill="#444444" opacity="1">50</text><text text-anchor="middle" transform="translate(300,15)" font-family="sans-serif" font-size="10px" fill="#444444" opacity="1">60</text><text text-anchor="middle" transform="translate(350,15)" font-family="sans-serif" font-size="10px" fill="#444444" opacity="1">70</text><text text-anchor="middle" transform="translate(400,15)" font-family="sans-serif" font-size="10px" fill="#444444" opacity="1">80</text><text text-anchor="middle" transform="translate(450,15)" font-family="sans-serif" font-size="10px" fill="#444444" opacity="1">90</text><text text-anchor="middle" transform="translate(500,15)" font-family="sans-serif" font-size="10px" fill="#444444" opacity="1">100</text><text text-anchor="middle" transform="translate(550,15)" font-family="sans-serif" font-size="10px" fill="#444444" opacity="1">110</text><text text-anchor="middle" transform="translate(600,15)" font-family="sans-serif" font-size="10px" fill="#444444" opacity="1">120</text><text text-anchor="middle" transform="translate(650,15)" font-family="sans-serif" font-size="10px" fill="#444444" opacity="1">130</text><text text-anchor="middle" transform="translate(700,15)" font-family="sans-serif" font-size="10px" fill="#444444" opacity="1">140</text><text text-anchor="middle" transform="translate(750,15)" font-family="sans-serif" font-size="10px" fill="#444444" opacity="1">150</text><text text-anchor="end" transform="translate(800,15)" font-family="sans-serif" font-size="10px" fill="#444444" opacity="1">160</text></g><g class="mark-rule role-axis-domain" pointer-events="none"><line transform="translate(0,0)" x2="800" y2="0" stroke-width="1" opacity="1"/></g><g class="mark-text role-axis-title" pointer-events="none"><text text-anchor="middle" transform="translate(400,30)" font-family="sans-serif" font-size="11px" font-weight="bold" fill="#444444" opacity="1">Number of Components</text></g></g><path class="foreground" aria-hidden="true" d="" pointer-events="none" display="none"/></g></g><g class="mark-group role-axis" role="graphics-symbol" aria-roledescription="axis" aria-label="Y-axis titled 'Time in seconds' for a linear scale with values from 0.0 to 0.6"><g transform="translate(0.5,0.5)"><path class="background" aria-hidden="true" d="M0,0h0v0h0Z" pointer-events="none"/><g><g class="mark-rule role-axis-tick" pointer-events="none"><line transform="translate(0,400)" x2="-5" y2="0" stroke-width="1" opacity="1"/><line transform="translate(0,367)" x2="-5" y2="0" stroke-width="1" opacity="1"/><line transform="translate(0,333)" x2="-5" y2="0" stroke-width="1" opacity="1"/><line transform="translate(0,300)" x2="-5" y2="0" stroke-width="1" opacity="1"/><line transform="translate(0,267)" x2="-5" y2="0" stroke-width="1" opacity="1"/><line transform="translate(0,233)" x2="-5" y2="0" stroke-width="1" opacity="1"/><line transform="translate(0,200)" x2="-5" y2="0" stroke-width="1" opacity="1"/><line transform="translate(0,167)" x2="-5" y2="0" stroke-width="1" opacity="1"/><line transform="translate(0,133)" x2="-5" y2="0" stroke-width="1" opacity="1"/><line transform="translate(0,100)" x2="-5" y2="0" stroke-width="1" opacity="1"/><line transform="translate(0,67)" x2="-5" y2="0" stroke-width="1" opacity="1"/><line transform="translate(0,33)" x2="-5" y2="0" stroke-width="1" opacity="1"/><line transform="translate(0,0)" x2="-5" y2="0" stroke-width="1" opacity="1"/></g><g class="mark-text role-axis-label" pointer-events="none"><text text-anchor="end" transform="translate(-7,403)" font-family="sans-serif" font-size="10px" fill="#444444" opacity="1">0.00</text><text text-anchor="end" transform="translate(-7,369.66666666666663)" font-family="sans-serif" font-size="10px" fill="#444444" opacity="1">0.05</text><text text-anchor="end" transform="translate(-7,336.3333333333333)" font-family="sans-serif" font-size="10px" fill="#444444" opacity="1">0.10</text><text text-anchor="end" transform="translate(-7,303)" font-family="sans-serif" font-size="10px" fill="#444444" opacity="1">0.15</text><text text-anchor="end" transform="translate(-7,269.66666666666663)" font-family="sans-serif" font-size="10px" fill="#444444" opacity="1">0.20</text><text text-anchor="end" transform="translate(-7,236.33333333333331)" font-family="sans-serif" font-size="10px" fill="#444444" opacity="1">0.25</text><text text-anchor="end" transform="translate(-7,203)" font-family="sans-serif" font-size="10px" fill="#444444" opacity="1">0.30</text><text text-anchor="end" transform="translate(-7,169.66666666666666)" font-family="sans-serif" font-size="10px" fill="#444444" opacity="1">0.35</text><text text-anchor="end" transform="translate(-7,136.33333333333331)" font-family="sans-serif" font-size="10px" fill="#444444" opacity="1">0.40</text><text text-anchor="end" transform="translate(-7,103)" font-family="sans-serif" font-size="10px" fill="#444444" opacity="1">0.45</text><text text-anchor="end" transform="translate(-7,69.66666666666666)" font-family="sans-serif" font-size="10px" fill="#444444" opacity="1">0.50</text><text text-anchor="end" transform="translate(-7,36.3333333333333)" font-family="sans-serif" font-size="10px" fill="#444444" opacity="1">0.55</text><text text-anchor="end" transform="translate(-7,3)" font-family="sans-serif" font-size="10px" fill="#444444" opacity="1">0.60</text></g><g class="mark-rule role-axis-domain" pointer-events="none"><line transform="translate(0,400)" x2="0" y2="-400" stroke-width="1" opacity="1"/></g><g class="mark-text role-axis-title" pointer-events="none"><text text-anchor="middle" transform="translate(-30.462890625,200) rotate(-90) translate(0,-2)" font-family="sans-serif" font-size="11px" font-weight="bold" fill="#444444" opacity="1">Time in seconds</text></g></g><path class="foreground" aria-hidden="true" d="" pointer-events="none" display="none"/></g></g><g class="mark-group role-scope layer_0_layer_0_pathgroup" role="graphics-object" aria-roledescription="group mark container"><g transform="translate(0,0)"><path class="background" aria-hidden="true" d="M0,0h800v400h-800Z"/><g><g class="mark-area role-mark layer_0_layer_0_marks" role="graphics-symbol" aria-roledescription="area mark container"><path d="M5,268.8522974650065L10,265.5742009480794L15,267.1452204386393L20,254.69039281209308L25,246.99090321858722L30,249.79279836018878L35,253.40372721354166L40,253.97895177205402L45,240.6209945678711L50,232.44959513346353L55.00000000000001,248.59387079874674L60,237.19301223754883L65,233.2088788350423L70,229.93507385253906L75,245.51270802815753L80,180.8698018391927L85,222.89632161458331L90,228.04234822591144L95,229.93046442667642L100,225.91088612874347L105,231.53804143269855L110.00000000000001,236.304505666097L114.99999999999999,233.0821990966797L120,231.61004384358722L125,217.24023818969727L130,217.89143880208331L135,205.27114868164062L140,186.58739725748697L145,185.60892740885416L150,183.5734685262044L155,170.49032847086588L160,186.03442509969074L165,181.07213973999023L170,181.78246815999347L175,178.78522872924805L180,163.92571131388345L185,167.27962493896484L190,169.69099044799805L195,143.68206659952799L200,157.13268915812174L204.99999999999997,167.1707471211751L210,165.80349604288736L215,154.07934188842773L220.00000000000003,155.13648986816406L225,156.1664581298828L229.99999999999997,167.36068725585938L235,164.19576009114581L240,167.70607630411783L245.00000000000003,144.661013285319L250,101.3718287150065L254.99999999999997,85.43068567911783L260,141.01241429646808L265,148.9802042643229L270,132.91667302449542L275,122.85985946655273L280,142.14458465576172L285,142.01424916585285L290,149.56194559733072L295,148.69918823242188L300,136.09749476114908L305,147.49644597371417L310,146.61954243977863L315,145.03691991170246L320,134.02881622314453L325,134.52154795328775L330,130.24988174438477L335,126.87514623006182L340,132.88742701212564L345,132.70591100056964L350,128.52516174316406L355,133.73953501383463L360,132.4840227762858L365,133.07577768961588L370,134.61294174194336L375,136.64347330729166L380,133.28812917073566L385,127.91926066080728L390,129.9825350443522L395,129.11596298217773L400,131.02490107218424L405,118.7352180480957L409.99999999999994,118.68244806925455L415.00000000000006,116.19685490926103L420,113.78135681152344L425,112.0269139607747L430,92.4128532409668L434.99999999999994,120.52351633707681L440.00000000000006,116.3559595743815L445,115.40133158365884L450,116.37487411499023L455,119.43473815917969L459.99999999999994,97.6633071899414L465.00000000000006,115.37907918294268L470,115.06055196126299L475,112.71578470865884L480,111.35473251342773L484.99999999999994,80.28752009073892L490.00000000000006,109.91230010986328L495,91.30627314249674L500,80.85845311482744L505,103.05665334065752L509.99999999999994,64.8402214050293L515,61.8499755859375L520,102.24825541178384L525,83.72106552124023L530,47.88564046223955L535,19.64543660481768L540,80.7729403177897L545,93.53914260864258L550,100.64640045166016L555,86.11510594685869L560,33.96787643432617L565,46.61979675292969L570,59.33911005655923L575,101.24785105387369L580,100.51797231038408L585,94.33371225992838L590,100.68693161010742L595,54.644330342610644L600,36.955102284749316L605,57.11069107055664L610,71.24160130818682L615,43.893082936604785L620,44.108931223551416L625,57.85757700602212L630,80.6950569152832L635,89.04987970987955L640,46.50026957194009L645,48.75570933024087L650,88.44429651896158L655,85.96188227335611L660,87.03031539916992L665,83.63571166992188L670,85.0322087605794L675,86.80159250895181L680,85.6557528177897L685,85.6837272644043L690,93.29706827799478L695,87.32833862304688L700,84.64899063110352L705,81.2194188435872L710,92.81721115112305L715,89.10805384318033L720,72.796090443929L725,75.04914601643877L730,74.6058464050293L735,74.11200205485025L740,76.64289474487305L745,71.10077540079752L750,72.54877090454102L750,400L745,400L740,400L735,400L730,400L725,400L720,400L715,400L710,400L705,400L700,400L695,400L690,400L685,400L680,400L675,400L670,400L665,400L660,400L655,400L650,400L645,400L640,400L635,400L630,400L625,400L620,400L615,400L610,400L605,400L600,400L595,400L590,400L585,400L580,400L575,400L570,400L565,400L560,400L555,400L550,400L545,400L540,400L535,400L530,400L525,400L520,400L515,400L509.99999999999994,400L505,400L500,400L495,400L490.00000000000006,400L484.99999999999994,400L480,400L475,400L470,400L465.00000000000006,400L459.99999999999994,400L455,400L450,400L445,400L440.00000000000006,400L434.99999999999994,400L430,400L425,400L420,400L415.00000000000006,400L409.99999999999994,400L405,400L400,400L395,400L390,400L385,400L380,400L375,400L370,400L365,400L360,400L355,400L350,400L345,400L340,400L335,400L330,400L325,400L320,400L315,400L310,400L305,400L300,400L295,400L290,400L285,400L280,400L275,400L270,400L265,400L260,400L254.99999999999997,400L250,400L245.00000000000003,400L240,400L235,400L229.99999999999997,400L225,400L220.00000000000003,400L215,400L210,400L204.99999999999997,400L200,400L195,400L190,400L185,400L180,400L175,400L170,400L165,400L160,400L155,400L150,400L145,400L140,400L135,400L130,400L125,400L120,400L114.99999999999999,400L110.00000000000001,400L105,400L100,400L95,400L90,400L85,400L80,400L75,400L70,400L65,400L60,400L55.00000000000001,400L50,400L45,400L40,400L35,400L30,400L25,400L20,400L15,400L10,400L5,400Z" fill="#228C22" fill-opacity="0.4" opacity="0.7"/></g></g><path class="foreground" aria-hidden="true" d="" display="none"/></g></g><g class="mark-group role-scope layer_0_layer_1_pathgroup" role="graphics-object" aria-roledescription="group mark container"><g transform="translate(0,0)"><path class="background" aria-hidden="true" d="M0,0h800v400h-800Z"/><g><g class="mark-line role-mark layer_0_layer_1_marks" role="graphics-symbol" aria-roledescription="line mark container"><path d="M5,268.8522974650065L10,265.5742009480794L15,267.1452204386393L20,254.69039281209308L25,246.99090321858722L30,249.79279836018878L35,253.40372721354166L40,253.97895177205402L45,240.6209945678711L50,232.44959513346353L55.00000000000001,248.59387079874674L60,237.19301223754883L65,233.2088788350423L70,229.93507385253906L75,245.51270802815753L80,180.8698018391927L85,222.89632161458331L90,228.04234822591144L95,229.93046442667642L100,225.91088612874347L105,231.53804143269855L110.00000000000001,236.304505666097L114.99999999999999,233.0821990966797L120,231.61004384358722L125,217.24023818969727L130,217.89143880208331L135,205.27114868164062L140,186.58739725748697L145,185.60892740885416L150,183.5734685262044L155,170.49032847086588L160,186.03442509969074L165,181.07213973999023L170,181.78246815999347L175,178.78522872924805L180,163.92571131388345L185,167.27962493896484L190,169.69099044799805L195,143.68206659952799L200,157.13268915812174L204.99999999999997,167.1707471211751L210,165.80349604288736L215,154.07934188842773L220.00000000000003,155.13648986816406L225,156.1664581298828L229.99999999999997,167.36068725585938L235,164.19576009114581L240,167.70607630411783L245.00000000000003,144.661013285319L250,101.3718287150065L254.99999999999997,85.43068567911783L260,141.01241429646808L265,148.9802042643229L270,132.91667302449542L275,122.85985946655273L280,142.14458465576172L285,142.01424916585285L290,149.56194559733072L295,148.69918823242188L300,136.09749476114908L305,147.49644597371417L310,146.61954243977863L315,145.03691991170246L320,134.02881622314453L325,134.52154795328775L330,130.24988174438477L335,126.87514623006182L340,132.88742701212564L345,132.70591100056964L350,128.52516174316406L355,133.73953501383463L360,132.4840227762858L365,133.07577768961588L370,134.61294174194336L375,136.64347330729166L380,133.28812917073566L385,127.91926066080728L390,129.9825350443522L395,129.11596298217773L400,131.02490107218424L405,118.7352180480957L409.99999999999994,118.68244806925455L415.00000000000006,116.19685490926103L420,113.78135681152344L425,112.0269139607747L430,92.4128532409668L434.99999999999994,120.52351633707681L440.00000000000006,116.3559595743815L445,115.40133158365884L450,116.37487411499023L455,119.43473815917969L459.99999999999994,97.6633071899414L465.00000000000006,115.37907918294268L470,115.06055196126299L475,112.71578470865884L480,111.35473251342773L484.99999999999994,80.28752009073892L490.00000000000006,109.91230010986328L495,91.30627314249674L500,80.85845311482744L505,103.05665334065752L509.99999999999994,64.8402214050293L515,61.8499755859375L520,102.24825541178384L525,83.72106552124023L530,47.88564046223955L535,19.64543660481768L540,80.7729403177897L545,93.53914260864258L550,100.64640045166016L555,86.11510594685869L560,33.96787643432617L565,46.61979675292969L570,59.33911005655923L575,101.24785105387369L580,100.51797231038408L585,94.33371225992838L590,100.68693161010742L595,54.644330342610644L600,36.955102284749316L605,57.11069107055664L610,71.24160130818682L615,43.893082936604785L620,44.108931223551416L625,57.85757700602212L630,80.6950569152832L635,89.04987970987955L640,46.50026957194009L645,48.75570933024087L650,88.44429651896158L655,85.96188227335611L660,87.03031539916992L665,83.63571166992188L670,85.0322087605794L675,86.80159250895181L680,85.6557528177897L685,85.6837272644043L690,93.29706827799478L695,87.32833862304688L700,84.64899063110352L705,81.2194188435872L710,92.81721115112305L715,89.10805384318033L720,72.796090443929L725,75.04914601643877L730,74.6058464050293L735,74.11200205485025L740,76.64289474487305L745,71.10077540079752L750,72.54877090454102" stroke="#228C22" stroke-width="2"/></g></g><path class="foreground" aria-hidden="true" d="" display="none"/></g></g><g class="mark-group role-scope layer_1_layer_0_pathgroup" role="graphics-object" aria-roledescription="group mark container"><g transform="translate(0,0)"><path class="background" aria-hidden="true" d="M0,0h800v400h-800Z"/><g><g class="mark-line role-mark layer_1_layer_0_marks" role="graphics-symbol" aria-roledescription="line mark container"><path d="M5,268.8522974650065L10,265.5742009480794L15,267.1452204386393L20,254.69039281209308L25,246.99090321858722L30,249.79279836018878L35,253.40372721354166L40,253.97895177205402L45,240.6209945678711L50,232.44959513346353L55.00000000000001,248.59387079874674L60,237.19301223754883L65,233.2088788350423L70,229.93507385253906L75,245.51270802815753L80,180.8698018391927L85,222.89632161458331L90,228.04234822591144L95,229.93046442667642L100,225.91088612874347L105,231.53804143269855L110.00000000000001,236.304505666097L114.99999999999999,233.0821990966797L120,231.61004384358722L125,217.24023818969727L130,217.89143880208331L135,205.27114868164062L140,186.58739725748697L145,185.60892740885416L150,183.5734685262044L155,170.49032847086588L160,186.03442509969074L165,181.07213973999023L170,181.78246815999347L175,178.78522872924805L180,163.92571131388345L185,167.27962493896484L190,169.69099044799805L195,143.68206659952799L200,157.13268915812174L204.99999999999997,167.1707471211751L210,165.80349604288736L215,154.07934188842773L220.00000000000003,155.13648986816406L225,156.1664581298828L229.99999999999997,167.36068725585938L235,164.19576009114581L240,167.70607630411783L245.00000000000003,144.661013285319L250,101.3718287150065L254.99999999999997,85.43068567911783L260,141.01241429646808L265,148.9802042643229L270,132.91667302449542L275,122.85985946655273L280,142.14458465576172L285,142.01424916585285L290,149.56194559733072L295,148.69918823242188L300,136.09749476114908L305,147.49644597371417L310,146.61954243977863L315,145.03691991170246L320,134.02881622314453L325,134.52154795328775L330,130.24988174438477L335,126.87514623006182L340,132.88742701212564L345,132.70591100056964L350,128.52516174316406L355,133.73953501383463L360,132.4840227762858L365,133.07577768961588L370,134.61294174194336L375,136.64347330729166L380,133.28812917073566L385,127.91926066080728L390,129.9825350443522L395,129.11596298217773L400,131.02490107218424L405,118.7352180480957L409.99999999999994,118.68244806925455L415.00000000000006,116.19685490926103L420,113.78135681152344L425,112.0269139607747L430,92.4128532409668L434.99999999999994,120.52351633707681L440.00000000000006,116.3559595743815L445,115.40133158365884L450,116.37487411499023L455,119.43473815917969L459.99999999999994,97.6633071899414L465.00000000000006,115.37907918294268L470,115.06055196126299L475,112.71578470865884L480,111.35473251342773L484.99999999999994,80.28752009073892L490.00000000000006,109.91230010986328L495,91.30627314249674L500,80.85845311482744L505,103.05665334065752L509.99999999999994,64.8402214050293L515,61.8499755859375L520,102.24825541178384L525,83.72106552124023L530,47.88564046223955L535,19.64543660481768L540,80.7729403177897L545,93.53914260864258L550,100.64640045166016L555,86.11510594685869L560,33.96787643432617L565,46.61979675292969L570,59.33911005655923L575,101.24785105387369L580,100.51797231038408L585,94.33371225992838L590,100.68693161010742L595,54.644330342610644L600,36.955102284749316L605,57.11069107055664L610,71.24160130818682L615,43.893082936604785L620,44.108931223551416L625,57.85757700602212L630,80.6950569152832L635,89.04987970987955L640,46.50026957194009L645,48.75570933024087L650,88.44429651896158L655,85.96188227335611L660,87.03031539916992L665,83.63571166992188L670,85.0322087605794L675,86.80159250895181L680,85.6557528177897L685,85.6837272644043L690,93.29706827799478L695,87.32833862304688L700,84.64899063110352L705,81.2194188435872L710,92.81721115112305L715,89.10805384318033L720,72.796090443929L725,75.04914601643877L730,74.6058464050293L735,74.11200205485025L740,76.64289474487305L745,71.10077540079752L750,72.54877090454102" stroke="#228C22" stroke-width="3.05" opacity="0.05"/></g></g><path class="foreground" aria-hidden="true" d="" display="none"/></g></g><g class="mark-group role-scope layer_1_layer_1_pathgroup" role="graphics-object" aria-roledescription="group mark container"><g transform="translate(0,0)"><path class="background" aria-hidden="true" d="M0,0h800v400h-800Z"/><g><g class="mark-line role-mark layer_1_layer_1_marks" role="graphics-symbol" aria-roledescription="line mark container"><path d="M5,268.8522974650065L10,265.5742009480794L15,267.1452204386393L20,254.69039281209308L25,246.99090321858722L30,249.79279836018878L35,253.40372721354166L40,253.97895177205402L45,240.6209945678711L50,232.44959513346353L55.00000000000001,248.59387079874674L60,237.19301223754883L65,233.2088788350423L70,229.93507385253906L75,245.51270802815753L80,180.8698018391927L85,222.89632161458331L90,228.04234822591144L95,229.93046442667642L100,225.91088612874347L105,231.53804143269855L110.00000000000001,236.304505666097L114.99999999999999,233.0821990966797L120,231.61004384358722L125,217.24023818969727L130,217.89143880208331L135,205.27114868164062L140,186.58739725748697L145,185.60892740885416L150,183.5734685262044L155,170.49032847086588L160,186.03442509969074L165,181.07213973999023L170,181.78246815999347L175,178.78522872924805L180,163.92571131388345L185,167.27962493896484L190,169.69099044799805L195,143.68206659952799L200,157.13268915812174L204.99999999999997,167.1707471211751L210,165.80349604288736L215,154.07934188842773L220.00000000000003,155.13648986816406L225,156.1664581298828L229.99999999999997,167.36068725585938L235,164.19576009114581L240,167.70607630411783L245.00000000000003,144.661013285319L250,101.3718287150065L254.99999999999997,85.43068567911783L260,141.01241429646808L265,148.9802042643229L270,132.91667302449542L275,122.85985946655273L280,142.14458465576172L285,142.01424916585285L290,149.56194559733072L295,148.69918823242188L300,136.09749476114908L305,147.49644597371417L310,146.61954243977863L315,145.03691991170246L320,134.02881622314453L325,134.52154795328775L330,130.24988174438477L335,126.87514623006182L340,132.88742701212564L345,132.70591100056964L350,128.52516174316406L355,133.73953501383463L360,132.4840227762858L365,133.07577768961588L370,134.61294174194336L375,136.64347330729166L380,133.28812917073566L385,127.91926066080728L390,129.9825350443522L395,129.11596298217773L400,131.02490107218424L405,118.7352180480957L409.99999999999994,118.68244806925455L415.00000000000006,116.19685490926103L420,113.78135681152344L425,112.0269139607747L430,92.4128532409668L434.99999999999994,120.52351633707681L440.00000000000006,116.3559595743815L445,115.40133158365884L450,116.37487411499023L455,119.43473815917969L459.99999999999994,97.6633071899414L465.00000000000006,115.37907918294268L470,115.06055196126299L475,112.71578470865884L480,111.35473251342773L484.99999999999994,80.28752009073892L490.00000000000006,109.91230010986328L495,91.30627314249674L500,80.85845311482744L505,103.05665334065752L509.99999999999994,64.8402214050293L515,61.8499755859375L520,102.24825541178384L525,83.72106552124023L530,47.88564046223955L535,19.64543660481768L540,80.7729403177897L545,93.53914260864258L550,100.64640045166016L555,86.11510594685869L560,33.96787643432617L565,46.61979675292969L570,59.33911005655923L575,101.24785105387369L580,100.51797231038408L585,94.33371225992838L590,100.68693161010742L595,54.644330342610644L600,36.955102284749316L605,57.11069107055664L610,71.24160130818682L615,43.893082936604785L620,44.108931223551416L625,57.85757700602212L630,80.6950569152832L635,89.04987970987955L640,46.50026957194009L645,48.75570933024087L650,88.44429651896158L655,85.96188227335611L660,87.03031539916992L665,83.63571166992188L670,85.0322087605794L675,86.80159250895181L680,85.6557528177897L685,85.6837272644043L690,93.29706827799478L695,87.32833862304688L700,84.64899063110352L705,81.2194188435872L710,92.81721115112305L715,89.10805384318033L720,72.796090443929L725,75.04914601643877L730,74.6058464050293L735,74.11200205485025L740,76.64289474487305L745,71.10077540079752L750,72.54877090454102" stroke="#228C22" stroke-width="4.1" opacity="0.05"/></g></g><path class="foreground" aria-hidden="true" d="" display="none"/></g></g><g class="mark-group role-scope layer_1_layer_2_pathgroup" role="graphics-object" aria-roledescription="group mark container"><g transform="translate(0,0)"><path class="background" aria-hidden="true" d="M0,0h800v400h-800Z"/><g><g class="mark-line role-mark layer_1_layer_2_marks" role="graphics-symbol" aria-roledescription="line mark container"><path d="M5,268.8522974650065L10,265.5742009480794L15,267.1452204386393L20,254.69039281209308L25,246.99090321858722L30,249.79279836018878L35,253.40372721354166L40,253.97895177205402L45,240.6209945678711L50,232.44959513346353L55.00000000000001,248.59387079874674L60,237.19301223754883L65,233.2088788350423L70,229.93507385253906L75,245.51270802815753L80,180.8698018391927L85,222.89632161458331L90,228.04234822591144L95,229.93046442667642L100,225.91088612874347L105,231.53804143269855L110.00000000000001,236.304505666097L114.99999999999999,233.0821990966797L120,231.61004384358722L125,217.24023818969727L130,217.89143880208331L135,205.27114868164062L140,186.58739725748697L145,185.60892740885416L150,183.5734685262044L155,170.49032847086588L160,186.03442509969074L165,181.07213973999023L170,181.78246815999347L175,178.78522872924805L180,163.92571131388345L185,167.27962493896484L190,169.69099044799805L195,143.68206659952799L200,157.13268915812174L204.99999999999997,167.1707471211751L210,165.80349604288736L215,154.07934188842773L220.00000000000003,155.13648986816406L225,156.1664581298828L229.99999999999997,167.36068725585938L235,164.19576009114581L240,167.70607630411783L245.00000000000003,144.661013285319L250,101.3718287150065L254.99999999999997,85.43068567911783L260,141.01241429646808L265,148.9802042643229L270,132.91667302449542L275,122.85985946655273L280,142.14458465576172L285,142.01424916585285L290,149.56194559733072L295,148.69918823242188L300,136.09749476114908L305,147.49644597371417L310,146.61954243977863L315,145.03691991170246L320,134.02881622314453L325,134.52154795328775L330,130.24988174438477L335,126.87514623006182L340,132.88742701212564L345,132.70591100056964L350,128.52516174316406L355,133.73953501383463L360,132.4840227762858L365,133.07577768961588L370,134.61294174194336L375,136.64347330729166L380,133.28812917073566L385,127.91926066080728L390,129.9825350443522L395,129.11596298217773L400,131.02490107218424L405,118.7352180480957L409.99999999999994,118.68244806925455L415.00000000000006,116.19685490926103L420,113.78135681152344L425,112.0269139607747L430,92.4128532409668L434.99999999999994,120.52351633707681L440.00000000000006,116.3559595743815L445,115.40133158365884L450,116.37487411499023L455,119.43473815917969L459.99999999999994,97.6633071899414L465.00000000000006,115.37907918294268L470,115.06055196126299L475,112.71578470865884L480,111.35473251342773L484.99999999999994,80.28752009073892L490.00000000000006,109.91230010986328L495,91.30627314249674L500,80.85845311482744L505,103.05665334065752L509.99999999999994,64.8402214050293L515,61.8499755859375L520,102.24825541178384L525,83.72106552124023L530,47.88564046223955L535,19.64543660481768L540,80.7729403177897L545,93.53914260864258L550,100.64640045166016L555,86.11510594685869L560,33.96787643432617L565,46.61979675292969L570,59.33911005655923L575,101.24785105387369L580,100.51797231038408L585,94.33371225992838L590,100.68693161010742L595,54.644330342610644L600,36.955102284749316L605,57.11069107055664L610,71.24160130818682L615,43.893082936604785L620,44.108931223551416L625,57.85757700602212L630,80.6950569152832L635,89.04987970987955L640,46.50026957194009L645,48.75570933024087L650,88.44429651896158L655,85.96188227335611L660,87.03031539916992L665,83.63571166992188L670,85.0322087605794L675,86.80159250895181L680,85.6557528177897L685,85.6837272644043L690,93.29706827799478L695,87.32833862304688L700,84.64899063110352L705,81.2194188435872L710,92.81721115112305L715,89.10805384318033L720,72.796090443929L725,75.04914601643877L730,74.6058464050293L735,74.11200205485025L740,76.64289474487305L745,71.10077540079752L750,72.54877090454102" stroke="#228C22" stroke-width="5.15" opacity="0.05"/></g></g><path class="foreground" aria-hidden="true" d="" display="none"/></g></g><g class="mark-group role-scope layer_1_layer_3_pathgroup" role="graphics-object" aria-roledescription="group mark container"><g transform="translate(0,0)"><path class="background" aria-hidden="true" d="M0,0h800v400h-800Z"/><g><g class="mark-line role-mark layer_1_layer_3_marks" role="graphics-symbol" aria-roledescription="line mark container"><path d="M5,268.8522974650065L10,265.5742009480794L15,267.1452204386393L20,254.69039281209308L25,246.99090321858722L30,249.79279836018878L35,253.40372721354166L40,253.97895177205402L45,240.6209945678711L50,232.44959513346353L55.00000000000001,248.59387079874674L60,237.19301223754883L65,233.2088788350423L70,229.93507385253906L75,245.51270802815753L80,180.8698018391927L85,222.89632161458331L90,228.04234822591144L95,229.93046442667642L100,225.91088612874347L105,231.53804143269855L110.00000000000001,236.304505666097L114.99999999999999,233.0821990966797L120,231.61004384358722L125,217.24023818969727L130,217.89143880208331L135,205.27114868164062L140,186.58739725748697L145,185.60892740885416L150,183.5734685262044L155,170.49032847086588L160,186.03442509969074L165,181.07213973999023L170,181.78246815999347L175,178.78522872924805L180,163.92571131388345L185,167.27962493896484L190,169.69099044799805L195,143.68206659952799L200,157.13268915812174L204.99999999999997,167.1707471211751L210,165.80349604288736L215,154.07934188842773L220.00000000000003,155.13648986816406L225,156.1664581298828L229.99999999999997,167.36068725585938L235,164.19576009114581L240,167.70607630411783L245.00000000000003,144.661013285319L250,101.3718287150065L254.99999999999997,85.43068567911783L260,141.01241429646808L265,148.9802042643229L270,132.91667302449542L275,122.85985946655273L280,142.14458465576172L285,142.01424916585285L290,149.56194559733072L295,148.69918823242188L300,136.09749476114908L305,147.49644597371417L310,146.61954243977863L315,145.03691991170246L320,134.02881622314453L325,134.52154795328775L330,130.24988174438477L335,126.87514623006182L340,132.88742701212564L345,132.70591100056964L350,128.52516174316406L355,133.73953501383463L360,132.4840227762858L365,133.07577768961588L370,134.61294174194336L375,136.64347330729166L380,133.28812917073566L385,127.91926066080728L390,129.9825350443522L395,129.11596298217773L400,131.02490107218424L405,118.7352180480957L409.99999999999994,118.68244806925455L415.00000000000006,116.19685490926103L420,113.78135681152344L425,112.0269139607747L430,92.4128532409668L434.99999999999994,120.52351633707681L440.00000000000006,116.3559595743815L445,115.40133158365884L450,116.37487411499023L455,119.43473815917969L459.99999999999994,97.6633071899414L465.00000000000006,115.37907918294268L470,115.06055196126299L475,112.71578470865884L480,111.35473251342773L484.99999999999994,80.28752009073892L490.00000000000006,109.91230010986328L495,91.30627314249674L500,80.85845311482744L505,103.05665334065752L509.99999999999994,64.8402214050293L515,61.8499755859375L520,102.24825541178384L525,83.72106552124023L530,47.88564046223955L535,19.64543660481768L540,80.7729403177897L545,93.53914260864258L550,100.64640045166016L555,86.11510594685869L560,33.96787643432617L565,46.61979675292969L570,59.33911005655923L575,101.24785105387369L580,100.51797231038408L585,94.33371225992838L590,100.68693161010742L595,54.644330342610644L600,36.955102284749316L605,57.11069107055664L610,71.24160130818682L615,43.893082936604785L620,44.108931223551416L625,57.85757700602212L630,80.6950569152832L635,89.04987970987955L640,46.50026957194009L645,48.75570933024087L650,88.44429651896158L655,85.96188227335611L660,87.03031539916992L665,83.63571166992188L670,85.0322087605794L675,86.80159250895181L680,85.6557528177897L685,85.6837272644043L690,93.29706827799478L695,87.32833862304688L700,84.64899063110352L705,81.2194188435872L710,92.81721115112305L715,89.10805384318033L720,72.796090443929L725,75.04914601643877L730,74.6058464050293L735,74.11200205485025L740,76.64289474487305L745,71.10077540079752L750,72.54877090454102" stroke="#228C22" stroke-width="6.2" opacity="0.05"/></g></g><path class="foreground" aria-hidden="true" d="" display="none"/></g></g><g class="mark-group role-scope layer_1_layer_4_pathgroup" role="graphics-object" aria-roledescription="group mark container"><g transform="translate(0,0)"><path class="background" aria-hidden="true" d="M0,0h800v400h-800Z"/><g><g class="mark-line role-mark layer_1_layer_4_marks" role="graphics-symbol" aria-roledescription="line mark container"><path d="M5,268.8522974650065L10,265.5742009480794L15,267.1452204386393L20,254.69039281209308L25,246.99090321858722L30,249.79279836018878L35,253.40372721354166L40,253.97895177205402L45,240.6209945678711L50,232.44959513346353L55.00000000000001,248.59387079874674L60,237.19301223754883L65,233.2088788350423L70,229.93507385253906L75,245.51270802815753L80,180.8698018391927L85,222.89632161458331L90,228.04234822591144L95,229.93046442667642L100,225.91088612874347L105,231.53804143269855L110.00000000000001,236.304505666097L114.99999999999999,233.0821990966797L120,231.61004384358722L125,217.24023818969727L130,217.89143880208331L135,205.27114868164062L140,186.58739725748697L145,185.60892740885416L150,183.5734685262044L155,170.49032847086588L160,186.03442509969074L165,181.07213973999023L170,181.78246815999347L175,178.78522872924805L180,163.92571131388345L185,167.27962493896484L190,169.69099044799805L195,143.68206659952799L200,157.13268915812174L204.99999999999997,167.1707471211751L210,165.80349604288736L215,154.07934188842773L220.00000000000003,155.13648986816406L225,156.1664581298828L229.99999999999997,167.36068725585938L235,164.19576009114581L240,167.70607630411783L245.00000000000003,144.661013285319L250,101.3718287150065L254.99999999999997,85.43068567911783L260,141.01241429646808L265,148.9802042643229L270,132.91667302449542L275,122.85985946655273L280,142.14458465576172L285,142.01424916585285L290,149.56194559733072L295,148.69918823242188L300,136.09749476114908L305,147.49644597371417L310,146.61954243977863L315,145.03691991170246L320,134.02881622314453L325,134.52154795328775L330,130.24988174438477L335,126.87514623006182L340,132.88742701212564L345,132.70591100056964L350,128.52516174316406L355,133.73953501383463L360,132.4840227762858L365,133.07577768961588L370,134.61294174194336L375,136.64347330729166L380,133.28812917073566L385,127.91926066080728L390,129.9825350443522L395,129.11596298217773L400,131.02490107218424L405,118.7352180480957L409.99999999999994,118.68244806925455L415.00000000000006,116.19685490926103L420,113.78135681152344L425,112.0269139607747L430,92.4128532409668L434.99999999999994,120.52351633707681L440.00000000000006,116.3559595743815L445,115.40133158365884L450,116.37487411499023L455,119.43473815917969L459.99999999999994,97.6633071899414L465.00000000000006,115.37907918294268L470,115.06055196126299L475,112.71578470865884L480,111.35473251342773L484.99999999999994,80.28752009073892L490.00000000000006,109.91230010986328L495,91.30627314249674L500,80.85845311482744L505,103.05665334065752L509.99999999999994,64.8402214050293L515,61.8499755859375L520,102.24825541178384L525,83.72106552124023L530,47.88564046223955L535,19.64543660481768L540,80.7729403177897L545,93.53914260864258L550,100.64640045166016L555,86.11510594685869L560,33.96787643432617L565,46.61979675292969L570,59.33911005655923L575,101.24785105387369L580,100.51797231038408L585,94.33371225992838L590,100.68693161010742L595,54.644330342610644L600,36.955102284749316L605,57.11069107055664L610,71.24160130818682L615,43.893082936604785L620,44.108931223551416L625,57.85757700602212L630,80.6950569152832L635,89.04987970987955L640,46.50026957194009L645,48.75570933024087L650,88.44429651896158L655,85.96188227335611L660,87.03031539916992L665,83.63571166992188L670,85.0322087605794L675,86.80159250895181L680,85.6557528177897L685,85.6837272644043L690,93.29706827799478L695,87.32833862304688L700,84.64899063110352L705,81.2194188435872L710,92.81721115112305L715,89.10805384318033L720,72.796090443929L725,75.04914601643877L730,74.6058464050293L735,74.11200205485025L740,76.64289474487305L745,71.10077540079752L750,72.54877090454102" stroke="#228C22" stroke-width="7.25" opacity="0.05"/></g></g><path class="foreground" aria-hidden="true" d="" display="none"/></g></g><g class="mark-group role-scope layer_1_layer_5_pathgroup" role="graphics-object" aria-roledescription="group mark container"><g transform="translate(0,0)"><path class="background" aria-hidden="true" d="M0,0h800v400h-800Z"/><g><g class="mark-line role-mark layer_1_layer_5_marks" role="graphics-symbol" aria-roledescription="line mark container"><path d="M5,268.8522974650065L10,265.5742009480794L15,267.1452204386393L20,254.69039281209308L25,246.99090321858722L30,249.79279836018878L35,253.40372721354166L40,253.97895177205402L45,240.6209945678711L50,232.44959513346353L55.00000000000001,248.59387079874674L60,237.19301223754883L65,233.2088788350423L70,229.93507385253906L75,245.51270802815753L80,180.8698018391927L85,222.89632161458331L90,228.04234822591144L95,229.93046442667642L100,225.91088612874347L105,231.53804143269855L110.00000000000001,236.304505666097L114.99999999999999,233.0821990966797L120,231.61004384358722L125,217.24023818969727L130,217.89143880208331L135,205.27114868164062L140,186.58739725748697L145,185.60892740885416L150,183.5734685262044L155,170.49032847086588L160,186.03442509969074L165,181.07213973999023L170,181.78246815999347L175,178.78522872924805L180,163.92571131388345L185,167.27962493896484L190,169.69099044799805L195,143.68206659952799L200,157.13268915812174L204.99999999999997,167.1707471211751L210,165.80349604288736L215,154.07934188842773L220.00000000000003,155.13648986816406L225,156.1664581298828L229.99999999999997,167.36068725585938L235,164.19576009114581L240,167.70607630411783L245.00000000000003,144.661013285319L250,101.3718287150065L254.99999999999997,85.43068567911783L260,141.01241429646808L265,148.9802042643229L270,132.91667302449542L275,122.85985946655273L280,142.14458465576172L285,142.01424916585285L290,149.56194559733072L295,148.69918823242188L300,136.09749476114908L305,147.49644597371417L310,146.61954243977863L315,145.03691991170246L320,134.02881622314453L325,134.52154795328775L330,130.24988174438477L335,126.87514623006182L340,132.88742701212564L345,132.70591100056964L350,128.52516174316406L355,133.73953501383463L360,132.4840227762858L365,133.07577768961588L370,134.61294174194336L375,136.64347330729166L380,133.28812917073566L385,127.91926066080728L390,129.9825350443522L395,129.11596298217773L400,131.02490107218424L405,118.7352180480957L409.99999999999994,118.68244806925455L415.00000000000006,116.19685490926103L420,113.78135681152344L425,112.0269139607747L430,92.4128532409668L434.99999999999994,120.52351633707681L440.00000000000006,116.3559595743815L445,115.40133158365884L450,116.37487411499023L455,119.43473815917969L459.99999999999994,97.6633071899414L465.00000000000006,115.37907918294268L470,115.06055196126299L475,112.71578470865884L480,111.35473251342773L484.99999999999994,80.28752009073892L490.00000000000006,109.91230010986328L495,91.30627314249674L500,80.85845311482744L505,103.05665334065752L509.99999999999994,64.8402214050293L515,61.8499755859375L520,102.24825541178384L525,83.72106552124023L530,47.88564046223955L535,19.64543660481768L540,80.7729403177897L545,93.53914260864258L550,100.64640045166016L555,86.11510594685869L560,33.96787643432617L565,46.61979675292969L570,59.33911005655923L575,101.24785105387369L580,100.51797231038408L585,94.33371225992838L590,100.68693161010742L595,54.644330342610644L600,36.955102284749316L605,57.11069107055664L610,71.24160130818682L615,43.893082936604785L620,44.108931223551416L625,57.85757700602212L630,80.6950569152832L635,89.04987970987955L640,46.50026957194009L645,48.75570933024087L650,88.44429651896158L655,85.96188227335611L660,87.03031539916992L665,83.63571166992188L670,85.0322087605794L675,86.80159250895181L680,85.6557528177897L685,85.6837272644043L690,93.29706827799478L695,87.32833862304688L700,84.64899063110352L705,81.2194188435872L710,92.81721115112305L715,89.10805384318033L720,72.796090443929L725,75.04914601643877L730,74.6058464050293L735,74.11200205485025L740,76.64289474487305L745,71.10077540079752L750,72.54877090454102" stroke="#228C22" stroke-width="8.3" opacity="0.05"/></g></g><path class="foreground" aria-hidden="true" d="" display="none"/></g></g><g class="mark-group role-scope layer_1_layer_6_pathgroup" role="graphics-object" aria-roledescription="group mark container"><g transform="translate(0,0)"><path class="background" aria-hidden="true" d="M0,0h800v400h-800Z"/><g><g class="mark-line role-mark layer_1_layer_6_marks" role="graphics-symbol" aria-roledescription="line mark container"><path d="M5,268.8522974650065L10,265.5742009480794L15,267.1452204386393L20,254.69039281209308L25,246.99090321858722L30,249.79279836018878L35,253.40372721354166L40,253.97895177205402L45,240.6209945678711L50,232.44959513346353L55.00000000000001,248.59387079874674L60,237.19301223754883L65,233.2088788350423L70,229.93507385253906L75,245.51270802815753L80,180.8698018391927L85,222.89632161458331L90,228.04234822591144L95,229.93046442667642L100,225.91088612874347L105,231.53804143269855L110.00000000000001,236.304505666097L114.99999999999999,233.0821990966797L120,231.61004384358722L125,217.24023818969727L130,217.89143880208331L135,205.27114868164062L140,186.58739725748697L145,185.60892740885416L150,183.5734685262044L155,170.49032847086588L160,186.03442509969074L165,181.07213973999023L170,181.78246815999347L175,178.78522872924805L180,163.92571131388345L185,167.27962493896484L190,169.69099044799805L195,143.68206659952799L200,157.13268915812174L204.99999999999997,167.1707471211751L210,165.80349604288736L215,154.07934188842773L220.00000000000003,155.13648986816406L225,156.1664581298828L229.99999999999997,167.36068725585938L235,164.19576009114581L240,167.70607630411783L245.00000000000003,144.661013285319L250,101.3718287150065L254.99999999999997,85.43068567911783L260,141.01241429646808L265,148.9802042643229L270,132.91667302449542L275,122.85985946655273L280,142.14458465576172L285,142.01424916585285L290,149.56194559733072L295,148.69918823242188L300,136.09749476114908L305,147.49644597371417L310,146.61954243977863L315,145.03691991170246L320,134.02881622314453L325,134.52154795328775L330,130.24988174438477L335,126.87514623006182L340,132.88742701212564L345,132.70591100056964L350,128.52516174316406L355,133.73953501383463L360,132.4840227762858L365,133.07577768961588L370,134.61294174194336L375,136.64347330729166L380,133.28812917073566L385,127.91926066080728L390,129.9825350443522L395,129.11596298217773L400,131.02490107218424L405,118.7352180480957L409.99999999999994,118.68244806925455L415.00000000000006,116.19685490926103L420,113.78135681152344L425,112.0269139607747L430,92.4128532409668L434.99999999999994,120.52351633707681L440.00000000000006,116.3559595743815L445,115.40133158365884L450,116.37487411499023L455,119.43473815917969L459.99999999999994,97.6633071899414L465.00000000000006,115.37907918294268L470,115.06055196126299L475,112.71578470865884L480,111.35473251342773L484.99999999999994,80.28752009073892L490.00000000000006,109.91230010986328L495,91.30627314249674L500,80.85845311482744L505,103.05665334065752L509.99999999999994,64.8402214050293L515,61.8499755859375L520,102.24825541178384L525,83.72106552124023L530,47.88564046223955L535,19.64543660481768L540,80.7729403177897L545,93.53914260864258L550,100.64640045166016L555,86.11510594685869L560,33.96787643432617L565,46.61979675292969L570,59.33911005655923L575,101.24785105387369L580,100.51797231038408L585,94.33371225992838L590,100.68693161010742L595,54.644330342610644L600,36.955102284749316L605,57.11069107055664L610,71.24160130818682L615,43.893082936604785L620,44.108931223551416L625,57.85757700602212L630,80.6950569152832L635,89.04987970987955L640,46.50026957194009L645,48.75570933024087L650,88.44429651896158L655,85.96188227335611L660,87.03031539916992L665,83.63571166992188L670,85.0322087605794L675,86.80159250895181L680,85.6557528177897L685,85.6837272644043L690,93.29706827799478L695,87.32833862304688L700,84.64899063110352L705,81.2194188435872L710,92.81721115112305L715,89.10805384318033L720,72.796090443929L725,75.04914601643877L730,74.6058464050293L735,74.11200205485025L740,76.64289474487305L745,71.10077540079752L750,72.54877090454102" stroke="#228C22" stroke-width="9.350000000000001" opacity="0.05"/></g></g><path class="foreground" aria-hidden="true" d="" display="none"/></g></g><g class="mark-group role-scope layer_1_layer_7_pathgroup" role="graphics-object" aria-roledescription="group mark container"><g transform="translate(0,0)"><path class="background" aria-hidden="true" d="M0,0h800v400h-800Z"/><g><g class="mark-line role-mark layer_1_layer_7_marks" role="graphics-symbol" aria-roledescription="line mark container"><path d="M5,268.8522974650065L10,265.5742009480794L15,267.1452204386393L20,254.69039281209308L25,246.99090321858722L30,249.79279836018878L35,253.40372721354166L40,253.97895177205402L45,240.6209945678711L50,232.44959513346353L55.00000000000001,248.59387079874674L60,237.19301223754883L65,233.2088788350423L70,229.93507385253906L75,245.51270802815753L80,180.8698018391927L85,222.89632161458331L90,228.04234822591144L95,229.93046442667642L100,225.91088612874347L105,231.53804143269855L110.00000000000001,236.304505666097L114.99999999999999,233.0821990966797L120,231.61004384358722L125,217.24023818969727L130,217.89143880208331L135,205.27114868164062L140,186.58739725748697L145,185.60892740885416L150,183.5734685262044L155,170.49032847086588L160,186.03442509969074L165,181.07213973999023L170,181.78246815999347L175,178.78522872924805L180,163.92571131388345L185,167.27962493896484L190,169.69099044799805L195,143.68206659952799L200,157.13268915812174L204.99999999999997,167.1707471211751L210,165.80349604288736L215,154.07934188842773L220.00000000000003,155.13648986816406L225,156.1664581298828L229.99999999999997,167.36068725585938L235,164.19576009114581L240,167.70607630411783L245.00000000000003,144.661013285319L250,101.3718287150065L254.99999999999997,85.43068567911783L260,141.01241429646808L265,148.9802042643229L270,132.91667302449542L275,122.85985946655273L280,142.14458465576172L285,142.01424916585285L290,149.56194559733072L295,148.69918823242188L300,136.09749476114908L305,147.49644597371417L310,146.61954243977863L315,145.03691991170246L320,134.02881622314453L325,134.52154795328775L330,130.24988174438477L335,126.87514623006182L340,132.88742701212564L345,132.70591100056964L350,128.52516174316406L355,133.73953501383463L360,132.4840227762858L365,133.07577768961588L370,134.61294174194336L375,136.64347330729166L380,133.28812917073566L385,127.91926066080728L390,129.9825350443522L395,129.11596298217773L400,131.02490107218424L405,118.7352180480957L409.99999999999994,118.68244806925455L415.00000000000006,116.19685490926103L420,113.78135681152344L425,112.0269139607747L430,92.4128532409668L434.99999999999994,120.52351633707681L440.00000000000006,116.3559595743815L445,115.40133158365884L450,116.37487411499023L455,119.43473815917969L459.99999999999994,97.6633071899414L465.00000000000006,115.37907918294268L470,115.06055196126299L475,112.71578470865884L480,111.35473251342773L484.99999999999994,80.28752009073892L490.00000000000006,109.91230010986328L495,91.30627314249674L500,80.85845311482744L505,103.05665334065752L509.99999999999994,64.8402214050293L515,61.8499755859375L520,102.24825541178384L525,83.72106552124023L530,47.88564046223955L535,19.64543660481768L540,80.7729403177897L545,93.53914260864258L550,100.64640045166016L555,86.11510594685869L560,33.96787643432617L565,46.61979675292969L570,59.33911005655923L575,101.24785105387369L580,100.51797231038408L585,94.33371225992838L590,100.68693161010742L595,54.644330342610644L600,36.955102284749316L605,57.11069107055664L610,71.24160130818682L615,43.893082936604785L620,44.108931223551416L625,57.85757700602212L630,80.6950569152832L635,89.04987970987955L640,46.50026957194009L645,48.75570933024087L650,88.44429651896158L655,85.96188227335611L660,87.03031539916992L665,83.63571166992188L670,85.0322087605794L675,86.80159250895181L680,85.6557528177897L685,85.6837272644043L690,93.29706827799478L695,87.32833862304688L700,84.64899063110352L705,81.2194188435872L710,92.81721115112305L715,89.10805384318033L720,72.796090443929L725,75.04914601643877L730,74.6058464050293L735,74.11200205485025L740,76.64289474487305L745,71.10077540079752L750,72.54877090454102" stroke="#228C22" stroke-width="10.4" opacity="0.05"/></g></g><path class="foreground" aria-hidden="true" d="" display="none"/></g></g><g class="mark-group role-scope layer_1_layer_8_pathgroup" role="graphics-object" aria-roledescription="group mark container"><g transform="translate(0,0)"><path class="background" aria-hidden="true" d="M0,0h800v400h-800Z"/><g><g class="mark-line role-mark layer_1_layer_8_marks" role="graphics-symbol" aria-roledescription="line mark container"><path d="M5,268.8522974650065L10,265.5742009480794L15,267.1452204386393L20,254.69039281209308L25,246.99090321858722L30,249.79279836018878L35,253.40372721354166L40,253.97895177205402L45,240.6209945678711L50,232.44959513346353L55.00000000000001,248.59387079874674L60,237.19301223754883L65,233.2088788350423L70,229.93507385253906L75,245.51270802815753L80,180.8698018391927L85,222.89632161458331L90,228.04234822591144L95,229.93046442667642L100,225.91088612874347L105,231.53804143269855L110.00000000000001,236.304505666097L114.99999999999999,233.0821990966797L120,231.61004384358722L125,217.24023818969727L130,217.89143880208331L135,205.27114868164062L140,186.58739725748697L145,185.60892740885416L150,183.5734685262044L155,170.49032847086588L160,186.03442509969074L165,181.07213973999023L170,181.78246815999347L175,178.78522872924805L180,163.92571131388345L185,167.27962493896484L190,169.69099044799805L195,143.68206659952799L200,157.13268915812174L204.99999999999997,167.1707471211751L210,165.80349604288736L215,154.07934188842773L220.00000000000003,155.13648986816406L225,156.1664581298828L229.99999999999997,167.36068725585938L235,164.19576009114581L240,167.70607630411783L245.00000000000003,144.661013285319L250,101.3718287150065L254.99999999999997,85.43068567911783L260,141.01241429646808L265,148.9802042643229L270,132.91667302449542L275,122.85985946655273L280,142.14458465576172L285,142.01424916585285L290,149.56194559733072L295,148.69918823242188L300,136.09749476114908L305,147.49644597371417L310,146.61954243977863L315,145.03691991170246L320,134.02881622314453L325,134.52154795328775L330,130.24988174438477L335,126.87514623006182L340,132.88742701212564L345,132.70591100056964L350,128.52516174316406L355,133.73953501383463L360,132.4840227762858L365,133.07577768961588L370,134.61294174194336L375,136.64347330729166L380,133.28812917073566L385,127.91926066080728L390,129.9825350443522L395,129.11596298217773L400,131.02490107218424L405,118.7352180480957L409.99999999999994,118.68244806925455L415.00000000000006,116.19685490926103L420,113.78135681152344L425,112.0269139607747L430,92.4128532409668L434.99999999999994,120.52351633707681L440.00000000000006,116.3559595743815L445,115.40133158365884L450,116.37487411499023L455,119.43473815917969L459.99999999999994,97.6633071899414L465.00000000000006,115.37907918294268L470,115.06055196126299L475,112.71578470865884L480,111.35473251342773L484.99999999999994,80.28752009073892L490.00000000000006,109.91230010986328L495,91.30627314249674L500,80.85845311482744L505,103.05665334065752L509.99999999999994,64.8402214050293L515,61.8499755859375L520,102.24825541178384L525,83.72106552124023L530,47.88564046223955L535,19.64543660481768L540,80.7729403177897L545,93.53914260864258L550,100.64640045166016L555,86.11510594685869L560,33.96787643432617L565,46.61979675292969L570,59.33911005655923L575,101.24785105387369L580,100.51797231038408L585,94.33371225992838L590,100.68693161010742L595,54.644330342610644L600,36.955102284749316L605,57.11069107055664L610,71.24160130818682L615,43.893082936604785L620,44.108931223551416L625,57.85757700602212L630,80.6950569152832L635,89.04987970987955L640,46.50026957194009L645,48.75570933024087L650,88.44429651896158L655,85.96188227335611L660,87.03031539916992L665,83.63571166992188L670,85.0322087605794L675,86.80159250895181L680,85.6557528177897L685,85.6837272644043L690,93.29706827799478L695,87.32833862304688L700,84.64899063110352L705,81.2194188435872L710,92.81721115112305L715,89.10805384318033L720,72.796090443929L725,75.04914601643877L730,74.6058464050293L735,74.11200205485025L740,76.64289474487305L745,71.10077540079752L750,72.54877090454102" stroke="#228C22" stroke-width="11.450000000000001" opacity="0.05"/></g></g><path class="foreground" aria-hidden="true" d="" display="none"/></g></g><g class="mark-group role-scope layer_1_layer_9_pathgroup" role="graphics-object" aria-roledescription="group mark container"><g transform="translate(0,0)"><path class="background" aria-hidden="true" d="M0,0h800v400h-800Z"/><g><g class="mark-line role-mark layer_1_layer_9_marks" role="graphics-symbol" aria-roledescription="line mark container"><path d="M5,268.8522974650065L10,265.5742009480794L15,267.1452204386393L20,254.69039281209308L25,246.99090321858722L30,249.79279836018878L35,253.40372721354166L40,253.97895177205402L45,240.6209945678711L50,232.44959513346353L55.00000000000001,248.59387079874674L60,237.19301223754883L65,233.2088788350423L70,229.93507385253906L75,245.51270802815753L80,180.8698018391927L85,222.89632161458331L90,228.04234822591144L95,229.93046442667642L100,225.91088612874347L105,231.53804143269855L110.00000000000001,236.304505666097L114.99999999999999,233.0821990966797L120,231.61004384358722L125,217.24023818969727L130,217.89143880208331L135,205.27114868164062L140,186.58739725748697L145,185.60892740885416L150,183.5734685262044L155,170.49032847086588L160,186.03442509969074L165,181.07213973999023L170,181.78246815999347L175,178.78522872924805L180,163.92571131388345L185,167.27962493896484L190,169.69099044799805L195,143.68206659952799L200,157.13268915812174L204.99999999999997,167.1707471211751L210,165.80349604288736L215,154.07934188842773L220.00000000000003,155.13648986816406L225,156.1664581298828L229.99999999999997,167.36068725585938L235,164.19576009114581L240,167.70607630411783L245.00000000000003,144.661013285319L250,101.3718287150065L254.99999999999997,85.43068567911783L260,141.01241429646808L265,148.9802042643229L270,132.91667302449542L275,122.85985946655273L280,142.14458465576172L285,142.01424916585285L290,149.56194559733072L295,148.69918823242188L300,136.09749476114908L305,147.49644597371417L310,146.61954243977863L315,145.03691991170246L320,134.02881622314453L325,134.52154795328775L330,130.24988174438477L335,126.87514623006182L340,132.88742701212564L345,132.70591100056964L350,128.52516174316406L355,133.73953501383463L360,132.4840227762858L365,133.07577768961588L370,134.61294174194336L375,136.64347330729166L380,133.28812917073566L385,127.91926066080728L390,129.9825350443522L395,129.11596298217773L400,131.02490107218424L405,118.7352180480957L409.99999999999994,118.68244806925455L415.00000000000006,116.19685490926103L420,113.78135681152344L425,112.0269139607747L430,92.4128532409668L434.99999999999994,120.52351633707681L440.00000000000006,116.3559595743815L445,115.40133158365884L450,116.37487411499023L455,119.43473815917969L459.99999999999994,97.6633071899414L465.00000000000006,115.37907918294268L470,115.06055196126299L475,112.71578470865884L480,111.35473251342773L484.99999999999994,80.28752009073892L490.00000000000006,109.91230010986328L495,91.30627314249674L500,80.85845311482744L505,103.05665334065752L509.99999999999994,64.8402214050293L515,61.8499755859375L520,102.24825541178384L525,83.72106552124023L530,47.88564046223955L535,19.64543660481768L540,80.7729403177897L545,93.53914260864258L550,100.64640045166016L555,86.11510594685869L560,33.96787643432617L565,46.61979675292969L570,59.33911005655923L575,101.24785105387369L580,100.51797231038408L585,94.33371225992838L590,100.68693161010742L595,54.644330342610644L600,36.955102284749316L605,57.11069107055664L610,71.24160130818682L615,43.893082936604785L620,44.108931223551416L625,57.85757700602212L630,80.6950569152832L635,89.04987970987955L640,46.50026957194009L645,48.75570933024087L650,88.44429651896158L655,85.96188227335611L660,87.03031539916992L665,83.63571166992188L670,85.0322087605794L675,86.80159250895181L680,85.6557528177897L685,85.6837272644043L690,93.29706827799478L695,87.32833862304688L700,84.64899063110352L705,81.2194188435872L710,92.81721115112305L715,89.10805384318033L720,72.796090443929L725,75.04914601643877L730,74.6058464050293L735,74.11200205485025L740,76.64289474487305L745,71.10077540079752L750,72.54877090454102" stroke="#228C22" stroke-width="12.5" opacity="0.05"/></g></g><path class="foreground" aria-hidden="true" d="" display="none"/></g></g><g class="mark-group role-legend" role="graphics-symbol" aria-roledescription="legend" aria-label="Symbol legend titled 'PCAs' for fill color and stroke color with 1 value: from scratch"><g transform="translate(818,0)"><path class="background" aria-hidden="true" d="M0,0h72v29h-72Z" pointer-events="none"/><g><g class="mark-group role-legend-entry"><g transform="translate(0,16)"><path class="background" aria-hidden="true" d="M0,0h0v0h0Z" pointer-events="none"/><g><g class="mark-group role-scope" role="graphics-object" aria-roledescription="group mark container"><g transform="translate(0,0)"><path class="background" aria-hidden="true" d="M0,0h71.009765625v12.5h-71.009765625Z" pointer-events="none" opacity="1"/><g><g class="mark-symbol role-legend-symbol" pointer-events="none"><path transform="translate(6,6)" d="M5,0A5,5,0,1,1,-5,0A5,5,0,1,1,5,0" fill="#228C22" fill-opacity="0.4" stroke="#228C22" stroke-width="1.5" opacity="0.7"/></g><g class="mark-text role-legend-label" pointer-events="none"><text text-anchor="start" transform="translate(16,9)" font-family="sans-serif" font-size="10px" fill="#444444" opacity="1">from scratch</text></g></g><path class="foreground" aria-hidden="true" d="" pointer-events="none" display="none"/></g></g></g><path class="foreground" aria-hidden="true" d="" pointer-events="none" display="none"/></g></g><g class="mark-text role-legend-title" pointer-events="none"><text text-anchor="start" transform="translate(0,9)" font-family="sans-serif" font-size="11px" font-weight="bold" fill="#444444" opacity="1">PCAs</text></g></g><path class="foreground" aria-hidden="true" d="" pointer-events="none" display="none"/></g></g></g><path class="foreground" aria-hidden="true" d="" display="none"/></g></g></g></svg>