<svg xmlns="http://www.w3.org/2000/svg" xmlns:xlink="http://www.w3.org/1999/xlink" version="1.1" class="marks" width="949" height="447" viewBox="0 0 949 447"><rect width="949" height="447" fill="#efefef"/><g fill="none" stroke-miterlimit="10" transform="translate(41,10)"><g class="mark-group role-frame root" role="graphics-object" aria-roledescription="group mark container"><g transform="translate(0,0)"><path class="background" aria-hidden="true" d="M0.5,0.5h800v400h-800Z" stroke="#ddd"/><g><g class="mark-group role-axis" role="graphics-symbol" aria-roledescription="axis" aria-label="X-axis for a linear scale with values from 0 to 60"><g transform="translate(0.5,400.5)"><path class="background" aria-hidden="true" d="M0,0h0v0h0Z" pointer-events="none"/><g><g class="mark-rule role-axis-grid" pointer-events="none"><line transform="translate(0,-400)" x2="0" y2="400" stroke="#ffffff" stroke-width="1" opacity="1"/><line transform="translate(27,-400)" x2="0" y2="400" stroke="#ffffff" stroke-width="1" opacity="1"/><line transform="translate(53,-400)" x2="0" y2="400" stroke="#ffffff" stroke-width="1" opacity="1"/><line transform="translate(80,-400)" x2="0" y2="400" stroke="#ffffff" stroke-width="1" opacity="1"/><line transform="translate(107,-400)" x2="0" y2="400" stroke="#ffffff" stroke-width="1" opacity="1"/><line transform="translate(133,-400)" x2="0" y2="400" stroke="#ffffff" stroke-width="1" opacity="1"/><line transform="translate(160,-400)" x2="0" y2="400" stroke="#ffffff" stroke-width="1" opacity="1"/><line transform="translate(187,-400)" x2="0" y2="400" stroke="#ffffff" stroke-width="1" opacity="1"/><line transform="translate(213,-400)" x2="0" y2="400" stroke="#ffffff" stroke-width="1" opacity="1"/><line transform="translate(240,-400)" x2="0" y2="400" stroke="#ffffff" stroke-width="1" opacity="1"/><line transform="translate(267,-400)" x2="0" y2="400" stroke="#ffffff" stroke-width="1" opacity="1"/><line transform="translate(293,-400)" x2="0" y2="400" stroke="#ffffff" stroke-width="1" opacity="1"/><line transform="translate(320,-400)" x2="0" y2="400" stroke="#ffffff" stroke-width="1" opacity="1"/><line transform="translate(347,-400)" x2="0" y2="400" stroke="#ffffff" stroke-width="1" opacity="1"/><line transform="translate(373,-400)" x2="0" y2="400" stroke="#ffffff" stroke-width="1" opacity="1"/><line transform="translate(400,-400)" x2="0" y2="400" stroke="#ffffff" stroke-width="1" opacity="1"/><line transform="translate(427,-400)" x2="0" y2="400" stroke="#ffffff" stroke-width="1" opacity="1"/><line transform="translate(453,-400)" x2="0" y2="400" stroke="#ffffff" stroke-width="1" opacity="1"/><line transform="translate(480,-400)" x2="0" y2="400" stroke="#ffffff" stroke-width="1" opacity="1"/><line transform="translate(507,-400)" x2="0" y2="400" stroke="#ffffff" stroke-width="1" opacity="1"/><line transform="translate(533,-400)" x2="0" y2="400" stroke="#ffffff" stroke-width="1" opacity="1"/><line transform="translate(560,-400)" x2="0" y2="400" stroke="#ffffff" stroke-width="1" opacity="1"/><line transform="translate(587,-400)" x2="0" y2="400" stroke="#ffffff" stroke-width="1" opacity="1"/><line transform="translate(613,-400)" x2="0" y2="400" stroke="#ffffff" stroke-width="1" opacity="1"/><line transform="translate(640,-400)" x2="0" y2="400" stroke="#ffffff" stroke-width="1" opacity="1"/><line transform="translate(667,-400)" x2="0" y2="400" stroke="#ffffff" stroke-width="1" opacity="1"/><line transform="translate(693,-400)" x2="0" y2="400" stroke="#ffffff" stroke-width="1" opacity="1"/><line transform="translate(720,-400)" x2="0" y2="400" stroke="#ffffff" stroke-width="1" opacity="1"/><line transform="translate(747,-400)" x2="0" y2="400" stroke="#ffffff" stroke-width="1" opacity="1"/><line transform="translate(773,-400)" x2="0" y2="400" stroke="#ffffff" stroke-width="1" opacity="1"/><line transform="translate(800,-400)" x2="0" y2="400" stroke="#ffffff" stroke-width="1" opacity="1"/></g></g><path class="foreground" aria-hidden="true" d="" pointer-events="none" display="none"/></g></g><g class="mark-group role-axis" role="graphics-symbol" aria-roledescription="axis" aria-label="Y-axis for a linear scale with values from 0.0 to 2.6"><g transform="translate(0.5,0.5)"><path class="background" aria-hidden="true" d="M0,0h0v0h0Z" pointer-events="none"/><g><g class="mark-rule role-axis-grid" pointer-events="none"><line transform="translate(0,400)" x2="800" y2="0" stroke="#ffffff" stroke-width="1" opacity="1"/><line transform="translate(0,369)" x2="800" y2="0" stroke="#ffffff" stroke-width="1" opacity="1"/><line transform="translate(0,338)" x2="800" y2="0" stroke="#ffffff" stroke-width="1" opacity="1"/><line transform="translate(0,308)" x2="800" y2="0" stroke="#ffffff" stroke-width="1" opacity="1"/><line transform="translate(0,277)" x2="800" y2="0" stroke="#ffffff" stroke-width="1" opacity="1"/><line transform="translate(0,246)" x2="800" y2="0" stroke="#ffffff" stroke-width="1" opacity="1"/><line transform="translate(0,215)" x2="800" y2="0" stroke="#ffffff" stroke-width="1" opacity="1"/><line transform="translate(0,185)" x2="800" y2="0" stroke="#ffffff" stroke-width="1" opacity="1"/><line transform="translate(0,154)" x2="800" y2="0" stroke="#ffffff" stroke-width="1" opacity="1"/><line transform="translate(0,123)" x2="800" y2="0" stroke="#ffffff" stroke-width="1" opacity="1"/><line transform="translate(0,92)" x2="800" y2="0" stroke="#ffffff" stroke-width="1" opacity="1"/><line transform="translate(0,62)" x2="800" y2="0" stroke="#ffffff" stroke-width="1" opacity="1"/><line transform="translate(0,31)" x2="800" y2="0" stroke="#ffffff" stroke-width="1" opacity="1"/><line transform="translate(0,0)" x2="800" y2="0" stroke="#ffffff" stroke-width="1" opacity="1"/></g></g><path class="foreground" aria-hidden="true" d="" pointer-events="none" display="none"/></g></g><g class="mark-group role-axis" role="graphics-symbol" aria-roledescription="axis" aria-label="X-axis titled 'Number of Components' for a linear scale with values from 0 to 60"><g transform="translate(0.5,400.5)"><path class="background" aria-hidden="true" d="M0,0h0v0h0Z" pointer-events="none"/><g><g class="mark-rule role-axis-tick" pointer-events="none"><line transform="translate(0,0)" x2="0" y2="5" stroke-width="1" opacity="1"/><line transform="translate(27,0)" x2="0" y2="5" stroke-width="1" opacity="1"/><line transform="translate(53,0)" x2="0" y2="5" stroke-width="1" opacity="1"/><line transform="translate(80,0)" x2="0" y2="5" stroke-width="1" opacity="1"/><line transform="translate(107,0)" x2="0" y2="5" stroke-width="1" opacity="1"/><line transform="translate(133,0)" x2="0" y2="5" stroke-width="1" opacity="1"/><line transform="translate(160,0)" x2="0" y2="5" stroke-width="1" opacity="1"/><line transform="translate(187,0)" x2="0" y2="5" stroke-width="1" opacity="1"/><line transform="translate(213,0)" x2="0" y2="5" stroke-width="1" opacity="1"/><line transform="translate(240,0)" x2="0" y2="5" stroke-width="1" opacity="1"/><line transform="translate(267,0)" x2="0" y2="5" stroke-width="1" opacity="1"/><line transform="translate(293,0)" x2="0" y2="5" stroke-width="1" opacity="1"/><line transform="translate(320,0)" x2="0" y2="5" stroke-width="1" opacity="1"/><line transform="translate(347,0)" x2="0" y2="5" stroke-width="1" opacity="1"/><line transform="translate(373,0)" x2="0" y2="5" stroke-width="1" opacity="1"/><line transform="translate(400,0)" x2="0" y2="5" stroke-width="1" opacity="1"/><line transform="translate(427,0)" x2="0" y2="5" stroke-width="1" opacity="1"/><line transform="translate(453,0)" x2="0" y2="5" stroke-width="1" opacity="1"/><line transform="translate(480,0)" x2="0" y2="5" stroke-width="1" opacity="1"/><line transform="translate(507,0)" x2="0" y2="5" stroke-width="1" opacity="1"/><line transform="translate(533,0)" x2="0" y2="5" stroke-width="1" opacity="1"/><line transform="translate(560,0)" x2="0" y2="5" stroke-width="1" opacity="1"/><line transform="translate(587,0)" x2="0" y2="5" stroke-width="1" opacity="1"/><line transform="translate(613,0)" x2="0" y2="5" stroke-width="1" opacity="1"/><line transform="translate(640,0)" x2="0" y2="5" stroke-width="1" opacity="1"/><line transform="translate(667,0)" x2="0" y2="5" stroke-width="1" opacity="1"/><line transform="translate(693,0)" x2="0" y2="5" stroke-width="1" opacity="1"/><line transform="translate(720,0)" x2="0" y2="5" stroke-width="1" opacity="1"/><line transform="translate(747,0)" x2="0" y2="5" stroke-width="1" opacity="1"/><line transform="translate(773,0)" x2="0" y2="5" stroke-width="1" opacity="1"/><line transform="translate(800,0)" x2="0" y2="5" stroke-width="1" opacity="1"/></g><g class="mark-text role-axis-label" pointer-events="none"><text text-anchor="start" transform="translate(0,15)" font-family="sans-serif" font-size="10px" fill="#444444" opacity="1">0</text><text text-anchor="middle" transform="translate(26.666666666666668,15)" font-family="sans-serif" font-size="10px" fill="#444444" opacity="1">2</text><text text-anchor="middle" transform="translate(53.333333333333336,15)" font-family="sans-serif" font-size="10px" fill="#444444" opacity="1">4</text><text text-anchor="middle" transform="translate(80,15)" font-family="sans-serif" font-size="10px" fill="#444444" opacity="1">6</text><text text-anchor="middle" transform="translate(106.66666666666667,15)" font-family="sans-serif" font-size="10px" fill="#444444" opacity="1">8</text><text text-anchor="middle" transform="translate(133.33333333333331,15)" font-family="sans-serif" font-size="10px" fill="#444444" opacity="1">10</text><text text-anchor="middle" transform="translate(160,15)" font-family="sans-serif" font-size="10px" fill="#444444" opacity="1">12</text><text text-anchor="middle" transform="translate(186.66666666666666,15)" font-family="sans-serif" font-size="10px" fill="#444444" opacity="1">14</text><text text-anchor="middle" transform="translate(213.33333333333334,15)" font-family="sans-serif" font-size="10px" fill="#444444" opacity="1">16</text><text text-anchor="middle" transform="translate(240,15)" font-family="sans-serif" font-size="10px" fill="#444444" opacity="1">18</text><text text-anchor="middle" transform="translate(266.66666666666663,15)" font-family="sans-serif" font-size="10px" fill="#444444" opacity="1">20</text><text text-anchor="middle" transform="translate(293.3333333333333,15)" font-family="sans-serif" font-size="10px" fill="#444444" opacity="1">22</text><text text-anchor="middle" transform="translate(320,15)" font-family="sans-serif" font-size="10px" fill="#444444" opacity="1">24</text><text text-anchor="middle" transform="translate(346.6666666666667,15)" font-family="sans-serif" font-size="10px" fill="#444444" opacity="1">26</text><text text-anchor="middle" transform="translate(373.3333333333333,15)" font-family="sans-serif" font-size="10px" fill="#444444" opacity="1">28</text><text text-anchor="middle" transform="translate(400,15)" font-family="sans-serif" font-size="10px" fill="#444444" opacity="1">30</text><text text-anchor="middle" transform="translate(426.6666666666667,15)" font-family="sans-serif" font-size="10px" fill="#444444" opacity="1">32</text><text text-anchor="middle" transform="translate(453.3333333333333,15)" font-family="sans-serif" font-size="10px" fill="#444444" opacity="1">34</text><text text-anchor="middle" transform="translate(480,15)" font-family="sans-serif" font-size="10px" fill="#444444" opacity="1">36</text><text text-anchor="middle" transform="translate(506.66666666666663,15)" font-family="sans-serif" font-size="10px" fill="#444444" opacity="1">38</text><text text-anchor="middle" transform="translate(533.3333333333333,15)" font-family="sans-serif" font-size="10px" fill="#444444" opacity="1">40</text><text text-anchor="middle" transform="translate(560,15)" font-family="sans-serif" font-size="10px" fill="#444444" opacity="1">42</text><text text-anchor="middle" transform="translate(586.6666666666666,15)" font-family="sans-serif" font-size="10px" fill="#444444" opacity="1">44</text><text text-anchor="middle" transform="translate(613.3333333333334,15)" font-family="sans-serif" font-size="10px" fill="#444444" opacity="1">46</text><text text-anchor="middle" transform="translate(640,15)" font-family="sans-serif" font-size="10px" fill="#444444" opacity="1">48</text><text text-anchor="middle" transform="translate(666.6666666666667,15)" font-family="sans-serif" font-size="10px" fill="#444444" opacity="1">50</text><text text-anchor="middle" transform="translate(693.3333333333334,15)" font-family="sans-serif" font-size="10px" fill="#444444" opacity="1">52</text><text text-anchor="middle" transform="translate(720,15)" font-family="sans-serif" font-size="10px" fill="#444444" opacity="1">54</text><text text-anchor="middle" transform="translate(746.6666666666666,15)" font-family="sans-serif" font-size="10px" fill="#444444" opacity="1">56</text><text text-anchor="middle" transform="translate(773.3333333333334,15)" font-family="sans-serif" font-size="10px" fill="#444444" opacity="1">58</text><text text-anchor="end" transform="translate(800,15)" font-family="sans-serif" font-size="10px" fill="#444444" opacity="1">60</text></g><g class="mark-rule role-axis-domain" pointer-events="none"><line transform="translate(0,0)" x2="800" y2="0" stroke-width="1" opacity="1"/></g><g class="mark-text role-axis-title" pointer-events="none"><text text-anchor="middle" transform="translate(400,30)" font-family="sans-serif" font-size="11px" font-weight="bold" fill="#444444" opacity="1">Number of Components</text></g></g><path class="foreground" aria-hidden="true" d="" pointer-events="none" display="none"/></g></g><g class="mark-group role-axis" role="graphics-symbol" aria-roledescription="axis" aria-label="Y-axis titled 'Absolute Error' for a linear scale with values from 0.0 to 2.6"><g transform="translate(0.5,0.5)"><path class="background" aria-hidden="true" d="M0,0h0v0h0Z" pointer-events="none"/><g><g class="mark-rule role-axis-tick" pointer-events="none"><line transform="translate(0,400)" x2="-5" y2="0" stroke-width="1" opacity="1"/><line transform="translate(0,369)" x2="-5" y2="0" stroke-width="1" opacity="1"/><line transform="translate(0,338)" x2="-5" y2="0" stroke-width="1" opacity="1"/><line transform="translate(0,308)" x2="-5" y2="0" stroke-width="1" opacity="1"/><line transform="translate(0,277)" x2="-5" y2="0" stroke-width="1" opacity="1"/><line transform="translate(0,246)" x2="-5" y2="0" stroke-width="1" opacity="1"/><line transform="translate(0,215)" x2="-5" y2="0" stroke-width="1" opacity="1"/><line transform="translate(0,185)" x2="-5" y2="0" stroke-width="1" opacity="1"/><line transform="translate(0,154)" x2="-5" y2="0" stroke-width="1" opacity="1"/><line transform="translate(0,123)" x2="-5" y2="0" stroke-width="1" opacity="1"/><line transform="translate(0,92)" x2="-5" y2="0" stroke-width="1" opacity="1"/><line transform="translate(0,62)" x2="-5" y2="0" stroke-width="1" opacity="1"/><line transform="translate(0,31)" x2="-5" y2="0" stroke-width="1" opacity="1"/><line transform="translate(0,0)" x2="-5" y2="0" stroke-width="1" opacity="1"/></g><g class="mark-text role-axis-label" pointer-events="none"><text text-anchor="end" transform="translate(-7,403)" font-family="sans-serif" font-size="10px" fill="#444444" opacity="1">0.0</text><text text-anchor="end" transform="translate(-7,372.2307692307692)" font-family="sans-serif" font-size="10px" fill="#444444" opacity="1">0.2</text><text text-anchor="end" transform="translate(-7,341.46153846153845)" font-family="sans-serif" font-size="10px" fill="#444444" opacity="1">0.4</text><text text-anchor="end" transform="translate(-7,310.69230769230774)" font-family="sans-serif" font-size="10px" fill="#444444" opacity="1">0.6</text><text text-anchor="end" transform="translate(-7,279.9230769230769)" font-family="sans-serif" font-size="10px" fill="#444444" opacity="1">0.8</text><text text-anchor="end" transform="translate(-7,249.15384615384616)" font-family="sans-serif" font-size="10px" fill="#444444" opacity="1">1.0</text><text text-anchor="end" transform="translate(-7,218.38461538461542)" font-family="sans-serif" font-size="10px" fill="#444444" opacity="1">1.2</text><text text-anchor="end" transform="translate(-7,187.6153846153846)" font-family="sans-serif" font-size="10px" fill="#444444" opacity="1">1.4</text><text text-anchor="end" transform="translate(-7,156.84615384615384)" font-family="sans-serif" font-size="10px" fill="#444444" opacity="1">1.6</text><text text-anchor="end" transform="translate(-7,126.07692307692308)" font-family="sans-serif" font-size="10px" fill="#444444" opacity="1">1.8</text><text text-anchor="end" transform="translate(-7,95.30769230769234)" font-family="sans-serif" font-size="10px" fill="#444444" opacity="1">2.0</text><text text-anchor="end" transform="translate(-7,64.53846153846155)" font-family="sans-serif" font-size="10px" fill="#444444" opacity="1">2.2</text><text text-anchor="end" transform="translate(-7,33.769230769230795)" font-family="sans-serif" font-size="10px" fill="#444444" opacity="1">2.4</text><text text-anchor="end" transform="translate(-7,3)" font-family="sans-serif" font-size="10px" fill="#444444" opacity="1">2.6</text></g><g class="mark-rule role-axis-domain" pointer-events="none"><line transform="translate(0,400)" x2="0" y2="-400" stroke-width="1" opacity="1"/></g><g class="mark-text role-axis-title" pointer-events="none"><text text-anchor="middle" transform="translate(-24.9013671875,200) rotate(-90) translate(0,-2)" font-family="sans-serif" font-size="11px" font-weight="bold" fill="#444444" opacity="1">Absolute Error</text></g></g><path class="foreground" aria-hidden="true" d="" pointer-events="none" display="none"/></g></g><g class="mark-group role-scope layer_0_layer_0_pathgroup" role="graphics-object" aria-roledescription="group mark container"><g transform="translate(0,0)"><path class="background" aria-hidden="true" d="M0,0h800v400h-800Z"/><g><g class="mark-area role-mark layer_0_layer_0_marks" role="graphics-symbol" aria-roledescription="area mark container"><path d="M13.333333333333334,11.369230769230798L26.666666666666668,107.95384615384616L40,143.49230769230772L53.333333333333336,219.46153846153845L66.66666666666666,269.0769230769231L80,310.55384615384617L93.33333333333333,328.1230769230769L106.66666666666667,331.03076923076924L120,344.4923076923077L133.33333333333331,349.4769230769231L146.66666666666666,352.0923076923077L160,359.2153846153846L173.33333333333334,363.8L186.66666666666666,365.7846153846154L200,365.6461538461539L213.33333333333334,370.3846153846154L226.66666666666666,369.26153846153846L240,370.16923076923075L253.33333333333331,370.87692307692305L266.66666666666663,372.40000000000003L280,372.0615384615384L293.3333333333333,372.8307692307692L306.6666666666667,373.7692307692308L320,373.44615384615383L333.33333333333337,373.2153846153846L346.6666666666667,373.36923076923074L360,374.26153846153846L373.3333333333333,373.83076923076925L386.6666666666667,374.7692307692308L400,374.16923076923075L413.33333333333337,374.4307692307692L426.6666666666667,375L440.00000000000006,374.5846153846154L453.3333333333333,375.84615384615387L466.6666666666667,375L480,374.33846153846156L493.33333333333337,374.73846153846154L506.66666666666663,374.32307692307694L520,373.8923076923077L533.3333333333333,374.75384615384615L546.6666666666666,374.3846153846154L560,373.5692307692308L573.3333333333334,374.66153846153844L586.6666666666666,375.4923076923077L600,375.58461538461535L613.3333333333334,374.9076923076923L626.6666666666666,374.4769230769231L640,373.73846153846154L653.3333333333334,374.8461538461538L666.6666666666667,374.8L680,374.61538461538464L693.3333333333334,374.4L706.6666666666666,374.7230769230769L720,373.2923076923077L733.3333333333333,374.55384615384617L746.6666666666666,373.8L760,374.4769230769231L773.3333333333334,373.5230769230769L786.6666666666666,375.0153846153846L800,374.5076923076923L800,400L786.6666666666666,400L773.3333333333334,400L760,400L746.6666666666666,400L733.3333333333333,400L720,400L706.6666666666666,400L693.3333333333334,400L680,400L666.6666666666667,400L653.3333333333334,400L640,400L626.6666666666666,400L613.3333333333334,400L600,400L586.6666666666666,400L573.3333333333334,400L560,400L546.6666666666666,400L533.3333333333333,400L520,400L506.66666666666663,400L493.33333333333337,400L480,400L466.6666666666667,400L453.3333333333333,400L440.00000000000006,400L426.6666666666667,400L413.33333333333337,400L400,400L386.6666666666667,400L373.3333333333333,400L360,400L346.6666666666667,400L333.33333333333337,400L320,400L306.6666666666667,400L293.3333333333333,400L280,400L266.66666666666663,400L253.33333333333331,400L240,400L226.66666666666666,400L213.33333333333334,400L200,400L186.66666666666666,400L173.33333333333334,400L160,400L146.66666666666666,400L133.33333333333331,400L120,400L106.66666666666667,400L93.33333333333333,400L80,400L66.66666666666666,400L53.333333333333336,400L40,400L26.666666666666668,400L13.333333333333334,400Z" fill="#228C22" fill-opacity="0.4" opacity="0.7"/></g></g><path class="foreground" aria-hidden="true" d="" display="none"/></g><g transform="translate(0,0)"><path class="background" aria-hidden="true" d="M0,0h800v400h-800Z"/><g><g class="mark-area role-mark layer_0_layer_0_marks" role="graphics-symbol" aria-roledescription="area mark container"><path d="M13.333333333333334,10.738461538461586L26.666666666666668,106.90769230769233L40,144.41538461538462L53.333333333333336,222.58461538461538L66.66666666666666,268.2769230769231L80,310.2923076923077L93.33333333333333,325.53846153846155L106.66666666666667,339.66153846153844L120,343.0615384615384L133.33333333333331,348.59999999999997L146.66666666666666,352.67692307692306L160,357.87692307692305L173.33333333333334,362.6461538461538L186.66666666666666,365.4L200,366.32307692307694L213.33333333333334,368.44615384615383L226.66666666666666,368.3076923076923L240,368.7692307692308L253.33333333333331,370.26153846153846L266.66666666666663,370.07692307692304L280,371.53846153846155L293.3333333333333,372.33846153846156L306.6666666666667,374.5692307692308L320,374.04615384615386L333.33333333333337,373.4923076923077L346.6666666666667,373.4307692307692L360,372.89230769230767L373.3333333333333,374.87692307692305L386.6666666666667,373.9384615384615L400,374.09230769230766L413.33333333333337,373.6923076923077L426.6666666666667,374.7230769230769L440.00000000000006,373.26153846153846L453.3333333333333,373.2923076923077L466.6666666666667,375.04615384615386L480,374.4769230769231L493.33333333333337,374.5076923076923L506.66666666666663,374.7230769230769L520,373.90769230769234L533.3333333333333,374.15384615384613L546.6666666666666,374.4307692307692L560,375.0153846153846L573.3333333333334,375.6307692307692L586.6666666666666,374.66153846153844L600,373.8L613.3333333333334,374.8153846153846L626.6666666666666,373.8923076923077L640,374.5076923076923L653.3333333333334,374.3846153846154L666.6666666666667,373.2307692307693L680,374.07692307692304L693.3333333333334,374.09230769230766L706.6666666666666,374.1230769230769L720,374.46153846153845L733.3333333333333,373.6307692307692L746.6666666666666,374.73846153846154L760,374.1230769230769L773.3333333333334,375L786.6666666666666,373.0615384615385L800,372.7846153846154L800,400L786.6666666666666,400L773.3333333333334,400L760,400L746.6666666666666,400L733.3333333333333,400L720,400L706.6666666666666,400L693.3333333333334,400L680,400L666.6666666666667,400L653.3333333333334,400L640,400L626.6666666666666,400L613.3333333333334,400L600,400L586.6666666666666,400L573.3333333333334,400L560,400L546.6666666666666,400L533.3333333333333,400L520,400L506.66666666666663,400L493.33333333333337,400L480,400L466.6666666666667,400L453.3333333333333,400L440.00000000000006,400L426.6666666666667,400L413.33333333333337,400L400,400L386.6666666666667,400L373.3333333333333,400L360,400L346.6666666666667,400L333.33333333333337,400L320,400L306.6666666666667,400L293.3333333333333,400L280,400L266.66666666666663,400L253.33333333333331,400L240,400L226.66666666666666,400L213.33333333333334,400L200,400L186.66666666666666,400L173.33333333333334,400L160,400L146.66666666666666,400L133.33333333333331,400L120,400L106.66666666666667,400L93.33333333333333,400L80,400L66.66666666666666,400L53.333333333333336,400L40,400L26.666666666666668,400L13.333333333333334,400Z" fill="#5f249f" fill-opacity="0.4" opacity="0.7"/></g></g><path class="foreground" aria-hidden="true" d="" display="none"/></g></g><g class="mark-group role-scope layer_0_layer_1_pathgroup" role="graphics-object" aria-roledescription="group mark container"><g transform="translate(0,0)"><path class="background" aria-hidden="true" d="M0,0h800v400h-800Z"/><g><g class="mark-line role-mark layer_0_layer_1_marks" role="graphics-symbol" aria-roledescription="line mark container"><path d="M13.333333333333334,11.369230769230798L26.666666666666668,107.95384615384616L40,143.49230769230772L53.333333333333336,219.46153846153845L66.66666666666666,269.0769230769231L80,310.55384615384617L93.33333333333333,328.1230769230769L106.66666666666667,331.03076923076924L120,344.4923076923077L133.33333333333331,349.4769230769231L146.66666666666666,352.0923076923077L160,359.2153846153846L173.33333333333334,363.8L186.66666666666666,365.7846153846154L200,365.6461538461539L213.33333333333334,370.3846153846154L226.66666666666666,369.26153846153846L240,370.16923076923075L253.33333333333331,370.87692307692305L266.66666666666663,372.40000000000003L280,372.0615384615384L293.3333333333333,372.8307692307692L306.6666666666667,373.7692307692308L320,373.44615384615383L333.33333333333337,373.2153846153846L346.6666666666667,373.36923076923074L360,374.26153846153846L373.3333333333333,373.83076923076925L386.6666666666667,374.7692307692308L400,374.16923076923075L413.33333333333337,374.4307692307692L426.6666666666667,375L440.00000000000006,374.5846153846154L453.3333333333333,375.84615384615387L466.6666666666667,375L480,374.33846153846156L493.33333333333337,374.73846153846154L506.66666666666663,374.32307692307694L520,373.8923076923077L533.3333333333333,374.75384615384615L546.6666666666666,374.3846153846154L560,373.5692307692308L573.3333333333334,374.66153846153844L586.6666666666666,375.4923076923077L600,375.58461538461535L613.3333333333334,374.9076923076923L626.6666666666666,374.4769230769231L640,373.73846153846154L653.3333333333334,374.8461538461538L666.6666666666667,374.8L680,374.61538461538464L693.3333333333334,374.4L706.6666666666666,374.7230769230769L720,373.2923076923077L733.3333333333333,374.55384615384617L746.6666666666666,373.8L760,374.4769230769231L773.3333333333334,373.5230769230769L786.6666666666666,375.0153846153846L800,374.5076923076923" stroke="#228C22" stroke-width="2"/></g></g><path class="foreground" aria-hidden="true" d="" display="none"/></g><g transform="translate(0,0)"><path class="background" aria-hidden="true" d="M0,0h800v400h-800Z"/><g><g class="mark-line role-mark layer_0_layer_1_marks" role="graphics-symbol" aria-roledescription="line mark container"><path d="M13.333333333333334,10.738461538461586L26.666666666666668,106.90769230769233L40,144.41538461538462L53.333333333333336,222.58461538461538L66.66666666666666,268.2769230769231L80,310.2923076923077L93.33333333333333,325.53846153846155L106.66666666666667,339.66153846153844L120,343.0615384615384L133.33333333333331,348.59999999999997L146.66666666666666,352.67692307692306L160,357.87692307692305L173.33333333333334,362.6461538461538L186.66666666666666,365.4L200,366.32307692307694L213.33333333333334,368.44615384615383L226.66666666666666,368.3076923076923L240,368.7692307692308L253.33333333333331,370.26153846153846L266.66666666666663,370.07692307692304L280,371.53846153846155L293.3333333333333,372.33846153846156L306.6666666666667,374.5692307692308L320,374.04615384615386L333.33333333333337,373.4923076923077L346.6666666666667,373.4307692307692L360,372.89230769230767L373.3333333333333,374.87692307692305L386.6666666666667,373.9384615384615L400,374.09230769230766L413.33333333333337,373.6923076923077L426.6666666666667,374.7230769230769L440.00000000000006,373.26153846153846L453.3333333333333,373.2923076923077L466.6666666666667,375.04615384615386L480,374.4769230769231L493.33333333333337,374.5076923076923L506.66666666666663,374.7230769230769L520,373.90769230769234L533.3333333333333,374.15384615384613L546.6666666666666,374.4307692307692L560,375.0153846153846L573.3333333333334,375.6307692307692L586.6666666666666,374.66153846153844L600,373.8L613.3333333333334,374.8153846153846L626.6666666666666,373.8923076923077L640,374.5076923076923L653.3333333333334,374.3846153846154L666.6666666666667,373.2307692307693L680,374.07692307692304L693.3333333333334,374.09230769230766L706.6666666666666,374.1230769230769L720,374.46153846153845L733.3333333333333,373.6307692307692L746.6666666666666,374.73846153846154L760,374.1230769230769L773.3333333333334,375L786.6666666666666,373.0615384615385L800,372.7846153846154" stroke="#5f249f" stroke-width="2"/></g></g><path class="foreground" aria-hidden="true" d="" display="none"/></g></g><g class="mark-group role-scope layer_1_layer_0_pathgroup" role="graphics-object" aria-roledescription="group mark container"><g transform="translate(0,0)"><path class="background" aria-hidden="true" d="M0,0h800v400h-800Z"/><g><g class="mark-line role-mark layer_1_layer_0_marks" role="graphics-symbol" aria-roledescription="line mark container"><path d="M13.333333333333334,11.369230769230798L26.666666666666668,107.95384615384616L40,143.49230769230772L53.333333333333336,219.46153846153845L66.66666666666666,269.0769230769231L80,310.55384615384617L93.33333333333333,328.1230769230769L106.66666666666667,331.03076923076924L120,344.4923076923077L133.33333333333331,349.4769230769231L146.66666666666666,352.0923076923077L160,359.2153846153846L173.33333333333334,363.8L186.66666666666666,365.7846153846154L200,365.6461538461539L213.33333333333334,370.3846153846154L226.66666666666666,369.26153846153846L240,370.16923076923075L253.33333333333331,370.87692307692305L266.66666666666663,372.40000000000003L280,372.0615384615384L293.3333333333333,372.8307692307692L306.6666666666667,373.7692307692308L320,373.44615384615383L333.33333333333337,373.2153846153846L346.6666666666667,373.36923076923074L360,374.26153846153846L373.3333333333333,373.83076923076925L386.6666666666667,374.7692307692308L400,374.16923076923075L413.33333333333337,374.4307692307692L426.6666666666667,375L440.00000000000006,374.5846153846154L453.3333333333333,375.84615384615387L466.6666666666667,375L480,374.33846153846156L493.33333333333337,374.73846153846154L506.66666666666663,374.32307692307694L520,373.8923076923077L533.3333333333333,374.75384615384615L546.6666666666666,374.3846153846154L560,373.5692307692308L573.3333333333334,374.66153846153844L586.6666666666666,375.4923076923077L600,375.58461538461535L613.3333333333334,374.9076923076923L626.6666666666666,374.4769230769231L640,373.73846153846154L653.3333333333334,374.8461538461538L666.6666666666667,374.8L680,374.61538461538464L693.3333333333334,374.4L706.6666666666666,374.7230769230769L720,373.2923076923077L733.3333333333333,374.55384615384617L746.6666666666666,373.8L760,374.4769230769231L773.3333333333334,373.5230769230769L786.6666666666666,375.0153846153846L800,374.5076923076923" stroke="#228C22" stroke-width="3.05" opacity="0.05"/></g></g><path class="foreground" aria-hidden="true" d="" display="none"/></g><g transform="translate(0,0)"><path class="background" aria-hidden="true" d="M0,0h800v400h-800Z"/><g><g class="mark-line role-mark layer_1_layer_0_marks" role="graphics-symbol" aria-roledescription="line mark container"><path d="M13.333333333333334,10.738461538461586L26.666666666666668,106.90769230769233L40,144.41538461538462L53.333333333333336,222.58461538461538L66.66666666666666,268.2769230769231L80,310.2923076923077L93.33333333333333,325.53846153846155L106.66666666666667,339.66153846153844L120,343.0615384615384L133.33333333333331,348.59999999999997L146.66666666666666,352.67692307692306L160,357.87692307692305L173.33333333333334,362.6461538461538L186.66666666666666,365.4L200,366.32307692307694L213.33333333333334,368.44615384615383L226.66666666666666,368.3076923076923L240,368.7692307692308L253.33333333333331,370.26153846153846L266.66666666666663,370.07692307692304L280,371.53846153846155L293.3333333333333,372.33846153846156L306.6666666666667,374.5692307692308L320,374.04615384615386L333.33333333333337,373.4923076923077L346.6666666666667,373.4307692307692L360,372.89230769230767L373.3333333333333,374.87692307692305L386.6666666666667,373.9384615384615L400,374.09230769230766L413.33333333333337,373.6923076923077L426.6666666666667,374.7230769230769L440.00000000000006,373.26153846153846L453.3333333333333,373.2923076923077L466.6666666666667,375.04615384615386L480,374.4769230769231L493.33333333333337,374.5076923076923L506.66666666666663,374.7230769230769L520,373.90769230769234L533.3333333333333,374.15384615384613L546.6666666666666,374.4307692307692L560,375.0153846153846L573.3333333333334,375.6307692307692L586.6666666666666,374.66153846153844L600,373.8L613.3333333333334,374.8153846153846L626.6666666666666,373.8923076923077L640,374.5076923076923L653.3333333333334,374.3846153846154L666.6666666666667,373.2307692307693L680,374.07692307692304L693.3333333333334,374.09230769230766L706.6666666666666,374.1230769230769L720,374.46153846153845L733.3333333333333,373.6307692307692L746.6666666666666,374.73846153846154L760,374.1230769230769L773.3333333333334,375L786.6666666666666,373.0615384615385L800,372.7846153846154" stroke="#5f249f" stroke-width="3.05" opacity="0.05"/></g></g><path class="foreground" aria-hidden="true" d="" display="none"/></g></g><g class="mark-group role-scope layer_1_layer_1_pathgroup" role="graphics-object" aria-roledescription="group mark container"><g transform="translate(0,0)"><path class="background" aria-hidden="true" d="M0,0h800v400h-800Z"/><g><g class="mark-line role-mark layer_1_layer_1_marks" role="graphics-symbol" aria-roledescription="line mark container"><path d="M13.333333333333334,11.369230769230798L26.666666666666668,107.95384615384616L40,143.49230769230772L53.333333333333336,219.46153846153845L66.66666666666666,269.0769230769231L80,310.55384615384617L93.33333333333333,328.1230769230769L106.66666666666667,331.03076923076924L120,344.4923076923077L133.33333333333331,349.4769230769231L146.66666666666666,352.0923076923077L160,359.2153846153846L173.33333333333334,363.8L186.66666666666666,365.7846153846154L200,365.6461538461539L213.33333333333334,370.3846153846154L226.66666666666666,369.26153846153846L240,370.16923076923075L253.33333333333331,370.87692307692305L266.66666666666663,372.40000000000003L280,372.0615384615384L293.3333333333333,372.8307692307692L306.6666666666667,373.7692307692308L320,373.44615384615383L333.33333333333337,373.2153846153846L346.6666666666667,373.36923076923074L360,374.26153846153846L373.3333333333333,373.83076923076925L386.6666666666667,374.7692307692308L400,374.16923076923075L413.33333333333337,374.4307692307692L426.6666666666667,375L440.00000000000006,374.5846153846154L453.3333333333333,375.84615384615387L466.6666666666667,375L480,374.33846153846156L493.33333333333337,374.73846153846154L506.66666666666663,374.32307692307694L520,373.8923076923077L533.3333333333333,374.75384615384615L546.6666666666666,374.3846153846154L560,373.5692307692308L573.3333333333334,374.66153846153844L586.6666666666666,375.4923076923077L600,375.58461538461535L613.3333333333334,374.9076923076923L626.6666666666666,374.4769230769231L640,373.73846153846154L653.3333333333334,374.8461538461538L666.6666666666667,374.8L680,374.61538461538464L693.3333333333334,374.4L706.6666666666666,374.7230769230769L720,373.2923076923077L733.3333333333333,374.55384615384617L746.6666666666666,373.8L760,374.4769230769231L773.3333333333334,373.5230769230769L786.6666666666666,375.0153846153846L800,374.5076923076923" stroke="#228C22" stroke-width="4.1" opacity="0.05"/></g></g><path class="foreground" aria-hidden="true" d="" display="none"/></g><g transform="translate(0,0)"><path class="background" aria-hidden="true" d="M0,0h800v400h-800Z"/><g><g class="mark-line role-mark layer_1_layer_1_marks" role="graphics-symbol" aria-roledescription="line mark container"><path d="M13.333333333333334,10.738461538461586L26.666666666666668,106.90769230769233L40,144.41538461538462L53.333333333333336,222.58461538461538L66.66666666666666,268.2769230769231L80,310.2923076923077L93.33333333333333,325.53846153846155L106.66666666666667,339.66153846153844L120,343.0615384615384L133.33333333333331,348.59999999999997L146.66666666666666,352.67692307692306L160,357.87692307692305L173.33333333333334,362.6461538461538L186.66666666666666,365.4L200,366.32307692307694L213.33333333333334,368.44615384615383L226.66666666666666,368.3076923076923L240,368.7692307692308L253.33333333333331,370.26153846153846L266.66666666666663,370.07692307692304L280,371.53846153846155L293.3333333333333,372.33846153846156L306.6666666666667,374.5692307692308L320,374.04615384615386L333.33333333333337,373.4923076923077L346.6666666666667,373.4307692307692L360,372.89230769230767L373.3333333333333,374.87692307692305L386.6666666666667,373.9384615384615L400,374.09230769230766L413.33333333333337,373.6923076923077L426.6666666666667,374.7230769230769L440.00000000000006,373.26153846153846L453.3333333333333,373.2923076923077L466.6666666666667,375.04615384615386L480,374.4769230769231L493.33333333333337,374.5076923076923L506.66666666666663,374.7230769230769L520,373.90769230769234L533.3333333333333,374.15384615384613L546.6666666666666,374.4307692307692L560,375.0153846153846L573.3333333333334,375.6307692307692L586.6666666666666,374.66153846153844L600,373.8L613.3333333333334,374.8153846153846L626.6666666666666,373.8923076923077L640,374.5076923076923L653.3333333333334,374.3846153846154L666.6666666666667,373.2307692307693L680,374.07692307692304L693.3333333333334,374.09230769230766L706.6666666666666,374.1230769230769L720,374.46153846153845L733.3333333333333,373.6307692307692L746.6666666666666,374.73846153846154L760,374.1230769230769L773.3333333333334,375L786.6666666666666,373.0615384615385L800,372.7846153846154" stroke="#5f249f" stroke-width="4.1" opacity="0.05"/></g></g><path class="foreground" aria-hidden="true" d="" display="none"/></g></g><g class="mark-group role-scope layer_1_layer_2_pathgroup" role="graphics-object" aria-roledescription="group mark container"><g transform="translate(0,0)"><path class="background" aria-hidden="true" d="M0,0h800v400h-800Z"/><g><g class="mark-line role-mark layer_1_layer_2_marks" role="graphics-symbol" aria-roledescription="line mark container"><path d="M13.333333333333334,11.369230769230798L26.666666666666668,107.95384615384616L40,143.49230769230772L53.333333333333336,219.46153846153845L66.66666666666666,269.0769230769231L80,310.55384615384617L93.33333333333333,328.1230769230769L106.66666666666667,331.03076923076924L120,344.4923076923077L133.33333333333331,349.4769230769231L146.66666666666666,352.0923076923077L160,359.2153846153846L173.33333333333334,363.8L186.66666666666666,365.7846153846154L200,365.6461538461539L213.33333333333334,370.3846153846154L226.66666666666666,369.26153846153846L240,370.16923076923075L253.33333333333331,370.87692307692305L266.66666666666663,372.40000000000003L280,372.0615384615384L293.3333333333333,372.8307692307692L306.6666666666667,373.7692307692308L320,373.44615384615383L333.33333333333337,373.2153846153846L346.6666666666667,373.36923076923074L360,374.26153846153846L373.3333333333333,373.83076923076925L386.6666666666667,374.7692307692308L400,374.16923076923075L413.33333333333337,374.4307692307692L426.6666666666667,375L440.00000000000006,374.5846153846154L453.3333333333333,375.84615384615387L466.6666666666667,375L480,374.33846153846156L493.33333333333337,374.73846153846154L506.66666666666663,374.32307692307694L520,373.8923076923077L533.3333333333333,374.75384615384615L546.6666666666666,374.3846153846154L560,373.5692307692308L573.3333333333334,374.66153846153844L586.6666666666666,375.4923076923077L600,375.58461538461535L613.3333333333334,374.9076923076923L626.6666666666666,374.4769230769231L640,373.73846153846154L653.3333333333334,374.8461538461538L666.6666666666667,374.8L680,374.61538461538464L693.3333333333334,374.4L706.6666666666666,374.7230769230769L720,373.2923076923077L733.3333333333333,374.55384615384617L746.6666666666666,373.8L760,374.4769230769231L773.3333333333334,373.5230769230769L786.6666666666666,375.0153846153846L800,374.5076923076923" stroke="#228C22" stroke-width="5.15" opacity="0.05"/></g></g><path class="foreground" aria-hidden="true" d="" display="none"/></g><g transform="translate(0,0)"><path class="background" aria-hidden="true" d="M0,0h800v400h-800Z"/><g><g class="mark-line role-mark layer_1_layer_2_marks" role="graphics-symbol" aria-roledescription="line mark container"><path d="M13.333333333333334,10.738461538461586L26.666666666666668,106.90769230769233L40,144.41538461538462L53.333333333333336,222.58461538461538L66.66666666666666,268.2769230769231L80,310.2923076923077L93.33333333333333,325.53846153846155L106.66666666666667,339.66153846153844L120,343.0615384615384L133.33333333333331,348.59999999999997L146.66666666666666,352.67692307692306L160,357.87692307692305L173.33333333333334,362.6461538461538L186.66666666666666,365.4L200,366.32307692307694L213.33333333333334,368.44615384615383L226.66666666666666,368.3076923076923L240,368.7692307692308L253.33333333333331,370.26153846153846L266.66666666666663,370.07692307692304L280,371.53846153846155L293.3333333333333,372.33846153846156L306.6666666666667,374.5692307692308L320,374.04615384615386L333.33333333333337,373.4923076923077L346.6666666666667,373.4307692307692L360,372.89230769230767L373.3333333333333,374.87692307692305L386.6666666666667,373.9384615384615L400,374.09230769230766L413.33333333333337,373.6923076923077L426.6666666666667,374.7230769230769L440.00000000000006,373.26153846153846L453.3333333333333,373.2923076923077L466.6666666666667,375.04615384615386L480,374.4769230769231L493.33333333333337,374.5076923076923L506.66666666666663,374.7230769230769L520,373.90769230769234L533.3333333333333,374.15384615384613L546.6666666666666,374.4307692307692L560,375.0153846153846L573.3333333333334,375.6307692307692L586.6666666666666,374.66153846153844L600,373.8L613.3333333333334,374.8153846153846L626.6666666666666,373.8923076923077L640,374.5076923076923L653.3333333333334,374.3846153846154L666.6666666666667,373.2307692307693L680,374.07692307692304L693.3333333333334,374.09230769230766L706.6666666666666,374.1230769230769L720,374.46153846153845L733.3333333333333,373.6307692307692L746.6666666666666,374.73846153846154L760,374.1230769230769L773.3333333333334,375L786.6666666666666,373.0615384615385L800,372.7846153846154" stroke="#5f249f" stroke-width="5.15" opacity="0.05"/></g></g><path class="foreground" aria-hidden="true" d="" display="none"/></g></g><g class="mark-group role-scope layer_1_layer_3_pathgroup" role="graphics-object" aria-roledescription="group mark container"><g transform="translate(0,0)"><path class="background" aria-hidden="true" d="M0,0h800v400h-800Z"/><g><g class="mark-line role-mark layer_1_layer_3_marks" role="graphics-symbol" aria-roledescription="line mark container"><path d="M13.333333333333334,11.369230769230798L26.666666666666668,107.95384615384616L40,143.49230769230772L53.333333333333336,219.46153846153845L66.66666666666666,269.0769230769231L80,310.55384615384617L93.33333333333333,328.1230769230769L106.66666666666667,331.03076923076924L120,344.4923076923077L133.33333333333331,349.4769230769231L146.66666666666666,352.0923076923077L160,359.2153846153846L173.33333333333334,363.8L186.66666666666666,365.7846153846154L200,365.6461538461539L213.33333333333334,370.3846153846154L226.66666666666666,369.26153846153846L240,370.16923076923075L253.33333333333331,370.87692307692305L266.66666666666663,372.40000000000003L280,372.0615384615384L293.3333333333333,372.8307692307692L306.6666666666667,373.7692307692308L320,373.44615384615383L333.33333333333337,373.2153846153846L346.6666666666667,373.36923076923074L360,374.26153846153846L373.3333333333333,373.83076923076925L386.6666666666667,374.7692307692308L400,374.16923076923075L413.33333333333337,374.4307692307692L426.6666666666667,375L440.00000000000006,374.5846153846154L453.3333333333333,375.84615384615387L466.6666666666667,375L480,374.33846153846156L493.33333333333337,374.73846153846154L506.66666666666663,374.32307692307694L520,373.8923076923077L533.3333333333333,374.75384615384615L546.6666666666666,374.3846153846154L560,373.5692307692308L573.3333333333334,374.66153846153844L586.6666666666666,375.4923076923077L600,375.58461538461535L613.3333333333334,374.9076923076923L626.6666666666666,374.4769230769231L640,373.73846153846154L653.3333333333334,374.8461538461538L666.6666666666667,374.8L680,374.61538461538464L693.3333333333334,374.4L706.6666666666666,374.7230769230769L720,373.2923076923077L733.3333333333333,374.55384615384617L746.6666666666666,373.8L760,374.4769230769231L773.3333333333334,373.5230769230769L786.6666666666666,375.0153846153846L800,374.5076923076923" stroke="#228C22" stroke-width="6.2" opacity="0.05"/></g></g><path class="foreground" aria-hidden="true" d="" display="none"/></g><g transform="translate(0,0)"><path class="background" aria-hidden="true" d="M0,0h800v400h-800Z"/><g><g class="mark-line role-mark layer_1_layer_3_marks" role="graphics-symbol" aria-roledescription="line mark container"><path d="M13.333333333333334,10.738461538461586L26.666666666666668,106.90769230769233L40,144.41538461538462L53.333333333333336,222.58461538461538L66.66666666666666,268.2769230769231L80,310.2923076923077L93.33333333333333,325.53846153846155L106.66666666666667,339.66153846153844L120,343.0615384615384L133.33333333333331,348.59999999999997L146.66666666666666,352.67692307692306L160,357.87692307692305L173.33333333333334,362.6461538461538L186.66666666666666,365.4L200,366.32307692307694L213.33333333333334,368.44615384615383L226.66666666666666,368.3076923076923L240,368.7692307692308L253.33333333333331,370.26153846153846L266.66666666666663,370.07692307692304L280,371.53846153846155L293.3333333333333,372.33846153846156L306.6666666666667,374.5692307692308L320,374.04615384615386L333.33333333333337,373.4923076923077L346.6666666666667,373.4307692307692L360,372.89230769230767L373.3333333333333,374.87692307692305L386.6666666666667,373.9384615384615L400,374.09230769230766L413.33333333333337,373.6923076923077L426.6666666666667,374.7230769230769L440.00000000000006,373.26153846153846L453.3333333333333,373.2923076923077L466.6666666666667,375.04615384615386L480,374.4769230769231L493.33333333333337,374.5076923076923L506.66666666666663,374.7230769230769L520,373.90769230769234L533.3333333333333,374.15384615384613L546.6666666666666,374.4307692307692L560,375.0153846153846L573.3333333333334,375.6307692307692L586.6666666666666,374.66153846153844L600,373.8L613.3333333333334,374.8153846153846L626.6666666666666,373.8923076923077L640,374.5076923076923L653.3333333333334,374.3846153846154L666.6666666666667,373.2307692307693L680,374.07692307692304L693.3333333333334,374.09230769230766L706.6666666666666,374.1230769230769L720,374.46153846153845L733.3333333333333,373.6307692307692L746.6666666666666,374.73846153846154L760,374.1230769230769L773.3333333333334,375L786.6666666666666,373.0615384615385L800,372.7846153846154" stroke="#5f249f" stroke-width="6.2" opacity="0.05"/></g></g><path class="foreground" aria-hidden="true" d="" display="none"/></g></g><g class="mark-group role-scope layer_1_layer_4_pathgroup" role="graphics-object" aria-roledescription="group mark container"><g transform="translate(0,0)"><path class="background" aria-hidden="true" d="M0,0h800v400h-800Z"/><g><g class="mark-line role-mark layer_1_layer_4_marks" role="graphics-symbol" aria-roledescription="line mark container"><path d="M13.333333333333334,11.369230769230798L26.666666666666668,107.95384615384616L40,143.49230769230772L53.333333333333336,219.46153846153845L66.66666666666666,269.0769230769231L80,310.55384615384617L93.33333333333333,328.1230769230769L106.66666666666667,331.03076923076924L120,344.4923076923077L133.33333333333331,349.4769230769231L146.66666666666666,352.0923076923077L160,359.2153846153846L173.33333333333334,363.8L186.66666666666666,365.7846153846154L200,365.6461538461539L213.33333333333334,370.3846153846154L226.66666666666666,369.26153846153846L240,370.16923076923075L253.33333333333331,370.87692307692305L266.66666666666663,372.40000000000003L280,372.0615384615384L293.3333333333333,372.8307692307692L306.6666666666667,373.7692307692308L320,373.44615384615383L333.33333333333337,373.2153846153846L346.6666666666667,373.36923076923074L360,374.26153846153846L373.3333333333333,373.83076923076925L386.6666666666667,374.7692307692308L400,374.16923076923075L413.33333333333337,374.4307692307692L426.6666666666667,375L440.00000000000006,374.5846153846154L453.3333333333333,375.84615384615387L466.6666666666667,375L480,374.33846153846156L493.33333333333337,374.73846153846154L506.66666666666663,374.32307692307694L520,373.8923076923077L533.3333333333333,374.75384615384615L546.6666666666666,374.3846153846154L560,373.5692307692308L573.3333333333334,374.66153846153844L586.6666666666666,375.4923076923077L600,375.58461538461535L613.3333333333334,374.9076923076923L626.6666666666666,374.4769230769231L640,373.73846153846154L653.3333333333334,374.8461538461538L666.6666666666667,374.8L680,374.61538461538464L693.3333333333334,374.4L706.6666666666666,374.7230769230769L720,373.2923076923077L733.3333333333333,374.55384615384617L746.6666666666666,373.8L760,374.4769230769231L773.3333333333334,373.5230769230769L786.6666666666666,375.0153846153846L800,374.5076923076923" stroke="#228C22" stroke-width="7.25" opacity="0.05"/></g></g><path class="foreground" aria-hidden="true" d="" display="none"/></g><g transform="translate(0,0)"><path class="background" aria-hidden="true" d="M0,0h800v400h-800Z"/><g><g class="mark-line role-mark layer_1_layer_4_marks" role="graphics-symbol" aria-roledescription="line mark container"><path d="M13.333333333333334,10.738461538461586L26.666666666666668,106.90769230769233L40,144.41538461538462L53.333333333333336,222.58461538461538L66.66666666666666,268.2769230769231L80,310.2923076923077L93.33333333333333,325.53846153846155L106.66666666666667,339.66153846153844L120,343.0615384615384L133.33333333333331,348.59999999999997L146.66666666666666,352.67692307692306L160,357.87692307692305L173.33333333333334,362.6461538461538L186.66666666666666,365.4L200,366.32307692307694L213.33333333333334,368.44615384615383L226.66666666666666,368.3076923076923L240,368.7692307692308L253.33333333333331,370.26153846153846L266.66666666666663,370.07692307692304L280,371.53846153846155L293.3333333333333,372.33846153846156L306.6666666666667,374.5692307692308L320,374.04615384615386L333.33333333333337,373.4923076923077L346.6666666666667,373.4307692307692L360,372.89230769230767L373.3333333333333,374.87692307692305L386.6666666666667,373.9384615384615L400,374.09230769230766L413.33333333333337,373.6923076923077L426.6666666666667,374.7230769230769L440.00000000000006,373.26153846153846L453.3333333333333,373.2923076923077L466.6666666666667,375.04615384615386L480,374.4769230769231L493.33333333333337,374.5076923076923L506.66666666666663,374.7230769230769L520,373.90769230769234L533.3333333333333,374.15384615384613L546.6666666666666,374.4307692307692L560,375.0153846153846L573.3333333333334,375.6307692307692L586.6666666666666,374.66153846153844L600,373.8L613.3333333333334,374.8153846153846L626.6666666666666,373.8923076923077L640,374.5076923076923L653.3333333333334,374.3846153846154L666.6666666666667,373.2307692307693L680,374.07692307692304L693.3333333333334,374.09230769230766L706.6666666666666,374.1230769230769L720,374.46153846153845L733.3333333333333,373.6307692307692L746.6666666666666,374.73846153846154L760,374.1230769230769L773.3333333333334,375L786.6666666666666,373.0615384615385L800,372.7846153846154" stroke="#5f249f" stroke-width="7.25" opacity="0.05"/></g></g><path class="foreground" aria-hidden="true" d="" display="none"/></g></g><g class="mark-group role-scope layer_1_layer_5_pathgroup" role="graphics-object" aria-roledescription="group mark container"><g transform="translate(0,0)"><path class="background" aria-hidden="true" d="M0,0h800v400h-800Z"/><g><g class="mark-line role-mark layer_1_layer_5_marks" role="graphics-symbol" aria-roledescription="line mark container"><path d="M13.333333333333334,11.369230769230798L26.666666666666668,107.95384615384616L40,143.49230769230772L53.333333333333336,219.46153846153845L66.66666666666666,269.0769230769231L80,310.55384615384617L93.33333333333333,328.1230769230769L106.66666666666667,331.03076923076924L120,344.4923076923077L133.33333333333331,349.4769230769231L146.66666666666666,352.0923076923077L160,359.2153846153846L173.33333333333334,363.8L186.66666666666666,365.7846153846154L200,365.6461538461539L213.33333333333334,370.3846153846154L226.66666666666666,369.26153846153846L240,370.16923076923075L253.33333333333331,370.87692307692305L266.66666666666663,372.40000000000003L280,372.0615384615384L293.3333333333333,372.8307692307692L306.6666666666667,373.7692307692308L320,373.44615384615383L333.33333333333337,373.2153846153846L346.6666666666667,373.36923076923074L360,374.26153846153846L373.3333333333333,373.83076923076925L386.6666666666667,374.7692307692308L400,374.16923076923075L413.33333333333337,374.4307692307692L426.6666666666667,375L440.00000000000006,374.5846153846154L453.3333333333333,375.84615384615387L466.6666666666667,375L480,374.33846153846156L493.33333333333337,374.73846153846154L506.66666666666663,374.32307692307694L520,373.8923076923077L533.3333333333333,374.75384615384615L546.6666666666666,374.3846153846154L560,373.5692307692308L573.3333333333334,374.66153846153844L586.6666666666666,375.4923076923077L600,375.58461538461535L613.3333333333334,374.9076923076923L626.6666666666666,374.4769230769231L640,373.73846153846154L653.3333333333334,374.8461538461538L666.6666666666667,374.8L680,374.61538461538464L693.3333333333334,374.4L706.6666666666666,374.7230769230769L720,373.2923076923077L733.3333333333333,374.55384615384617L746.6666666666666,373.8L760,374.4769230769231L773.3333333333334,373.5230769230769L786.6666666666666,375.0153846153846L800,374.5076923076923" stroke="#228C22" stroke-width="8.3" opacity="0.05"/></g></g><path class="foreground" aria-hidden="true" d="" display="none"/></g><g transform="translate(0,0)"><path class="background" aria-hidden="true" d="M0,0h800v400h-800Z"/><g><g class="mark-line role-mark layer_1_layer_5_marks" role="graphics-symbol" aria-roledescription="line mark container"><path d="M13.333333333333334,10.738461538461586L26.666666666666668,106.90769230769233L40,144.41538461538462L53.333333333333336,222.58461538461538L66.66666666666666,268.2769230769231L80,310.2923076923077L93.33333333333333,325.53846153846155L106.66666666666667,339.66153846153844L120,343.0615384615384L133.33333333333331,348.59999999999997L146.66666666666666,352.67692307692306L160,357.87692307692305L173.33333333333334,362.6461538461538L186.66666666666666,365.4L200,366.32307692307694L213.33333333333334,368.44615384615383L226.66666666666666,368.3076923076923L240,368.7692307692308L253.33333333333331,370.26153846153846L266.66666666666663,370.07692307692304L280,371.53846153846155L293.3333333333333,372.33846153846156L306.6666666666667,374.5692307692308L320,374.04615384615386L333.33333333333337,373.4923076923077L346.6666666666667,373.4307692307692L360,372.89230769230767L373.3333333333333,374.87692307692305L386.6666666666667,373.9384615384615L400,374.09230769230766L413.33333333333337,373.6923076923077L426.6666666666667,374.7230769230769L440.00000000000006,373.26153846153846L453.3333333333333,373.2923076923077L466.6666666666667,375.04615384615386L480,374.4769230769231L493.33333333333337,374.5076923076923L506.66666666666663,374.7230769230769L520,373.90769230769234L533.3333333333333,374.15384615384613L546.6666666666666,374.4307692307692L560,375.0153846153846L573.3333333333334,375.6307692307692L586.6666666666666,374.66153846153844L600,373.8L613.3333333333334,374.8153846153846L626.6666666666666,373.8923076923077L640,374.5076923076923L653.3333333333334,374.3846153846154L666.6666666666667,373.2307692307693L680,374.07692307692304L693.3333333333334,374.09230769230766L706.6666666666666,374.1230769230769L720,374.46153846153845L733.3333333333333,373.6307692307692L746.6666666666666,374.73846153846154L760,374.1230769230769L773.3333333333334,375L786.6666666666666,373.0615384615385L800,372.7846153846154" stroke="#5f249f" stroke-width="8.3" opacity="0.05"/></g></g><path class="foreground" aria-hidden="true" d="" display="none"/></g></g><g class="mark-group role-scope layer_1_layer_6_pathgroup" role="graphics-object" aria-roledescription="group mark container"><g transform="translate(0,0)"><path class="background" aria-hidden="true" d="M0,0h800v400h-800Z"/><g><g class="mark-line role-mark layer_1_layer_6_marks" role="graphics-symbol" aria-roledescription="line mark container"><path d="M13.333333333333334,11.369230769230798L26.666666666666668,107.95384615384616L40,143.49230769230772L53.333333333333336,219.46153846153845L66.66666666666666,269.0769230769231L80,310.55384615384617L93.33333333333333,328.1230769230769L106.66666666666667,331.03076923076924L120,344.4923076923077L133.33333333333331,349.4769230769231L146.66666666666666,352.0923076923077L160,359.2153846153846L173.33333333333334,363.8L186.66666666666666,365.7846153846154L200,365.6461538461539L213.33333333333334,370.3846153846154L226.66666666666666,369.26153846153846L240,370.16923076923075L253.33333333333331,370.87692307692305L266.66666666666663,372.40000000000003L280,372.0615384615384L293.3333333333333,372.8307692307692L306.6666666666667,373.7692307692308L320,373.44615384615383L333.33333333333337,373.2153846153846L346.6666666666667,373.36923076923074L360,374.26153846153846L373.3333333333333,373.83076923076925L386.6666666666667,374.7692307692308L400,374.16923076923075L413.33333333333337,374.4307692307692L426.6666666666667,375L440.00000000000006,374.5846153846154L453.3333333333333,375.84615384615387L466.6666666666667,375L480,374.33846153846156L493.33333333333337,374.73846153846154L506.66666666666663,374.32307692307694L520,373.8923076923077L533.3333333333333,374.75384615384615L546.6666666666666,374.3846153846154L560,373.5692307692308L573.3333333333334,374.66153846153844L586.6666666666666,375.4923076923077L600,375.58461538461535L613.3333333333334,374.9076923076923L626.6666666666666,374.4769230769231L640,373.73846153846154L653.3333333333334,374.8461538461538L666.6666666666667,374.8L680,374.61538461538464L693.3333333333334,374.4L706.6666666666666,374.7230769230769L720,373.2923076923077L733.3333333333333,374.55384615384617L746.6666666666666,373.8L760,374.4769230769231L773.3333333333334,373.5230769230769L786.6666666666666,375.0153846153846L800,374.5076923076923" stroke="#228C22" stroke-width="9.350000000000001" opacity="0.05"/></g></g><path class="foreground" aria-hidden="true" d="" display="none"/></g><g transform="translate(0,0)"><path class="background" aria-hidden="true" d="M0,0h800v400h-800Z"/><g><g class="mark-line role-mark layer_1_layer_6_marks" role="graphics-symbol" aria-roledescription="line mark container"><path d="M13.333333333333334,10.738461538461586L26.666666666666668,106.90769230769233L40,144.41538461538462L53.333333333333336,222.58461538461538L66.66666666666666,268.2769230769231L80,310.2923076923077L93.33333333333333,325.53846153846155L106.66666666666667,339.66153846153844L120,343.0615384615384L133.33333333333331,348.59999999999997L146.66666666666666,352.67692307692306L160,357.87692307692305L173.33333333333334,362.6461538461538L186.66666666666666,365.4L200,366.32307692307694L213.33333333333334,368.44615384615383L226.66666666666666,368.3076923076923L240,368.7692307692308L253.33333333333331,370.26153846153846L266.66666666666663,370.07692307692304L280,371.53846153846155L293.3333333333333,372.33846153846156L306.6666666666667,374.5692307692308L320,374.04615384615386L333.33333333333337,373.4923076923077L346.6666666666667,373.4307692307692L360,372.89230769230767L373.3333333333333,374.87692307692305L386.6666666666667,373.9384615384615L400,374.09230769230766L413.33333333333337,373.6923076923077L426.6666666666667,374.7230769230769L440.00000000000006,373.26153846153846L453.3333333333333,373.2923076923077L466.6666666666667,375.04615384615386L480,374.4769230769231L493.33333333333337,374.5076923076923L506.66666666666663,374.7230769230769L520,373.90769230769234L533.3333333333333,374.15384615384613L546.6666666666666,374.4307692307692L560,375.0153846153846L573.3333333333334,375.6307692307692L586.6666666666666,374.66153846153844L600,373.8L613.3333333333334,374.8153846153846L626.6666666666666,373.8923076923077L640,374.5076923076923L653.3333333333334,374.3846153846154L666.6666666666667,373.2307692307693L680,374.07692307692304L693.3333333333334,374.09230769230766L706.6666666666666,374.1230769230769L720,374.46153846153845L733.3333333333333,373.6307692307692L746.6666666666666,374.73846153846154L760,374.1230769230769L773.3333333333334,375L786.6666666666666,373.0615384615385L800,372.7846153846154" stroke="#5f249f" stroke-width="9.350000000000001" opacity="0.05"/></g></g><path class="foreground" aria-hidden="true" d="" display="none"/></g></g><g class="mark-group role-scope layer_1_layer_7_pathgroup" role="graphics-object" aria-roledescription="group mark container"><g transform="translate(0,0)"><path class="background" aria-hidden="true" d="M0,0h800v400h-800Z"/><g><g class="mark-line role-mark layer_1_layer_7_marks" role="graphics-symbol" aria-roledescription="line mark container"><path d="M13.333333333333334,11.369230769230798L26.666666666666668,107.95384615384616L40,143.49230769230772L53.333333333333336,219.46153846153845L66.66666666666666,269.0769230769231L80,310.55384615384617L93.33333333333333,328.1230769230769L106.66666666666667,331.03076923076924L120,344.4923076923077L133.33333333333331,349.4769230769231L146.66666666666666,352.0923076923077L160,359.2153846153846L173.33333333333334,363.8L186.66666666666666,365.7846153846154L200,365.6461538461539L213.33333333333334,370.3846153846154L226.66666666666666,369.26153846153846L240,370.16923076923075L253.33333333333331,370.87692307692305L266.66666666666663,372.40000000000003L280,372.0615384615384L293.3333333333333,372.8307692307692L306.6666666666667,373.7692307692308L320,373.44615384615383L333.33333333333337,373.2153846153846L346.6666666666667,373.36923076923074L360,374.26153846153846L373.3333333333333,373.83076923076925L386.6666666666667,374.7692307692308L400,374.16923076923075L413.33333333333337,374.4307692307692L426.6666666666667,375L440.00000000000006,374.5846153846154L453.3333333333333,375.84615384615387L466.6666666666667,375L480,374.33846153846156L493.33333333333337,374.73846153846154L506.66666666666663,374.32307692307694L520,373.8923076923077L533.3333333333333,374.75384615384615L546.6666666666666,374.3846153846154L560,373.5692307692308L573.3333333333334,374.66153846153844L586.6666666666666,375.4923076923077L600,375.58461538461535L613.3333333333334,374.9076923076923L626.6666666666666,374.4769230769231L640,373.73846153846154L653.3333333333334,374.8461538461538L666.6666666666667,374.8L680,374.61538461538464L693.3333333333334,374.4L706.6666666666666,374.7230769230769L720,373.2923076923077L733.3333333333333,374.55384615384617L746.6666666666666,373.8L760,374.4769230769231L773.3333333333334,373.5230769230769L786.6666666666666,375.0153846153846L800,374.5076923076923" stroke="#228C22" stroke-width="10.4" opacity="0.05"/></g></g><path class="foreground" aria-hidden="true" d="" display="none"/></g><g transform="translate(0,0)"><path class="background" aria-hidden="true" d="M0,0h800v400h-800Z"/><g><g class="mark-line role-mark layer_1_layer_7_marks" role="graphics-symbol" aria-roledescription="line mark container"><path d="M13.333333333333334,10.738461538461586L26.666666666666668,106.90769230769233L40,144.41538461538462L53.333333333333336,222.58461538461538L66.66666666666666,268.2769230769231L80,310.2923076923077L93.33333333333333,325.53846153846155L106.66666666666667,339.66153846153844L120,343.0615384615384L133.33333333333331,348.59999999999997L146.66666666666666,352.67692307692306L160,357.87692307692305L173.33333333333334,362.6461538461538L186.66666666666666,365.4L200,366.32307692307694L213.33333333333334,368.44615384615383L226.66666666666666,368.3076923076923L240,368.7692307692308L253.33333333333331,370.26153846153846L266.66666666666663,370.07692307692304L280,371.53846153846155L293.3333333333333,372.33846153846156L306.6666666666667,374.5692307692308L320,374.04615384615386L333.33333333333337,373.4923076923077L346.6666666666667,373.4307692307692L360,372.89230769230767L373.3333333333333,374.87692307692305L386.6666666666667,373.9384615384615L400,374.09230769230766L413.33333333333337,373.6923076923077L426.6666666666667,374.7230769230769L440.00000000000006,373.26153846153846L453.3333333333333,373.2923076923077L466.6666666666667,375.04615384615386L480,374.4769230769231L493.33333333333337,374.5076923076923L506.66666666666663,374.7230769230769L520,373.90769230769234L533.3333333333333,374.15384615384613L546.6666666666666,374.4307692307692L560,375.0153846153846L573.3333333333334,375.6307692307692L586.6666666666666,374.66153846153844L600,373.8L613.3333333333334,374.8153846153846L626.6666666666666,373.8923076923077L640,374.5076923076923L653.3333333333334,374.3846153846154L666.6666666666667,373.2307692307693L680,374.07692307692304L693.3333333333334,374.09230769230766L706.6666666666666,374.1230769230769L720,374.46153846153845L733.3333333333333,373.6307692307692L746.6666666666666,374.73846153846154L760,374.1230769230769L773.3333333333334,375L786.6666666666666,373.0615384615385L800,372.7846153846154" stroke="#5f249f" stroke-width="10.4" opacity="0.05"/></g></g><path class="foreground" aria-hidden="true" d="" display="none"/></g></g><g class="mark-group role-scope layer_1_layer_8_pathgroup" role="graphics-object" aria-roledescription="group mark container"><g transform="translate(0,0)"><path class="background" aria-hidden="true" d="M0,0h800v400h-800Z"/><g><g class="mark-line role-mark layer_1_layer_8_marks" role="graphics-symbol" aria-roledescription="line mark container"><path d="M13.333333333333334,11.369230769230798L26.666666666666668,107.95384615384616L40,143.49230769230772L53.333333333333336,219.46153846153845L66.66666666666666,269.0769230769231L80,310.55384615384617L93.33333333333333,328.1230769230769L106.66666666666667,331.03076923076924L120,344.4923076923077L133.33333333333331,349.4769230769231L146.66666666666666,352.0923076923077L160,359.2153846153846L173.33333333333334,363.8L186.66666666666666,365.7846153846154L200,365.6461538461539L213.33333333333334,370.3846153846154L226.66666666666666,369.26153846153846L240,370.16923076923075L253.33333333333331,370.87692307692305L266.66666666666663,372.40000000000003L280,372.0615384615384L293.3333333333333,372.8307692307692L306.6666666666667,373.7692307692308L320,373.44615384615383L333.33333333333337,373.2153846153846L346.6666666666667,373.36923076923074L360,374.26153846153846L373.3333333333333,373.83076923076925L386.6666666666667,374.7692307692308L400,374.16923076923075L413.33333333333337,374.4307692307692L426.6666666666667,375L440.00000000000006,374.5846153846154L453.3333333333333,375.84615384615387L466.6666666666667,375L480,374.33846153846156L493.33333333333337,374.73846153846154L506.66666666666663,374.32307692307694L520,373.8923076923077L533.3333333333333,374.75384615384615L546.6666666666666,374.3846153846154L560,373.5692307692308L573.3333333333334,374.66153846153844L586.6666666666666,375.4923076923077L600,375.58461538461535L613.3333333333334,374.9076923076923L626.6666666666666,374.4769230769231L640,373.73846153846154L653.3333333333334,374.8461538461538L666.6666666666667,374.8L680,374.61538461538464L693.3333333333334,374.4L706.6666666666666,374.7230769230769L720,373.2923076923077L733.3333333333333,374.55384615384617L746.6666666666666,373.8L760,374.4769230769231L773.3333333333334,373.5230769230769L786.6666666666666,375.0153846153846L800,374.5076923076923" stroke="#228C22" stroke-width="11.450000000000001" opacity="0.05"/></g></g><path class="foreground" aria-hidden="true" d="" display="none"/></g><g transform="translate(0,0)"><path class="background" aria-hidden="true" d="M0,0h800v400h-800Z"/><g><g class="mark-line role-mark layer_1_layer_8_marks" role="graphics-symbol" aria-roledescription="line mark container"><path d="M13.333333333333334,10.738461538461586L26.666666666666668,106.90769230769233L40,144.41538461538462L53.333333333333336,222.58461538461538L66.66666666666666,268.2769230769231L80,310.2923076923077L93.33333333333333,325.53846153846155L106.66666666666667,339.66153846153844L120,343.0615384615384L133.33333333333331,348.59999999999997L146.66666666666666,352.67692307692306L160,357.87692307692305L173.33333333333334,362.6461538461538L186.66666666666666,365.4L200,366.32307692307694L213.33333333333334,368.44615384615383L226.66666666666666,368.3076923076923L240,368.7692307692308L253.33333333333331,370.26153846153846L266.66666666666663,370.07692307692304L280,371.53846153846155L293.3333333333333,372.33846153846156L306.6666666666667,374.5692307692308L320,374.04615384615386L333.33333333333337,373.4923076923077L346.6666666666667,373.4307692307692L360,372.89230769230767L373.3333333333333,374.87692307692305L386.6666666666667,373.9384615384615L400,374.09230769230766L413.33333333333337,373.6923076923077L426.6666666666667,374.7230769230769L440.00000000000006,373.26153846153846L453.3333333333333,373.2923076923077L466.6666666666667,375.04615384615386L480,374.4769230769231L493.33333333333337,374.5076923076923L506.66666666666663,374.7230769230769L520,373.90769230769234L533.3333333333333,374.15384615384613L546.6666666666666,374.4307692307692L560,375.0153846153846L573.3333333333334,375.6307692307692L586.6666666666666,374.66153846153844L600,373.8L613.3333333333334,374.8153846153846L626.6666666666666,373.8923076923077L640,374.5076923076923L653.3333333333334,374.3846153846154L666.6666666666667,373.2307692307693L680,374.07692307692304L693.3333333333334,374.09230769230766L706.6666666666666,374.1230769230769L720,374.46153846153845L733.3333333333333,373.6307692307692L746.6666666666666,374.73846153846154L760,374.1230769230769L773.3333333333334,375L786.6666666666666,373.0615384615385L800,372.7846153846154" stroke="#5f249f" stroke-width="11.450000000000001" opacity="0.05"/></g></g><path class="foreground" aria-hidden="true" d="" display="none"/></g></g><g class="mark-group role-scope layer_1_layer_9_pathgroup" role="graphics-object" aria-roledescription="group mark container"><g transform="translate(0,0)"><path class="background" aria-hidden="true" d="M0,0h800v400h-800Z"/><g><g class="mark-line role-mark layer_1_layer_9_marks" role="graphics-symbol" aria-roledescription="line mark container"><path d="M13.333333333333334,11.369230769230798L26.666666666666668,107.95384615384616L40,143.49230769230772L53.333333333333336,219.46153846153845L66.66666666666666,269.0769230769231L80,310.55384615384617L93.33333333333333,328.1230769230769L106.66666666666667,331.03076923076924L120,344.4923076923077L133.33333333333331,349.4769230769231L146.66666666666666,352.0923076923077L160,359.2153846153846L173.33333333333334,363.8L186.66666666666666,365.7846153846154L200,365.6461538461539L213.33333333333334,370.3846153846154L226.66666666666666,369.26153846153846L240,370.16923076923075L253.33333333333331,370.87692307692305L266.66666666666663,372.40000000000003L280,372.0615384615384L293.3333333333333,372.8307692307692L306.6666666666667,373.7692307692308L320,373.44615384615383L333.33333333333337,373.2153846153846L346.6666666666667,373.36923076923074L360,374.26153846153846L373.3333333333333,373.83076923076925L386.6666666666667,374.7692307692308L400,374.16923076923075L413.33333333333337,374.4307692307692L426.6666666666667,375L440.00000000000006,374.5846153846154L453.3333333333333,375.84615384615387L466.6666666666667,375L480,374.33846153846156L493.33333333333337,374.73846153846154L506.66666666666663,374.32307692307694L520,373.8923076923077L533.3333333333333,374.75384615384615L546.6666666666666,374.3846153846154L560,373.5692307692308L573.3333333333334,374.66153846153844L586.6666666666666,375.4923076923077L600,375.58461538461535L613.3333333333334,374.9076923076923L626.6666666666666,374.4769230769231L640,373.73846153846154L653.3333333333334,374.8461538461538L666.6666666666667,374.8L680,374.61538461538464L693.3333333333334,374.4L706.6666666666666,374.7230769230769L720,373.2923076923077L733.3333333333333,374.55384615384617L746.6666666666666,373.8L760,374.4769230769231L773.3333333333334,373.5230769230769L786.6666666666666,375.0153846153846L800,374.5076923076923" stroke="#228C22" stroke-width="12.5" opacity="0.05"/></g></g><path class="foreground" aria-hidden="true" d="" display="none"/></g><g transform="translate(0,0)"><path class="background" aria-hidden="true" d="M0,0h800v400h-800Z"/><g><g class="mark-line role-mark layer_1_layer_9_marks" role="graphics-symbol" aria-roledescription="line mark container"><path d="M13.333333333333334,10.738461538461586L26.666666666666668,106.90769230769233L40,144.41538461538462L53.333333333333336,222.58461538461538L66.66666666666666,268.2769230769231L80,310.2923076923077L93.33333333333333,325.53846153846155L106.66666666666667,339.66153846153844L120,343.0615384615384L133.33333333333331,348.59999999999997L146.66666666666666,352.67692307692306L160,357.87692307692305L173.33333333333334,362.6461538461538L186.66666666666666,365.4L200,366.32307692307694L213.33333333333334,368.44615384615383L226.66666666666666,368.3076923076923L240,368.7692307692308L253.33333333333331,370.26153846153846L266.66666666666663,370.07692307692304L280,371.53846153846155L293.3333333333333,372.33846153846156L306.6666666666667,374.5692307692308L320,374.04615384615386L333.33333333333337,373.4923076923077L346.6666666666667,373.4307692307692L360,372.89230769230767L373.3333333333333,374.87692307692305L386.6666666666667,373.9384615384615L400,374.09230769230766L413.33333333333337,373.6923076923077L426.6666666666667,374.7230769230769L440.00000000000006,373.26153846153846L453.3333333333333,373.2923076923077L466.6666666666667,375.04615384615386L480,374.4769230769231L493.33333333333337,374.5076923076923L506.66666666666663,374.7230769230769L520,373.90769230769234L533.3333333333333,374.15384615384613L546.6666666666666,374.4307692307692L560,375.0153846153846L573.3333333333334,375.6307692307692L586.6666666666666,374.66153846153844L600,373.8L613.3333333333334,374.8153846153846L626.6666666666666,373.8923076923077L640,374.5076923076923L653.3333333333334,374.3846153846154L666.6666666666667,373.2307692307693L680,374.07692307692304L693.3333333333334,374.09230769230766L706.6666666666666,374.1230769230769L720,374.46153846153845L733.3333333333333,373.6307692307692L746.6666666666666,374.73846153846154L760,374.1230769230769L773.3333333333334,375L786.6666666666666,373.0615384615385L800,372.7846153846154" stroke="#5f249f" stroke-width="12.5" opacity="0.05"/></g></g><path class="foreground" aria-hidden="true" d="" display="none"/></g></g><g class="mark-group role-legend" role="graphics-symbol" aria-roledescription="legend" aria-label="Symbol legend titled 'PCAs' for fill color and stroke color with 2 values: from scratch, scikit-learn"><g transform="translate(831,0)"><path class="background" aria-hidden="true" d="M0,0h72v45h-72Z" pointer-events="none"/><g><g class="mark-group role-legend-entry"><g transform="translate(0,16)"><path class="background" aria-hidden="true" d="M0,0h0v0h0Z" pointer-events="none"/><g><g class="mark-group role-scope" role="graphics-object" aria-roledescription="group mark container"><g transform="translate(0,0)"><path class="background" aria-hidden="true" d="M0,0h71.009765625v12.5h-71.009765625Z" pointer-events="none" opacity="1"/><g><g class="mark-symbol role-legend-symbol" pointer-events="none"><path transform="translate(6,6)" d="M5,0A5,5,0,1,1,-5,0A5,5,0,1,1,5,0" fill="#228C22" fill-opacity="0.4" stroke="#228C22" stroke-width="1.5" opacity="0.7"/></g><g class="mark-text role-legend-label" pointer-events="none"><text text-anchor="start" transform="translate(16,9)" font-family="sans-serif" font-size="10px" fill="#444444" opacity="1">from scratch</text></g></g><path class="foreground" aria-hidden="true" d="" pointer-events="none" display="none"/></g><g transform="translate(0,16)"><path class="background" aria-hidden="true" d="M0,0h71.009765625v12.5h-71.009765625Z" pointer-events="none" opacity="1"/><g><g class="mark-symbol role-legend-symbol" pointer-events="none"><path transform="translate(6,6)" d="M5,0A5,5,0,1,1,-5,0A5,5,0,1,1,5,0" fill="#5f249f" fill-opacity="0.4" stroke="#5f249f" stroke-width="1.5" opacity="0.7"/></g><g class="mark-text role-legend-label" pointer-events="none"><text text-anchor="start" transform="translate(16,9)" font-family="sans-serif" font-size="10px" fill="#444444" opacity="1">scikit-learn</text></g></g><path class="foreground" aria-hidden="true" d="" pointer-events="none" display="none"/></g></g></g><path class="foreground" aria-hidden="true" d="" pointer-events="none" display="none"/></g></g><g class="mark-text role-legend-title" pointer-events="none"><text text-anchor="start" transform="translate(0,9)" font-family="sans-serif" font-size="11px" font-weight="bold" fill="#444444" opacity="1">PCAs</text></g></g><path class="foreground" aria-hidden="true" d="" pointer-events="none" display="none"/></g></g></g><path class="foreground" aria-hidden="true" d="" display="none"/></g></g></g></svg>