<svg xmlns="http://www.w3.org/2000/svg" xmlns:xlink="http://www.w3.org/1999/xlink" version="1.1" class="marks" width="949" height="447" viewBox="0 0 949 447"><rect width="949" height="447" fill="#efefef"/><g fill="none" stroke-miterlimit="10" transform="translate(41,10)"><g class="mark-group role-frame root" role="graphics-object" aria-roledescription="group mark container"><g transform="translate(0,0)"><path class="background" aria-hidden="true" d="M0.5,0.5h800v400h-800Z" stroke="#ddd"/><g><g class="mark-group role-axis" role="graphics-symbol" aria-roledescription="axis" aria-label="X-axis for a linear scale with values from 0 to 60"><g transform="translate(0.5,400.5)"><path class="background" aria-hidden="true" d="M0,0h0v0h0Z" pointer-events="none"/><g><g class="mark-rule role-axis-grid" pointer-events="none"><line transform="translate(0,-400)" x2="0" y2="400" stroke="#ffffff" stroke-width="1" opacity="1"/><line transform="translate(27,-400)" x2="0" y2="400" stroke="#ffffff" stroke-width="1" opacity="1"/><line transform="translate(53,-400)" x2="0" y2="400" stroke="#ffffff" stroke-width="1" opacity="1"/><line transform="translate(80,-400)" x2="0" y2="400" stroke="#ffffff" stroke-width="1" opacity="1"/><line transform="translate(107,-400)" x2="0" y2="400" stroke="#ffffff" stroke-width="1" opacity="1"/><line transform="translate(133,-400)" x2="0" y2="400" stroke="#ffffff" stroke-width="1" opacity="1"/><line transform="translate(160,-400)" x2="0" y2="400" stroke="#ffffff" stroke-width="1" opacity="1"/><line transform="translate(187,-400)" x2="0" y2="400" stroke="#ffffff" stroke-width="1" opacity="1"/><line transform="translate(213,-400)" x2="0" y2="400" stroke="#ffffff" stroke-width="1" opacity="1"/><line transform="translate(240,-400)" x2="0" y2="400" stroke="#ffffff" stroke-width="1" opacity="1"/><line transform="translate(267,-400)" x2="0" y2="400" stroke="#ffffff" stroke-width="1" opacity="1"/><line transform="translate(293,-400)" x2="0" y2="400" stroke="#ffffff" stroke-width="1" opacity="1"/><line transform="translate(320,-400)" x2="0" y2="400" stroke="#ffffff" stroke-width="1" opacity="1"/><line transform="translate(347,-400)" x2="0" y2="400" stroke="#ffffff" stroke-width="1" opacity="1"/><line transform="translate(373,-400)" x2="0" y2="400" stroke="#ffffff" stroke-width="1" opacity="1"/><line transform="translate(400,-400)" x2="0" y2="400" stroke="#ffffff" stroke-width="1" opacity="1"/><line transform="translate(427,-400)" x2="0" y2="400" stroke="#ffffff" stroke-width="1" opacity="1"/><line transform="translate(453,-400)" x2="0" y2="400" stroke="#ffffff" stroke-width="1" opacity="1"/><line transform="translate(480,-400)" x2="0" y2="400" stroke="#ffffff" stroke-width="1" opacity="1"/><line transform="translate(507,-400)" x2="0" y2="400" stroke="#ffffff" stroke-width="1" opacity="1"/><line transform="translate(533,-400)" x2="0" y2="400" stroke="#ffffff" stroke-width="1" opacity="1"/><line transform="translate(560,-400)" x2="0" y2="400" stroke="#ffffff" stroke-width="1" opacity="1"/><line transform="translate(587,-400)" x2="0" y2="400" stroke="#ffffff" stroke-width="1" opacity="1"/><line transform="translate(613,-400)" x2="0" y2="400" stroke="#ffffff" stroke-width="1" opacity="1"/><line transform="translate(640,-400)" x2="0" y2="400" stroke="#ffffff" stroke-width="1" opacity="1"/><line transform="translate(667,-400)" x2="0" y2="400" stroke="#ffffff" stroke-width="1" opacity="1"/><line transform="translate(693,-400)" x2="0" y2="400" stroke="#ffffff" stroke-width="1" opacity="1"/><line transform="translate(720,-400)" x2="0" y2="400" stroke="#ffffff" stroke-width="1" opacity="1"/><line transform="translate(747,-400)" x2="0" y2="400" stroke="#ffffff" stroke-width="1" opacity="1"/><line transform="translate(773,-400)" x2="0" y2="400" stroke="#ffffff" stroke-width="1" opacity="1"/><line transform="translate(800,-400)" x2="0" y2="400" stroke="#ffffff" stroke-width="1" opacity="1"/></g></g><path class="foreground" aria-hidden="true" d="" pointer-events="none" display="none"/></g></g><g class="mark-group role-axis" role="graphics-symbol" aria-roledescription="axis" aria-label="Y-axis for a linear scale with values from 0.0 to 1.0"><g transform="translate(0.5,0.5)"><path class="background" aria-hidden="true" d="M0,0h0v0h0Z" pointer-events="none"/><g><g class="mark-rule role-axis-grid" pointer-events="none"><line transform="translate(0,400)" x2="800" y2="0" stroke="#ffffff" stroke-width="1" opacity="1"/><line transform="translate(0,360)" x2="800" y2="0" stroke="#ffffff" stroke-width="1" opacity="1"/><line transform="translate(0,320)" x2="800" y2="0" stroke="#ffffff" stroke-width="1" opacity="1"/><line transform="translate(0,280)" x2="800" y2="0" stroke="#ffffff" stroke-width="1" opacity="1"/><line transform="translate(0,240)" x2="800" y2="0" stroke="#ffffff" stroke-width="1" opacity="1"/><line transform="translate(0,200)" x2="800" y2="0" stroke="#ffffff" stroke-width="1" opacity="1"/><line transform="translate(0,160)" x2="800" y2="0" stroke="#ffffff" stroke-width="1" opacity="1"/><line transform="translate(0,120)" x2="800" y2="0" stroke="#ffffff" stroke-width="1" opacity="1"/><line transform="translate(0,80)" x2="800" y2="0" stroke="#ffffff" stroke-width="1" opacity="1"/><line transform="translate(0,40)" x2="800" y2="0" stroke="#ffffff" stroke-width="1" opacity="1"/><line transform="translate(0,0)" x2="800" y2="0" stroke="#ffffff" stroke-width="1" opacity="1"/></g></g><path class="foreground" aria-hidden="true" d="" pointer-events="none" display="none"/></g></g><g class="mark-group role-axis" role="graphics-symbol" aria-roledescription="axis" aria-label="X-axis titled 'N of Components' for a linear scale with values from 0 to 60"><g transform="translate(0.5,400.5)"><path class="background" aria-hidden="true" d="M0,0h0v0h0Z" pointer-events="none"/><g><g class="mark-rule role-axis-tick" pointer-events="none"><line transform="translate(0,0)" x2="0" y2="5" stroke-width="1" opacity="1"/><line transform="translate(27,0)" x2="0" y2="5" stroke-width="1" opacity="1"/><line transform="translate(53,0)" x2="0" y2="5" stroke-width="1" opacity="1"/><line transform="translate(80,0)" x2="0" y2="5" stroke-width="1" opacity="1"/><line transform="translate(107,0)" x2="0" y2="5" stroke-width="1" opacity="1"/><line transform="translate(133,0)" x2="0" y2="5" stroke-width="1" opacity="1"/><line transform="translate(160,0)" x2="0" y2="5" stroke-width="1" opacity="1"/><line transform="translate(187,0)" x2="0" y2="5" stroke-width="1" opacity="1"/><line transform="translate(213,0)" x2="0" y2="5" stroke-width="1" opacity="1"/><line transform="translate(240,0)" x2="0" y2="5" stroke-width="1" opacity="1"/><line transform="translate(267,0)" x2="0" y2="5" stroke-width="1" opacity="1"/><line transform="translate(293,0)" x2="0" y2="5" stroke-width="1" opacity="1"/><line transform="translate(320,0)" x2="0" y2="5" stroke-width="1" opacity="1"/><line transform="translate(347,0)" x2="0" y2="5" stroke-width="1" opacity="1"/><line transform="translate(373,0)" x2="0" y2="5" stroke-width="1" opacity="1"/><line transform="translate(400,0)" x2="0" y2="5" stroke-width="1" opacity="1"/><line transform="translate(427,0)" x2="0" y2="5" stroke-width="1" opacity="1"/><line transform="translate(453,0)" x2="0" y2="5" stroke-width="1" opacity="1"/><line transform="translate(480,0)" x2="0" y2="5" stroke-width="1" opacity="1"/><line transform="translate(507,0)" x2="0" y2="5" stroke-width="1" opacity="1"/><line transform="translate(533,0)" x2="0" y2="5" stroke-width="1" opacity="1"/><line transform="translate(560,0)" x2="0" y2="5" stroke-width="1" opacity="1"/><line transform="translate(587,0)" x2="0" y2="5" stroke-width="1" opacity="1"/><line transform="translate(613,0)" x2="0" y2="5" stroke-width="1" opacity="1"/><line transform="translate(640,0)" x2="0" y2="5" stroke-width="1" opacity="1"/><line transform="translate(667,0)" x2="0" y2="5" stroke-width="1" opacity="1"/><line transform="translate(693,0)" x2="0" y2="5" stroke-width="1" opacity="1"/><line transform="translate(720,0)" x2="0" y2="5" stroke-width="1" opacity="1"/><line transform="translate(747,0)" x2="0" y2="5" stroke-width="1" opacity="1"/><line transform="translate(773,0)" x2="0" y2="5" stroke-width="1" opacity="1"/><line transform="translate(800,0)" x2="0" y2="5" stroke-width="1" opacity="1"/></g><g class="mark-text role-axis-label" pointer-events="none"><text text-anchor="start" transform="translate(0,15)" font-family="sans-serif" font-size="10px" fill="#444444" opacity="1">0</text><text text-anchor="middle" transform="translate(26.666666666666668,15)" font-family="sans-serif" font-size="10px" fill="#444444" opacity="1">2</text><text text-anchor="middle" transform="translate(53.333333333333336,15)" font-family="sans-serif" font-size="10px" fill="#444444" opacity="1">4</text><text text-anchor="middle" transform="translate(80,15)" font-family="sans-serif" font-size="10px" fill="#444444" opacity="1">6</text><text text-anchor="middle" transform="translate(106.66666666666667,15)" font-family="sans-serif" font-size="10px" fill="#444444" opacity="1">8</text><text text-anchor="middle" transform="translate(133.33333333333331,15)" font-family="sans-serif" font-size="10px" fill="#444444" opacity="1">10</text><text text-anchor="middle" transform="translate(160,15)" font-family="sans-serif" font-size="10px" fill="#444444" opacity="1">12</text><text text-anchor="middle" transform="translate(186.66666666666666,15)" font-family="sans-serif" font-size="10px" fill="#444444" opacity="1">14</text><text text-anchor="middle" transform="translate(213.33333333333334,15)" font-family="sans-serif" font-size="10px" fill="#444444" opacity="1">16</text><text text-anchor="middle" transform="translate(240,15)" font-family="sans-serif" font-size="10px" fill="#444444" opacity="1">18</text><text text-anchor="middle" transform="translate(266.66666666666663,15)" font-family="sans-serif" font-size="10px" fill="#444444" opacity="1">20</text><text text-anchor="middle" transform="translate(293.3333333333333,15)" font-family="sans-serif" font-size="10px" fill="#444444" opacity="1">22</text><text text-anchor="middle" transform="translate(320,15)" font-family="sans-serif" font-size="10px" fill="#444444" opacity="1">24</text><text text-anchor="middle" transform="translate(346.6666666666667,15)" font-family="sans-serif" font-size="10px" fill="#444444" opacity="1">26</text><text text-anchor="middle" transform="translate(373.3333333333333,15)" font-family="sans-serif" font-size="10px" fill="#444444" opacity="1">28</text><text text-anchor="middle" transform="translate(400,15)" font-family="sans-serif" font-size="10px" fill="#444444" opacity="1">30</text><text text-anchor="middle" transform="translate(426.6666666666667,15)" font-family="sans-serif" font-size="10px" fill="#444444" opacity="1">32</text><text text-anchor="middle" transform="translate(453.3333333333333,15)" font-family="sans-serif" font-size="10px" fill="#444444" opacity="1">34</text><text text-anchor="middle" transform="translate(480,15)" font-family="sans-serif" font-size="10px" fill="#444444" opacity="1">36</text><text text-anchor="middle" transform="translate(506.66666666666663,15)" font-family="sans-serif" font-size="10px" fill="#444444" opacity="1">38</text><text text-anchor="middle" transform="translate(533.3333333333333,15)" font-family="sans-serif" font-size="10px" fill="#444444" opacity="1">40</text><text text-anchor="middle" transform="translate(560,15)" font-family="sans-serif" font-size="10px" fill="#444444" opacity="1">42</text><text text-anchor="middle" transform="translate(586.6666666666666,15)" font-family="sans-serif" font-size="10px" fill="#444444" opacity="1">44</text><text text-anchor="middle" transform="translate(613.3333333333334,15)" font-family="sans-serif" font-size="10px" fill="#444444" opacity="1">46</text><text text-anchor="middle" transform="translate(640,15)" font-family="sans-serif" font-size="10px" fill="#444444" opacity="1">48</text><text text-anchor="middle" transform="translate(666.6666666666667,15)" font-family="sans-serif" font-size="10px" fill="#444444" opacity="1">50</text><text text-anchor="middle" transform="translate(693.3333333333334,15)" font-family="sans-serif" font-size="10px" fill="#444444" opacity="1">52</text><text text-anchor="middle" transform="translate(720,15)" font-family="sans-serif" font-size="10px" fill="#444444" opacity="1">54</text><text text-anchor="middle" transform="translate(746.6666666666666,15)" font-family="sans-serif" font-size="10px" fill="#444444" opacity="1">56</text><text text-anchor="middle" transform="translate(773.3333333333334,15)" font-family="sans-serif" font-size="10px" fill="#444444" opacity="1">58</text><text text-anchor="end" transform="translate(800,15)" font-family="sans-serif" font-size="10px" fill="#444444" opacity="1">60</text></g><g class="mark-rule role-axis-domain" pointer-events="none"><line transform="translate(0,0)" x2="800" y2="0" stroke-width="1" opacity="1"/></g><g class="mark-text role-axis-title" pointer-events="none"><text text-anchor="middle" transform="translate(400,30)" font-family="sans-serif" font-size="11px" font-weight="bold" fill="#444444" opacity="1">N of Components</text></g></g><path class="foreground" aria-hidden="true" d="" pointer-events="none" display="none"/></g></g><g class="mark-group role-axis" role="graphics-symbol" aria-roledescription="axis" aria-label="Y-axis titled 'Accuracy' for a linear scale with values from 0.0 to 1.0"><g transform="translate(0.5,0.5)"><path class="background" aria-hidden="true" d="M0,0h0v0h0Z" pointer-events="none"/><g><g class="mark-rule role-axis-tick" pointer-events="none"><line transform="translate(0,400)" x2="-5" y2="0" stroke-width="1" opacity="1"/><line transform="translate(0,360)" x2="-5" y2="0" stroke-width="1" opacity="1"/><line transform="translate(0,320)" x2="-5" y2="0" stroke-width="1" opacity="1"/><line transform="translate(0,280)" x2="-5" y2="0" stroke-width="1" opacity="1"/><line transform="translate(0,240)" x2="-5" y2="0" stroke-width="1" opacity="1"/><line transform="translate(0,200)" x2="-5" y2="0" stroke-width="1" opacity="1"/><line transform="translate(0,160)" x2="-5" y2="0" stroke-width="1" opacity="1"/><line transform="translate(0,120)" x2="-5" y2="0" stroke-width="1" opacity="1"/><line transform="translate(0,80)" x2="-5" y2="0" stroke-width="1" opacity="1"/><line transform="translate(0,40)" x2="-5" y2="0" stroke-width="1" opacity="1"/><line transform="translate(0,0)" x2="-5" y2="0" stroke-width="1" opacity="1"/></g><g class="mark-text role-axis-label" pointer-events="none"><text text-anchor="end" transform="translate(-7,403)" font-family="sans-serif" font-size="10px" fill="#444444" opacity="1">0.0</text><text text-anchor="end" transform="translate(-7,363)" font-family="sans-serif" font-size="10px" fill="#444444" opacity="1">0.1</text><text text-anchor="end" transform="translate(-7,323)" font-family="sans-serif" font-size="10px" fill="#444444" opacity="1">0.2</text><text text-anchor="end" transform="translate(-7,283)" font-family="sans-serif" font-size="10px" fill="#444444" opacity="1">0.3</text><text text-anchor="end" transform="translate(-7,243)" font-family="sans-serif" font-size="10px" fill="#444444" opacity="1">0.4</text><text text-anchor="end" transform="translate(-7,203)" font-family="sans-serif" font-size="10px" fill="#444444" opacity="1">0.5</text><text text-anchor="end" transform="translate(-7,163)" font-family="sans-serif" font-size="10px" fill="#444444" opacity="1">0.6</text><text text-anchor="end" transform="translate(-7,123.00000000000001)" font-family="sans-serif" font-size="10px" fill="#444444" opacity="1">0.7</text><text text-anchor="end" transform="translate(-7,82.99999999999999)" font-family="sans-serif" font-size="10px" fill="#444444" opacity="1">0.8</text><text text-anchor="end" transform="translate(-7,42.99999999999999)" font-family="sans-serif" font-size="10px" fill="#444444" opacity="1">0.9</text><text text-anchor="end" transform="translate(-7,3)" font-family="sans-serif" font-size="10px" fill="#444444" opacity="1">1.0</text></g><g class="mark-rule role-axis-domain" pointer-events="none"><line transform="translate(0,400)" x2="0" y2="-400" stroke-width="1" opacity="1"/></g><g class="mark-text role-axis-title" pointer-events="none"><text text-anchor="middle" transform="translate(-24.9013671875,200) rotate(-90) translate(0,-2)" font-family="sans-serif" font-size="11px" font-weight="bold" fill="#444444" opacity="1">Accuracy</text></g></g><path class="foreground" aria-hidden="true" d="" pointer-events="none" display="none"/></g></g><g class="mark-group role-scope layer_0_layer_0_pathgroup" role="graphics-object" aria-roledescription="group mark container"><g transform="translate(0,0)"><path class="background" aria-hidden="true" d="M0,0h800v400h-800Z"/><g><g class="mark-area role-mark layer_0_layer_0_marks" role="graphics-symbol" aria-roledescription="area mark container"><path d="M13.333333333333334,302.56L26.666666666666668,231L40,202.96000000000004L53.333333333333336,135.67999999999998L66.66666666666666,91.67999999999998L80,61.20000000000001L93.33333333333333,48.8L106.66666666666667,45.88000000000001L120,36.75999999999999L133.33333333333331,33.28000000000002L146.66666666666666,31.36000000000001L160,27.51999999999999L173.33333333333334,25.320000000000007L186.66666666666666,23.4L200,23.919999999999987L213.33333333333334,20.48000000000001L226.66666666666666,21.36L240,20.759999999999977L253.33333333333331,20.08000000000001L266.66666666666663,18.88000000000001L280,19.079999999999984L293.3333333333333,18.80000000000002L306.6666666666667,18.36000000000002L320,18.239999999999988L333.33333333333337,18.599999999999994L346.6666666666667,18.279999999999987L360,17.960000000000022L373.3333333333333,17.56000000000002L386.6666666666667,17.24000000000001L400,17.56000000000002L413.33333333333337,17.11999999999998L426.6666666666667,16.92L440.00000000000006,17.079999999999984L453.3333333333333,16.800000000000015L466.6666666666667,16.520000000000003L480,17.24000000000001L493.33333333333337,17.680000000000007L506.66666666666663,17.36L520,17.32L533.3333333333333,17.079999999999984L546.6666666666666,17.11999999999998L560,18.120000000000005L573.3333333333334,17.160000000000018L586.6666666666666,16.639999999999986L600,16.880000000000006L613.3333333333334,16.84000000000001L626.6666666666666,17.64000000000001L640,17.519999999999982L653.3333333333334,17.28000000000001L666.6666666666667,17.11999999999998L680,17.28000000000001L693.3333333333334,17.519999999999982L706.6666666666666,16.999999999999993L720,17.91999999999998L733.3333333333333,17.519999999999982L746.6666666666666,17.479999999999983L760,17.64000000000001L773.3333333333334,17.43999999999999L786.6666666666666,17.079999999999984L800,17.28000000000001L800,400L786.6666666666666,400L773.3333333333334,400L760,400L746.6666666666666,400L733.3333333333333,400L720,400L706.6666666666666,400L693.3333333333334,400L680,400L666.6666666666667,400L653.3333333333334,400L640,400L626.6666666666666,400L613.3333333333334,400L600,400L586.6666666666666,400L573.3333333333334,400L560,400L546.6666666666666,400L533.3333333333333,400L520,400L506.66666666666663,400L493.33333333333337,400L480,400L466.6666666666667,400L453.3333333333333,400L440.00000000000006,400L426.6666666666667,400L413.33333333333337,400L400,400L386.6666666666667,400L373.3333333333333,400L360,400L346.6666666666667,400L333.33333333333337,400L320,400L306.6666666666667,400L293.3333333333333,400L280,400L266.66666666666663,400L253.33333333333331,400L240,400L226.66666666666666,400L213.33333333333334,400L200,400L186.66666666666666,400L173.33333333333334,400L160,400L146.66666666666666,400L133.33333333333331,400L120,400L106.66666666666667,400L93.33333333333333,400L80,400L66.66666666666666,400L53.333333333333336,400L40,400L26.666666666666668,400L13.333333333333334,400Z" fill="#228C22" fill-opacity="0.4" opacity="0.7"/></g></g><path class="foreground" aria-hidden="true" d="" display="none"/></g><g transform="translate(0,0)"><path class="background" aria-hidden="true" d="M0,0h800v400h-800Z"/><g><g class="mark-area role-mark layer_0_layer_0_marks" role="graphics-symbol" aria-roledescription="area mark container"><path d="M13.333333333333334,302.76L26.666666666666668,232.64000000000001L40,201.87999999999997L53.333333333333336,133.76000000000002L66.66666666666666,92.32000000000001L80,61.24000000000001L93.33333333333333,49.800000000000026L106.66666666666667,39.99999999999999L120,37.959999999999994L133.33333333333331,33.55999999999999L146.66666666666666,31.36000000000001L160,28.359999999999985L173.33333333333334,25.47999999999999L186.66666666666666,23.839999999999996L200,23.760000000000005L213.33333333333334,22.080000000000013L226.66666666666666,22.00000000000002L240,21.119999999999983L253.33333333333331,20.040000000000013L266.66666666666663,20.120000000000005L280,19.43999999999999L293.3333333333333,18.88000000000001L306.6666666666667,17.799999999999994L320,17.960000000000022L333.33333333333337,18.480000000000008L346.6666666666667,18.159999999999997L360,18.599999999999994L373.3333333333333,17.64000000000001L386.6666666666667,17.680000000000007L400,17.83999999999999L413.33333333333337,17.879999999999985L426.6666666666667,17.200000000000017L440.00000000000006,17.960000000000022L453.3333333333333,18.080000000000005L466.6666666666667,17.200000000000017L480,17.720000000000002L493.33333333333337,17.64000000000001L506.66666666666663,17.24000000000001L520,17.91999999999998L533.3333333333333,17.799999999999994L546.6666666666666,17.759999999999998L560,17.160000000000018L573.3333333333334,16.880000000000006L586.6666666666666,17.24000000000001L600,17.720000000000002L613.3333333333334,17.32L626.6666666666666,17.759999999999998L640,17.960000000000022L653.3333333333334,17.600000000000016L666.6666666666667,18.400000000000016L680,18.000000000000014L693.3333333333334,18.199999999999996L706.6666666666666,17.879999999999985L720,17.600000000000016L733.3333333333333,18.000000000000014L746.6666666666666,17.32L760,17.43999999999999L773.3333333333334,17.479999999999983L786.6666666666666,18.400000000000016L800,18.400000000000016L800,400L786.6666666666666,400L773.3333333333334,400L760,400L746.6666666666666,400L733.3333333333333,400L720,400L706.6666666666666,400L693.3333333333334,400L680,400L666.6666666666667,400L653.3333333333334,400L640,400L626.6666666666666,400L613.3333333333334,400L600,400L586.6666666666666,400L573.3333333333334,400L560,400L546.6666666666666,400L533.3333333333333,400L520,400L506.66666666666663,400L493.33333333333337,400L480,400L466.6666666666667,400L453.3333333333333,400L440.00000000000006,400L426.6666666666667,400L413.33333333333337,400L400,400L386.6666666666667,400L373.3333333333333,400L360,400L346.6666666666667,400L333.33333333333337,400L320,400L306.6666666666667,400L293.3333333333333,400L280,400L266.66666666666663,400L253.33333333333331,400L240,400L226.66666666666666,400L213.33333333333334,400L200,400L186.66666666666666,400L173.33333333333334,400L160,400L146.66666666666666,400L133.33333333333331,400L120,400L106.66666666666667,400L93.33333333333333,400L80,400L66.66666666666666,400L53.333333333333336,400L40,400L26.666666666666668,400L13.333333333333334,400Z" fill="#5f249f" fill-opacity="0.4" opacity="0.7"/></g></g><path class="foreground" aria-hidden="true" d="" display="none"/></g></g><g class="mark-group role-scope layer_0_layer_1_pathgroup" role="graphics-object" aria-roledescription="group mark container"><g transform="translate(0,0)"><path class="background" aria-hidden="true" d="M0,0h800v400h-800Z"/><g><g class="mark-line role-mark layer_0_layer_1_marks" role="graphics-symbol" aria-roledescription="line mark container"><path d="M13.333333333333334,302.56L26.666666666666668,231L40,202.96000000000004L53.333333333333336,135.67999999999998L66.66666666666666,91.67999999999998L80,61.20000000000001L93.33333333333333,48.8L106.66666666666667,45.88000000000001L120,36.75999999999999L133.33333333333331,33.28000000000002L146.66666666666666,31.36000000000001L160,27.51999999999999L173.33333333333334,25.320000000000007L186.66666666666666,23.4L200,23.919999999999987L213.33333333333334,20.48000000000001L226.66666666666666,21.36L240,20.759999999999977L253.33333333333331,20.08000000000001L266.66666666666663,18.88000000000001L280,19.079999999999984L293.3333333333333,18.80000000000002L306.6666666666667,18.36000000000002L320,18.239999999999988L333.33333333333337,18.599999999999994L346.6666666666667,18.279999999999987L360,17.960000000000022L373.3333333333333,17.56000000000002L386.6666666666667,17.24000000000001L400,17.56000000000002L413.33333333333337,17.11999999999998L426.6666666666667,16.92L440.00000000000006,17.079999999999984L453.3333333333333,16.800000000000015L466.6666666666667,16.520000000000003L480,17.24000000000001L493.33333333333337,17.680000000000007L506.66666666666663,17.36L520,17.32L533.3333333333333,17.079999999999984L546.6666666666666,17.11999999999998L560,18.120000000000005L573.3333333333334,17.160000000000018L586.6666666666666,16.639999999999986L600,16.880000000000006L613.3333333333334,16.84000000000001L626.6666666666666,17.64000000000001L640,17.519999999999982L653.3333333333334,17.28000000000001L666.6666666666667,17.11999999999998L680,17.28000000000001L693.3333333333334,17.519999999999982L706.6666666666666,16.999999999999993L720,17.91999999999998L733.3333333333333,17.519999999999982L746.6666666666666,17.479999999999983L760,17.64000000000001L773.3333333333334,17.43999999999999L786.6666666666666,17.079999999999984L800,17.28000000000001" stroke="#228C22" stroke-width="2"/></g></g><path class="foreground" aria-hidden="true" d="" display="none"/></g><g transform="translate(0,0)"><path class="background" aria-hidden="true" d="M0,0h800v400h-800Z"/><g><g class="mark-line role-mark layer_0_layer_1_marks" role="graphics-symbol" aria-roledescription="line mark container"><path d="M13.333333333333334,302.76L26.666666666666668,232.64000000000001L40,201.87999999999997L53.333333333333336,133.76000000000002L66.66666666666666,92.32000000000001L80,61.24000000000001L93.33333333333333,49.800000000000026L106.66666666666667,39.99999999999999L120,37.959999999999994L133.33333333333331,33.55999999999999L146.66666666666666,31.36000000000001L160,28.359999999999985L173.33333333333334,25.47999999999999L186.66666666666666,23.839999999999996L200,23.760000000000005L213.33333333333334,22.080000000000013L226.66666666666666,22.00000000000002L240,21.119999999999983L253.33333333333331,20.040000000000013L266.66666666666663,20.120000000000005L280,19.43999999999999L293.3333333333333,18.88000000000001L306.6666666666667,17.799999999999994L320,17.960000000000022L333.33333333333337,18.480000000000008L346.6666666666667,18.159999999999997L360,18.599999999999994L373.3333333333333,17.64000000000001L386.6666666666667,17.680000000000007L400,17.83999999999999L413.33333333333337,17.879999999999985L426.6666666666667,17.200000000000017L440.00000000000006,17.960000000000022L453.3333333333333,18.080000000000005L466.6666666666667,17.200000000000017L480,17.720000000000002L493.33333333333337,17.64000000000001L506.66666666666663,17.24000000000001L520,17.91999999999998L533.3333333333333,17.799999999999994L546.6666666666666,17.759999999999998L560,17.160000000000018L573.3333333333334,16.880000000000006L586.6666666666666,17.24000000000001L600,17.720000000000002L613.3333333333334,17.32L626.6666666666666,17.759999999999998L640,17.960000000000022L653.3333333333334,17.600000000000016L666.6666666666667,18.400000000000016L680,18.000000000000014L693.3333333333334,18.199999999999996L706.6666666666666,17.879999999999985L720,17.600000000000016L733.3333333333333,18.000000000000014L746.6666666666666,17.32L760,17.43999999999999L773.3333333333334,17.479999999999983L786.6666666666666,18.400000000000016L800,18.400000000000016" stroke="#5f249f" stroke-width="2"/></g></g><path class="foreground" aria-hidden="true" d="" display="none"/></g></g><g class="mark-group role-scope layer_1_layer_0_pathgroup" role="graphics-object" aria-roledescription="group mark container"><g transform="translate(0,0)"><path class="background" aria-hidden="true" d="M0,0h800v400h-800Z"/><g><g class="mark-line role-mark layer_1_layer_0_marks" role="graphics-symbol" aria-roledescription="line mark container"><path d="M13.333333333333334,302.56L26.666666666666668,231L40,202.96000000000004L53.333333333333336,135.67999999999998L66.66666666666666,91.67999999999998L80,61.20000000000001L93.33333333333333,48.8L106.66666666666667,45.88000000000001L120,36.75999999999999L133.33333333333331,33.28000000000002L146.66666666666666,31.36000000000001L160,27.51999999999999L173.33333333333334,25.320000000000007L186.66666666666666,23.4L200,23.919999999999987L213.33333333333334,20.48000000000001L226.66666666666666,21.36L240,20.759999999999977L253.33333333333331,20.08000000000001L266.66666666666663,18.88000000000001L280,19.079999999999984L293.3333333333333,18.80000000000002L306.6666666666667,18.36000000000002L320,18.239999999999988L333.33333333333337,18.599999999999994L346.6666666666667,18.279999999999987L360,17.960000000000022L373.3333333333333,17.56000000000002L386.6666666666667,17.24000000000001L400,17.56000000000002L413.33333333333337,17.11999999999998L426.6666666666667,16.92L440.00000000000006,17.079999999999984L453.3333333333333,16.800000000000015L466.6666666666667,16.520000000000003L480,17.24000000000001L493.33333333333337,17.680000000000007L506.66666666666663,17.36L520,17.32L533.3333333333333,17.079999999999984L546.6666666666666,17.11999999999998L560,18.120000000000005L573.3333333333334,17.160000000000018L586.6666666666666,16.639999999999986L600,16.880000000000006L613.3333333333334,16.84000000000001L626.6666666666666,17.64000000000001L640,17.519999999999982L653.3333333333334,17.28000000000001L666.6666666666667,17.11999999999998L680,17.28000000000001L693.3333333333334,17.519999999999982L706.6666666666666,16.999999999999993L720,17.91999999999998L733.3333333333333,17.519999999999982L746.6666666666666,17.479999999999983L760,17.64000000000001L773.3333333333334,17.43999999999999L786.6666666666666,17.079999999999984L800,17.28000000000001" stroke="#228C22" stroke-width="3.05" opacity="0.05"/></g></g><path class="foreground" aria-hidden="true" d="" display="none"/></g><g transform="translate(0,0)"><path class="background" aria-hidden="true" d="M0,0h800v400h-800Z"/><g><g class="mark-line role-mark layer_1_layer_0_marks" role="graphics-symbol" aria-roledescription="line mark container"><path d="M13.333333333333334,302.76L26.666666666666668,232.64000000000001L40,201.87999999999997L53.333333333333336,133.76000000000002L66.66666666666666,92.32000000000001L80,61.24000000000001L93.33333333333333,49.800000000000026L106.66666666666667,39.99999999999999L120,37.959999999999994L133.33333333333331,33.55999999999999L146.66666666666666,31.36000000000001L160,28.359999999999985L173.33333333333334,25.47999999999999L186.66666666666666,23.839999999999996L200,23.760000000000005L213.33333333333334,22.080000000000013L226.66666666666666,22.00000000000002L240,21.119999999999983L253.33333333333331,20.040000000000013L266.66666666666663,20.120000000000005L280,19.43999999999999L293.3333333333333,18.88000000000001L306.6666666666667,17.799999999999994L320,17.960000000000022L333.33333333333337,18.480000000000008L346.6666666666667,18.159999999999997L360,18.599999999999994L373.3333333333333,17.64000000000001L386.6666666666667,17.680000000000007L400,17.83999999999999L413.33333333333337,17.879999999999985L426.6666666666667,17.200000000000017L440.00000000000006,17.960000000000022L453.3333333333333,18.080000000000005L466.6666666666667,17.200000000000017L480,17.720000000000002L493.33333333333337,17.64000000000001L506.66666666666663,17.24000000000001L520,17.91999999999998L533.3333333333333,17.799999999999994L546.6666666666666,17.759999999999998L560,17.160000000000018L573.3333333333334,16.880000000000006L586.6666666666666,17.24000000000001L600,17.720000000000002L613.3333333333334,17.32L626.6666666666666,17.759999999999998L640,17.960000000000022L653.3333333333334,17.600000000000016L666.6666666666667,18.400000000000016L680,18.000000000000014L693.3333333333334,18.199999999999996L706.6666666666666,17.879999999999985L720,17.600000000000016L733.3333333333333,18.000000000000014L746.6666666666666,17.32L760,17.43999999999999L773.3333333333334,17.479999999999983L786.6666666666666,18.400000000000016L800,18.400000000000016" stroke="#5f249f" stroke-width="3.05" opacity="0.05"/></g></g><path class="foreground" aria-hidden="true" d="" display="none"/></g></g><g class="mark-group role-scope layer_1_layer_1_pathgroup" role="graphics-object" aria-roledescription="group mark container"><g transform="translate(0,0)"><path class="background" aria-hidden="true" d="M0,0h800v400h-800Z"/><g><g class="mark-line role-mark layer_1_layer_1_marks" role="graphics-symbol" aria-roledescription="line mark container"><path d="M13.333333333333334,302.56L26.666666666666668,231L40,202.96000000000004L53.333333333333336,135.67999999999998L66.66666666666666,91.67999999999998L80,61.20000000000001L93.33333333333333,48.8L106.66666666666667,45.88000000000001L120,36.75999999999999L133.33333333333331,33.28000000000002L146.66666666666666,31.36000000000001L160,27.51999999999999L173.33333333333334,25.320000000000007L186.66666666666666,23.4L200,23.919999999999987L213.33333333333334,20.48000000000001L226.66666666666666,21.36L240,20.759999999999977L253.33333333333331,20.08000000000001L266.66666666666663,18.88000000000001L280,19.079999999999984L293.3333333333333,18.80000000000002L306.6666666666667,18.36000000000002L320,18.239999999999988L333.33333333333337,18.599999999999994L346.6666666666667,18.279999999999987L360,17.960000000000022L373.3333333333333,17.56000000000002L386.6666666666667,17.24000000000001L400,17.56000000000002L413.33333333333337,17.11999999999998L426.6666666666667,16.92L440.00000000000006,17.079999999999984L453.3333333333333,16.800000000000015L466.6666666666667,16.520000000000003L480,17.24000000000001L493.33333333333337,17.680000000000007L506.66666666666663,17.36L520,17.32L533.3333333333333,17.079999999999984L546.6666666666666,17.11999999999998L560,18.120000000000005L573.3333333333334,17.160000000000018L586.6666666666666,16.639999999999986L600,16.880000000000006L613.3333333333334,16.84000000000001L626.6666666666666,17.64000000000001L640,17.519999999999982L653.3333333333334,17.28000000000001L666.6666666666667,17.11999999999998L680,17.28000000000001L693.3333333333334,17.519999999999982L706.6666666666666,16.999999999999993L720,17.91999999999998L733.3333333333333,17.519999999999982L746.6666666666666,17.479999999999983L760,17.64000000000001L773.3333333333334,17.43999999999999L786.6666666666666,17.079999999999984L800,17.28000000000001" stroke="#228C22" stroke-width="4.1" opacity="0.05"/></g></g><path class="foreground" aria-hidden="true" d="" display="none"/></g><g transform="translate(0,0)"><path class="background" aria-hidden="true" d="M0,0h800v400h-800Z"/><g><g class="mark-line role-mark layer_1_layer_1_marks" role="graphics-symbol" aria-roledescription="line mark container"><path d="M13.333333333333334,302.76L26.666666666666668,232.64000000000001L40,201.87999999999997L53.333333333333336,133.76000000000002L66.66666666666666,92.32000000000001L80,61.24000000000001L93.33333333333333,49.800000000000026L106.66666666666667,39.99999999999999L120,37.959999999999994L133.33333333333331,33.55999999999999L146.66666666666666,31.36000000000001L160,28.359999999999985L173.33333333333334,25.47999999999999L186.66666666666666,23.839999999999996L200,23.760000000000005L213.33333333333334,22.080000000000013L226.66666666666666,22.00000000000002L240,21.119999999999983L253.33333333333331,20.040000000000013L266.66666666666663,20.120000000000005L280,19.43999999999999L293.3333333333333,18.88000000000001L306.6666666666667,17.799999999999994L320,17.960000000000022L333.33333333333337,18.480000000000008L346.6666666666667,18.159999999999997L360,18.599999999999994L373.3333333333333,17.64000000000001L386.6666666666667,17.680000000000007L400,17.83999999999999L413.33333333333337,17.879999999999985L426.6666666666667,17.200000000000017L440.00000000000006,17.960000000000022L453.3333333333333,18.080000000000005L466.6666666666667,17.200000000000017L480,17.720000000000002L493.33333333333337,17.64000000000001L506.66666666666663,17.24000000000001L520,17.91999999999998L533.3333333333333,17.799999999999994L546.6666666666666,17.759999999999998L560,17.160000000000018L573.3333333333334,16.880000000000006L586.6666666666666,17.24000000000001L600,17.720000000000002L613.3333333333334,17.32L626.6666666666666,17.759999999999998L640,17.960000000000022L653.3333333333334,17.600000000000016L666.6666666666667,18.400000000000016L680,18.000000000000014L693.3333333333334,18.199999999999996L706.6666666666666,17.879999999999985L720,17.600000000000016L733.3333333333333,18.000000000000014L746.6666666666666,17.32L760,17.43999999999999L773.3333333333334,17.479999999999983L786.6666666666666,18.400000000000016L800,18.400000000000016" stroke="#5f249f" stroke-width="4.1" opacity="0.05"/></g></g><path class="foreground" aria-hidden="true" d="" display="none"/></g></g><g class="mark-group role-scope layer_1_layer_2_pathgroup" role="graphics-object" aria-roledescription="group mark container"><g transform="translate(0,0)"><path class="background" aria-hidden="true" d="M0,0h800v400h-800Z"/><g><g class="mark-line role-mark layer_1_layer_2_marks" role="graphics-symbol" aria-roledescription="line mark container"><path d="M13.333333333333334,302.56L26.666666666666668,231L40,202.96000000000004L53.333333333333336,135.67999999999998L66.66666666666666,91.67999999999998L80,61.20000000000001L93.33333333333333,48.8L106.66666666666667,45.88000000000001L120,36.75999999999999L133.33333333333331,33.28000000000002L146.66666666666666,31.36000000000001L160,27.51999999999999L173.33333333333334,25.320000000000007L186.66666666666666,23.4L200,23.919999999999987L213.33333333333334,20.48000000000001L226.66666666666666,21.36L240,20.759999999999977L253.33333333333331,20.08000000000001L266.66666666666663,18.88000000000001L280,19.079999999999984L293.3333333333333,18.80000000000002L306.6666666666667,18.36000000000002L320,18.239999999999988L333.33333333333337,18.599999999999994L346.6666666666667,18.279999999999987L360,17.960000000000022L373.3333333333333,17.56000000000002L386.6666666666667,17.24000000000001L400,17.56000000000002L413.33333333333337,17.11999999999998L426.6666666666667,16.92L440.00000000000006,17.079999999999984L453.3333333333333,16.800000000000015L466.6666666666667,16.520000000000003L480,17.24000000000001L493.33333333333337,17.680000000000007L506.66666666666663,17.36L520,17.32L533.3333333333333,17.079999999999984L546.6666666666666,17.11999999999998L560,18.120000000000005L573.3333333333334,17.160000000000018L586.6666666666666,16.639999999999986L600,16.880000000000006L613.3333333333334,16.84000000000001L626.6666666666666,17.64000000000001L640,17.519999999999982L653.3333333333334,17.28000000000001L666.6666666666667,17.11999999999998L680,17.28000000000001L693.3333333333334,17.519999999999982L706.6666666666666,16.999999999999993L720,17.91999999999998L733.3333333333333,17.519999999999982L746.6666666666666,17.479999999999983L760,17.64000000000001L773.3333333333334,17.43999999999999L786.6666666666666,17.079999999999984L800,17.28000000000001" stroke="#228C22" stroke-width="5.15" opacity="0.05"/></g></g><path class="foreground" aria-hidden="true" d="" display="none"/></g><g transform="translate(0,0)"><path class="background" aria-hidden="true" d="M0,0h800v400h-800Z"/><g><g class="mark-line role-mark layer_1_layer_2_marks" role="graphics-symbol" aria-roledescription="line mark container"><path d="M13.333333333333334,302.76L26.666666666666668,232.64000000000001L40,201.87999999999997L53.333333333333336,133.76000000000002L66.66666666666666,92.32000000000001L80,61.24000000000001L93.33333333333333,49.800000000000026L106.66666666666667,39.99999999999999L120,37.959999999999994L133.33333333333331,33.55999999999999L146.66666666666666,31.36000000000001L160,28.359999999999985L173.33333333333334,25.47999999999999L186.66666666666666,23.839999999999996L200,23.760000000000005L213.33333333333334,22.080000000000013L226.66666666666666,22.00000000000002L240,21.119999999999983L253.33333333333331,20.040000000000013L266.66666666666663,20.120000000000005L280,19.43999999999999L293.3333333333333,18.88000000000001L306.6666666666667,17.799999999999994L320,17.960000000000022L333.33333333333337,18.480000000000008L346.6666666666667,18.159999999999997L360,18.599999999999994L373.3333333333333,17.64000000000001L386.6666666666667,17.680000000000007L400,17.83999999999999L413.33333333333337,17.879999999999985L426.6666666666667,17.200000000000017L440.00000000000006,17.960000000000022L453.3333333333333,18.080000000000005L466.6666666666667,17.200000000000017L480,17.720000000000002L493.33333333333337,17.64000000000001L506.66666666666663,17.24000000000001L520,17.91999999999998L533.3333333333333,17.799999999999994L546.6666666666666,17.759999999999998L560,17.160000000000018L573.3333333333334,16.880000000000006L586.6666666666666,17.24000000000001L600,17.720000000000002L613.3333333333334,17.32L626.6666666666666,17.759999999999998L640,17.960000000000022L653.3333333333334,17.600000000000016L666.6666666666667,18.400000000000016L680,18.000000000000014L693.3333333333334,18.199999999999996L706.6666666666666,17.879999999999985L720,17.600000000000016L733.3333333333333,18.000000000000014L746.6666666666666,17.32L760,17.43999999999999L773.3333333333334,17.479999999999983L786.6666666666666,18.400000000000016L800,18.400000000000016" stroke="#5f249f" stroke-width="5.15" opacity="0.05"/></g></g><path class="foreground" aria-hidden="true" d="" display="none"/></g></g><g class="mark-group role-scope layer_1_layer_3_pathgroup" role="graphics-object" aria-roledescription="group mark container"><g transform="translate(0,0)"><path class="background" aria-hidden="true" d="M0,0h800v400h-800Z"/><g><g class="mark-line role-mark layer_1_layer_3_marks" role="graphics-symbol" aria-roledescription="line mark container"><path d="M13.333333333333334,302.56L26.666666666666668,231L40,202.96000000000004L53.333333333333336,135.67999999999998L66.66666666666666,91.67999999999998L80,61.20000000000001L93.33333333333333,48.8L106.66666666666667,45.88000000000001L120,36.75999999999999L133.33333333333331,33.28000000000002L146.66666666666666,31.36000000000001L160,27.51999999999999L173.33333333333334,25.320000000000007L186.66666666666666,23.4L200,23.919999999999987L213.33333333333334,20.48000000000001L226.66666666666666,21.36L240,20.759999999999977L253.33333333333331,20.08000000000001L266.66666666666663,18.88000000000001L280,19.079999999999984L293.3333333333333,18.80000000000002L306.6666666666667,18.36000000000002L320,18.239999999999988L333.33333333333337,18.599999999999994L346.6666666666667,18.279999999999987L360,17.960000000000022L373.3333333333333,17.56000000000002L386.6666666666667,17.24000000000001L400,17.56000000000002L413.33333333333337,17.11999999999998L426.6666666666667,16.92L440.00000000000006,17.079999999999984L453.3333333333333,16.800000000000015L466.6666666666667,16.520000000000003L480,17.24000000000001L493.33333333333337,17.680000000000007L506.66666666666663,17.36L520,17.32L533.3333333333333,17.079999999999984L546.6666666666666,17.11999999999998L560,18.120000000000005L573.3333333333334,17.160000000000018L586.6666666666666,16.639999999999986L600,16.880000000000006L613.3333333333334,16.84000000000001L626.6666666666666,17.64000000000001L640,17.519999999999982L653.3333333333334,17.28000000000001L666.6666666666667,17.11999999999998L680,17.28000000000001L693.3333333333334,17.519999999999982L706.6666666666666,16.999999999999993L720,17.91999999999998L733.3333333333333,17.519999999999982L746.6666666666666,17.479999999999983L760,17.64000000000001L773.3333333333334,17.43999999999999L786.6666666666666,17.079999999999984L800,17.28000000000001" stroke="#228C22" stroke-width="6.2" opacity="0.05"/></g></g><path class="foreground" aria-hidden="true" d="" display="none"/></g><g transform="translate(0,0)"><path class="background" aria-hidden="true" d="M0,0h800v400h-800Z"/><g><g class="mark-line role-mark layer_1_layer_3_marks" role="graphics-symbol" aria-roledescription="line mark container"><path d="M13.333333333333334,302.76L26.666666666666668,232.64000000000001L40,201.87999999999997L53.333333333333336,133.76000000000002L66.66666666666666,92.32000000000001L80,61.24000000000001L93.33333333333333,49.800000000000026L106.66666666666667,39.99999999999999L120,37.959999999999994L133.33333333333331,33.55999999999999L146.66666666666666,31.36000000000001L160,28.359999999999985L173.33333333333334,25.47999999999999L186.66666666666666,23.839999999999996L200,23.760000000000005L213.33333333333334,22.080000000000013L226.66666666666666,22.00000000000002L240,21.119999999999983L253.33333333333331,20.040000000000013L266.66666666666663,20.120000000000005L280,19.43999999999999L293.3333333333333,18.88000000000001L306.6666666666667,17.799999999999994L320,17.960000000000022L333.33333333333337,18.480000000000008L346.6666666666667,18.159999999999997L360,18.599999999999994L373.3333333333333,17.64000000000001L386.6666666666667,17.680000000000007L400,17.83999999999999L413.33333333333337,17.879999999999985L426.6666666666667,17.200000000000017L440.00000000000006,17.960000000000022L453.3333333333333,18.080000000000005L466.6666666666667,17.200000000000017L480,17.720000000000002L493.33333333333337,17.64000000000001L506.66666666666663,17.24000000000001L520,17.91999999999998L533.3333333333333,17.799999999999994L546.6666666666666,17.759999999999998L560,17.160000000000018L573.3333333333334,16.880000000000006L586.6666666666666,17.24000000000001L600,17.720000000000002L613.3333333333334,17.32L626.6666666666666,17.759999999999998L640,17.960000000000022L653.3333333333334,17.600000000000016L666.6666666666667,18.400000000000016L680,18.000000000000014L693.3333333333334,18.199999999999996L706.6666666666666,17.879999999999985L720,17.600000000000016L733.3333333333333,18.000000000000014L746.6666666666666,17.32L760,17.43999999999999L773.3333333333334,17.479999999999983L786.6666666666666,18.400000000000016L800,18.400000000000016" stroke="#5f249f" stroke-width="6.2" opacity="0.05"/></g></g><path class="foreground" aria-hidden="true" d="" display="none"/></g></g><g class="mark-group role-scope layer_1_layer_4_pathgroup" role="graphics-object" aria-roledescription="group mark container"><g transform="translate(0,0)"><path class="background" aria-hidden="true" d="M0,0h800v400h-800Z"/><g><g class="mark-line role-mark layer_1_layer_4_marks" role="graphics-symbol" aria-roledescription="line mark container"><path d="M13.333333333333334,302.56L26.666666666666668,231L40,202.96000000000004L53.333333333333336,135.67999999999998L66.66666666666666,91.67999999999998L80,61.20000000000001L93.33333333333333,48.8L106.66666666666667,45.88000000000001L120,36.75999999999999L133.33333333333331,33.28000000000002L146.66666666666666,31.36000000000001L160,27.51999999999999L173.33333333333334,25.320000000000007L186.66666666666666,23.4L200,23.919999999999987L213.33333333333334,20.48000000000001L226.66666666666666,21.36L240,20.759999999999977L253.33333333333331,20.08000000000001L266.66666666666663,18.88000000000001L280,19.079999999999984L293.3333333333333,18.80000000000002L306.6666666666667,18.36000000000002L320,18.239999999999988L333.33333333333337,18.599999999999994L346.6666666666667,18.279999999999987L360,17.960000000000022L373.3333333333333,17.56000000000002L386.6666666666667,17.24000000000001L400,17.56000000000002L413.33333333333337,17.11999999999998L426.6666666666667,16.92L440.00000000000006,17.079999999999984L453.3333333333333,16.800000000000015L466.6666666666667,16.520000000000003L480,17.24000000000001L493.33333333333337,17.680000000000007L506.66666666666663,17.36L520,17.32L533.3333333333333,17.079999999999984L546.6666666666666,17.11999999999998L560,18.120000000000005L573.3333333333334,17.160000000000018L586.6666666666666,16.639999999999986L600,16.880000000000006L613.3333333333334,16.84000000000001L626.6666666666666,17.64000000000001L640,17.519999999999982L653.3333333333334,17.28000000000001L666.6666666666667,17.11999999999998L680,17.28000000000001L693.3333333333334,17.519999999999982L706.6666666666666,16.999999999999993L720,17.91999999999998L733.3333333333333,17.519999999999982L746.6666666666666,17.479999999999983L760,17.64000000000001L773.3333333333334,17.43999999999999L786.6666666666666,17.079999999999984L800,17.28000000000001" stroke="#228C22" stroke-width="7.25" opacity="0.05"/></g></g><path class="foreground" aria-hidden="true" d="" display="none"/></g><g transform="translate(0,0)"><path class="background" aria-hidden="true" d="M0,0h800v400h-800Z"/><g><g class="mark-line role-mark layer_1_layer_4_marks" role="graphics-symbol" aria-roledescription="line mark container"><path d="M13.333333333333334,302.76L26.666666666666668,232.64000000000001L40,201.87999999999997L53.333333333333336,133.76000000000002L66.66666666666666,92.32000000000001L80,61.24000000000001L93.33333333333333,49.800000000000026L106.66666666666667,39.99999999999999L120,37.959999999999994L133.33333333333331,33.55999999999999L146.66666666666666,31.36000000000001L160,28.359999999999985L173.33333333333334,25.47999999999999L186.66666666666666,23.839999999999996L200,23.760000000000005L213.33333333333334,22.080000000000013L226.66666666666666,22.00000000000002L240,21.119999999999983L253.33333333333331,20.040000000000013L266.66666666666663,20.120000000000005L280,19.43999999999999L293.3333333333333,18.88000000000001L306.6666666666667,17.799999999999994L320,17.960000000000022L333.33333333333337,18.480000000000008L346.6666666666667,18.159999999999997L360,18.599999999999994L373.3333333333333,17.64000000000001L386.6666666666667,17.680000000000007L400,17.83999999999999L413.33333333333337,17.879999999999985L426.6666666666667,17.200000000000017L440.00000000000006,17.960000000000022L453.3333333333333,18.080000000000005L466.6666666666667,17.200000000000017L480,17.720000000000002L493.33333333333337,17.64000000000001L506.66666666666663,17.24000000000001L520,17.91999999999998L533.3333333333333,17.799999999999994L546.6666666666666,17.759999999999998L560,17.160000000000018L573.3333333333334,16.880000000000006L586.6666666666666,17.24000000000001L600,17.720000000000002L613.3333333333334,17.32L626.6666666666666,17.759999999999998L640,17.960000000000022L653.3333333333334,17.600000000000016L666.6666666666667,18.400000000000016L680,18.000000000000014L693.3333333333334,18.199999999999996L706.6666666666666,17.879999999999985L720,17.600000000000016L733.3333333333333,18.000000000000014L746.6666666666666,17.32L760,17.43999999999999L773.3333333333334,17.479999999999983L786.6666666666666,18.400000000000016L800,18.400000000000016" stroke="#5f249f" stroke-width="7.25" opacity="0.05"/></g></g><path class="foreground" aria-hidden="true" d="" display="none"/></g></g><g class="mark-group role-scope layer_1_layer_5_pathgroup" role="graphics-object" aria-roledescription="group mark container"><g transform="translate(0,0)"><path class="background" aria-hidden="true" d="M0,0h800v400h-800Z"/><g><g class="mark-line role-mark layer_1_layer_5_marks" role="graphics-symbol" aria-roledescription="line mark container"><path d="M13.333333333333334,302.56L26.666666666666668,231L40,202.96000000000004L53.333333333333336,135.67999999999998L66.66666666666666,91.67999999999998L80,61.20000000000001L93.33333333333333,48.8L106.66666666666667,45.88000000000001L120,36.75999999999999L133.33333333333331,33.28000000000002L146.66666666666666,31.36000000000001L160,27.51999999999999L173.33333333333334,25.320000000000007L186.66666666666666,23.4L200,23.919999999999987L213.33333333333334,20.48000000000001L226.66666666666666,21.36L240,20.759999999999977L253.33333333333331,20.08000000000001L266.66666666666663,18.88000000000001L280,19.079999999999984L293.3333333333333,18.80000000000002L306.6666666666667,18.36000000000002L320,18.239999999999988L333.33333333333337,18.599999999999994L346.6666666666667,18.279999999999987L360,17.960000000000022L373.3333333333333,17.56000000000002L386.6666666666667,17.24000000000001L400,17.56000000000002L413.33333333333337,17.11999999999998L426.6666666666667,16.92L440.00000000000006,17.079999999999984L453.3333333333333,16.800000000000015L466.6666666666667,16.520000000000003L480,17.24000000000001L493.33333333333337,17.680000000000007L506.66666666666663,17.36L520,17.32L533.3333333333333,17.079999999999984L546.6666666666666,17.11999999999998L560,18.120000000000005L573.3333333333334,17.160000000000018L586.6666666666666,16.639999999999986L600,16.880000000000006L613.3333333333334,16.84000000000001L626.6666666666666,17.64000000000001L640,17.519999999999982L653.3333333333334,17.28000000000001L666.6666666666667,17.11999999999998L680,17.28000000000001L693.3333333333334,17.519999999999982L706.6666666666666,16.999999999999993L720,17.91999999999998L733.3333333333333,17.519999999999982L746.6666666666666,17.479999999999983L760,17.64000000000001L773.3333333333334,17.43999999999999L786.6666666666666,17.079999999999984L800,17.28000000000001" stroke="#228C22" stroke-width="8.3" opacity="0.05"/></g></g><path class="foreground" aria-hidden="true" d="" display="none"/></g><g transform="translate(0,0)"><path class="background" aria-hidden="true" d="M0,0h800v400h-800Z"/><g><g class="mark-line role-mark layer_1_layer_5_marks" role="graphics-symbol" aria-roledescription="line mark container"><path d="M13.333333333333334,302.76L26.666666666666668,232.64000000000001L40,201.87999999999997L53.333333333333336,133.76000000000002L66.66666666666666,92.32000000000001L80,61.24000000000001L93.33333333333333,49.800000000000026L106.66666666666667,39.99999999999999L120,37.959999999999994L133.33333333333331,33.55999999999999L146.66666666666666,31.36000000000001L160,28.359999999999985L173.33333333333334,25.47999999999999L186.66666666666666,23.839999999999996L200,23.760000000000005L213.33333333333334,22.080000000000013L226.66666666666666,22.00000000000002L240,21.119999999999983L253.33333333333331,20.040000000000013L266.66666666666663,20.120000000000005L280,19.43999999999999L293.3333333333333,18.88000000000001L306.6666666666667,17.799999999999994L320,17.960000000000022L333.33333333333337,18.480000000000008L346.6666666666667,18.159999999999997L360,18.599999999999994L373.3333333333333,17.64000000000001L386.6666666666667,17.680000000000007L400,17.83999999999999L413.33333333333337,17.879999999999985L426.6666666666667,17.200000000000017L440.00000000000006,17.960000000000022L453.3333333333333,18.080000000000005L466.6666666666667,17.200000000000017L480,17.720000000000002L493.33333333333337,17.64000000000001L506.66666666666663,17.24000000000001L520,17.91999999999998L533.3333333333333,17.799999999999994L546.6666666666666,17.759999999999998L560,17.160000000000018L573.3333333333334,16.880000000000006L586.6666666666666,17.24000000000001L600,17.720000000000002L613.3333333333334,17.32L626.6666666666666,17.759999999999998L640,17.960000000000022L653.3333333333334,17.600000000000016L666.6666666666667,18.400000000000016L680,18.000000000000014L693.3333333333334,18.199999999999996L706.6666666666666,17.879999999999985L720,17.600000000000016L733.3333333333333,18.000000000000014L746.6666666666666,17.32L760,17.43999999999999L773.3333333333334,17.479999999999983L786.6666666666666,18.400000000000016L800,18.400000000000016" stroke="#5f249f" stroke-width="8.3" opacity="0.05"/></g></g><path class="foreground" aria-hidden="true" d="" display="none"/></g></g><g class="mark-group role-scope layer_1_layer_6_pathgroup" role="graphics-object" aria-roledescription="group mark container"><g transform="translate(0,0)"><path class="background" aria-hidden="true" d="M0,0h800v400h-800Z"/><g><g class="mark-line role-mark layer_1_layer_6_marks" role="graphics-symbol" aria-roledescription="line mark container"><path d="M13.333333333333334,302.56L26.666666666666668,231L40,202.96000000000004L53.333333333333336,135.67999999999998L66.66666666666666,91.67999999999998L80,61.20000000000001L93.33333333333333,48.8L106.66666666666667,45.88000000000001L120,36.75999999999999L133.33333333333331,33.28000000000002L146.66666666666666,31.36000000000001L160,27.51999999999999L173.33333333333334,25.320000000000007L186.66666666666666,23.4L200,23.919999999999987L213.33333333333334,20.48000000000001L226.66666666666666,21.36L240,20.759999999999977L253.33333333333331,20.08000000000001L266.66666666666663,18.88000000000001L280,19.079999999999984L293.3333333333333,18.80000000000002L306.6666666666667,18.36000000000002L320,18.239999999999988L333.33333333333337,18.599999999999994L346.6666666666667,18.279999999999987L360,17.960000000000022L373.3333333333333,17.56000000000002L386.6666666666667,17.24000000000001L400,17.56000000000002L413.33333333333337,17.11999999999998L426.6666666666667,16.92L440.00000000000006,17.079999999999984L453.3333333333333,16.800000000000015L466.6666666666667,16.520000000000003L480,17.24000000000001L493.33333333333337,17.680000000000007L506.66666666666663,17.36L520,17.32L533.3333333333333,17.079999999999984L546.6666666666666,17.11999999999998L560,18.120000000000005L573.3333333333334,17.160000000000018L586.6666666666666,16.639999999999986L600,16.880000000000006L613.3333333333334,16.84000000000001L626.6666666666666,17.64000000000001L640,17.519999999999982L653.3333333333334,17.28000000000001L666.6666666666667,17.11999999999998L680,17.28000000000001L693.3333333333334,17.519999999999982L706.6666666666666,16.999999999999993L720,17.91999999999998L733.3333333333333,17.519999999999982L746.6666666666666,17.479999999999983L760,17.64000000000001L773.3333333333334,17.43999999999999L786.6666666666666,17.079999999999984L800,17.28000000000001" stroke="#228C22" stroke-width="9.350000000000001" opacity="0.05"/></g></g><path class="foreground" aria-hidden="true" d="" display="none"/></g><g transform="translate(0,0)"><path class="background" aria-hidden="true" d="M0,0h800v400h-800Z"/><g><g class="mark-line role-mark layer_1_layer_6_marks" role="graphics-symbol" aria-roledescription="line mark container"><path d="M13.333333333333334,302.76L26.666666666666668,232.64000000000001L40,201.87999999999997L53.333333333333336,133.76000000000002L66.66666666666666,92.32000000000001L80,61.24000000000001L93.33333333333333,49.800000000000026L106.66666666666667,39.99999999999999L120,37.959999999999994L133.33333333333331,33.55999999999999L146.66666666666666,31.36000000000001L160,28.359999999999985L173.33333333333334,25.47999999999999L186.66666666666666,23.839999999999996L200,23.760000000000005L213.33333333333334,22.080000000000013L226.66666666666666,22.00000000000002L240,21.119999999999983L253.33333333333331,20.040000000000013L266.66666666666663,20.120000000000005L280,19.43999999999999L293.3333333333333,18.88000000000001L306.6666666666667,17.799999999999994L320,17.960000000000022L333.33333333333337,18.480000000000008L346.6666666666667,18.159999999999997L360,18.599999999999994L373.3333333333333,17.64000000000001L386.6666666666667,17.680000000000007L400,17.83999999999999L413.33333333333337,17.879999999999985L426.6666666666667,17.200000000000017L440.00000000000006,17.960000000000022L453.3333333333333,18.080000000000005L466.6666666666667,17.200000000000017L480,17.720000000000002L493.33333333333337,17.64000000000001L506.66666666666663,17.24000000000001L520,17.91999999999998L533.3333333333333,17.799999999999994L546.6666666666666,17.759999999999998L560,17.160000000000018L573.3333333333334,16.880000000000006L586.6666666666666,17.24000000000001L600,17.720000000000002L613.3333333333334,17.32L626.6666666666666,17.759999999999998L640,17.960000000000022L653.3333333333334,17.600000000000016L666.6666666666667,18.400000000000016L680,18.000000000000014L693.3333333333334,18.199999999999996L706.6666666666666,17.879999999999985L720,17.600000000000016L733.3333333333333,18.000000000000014L746.6666666666666,17.32L760,17.43999999999999L773.3333333333334,17.479999999999983L786.6666666666666,18.400000000000016L800,18.400000000000016" stroke="#5f249f" stroke-width="9.350000000000001" opacity="0.05"/></g></g><path class="foreground" aria-hidden="true" d="" display="none"/></g></g><g class="mark-group role-scope layer_1_layer_7_pathgroup" role="graphics-object" aria-roledescription="group mark container"><g transform="translate(0,0)"><path class="background" aria-hidden="true" d="M0,0h800v400h-800Z"/><g><g class="mark-line role-mark layer_1_layer_7_marks" role="graphics-symbol" aria-roledescription="line mark container"><path d="M13.333333333333334,302.56L26.666666666666668,231L40,202.96000000000004L53.333333333333336,135.67999999999998L66.66666666666666,91.67999999999998L80,61.20000000000001L93.33333333333333,48.8L106.66666666666667,45.88000000000001L120,36.75999999999999L133.33333333333331,33.28000000000002L146.66666666666666,31.36000000000001L160,27.51999999999999L173.33333333333334,25.320000000000007L186.66666666666666,23.4L200,23.919999999999987L213.33333333333334,20.48000000000001L226.66666666666666,21.36L240,20.759999999999977L253.33333333333331,20.08000000000001L266.66666666666663,18.88000000000001L280,19.079999999999984L293.3333333333333,18.80000000000002L306.6666666666667,18.36000000000002L320,18.239999999999988L333.33333333333337,18.599999999999994L346.6666666666667,18.279999999999987L360,17.960000000000022L373.3333333333333,17.56000000000002L386.6666666666667,17.24000000000001L400,17.56000000000002L413.33333333333337,17.11999999999998L426.6666666666667,16.92L440.00000000000006,17.079999999999984L453.3333333333333,16.800000000000015L466.6666666666667,16.520000000000003L480,17.24000000000001L493.33333333333337,17.680000000000007L506.66666666666663,17.36L520,17.32L533.3333333333333,17.079999999999984L546.6666666666666,17.11999999999998L560,18.120000000000005L573.3333333333334,17.160000000000018L586.6666666666666,16.639999999999986L600,16.880000000000006L613.3333333333334,16.84000000000001L626.6666666666666,17.64000000000001L640,17.519999999999982L653.3333333333334,17.28000000000001L666.6666666666667,17.11999999999998L680,17.28000000000001L693.3333333333334,17.519999999999982L706.6666666666666,16.999999999999993L720,17.91999999999998L733.3333333333333,17.519999999999982L746.6666666666666,17.479999999999983L760,17.64000000000001L773.3333333333334,17.43999999999999L786.6666666666666,17.079999999999984L800,17.28000000000001" stroke="#228C22" stroke-width="10.4" opacity="0.05"/></g></g><path class="foreground" aria-hidden="true" d="" display="none"/></g><g transform="translate(0,0)"><path class="background" aria-hidden="true" d="M0,0h800v400h-800Z"/><g><g class="mark-line role-mark layer_1_layer_7_marks" role="graphics-symbol" aria-roledescription="line mark container"><path d="M13.333333333333334,302.76L26.666666666666668,232.64000000000001L40,201.87999999999997L53.333333333333336,133.76000000000002L66.66666666666666,92.32000000000001L80,61.24000000000001L93.33333333333333,49.800000000000026L106.66666666666667,39.99999999999999L120,37.959999999999994L133.33333333333331,33.55999999999999L146.66666666666666,31.36000000000001L160,28.359999999999985L173.33333333333334,25.47999999999999L186.66666666666666,23.839999999999996L200,23.760000000000005L213.33333333333334,22.080000000000013L226.66666666666666,22.00000000000002L240,21.119999999999983L253.33333333333331,20.040000000000013L266.66666666666663,20.120000000000005L280,19.43999999999999L293.3333333333333,18.88000000000001L306.6666666666667,17.799999999999994L320,17.960000000000022L333.33333333333337,18.480000000000008L346.6666666666667,18.159999999999997L360,18.599999999999994L373.3333333333333,17.64000000000001L386.6666666666667,17.680000000000007L400,17.83999999999999L413.33333333333337,17.879999999999985L426.6666666666667,17.200000000000017L440.00000000000006,17.960000000000022L453.3333333333333,18.080000000000005L466.6666666666667,17.200000000000017L480,17.720000000000002L493.33333333333337,17.64000000000001L506.66666666666663,17.24000000000001L520,17.91999999999998L533.3333333333333,17.799999999999994L546.6666666666666,17.759999999999998L560,17.160000000000018L573.3333333333334,16.880000000000006L586.6666666666666,17.24000000000001L600,17.720000000000002L613.3333333333334,17.32L626.6666666666666,17.759999999999998L640,17.960000000000022L653.3333333333334,17.600000000000016L666.6666666666667,18.400000000000016L680,18.000000000000014L693.3333333333334,18.199999999999996L706.6666666666666,17.879999999999985L720,17.600000000000016L733.3333333333333,18.000000000000014L746.6666666666666,17.32L760,17.43999999999999L773.3333333333334,17.479999999999983L786.6666666666666,18.400000000000016L800,18.400000000000016" stroke="#5f249f" stroke-width="10.4" opacity="0.05"/></g></g><path class="foreground" aria-hidden="true" d="" display="none"/></g></g><g class="mark-group role-scope layer_1_layer_8_pathgroup" role="graphics-object" aria-roledescription="group mark container"><g transform="translate(0,0)"><path class="background" aria-hidden="true" d="M0,0h800v400h-800Z"/><g><g class="mark-line role-mark layer_1_layer_8_marks" role="graphics-symbol" aria-roledescription="line mark container"><path d="M13.333333333333334,302.56L26.666666666666668,231L40,202.96000000000004L53.333333333333336,135.67999999999998L66.66666666666666,91.67999999999998L80,61.20000000000001L93.33333333333333,48.8L106.66666666666667,45.88000000000001L120,36.75999999999999L133.33333333333331,33.28000000000002L146.66666666666666,31.36000000000001L160,27.51999999999999L173.33333333333334,25.320000000000007L186.66666666666666,23.4L200,23.919999999999987L213.33333333333334,20.48000000000001L226.66666666666666,21.36L240,20.759999999999977L253.33333333333331,20.08000000000001L266.66666666666663,18.88000000000001L280,19.079999999999984L293.3333333333333,18.80000000000002L306.6666666666667,18.36000000000002L320,18.239999999999988L333.33333333333337,18.599999999999994L346.6666666666667,18.279999999999987L360,17.960000000000022L373.3333333333333,17.56000000000002L386.6666666666667,17.24000000000001L400,17.56000000000002L413.33333333333337,17.11999999999998L426.6666666666667,16.92L440.00000000000006,17.079999999999984L453.3333333333333,16.800000000000015L466.6666666666667,16.520000000000003L480,17.24000000000001L493.33333333333337,17.680000000000007L506.66666666666663,17.36L520,17.32L533.3333333333333,17.079999999999984L546.6666666666666,17.11999999999998L560,18.120000000000005L573.3333333333334,17.160000000000018L586.6666666666666,16.639999999999986L600,16.880000000000006L613.3333333333334,16.84000000000001L626.6666666666666,17.64000000000001L640,17.519999999999982L653.3333333333334,17.28000000000001L666.6666666666667,17.11999999999998L680,17.28000000000001L693.3333333333334,17.519999999999982L706.6666666666666,16.999999999999993L720,17.91999999999998L733.3333333333333,17.519999999999982L746.6666666666666,17.479999999999983L760,17.64000000000001L773.3333333333334,17.43999999999999L786.6666666666666,17.079999999999984L800,17.28000000000001" stroke="#228C22" stroke-width="11.450000000000001" opacity="0.05"/></g></g><path class="foreground" aria-hidden="true" d="" display="none"/></g><g transform="translate(0,0)"><path class="background" aria-hidden="true" d="M0,0h800v400h-800Z"/><g><g class="mark-line role-mark layer_1_layer_8_marks" role="graphics-symbol" aria-roledescription="line mark container"><path d="M13.333333333333334,302.76L26.666666666666668,232.64000000000001L40,201.87999999999997L53.333333333333336,133.76000000000002L66.66666666666666,92.32000000000001L80,61.24000000000001L93.33333333333333,49.800000000000026L106.66666666666667,39.99999999999999L120,37.959999999999994L133.33333333333331,33.55999999999999L146.66666666666666,31.36000000000001L160,28.359999999999985L173.33333333333334,25.47999999999999L186.66666666666666,23.839999999999996L200,23.760000000000005L213.33333333333334,22.080000000000013L226.66666666666666,22.00000000000002L240,21.119999999999983L253.33333333333331,20.040000000000013L266.66666666666663,20.120000000000005L280,19.43999999999999L293.3333333333333,18.88000000000001L306.6666666666667,17.799999999999994L320,17.960000000000022L333.33333333333337,18.480000000000008L346.6666666666667,18.159999999999997L360,18.599999999999994L373.3333333333333,17.64000000000001L386.6666666666667,17.680000000000007L400,17.83999999999999L413.33333333333337,17.879999999999985L426.6666666666667,17.200000000000017L440.00000000000006,17.960000000000022L453.3333333333333,18.080000000000005L466.6666666666667,17.200000000000017L480,17.720000000000002L493.33333333333337,17.64000000000001L506.66666666666663,17.24000000000001L520,17.91999999999998L533.3333333333333,17.799999999999994L546.6666666666666,17.759999999999998L560,17.160000000000018L573.3333333333334,16.880000000000006L586.6666666666666,17.24000000000001L600,17.720000000000002L613.3333333333334,17.32L626.6666666666666,17.759999999999998L640,17.960000000000022L653.3333333333334,17.600000000000016L666.6666666666667,18.400000000000016L680,18.000000000000014L693.3333333333334,18.199999999999996L706.6666666666666,17.879999999999985L720,17.600000000000016L733.3333333333333,18.000000000000014L746.6666666666666,17.32L760,17.43999999999999L773.3333333333334,17.479999999999983L786.6666666666666,18.400000000000016L800,18.400000000000016" stroke="#5f249f" stroke-width="11.450000000000001" opacity="0.05"/></g></g><path class="foreground" aria-hidden="true" d="" display="none"/></g></g><g class="mark-group role-scope layer_1_layer_9_pathgroup" role="graphics-object" aria-roledescription="group mark container"><g transform="translate(0,0)"><path class="background" aria-hidden="true" d="M0,0h800v400h-800Z"/><g><g class="mark-line role-mark layer_1_layer_9_marks" role="graphics-symbol" aria-roledescription="line mark container"><path d="M13.333333333333334,302.56L26.666666666666668,231L40,202.96000000000004L53.333333333333336,135.67999999999998L66.66666666666666,91.67999999999998L80,61.20000000000001L93.33333333333333,48.8L106.66666666666667,45.88000000000001L120,36.75999999999999L133.33333333333331,33.28000000000002L146.66666666666666,31.36000000000001L160,27.51999999999999L173.33333333333334,25.320000000000007L186.66666666666666,23.4L200,23.919999999999987L213.33333333333334,20.48000000000001L226.66666666666666,21.36L240,20.759999999999977L253.33333333333331,20.08000000000001L266.66666666666663,18.88000000000001L280,19.079999999999984L293.3333333333333,18.80000000000002L306.6666666666667,18.36000000000002L320,18.239999999999988L333.33333333333337,18.599999999999994L346.6666666666667,18.279999999999987L360,17.960000000000022L373.3333333333333,17.56000000000002L386.6666666666667,17.24000000000001L400,17.56000000000002L413.33333333333337,17.11999999999998L426.6666666666667,16.92L440.00000000000006,17.079999999999984L453.3333333333333,16.800000000000015L466.6666666666667,16.520000000000003L480,17.24000000000001L493.33333333333337,17.680000000000007L506.66666666666663,17.36L520,17.32L533.3333333333333,17.079999999999984L546.6666666666666,17.11999999999998L560,18.120000000000005L573.3333333333334,17.160000000000018L586.6666666666666,16.639999999999986L600,16.880000000000006L613.3333333333334,16.84000000000001L626.6666666666666,17.64000000000001L640,17.519999999999982L653.3333333333334,17.28000000000001L666.6666666666667,17.11999999999998L680,17.28000000000001L693.3333333333334,17.519999999999982L706.6666666666666,16.999999999999993L720,17.91999999999998L733.3333333333333,17.519999999999982L746.6666666666666,17.479999999999983L760,17.64000000000001L773.3333333333334,17.43999999999999L786.6666666666666,17.079999999999984L800,17.28000000000001" stroke="#228C22" stroke-width="12.5" opacity="0.05"/></g></g><path class="foreground" aria-hidden="true" d="" display="none"/></g><g transform="translate(0,0)"><path class="background" aria-hidden="true" d="M0,0h800v400h-800Z"/><g><g class="mark-line role-mark layer_1_layer_9_marks" role="graphics-symbol" aria-roledescription="line mark container"><path d="M13.333333333333334,302.76L26.666666666666668,232.64000000000001L40,201.87999999999997L53.333333333333336,133.76000000000002L66.66666666666666,92.32000000000001L80,61.24000000000001L93.33333333333333,49.800000000000026L106.66666666666667,39.99999999999999L120,37.959999999999994L133.33333333333331,33.55999999999999L146.66666666666666,31.36000000000001L160,28.359999999999985L173.33333333333334,25.47999999999999L186.66666666666666,23.839999999999996L200,23.760000000000005L213.33333333333334,22.080000000000013L226.66666666666666,22.00000000000002L240,21.119999999999983L253.33333333333331,20.040000000000013L266.66666666666663,20.120000000000005L280,19.43999999999999L293.3333333333333,18.88000000000001L306.6666666666667,17.799999999999994L320,17.960000000000022L333.33333333333337,18.480000000000008L346.6666666666667,18.159999999999997L360,18.599999999999994L373.3333333333333,17.64000000000001L386.6666666666667,17.680000000000007L400,17.83999999999999L413.33333333333337,17.879999999999985L426.6666666666667,17.200000000000017L440.00000000000006,17.960000000000022L453.3333333333333,18.080000000000005L466.6666666666667,17.200000000000017L480,17.720000000000002L493.33333333333337,17.64000000000001L506.66666666666663,17.24000000000001L520,17.91999999999998L533.3333333333333,17.799999999999994L546.6666666666666,17.759999999999998L560,17.160000000000018L573.3333333333334,16.880000000000006L586.6666666666666,17.24000000000001L600,17.720000000000002L613.3333333333334,17.32L626.6666666666666,17.759999999999998L640,17.960000000000022L653.3333333333334,17.600000000000016L666.6666666666667,18.400000000000016L680,18.000000000000014L693.3333333333334,18.199999999999996L706.6666666666666,17.879999999999985L720,17.600000000000016L733.3333333333333,18.000000000000014L746.6666666666666,17.32L760,17.43999999999999L773.3333333333334,17.479999999999983L786.6666666666666,18.400000000000016L800,18.400000000000016" stroke="#5f249f" stroke-width="12.5" opacity="0.05"/></g></g><path class="foreground" aria-hidden="true" d="" display="none"/></g></g><g class="mark-group role-legend" role="graphics-symbol" aria-roledescription="legend" aria-label="Symbol legend titled 'PCAs' for fill color and stroke color with 2 values: from scratch, scikit-learn"><g transform="translate(831,0)"><path class="background" aria-hidden="true" d="M0,0h72v45h-72Z" pointer-events="none"/><g><g class="mark-group role-legend-entry"><g transform="translate(0,16)"><path class="background" aria-hidden="true" d="M0,0h0v0h0Z" pointer-events="none"/><g><g class="mark-group role-scope" role="graphics-object" aria-roledescription="group mark container"><g transform="translate(0,0)"><path class="background" aria-hidden="true" d="M0,0h71.009765625v12.5h-71.009765625Z" pointer-events="none" opacity="1"/><g><g class="mark-symbol role-legend-symbol" pointer-events="none"><path transform="translate(6,6)" d="M5,0A5,5,0,1,1,-5,0A5,5,0,1,1,5,0" fill="#228C22" fill-opacity="0.4" stroke="#228C22" stroke-width="1.5" opacity="0.7"/></g><g class="mark-text role-legend-label" pointer-events="none"><text text-anchor="start" transform="translate(16,9)" font-family="sans-serif" font-size="10px" fill="#444444" opacity="1">from scratch</text></g></g><path class="foreground" aria-hidden="true" d="" pointer-events="none" display="none"/></g><g transform="translate(0,16)"><path class="background" aria-hidden="true" d="M0,0h71.009765625v12.5h-71.009765625Z" pointer-events="none" opacity="1"/><g><g class="mark-symbol role-legend-symbol" pointer-events="none"><path transform="translate(6,6)" d="M5,0A5,5,0,1,1,-5,0A5,5,0,1,1,5,0" fill="#5f249f" fill-opacity="0.4" stroke="#5f249f" stroke-width="1.5" opacity="0.7"/></g><g class="mark-text role-legend-label" pointer-events="none"><text text-anchor="start" transform="translate(16,9)" font-family="sans-serif" font-size="10px" fill="#444444" opacity="1">scikit-learn</text></g></g><path class="foreground" aria-hidden="true" d="" pointer-events="none" display="none"/></g></g></g><path class="foreground" aria-hidden="true" d="" pointer-events="none" display="none"/></g></g><g class="mark-text role-legend-title" pointer-events="none"><text text-anchor="start" transform="translate(0,9)" font-family="sans-serif" font-size="11px" font-weight="bold" fill="#444444" opacity="1">PCAs</text></g></g><path class="foreground" aria-hidden="true" d="" pointer-events="none" display="none"/></g></g></g><path class="foreground" aria-hidden="true" d="" display="none"/></g></g></g></svg>