<svg xmlns="http://www.w3.org/2000/svg" xmlns:xlink="http://www.w3.org/1999/xlink" version="1.1" class="marks" width="947" height="447" viewBox="0 0 947 447"><rect width="947" height="447" fill="#efefef"/><g fill="none" stroke-miterlimit="10" transform="translate(39,10)"><g class="mark-group role-frame root" role="graphics-object" aria-roledescription="group mark container"><g transform="translate(0,0)"><path class="background" aria-hidden="true" d="M0.5,0.5h800v400h-800Z" stroke="#ddd"/><g><g class="mark-group role-axis" role="graphics-symbol" aria-roledescription="axis" aria-label="X-axis for a linear scale with values from 0 to 60"><g transform="translate(0.5,400.5)"><path class="background" aria-hidden="true" d="M0,0h0v0h0Z" pointer-events="none"/><g><g class="mark-rule role-axis-grid" pointer-events="none"><line transform="translate(0,-400)" x2="0" y2="400" stroke="#ffffff" stroke-width="1" opacity="1"/><line transform="translate(27,-400)" x2="0" y2="400" stroke="#ffffff" stroke-width="1" opacity="1"/><line transform="translate(53,-400)" x2="0" y2="400" stroke="#ffffff" stroke-width="1" opacity="1"/><line transform="translate(80,-400)" x2="0" y2="400" stroke="#ffffff" stroke-width="1" opacity="1"/><line transform="translate(107,-400)" x2="0" y2="400" stroke="#ffffff" stroke-width="1" opacity="1"/><line transform="translate(133,-400)" x2="0" y2="400" stroke="#ffffff" stroke-width="1" opacity="1"/><line transform="translate(160,-400)" x2="0" y2="400" stroke="#ffffff" stroke-width="1" opacity="1"/><line transform="translate(187,-400)" x2="0" y2="400" stroke="#ffffff" stroke-width="1" opacity="1"/><line transform="translate(213,-400)" x2="0" y2="400" stroke="#ffffff" stroke-width="1" opacity="1"/><line transform="translate(240,-400)" x2="0" y2="400" stroke="#ffffff" stroke-width="1" opacity="1"/><line transform="translate(267,-400)" x2="0" y2="400" stroke="#ffffff" stroke-width="1" opacity="1"/><line transform="translate(293,-400)" x2="0" y2="400" stroke="#ffffff" stroke-width="1" opacity="1"/><line transform="translate(320,-400)" x2="0" y2="400" stroke="#ffffff" stroke-width="1" opacity="1"/><line transform="translate(347,-400)" x2="0" y2="400" stroke="#ffffff" stroke-width="1" opacity="1"/><line transform="translate(373,-400)" x2="0" y2="400" stroke="#ffffff" stroke-width="1" opacity="1"/><line transform="translate(400,-400)" x2="0" y2="400" stroke="#ffffff" stroke-width="1" opacity="1"/><line transform="translate(427,-400)" x2="0" y2="400" stroke="#ffffff" stroke-width="1" opacity="1"/><line transform="translate(453,-400)" x2="0" y2="400" stroke="#ffffff" stroke-width="1" opacity="1"/><line transform="translate(480,-400)" x2="0" y2="400" stroke="#ffffff" stroke-width="1" opacity="1"/><line transform="translate(507,-400)" x2="0" y2="400" stroke="#ffffff" stroke-width="1" opacity="1"/><line transform="translate(533,-400)" x2="0" y2="400" stroke="#ffffff" stroke-width="1" opacity="1"/><line transform="translate(560,-400)" x2="0" y2="400" stroke="#ffffff" stroke-width="1" opacity="1"/><line transform="translate(587,-400)" x2="0" y2="400" stroke="#ffffff" stroke-width="1" opacity="1"/><line transform="translate(613,-400)" x2="0" y2="400" stroke="#ffffff" stroke-width="1" opacity="1"/><line transform="translate(640,-400)" x2="0" y2="400" stroke="#ffffff" stroke-width="1" opacity="1"/><line transform="translate(667,-400)" x2="0" y2="400" stroke="#ffffff" stroke-width="1" opacity="1"/><line transform="translate(693,-400)" x2="0" y2="400" stroke="#ffffff" stroke-width="1" opacity="1"/><line transform="translate(720,-400)" x2="0" y2="400" stroke="#ffffff" stroke-width="1" opacity="1"/><line transform="translate(747,-400)" x2="0" y2="400" stroke="#ffffff" stroke-width="1" opacity="1"/><line transform="translate(773,-400)" x2="0" y2="400" stroke="#ffffff" stroke-width="1" opacity="1"/><line transform="translate(800,-400)" x2="0" y2="400" stroke="#ffffff" stroke-width="1" opacity="1"/></g></g><path class="foreground" aria-hidden="true" d="" pointer-events="none" display="none"/></g></g><g class="mark-group role-axis" role="graphics-symbol" aria-roledescription="axis" aria-label="Y-axis for a linear scale with values from 0 to 12"><g transform="translate(0.5,0.5)"><path class="background" aria-hidden="true" d="M0,0h0v0h0Z" pointer-events="none"/><g><g class="mark-rule role-axis-grid" pointer-events="none"><line transform="translate(0,400)" x2="800" y2="0" stroke="#ffffff" stroke-width="1" opacity="1"/><line transform="translate(0,367)" x2="800" y2="0" stroke="#ffffff" stroke-width="1" opacity="1"/><line transform="translate(0,333)" x2="800" y2="0" stroke="#ffffff" stroke-width="1" opacity="1"/><line transform="translate(0,300)" x2="800" y2="0" stroke="#ffffff" stroke-width="1" opacity="1"/><line transform="translate(0,267)" x2="800" y2="0" stroke="#ffffff" stroke-width="1" opacity="1"/><line transform="translate(0,233)" x2="800" y2="0" stroke="#ffffff" stroke-width="1" opacity="1"/><line transform="translate(0,200)" x2="800" y2="0" stroke="#ffffff" stroke-width="1" opacity="1"/><line transform="translate(0,167)" x2="800" y2="0" stroke="#ffffff" stroke-width="1" opacity="1"/><line transform="translate(0,133)" x2="800" y2="0" stroke="#ffffff" stroke-width="1" opacity="1"/><line transform="translate(0,100)" x2="800" y2="0" stroke="#ffffff" stroke-width="1" opacity="1"/><line transform="translate(0,67)" x2="800" y2="0" stroke="#ffffff" stroke-width="1" opacity="1"/><line transform="translate(0,33)" x2="800" y2="0" stroke="#ffffff" stroke-width="1" opacity="1"/><line transform="translate(0,0)" x2="800" y2="0" stroke="#ffffff" stroke-width="1" opacity="1"/></g></g><path class="foreground" aria-hidden="true" d="" pointer-events="none" display="none"/></g></g><g class="mark-group role-axis" role="graphics-symbol" aria-roledescription="axis" aria-label="X-axis titled 'Number of Components' for a linear scale with values from 0 to 60"><g transform="translate(0.5,400.5)"><path class="background" aria-hidden="true" d="M0,0h0v0h0Z" pointer-events="none"/><g><g class="mark-rule role-axis-tick" pointer-events="none"><line transform="translate(0,0)" x2="0" y2="5" stroke-width="1" opacity="1"/><line transform="translate(27,0)" x2="0" y2="5" stroke-width="1" opacity="1"/><line transform="translate(53,0)" x2="0" y2="5" stroke-width="1" opacity="1"/><line transform="translate(80,0)" x2="0" y2="5" stroke-width="1" opacity="1"/><line transform="translate(107,0)" x2="0" y2="5" stroke-width="1" opacity="1"/><line transform="translate(133,0)" x2="0" y2="5" stroke-width="1" opacity="1"/><line transform="translate(160,0)" x2="0" y2="5" stroke-width="1" opacity="1"/><line transform="translate(187,0)" x2="0" y2="5" stroke-width="1" opacity="1"/><line transform="translate(213,0)" x2="0" y2="5" stroke-width="1" opacity="1"/><line transform="translate(240,0)" x2="0" y2="5" stroke-width="1" opacity="1"/><line transform="translate(267,0)" x2="0" y2="5" stroke-width="1" opacity="1"/><line transform="translate(293,0)" x2="0" y2="5" stroke-width="1" opacity="1"/><line transform="translate(320,0)" x2="0" y2="5" stroke-width="1" opacity="1"/><line transform="translate(347,0)" x2="0" y2="5" stroke-width="1" opacity="1"/><line transform="translate(373,0)" x2="0" y2="5" stroke-width="1" opacity="1"/><line transform="translate(400,0)" x2="0" y2="5" stroke-width="1" opacity="1"/><line transform="translate(427,0)" x2="0" y2="5" stroke-width="1" opacity="1"/><line transform="translate(453,0)" x2="0" y2="5" stroke-width="1" opacity="1"/><line transform="translate(480,0)" x2="0" y2="5" stroke-width="1" opacity="1"/><line transform="translate(507,0)" x2="0" y2="5" stroke-width="1" opacity="1"/><line transform="translate(533,0)" x2="0" y2="5" stroke-width="1" opacity="1"/><line transform="translate(560,0)" x2="0" y2="5" stroke-width="1" opacity="1"/><line transform="translate(587,0)" x2="0" y2="5" stroke-width="1" opacity="1"/><line transform="translate(613,0)" x2="0" y2="5" stroke-width="1" opacity="1"/><line transform="translate(640,0)" x2="0" y2="5" stroke-width="1" opacity="1"/><line transform="translate(667,0)" x2="0" y2="5" stroke-width="1" opacity="1"/><line transform="translate(693,0)" x2="0" y2="5" stroke-width="1" opacity="1"/><line transform="translate(720,0)" x2="0" y2="5" stroke-width="1" opacity="1"/><line transform="translate(747,0)" x2="0" y2="5" stroke-width="1" opacity="1"/><line transform="translate(773,0)" x2="0" y2="5" stroke-width="1" opacity="1"/><line transform="translate(800,0)" x2="0" y2="5" stroke-width="1" opacity="1"/></g><g class="mark-text role-axis-label" pointer-events="none"><text text-anchor="start" transform="translate(0,15)" font-family="sans-serif" font-size="10px" fill="#444444" opacity="1">0</text><text text-anchor="middle" transform="translate(26.666666666666668,15)" font-family="sans-serif" font-size="10px" fill="#444444" opacity="1">2</text><text text-anchor="middle" transform="translate(53.333333333333336,15)" font-family="sans-serif" font-size="10px" fill="#444444" opacity="1">4</text><text text-anchor="middle" transform="translate(80,15)" font-family="sans-serif" font-size="10px" fill="#444444" opacity="1">6</text><text text-anchor="middle" transform="translate(106.66666666666667,15)" font-family="sans-serif" font-size="10px" fill="#444444" opacity="1">8</text><text text-anchor="middle" transform="translate(133.33333333333331,15)" font-family="sans-serif" font-size="10px" fill="#444444" opacity="1">10</text><text text-anchor="middle" transform="translate(160,15)" font-family="sans-serif" font-size="10px" fill="#444444" opacity="1">12</text><text text-anchor="middle" transform="translate(186.66666666666666,15)" font-family="sans-serif" font-size="10px" fill="#444444" opacity="1">14</text><text text-anchor="middle" transform="translate(213.33333333333334,15)" font-family="sans-serif" font-size="10px" fill="#444444" opacity="1">16</text><text text-anchor="middle" transform="translate(240,15)" font-family="sans-serif" font-size="10px" fill="#444444" opacity="1">18</text><text text-anchor="middle" transform="translate(266.66666666666663,15)" font-family="sans-serif" font-size="10px" fill="#444444" opacity="1">20</text><text text-anchor="middle" transform="translate(293.3333333333333,15)" font-family="sans-serif" font-size="10px" fill="#444444" opacity="1">22</text><text text-anchor="middle" transform="translate(320,15)" font-family="sans-serif" font-size="10px" fill="#444444" opacity="1">24</text><text text-anchor="middle" transform="translate(346.6666666666667,15)" font-family="sans-serif" font-size="10px" fill="#444444" opacity="1">26</text><text text-anchor="middle" transform="translate(373.3333333333333,15)" font-family="sans-serif" font-size="10px" fill="#444444" opacity="1">28</text><text text-anchor="middle" transform="translate(400,15)" font-family="sans-serif" font-size="10px" fill="#444444" opacity="1">30</text><text text-anchor="middle" transform="translate(426.6666666666667,15)" font-family="sans-serif" font-size="10px" fill="#444444" opacity="1">32</text><text text-anchor="middle" transform="translate(453.3333333333333,15)" font-family="sans-serif" font-size="10px" fill="#444444" opacity="1">34</text><text text-anchor="middle" transform="translate(480,15)" font-family="sans-serif" font-size="10px" fill="#444444" opacity="1">36</text><text text-anchor="middle" transform="translate(506.66666666666663,15)" font-family="sans-serif" font-size="10px" fill="#444444" opacity="1">38</text><text text-anchor="middle" transform="translate(533.3333333333333,15)" font-family="sans-serif" font-size="10px" fill="#444444" opacity="1">40</text><text text-anchor="middle" transform="translate(560,15)" font-family="sans-serif" font-size="10px" fill="#444444" opacity="1">42</text><text text-anchor="middle" transform="translate(586.6666666666666,15)" font-family="sans-serif" font-size="10px" fill="#444444" opacity="1">44</text><text text-anchor="middle" transform="translate(613.3333333333334,15)" font-family="sans-serif" font-size="10px" fill="#444444" opacity="1">46</text><text text-anchor="middle" transform="translate(640,15)" font-family="sans-serif" font-size="10px" fill="#444444" opacity="1">48</text><text text-anchor="middle" transform="translate(666.6666666666667,15)" font-family="sans-serif" font-size="10px" fill="#444444" opacity="1">50</text><text text-anchor="middle" transform="translate(693.3333333333334,15)" font-family="sans-serif" font-size="10px" fill="#444444" opacity="1">52</text><text text-anchor="middle" transform="translate(720,15)" font-family="sans-serif" font-size="10px" fill="#444444" opacity="1">54</text><text text-anchor="middle" transform="translate(746.6666666666666,15)" font-family="sans-serif" font-size="10px" fill="#444444" opacity="1">56</text><text text-anchor="middle" transform="translate(773.3333333333334,15)" font-family="sans-serif" font-size="10px" fill="#444444" opacity="1">58</text><text text-anchor="end" transform="translate(800,15)" font-family="sans-serif" font-size="10px" fill="#444444" opacity="1">60</text></g><g class="mark-rule role-axis-domain" pointer-events="none"><line transform="translate(0,0)" x2="800" y2="0" stroke-width="1" opacity="1"/></g><g class="mark-text role-axis-title" pointer-events="none"><text text-anchor="middle" transform="translate(400,30)" font-family="sans-serif" font-size="11px" font-weight="bold" fill="#444444" opacity="1">Number of Components</text></g></g><path class="foreground" aria-hidden="true" d="" pointer-events="none" display="none"/></g></g><g class="mark-group role-axis" role="graphics-symbol" aria-roledescription="axis" aria-label="Y-axis titled 'Mean Squred Error' for a linear scale with values from 0 to 12"><g transform="translate(0.5,0.5)"><path class="background" aria-hidden="true" d="M0,0h0v0h0Z" pointer-events="none"/><g><g class="mark-rule role-axis-tick" pointer-events="none"><line transform="translate(0,400)" x2="-5" y2="0" stroke-width="1" opacity="1"/><line transform="translate(0,367)" x2="-5" y2="0" stroke-width="1" opacity="1"/><line transform="translate(0,333)" x2="-5" y2="0" stroke-width="1" opacity="1"/><line transform="translate(0,300)" x2="-5" y2="0" stroke-width="1" opacity="1"/><line transform="translate(0,267)" x2="-5" y2="0" stroke-width="1" opacity="1"/><line transform="translate(0,233)" x2="-5" y2="0" stroke-width="1" opacity="1"/><line transform="translate(0,200)" x2="-5" y2="0" stroke-width="1" opacity="1"/><line transform="translate(0,167)" x2="-5" y2="0" stroke-width="1" opacity="1"/><line transform="translate(0,133)" x2="-5" y2="0" stroke-width="1" opacity="1"/><line transform="translate(0,100)" x2="-5" y2="0" stroke-width="1" opacity="1"/><line transform="translate(0,67)" x2="-5" y2="0" stroke-width="1" opacity="1"/><line transform="translate(0,33)" x2="-5" y2="0" stroke-width="1" opacity="1"/><line transform="translate(0,0)" x2="-5" y2="0" stroke-width="1" opacity="1"/></g><g class="mark-text role-axis-label" pointer-events="none"><text text-anchor="end" transform="translate(-7,403)" font-family="sans-serif" font-size="10px" fill="#444444" opacity="1">0</text><text text-anchor="end" transform="translate(-7,369.66666666666663)" font-family="sans-serif" font-size="10px" fill="#444444" opacity="1">1</text><text text-anchor="end" transform="translate(-7,336.33333333333337)" font-family="sans-serif" font-size="10px" fill="#444444" opacity="1">2</text><text text-anchor="end" transform="translate(-7,303)" font-family="sans-serif" font-size="10px" fill="#444444" opacity="1">3</text><text text-anchor="end" transform="translate(-7,269.6666666666667)" font-family="sans-serif" font-size="10px" fill="#444444" opacity="1">4</text><text text-anchor="end" transform="translate(-7,236.33333333333331)" font-family="sans-serif" font-size="10px" fill="#444444" opacity="1">5</text><text text-anchor="end" transform="translate(-7,203)" font-family="sans-serif" font-size="10px" fill="#444444" opacity="1">6</text><text text-anchor="end" transform="translate(-7,169.66666666666666)" font-family="sans-serif" font-size="10px" fill="#444444" opacity="1">7</text><text text-anchor="end" transform="translate(-7,136.33333333333334)" font-family="sans-serif" font-size="10px" fill="#444444" opacity="1">8</text><text text-anchor="end" transform="translate(-7,103)" font-family="sans-serif" font-size="10px" fill="#444444" opacity="1">9</text><text text-anchor="end" transform="translate(-7,69.66666666666666)" font-family="sans-serif" font-size="10px" fill="#444444" opacity="1">10</text><text text-anchor="end" transform="translate(-7,36.33333333333335)" font-family="sans-serif" font-size="10px" fill="#444444" opacity="1">11</text><text text-anchor="end" transform="translate(-7,3)" font-family="sans-serif" font-size="10px" fill="#444444" opacity="1">12</text></g><g class="mark-rule role-axis-domain" pointer-events="none"><line transform="translate(0,400)" x2="0" y2="-400" stroke-width="1" opacity="1"/></g><g class="mark-text role-axis-title" pointer-events="none"><text text-anchor="middle" transform="translate(-22.123046875,200) rotate(-90) translate(0,-2)" font-family="sans-serif" font-size="11px" font-weight="bold" fill="#444444" opacity="1">Mean Squred Error</text></g></g><path class="foreground" aria-hidden="true" d="" pointer-events="none" display="none"/></g></g><g class="mark-group role-scope layer_0_layer_0_pathgroup" role="graphics-object" aria-roledescription="group mark container"><g transform="translate(0,0)"><path class="background" aria-hidden="true" d="M0,0h800v400h-800Z"/><g><g class="mark-area role-mark layer_0_layer_0_marks" role="graphics-symbol" aria-roledescription="area mark container"><path d="M13.333333333333334,19.70333333333336L26.666666666666668,130.3433333333333L40,163.77L53.333333333333336,232.0033333333333L66.66666666666666,271.76L80,310.4066666666667L93.33333333333333,326.11333333333334L106.66666666666667,328.43666666666667L120,341.7866666666667L133.33333333333331,346.9533333333334L146.66666666666666,349.72666666666663L160,357.8566666666667L173.33333333333334,363.35L186.66666666666666,365.25333333333333L200,365.2833333333333L213.33333333333334,369.55L226.66666666666666,368.79333333333335L240,369.83000000000004L253.33333333333331,370.39L266.66666666666663,371.32666666666665L280,370.96666666666664L293.3333333333333,371.46L306.6666666666667,372.83L320,372.06L333.33333333333337,372.1166666666667L346.6666666666667,372.24333333333334L360,373.22333333333336L373.3333333333333,372.22333333333336L386.6666666666667,373.3666666666667L400,372.9433333333333L413.33333333333337,372.66666666666663L426.6666666666667,373.65L440.00000000000006,373.17999999999995L453.3333333333333,374.76666666666665L466.6666666666667,373.23L480,372.4533333333334L493.33333333333337,373.71333333333337L506.66666666666663,372.77L520,372.0833333333333L533.3333333333333,373.37L546.6666666666666,372.7966666666667L560,372.4866666666667L573.3333333333334,373.12333333333333L586.6666666666666,374.39666666666665L600,374.30333333333334L613.3333333333334,373.4166666666667L626.6666666666666,373.3566666666666L640,371.71666666666664L653.3333333333334,373.62333333333333L666.6666666666667,373.5L680,373.52666666666664L693.3333333333334,373.0933333333333L706.6666666666666,373.09000000000003L720,371.52L733.3333333333333,373.22L746.6666666666666,372.19L760,372.91666666666663L773.3333333333334,371.2633333333333L786.6666666666666,373.8666666666667L800,372.9633333333333L800,400L786.6666666666666,400L773.3333333333334,400L760,400L746.6666666666666,400L733.3333333333333,400L720,400L706.6666666666666,400L693.3333333333334,400L680,400L666.6666666666667,400L653.3333333333334,400L640,400L626.6666666666666,400L613.3333333333334,400L600,400L586.6666666666666,400L573.3333333333334,400L560,400L546.6666666666666,400L533.3333333333333,400L520,400L506.66666666666663,400L493.33333333333337,400L480,400L466.6666666666667,400L453.3333333333333,400L440.00000000000006,400L426.6666666666667,400L413.33333333333337,400L400,400L386.6666666666667,400L373.3333333333333,400L360,400L346.6666666666667,400L333.33333333333337,400L320,400L306.6666666666667,400L293.3333333333333,400L280,400L266.66666666666663,400L253.33333333333331,400L240,400L226.66666666666666,400L213.33333333333334,400L200,400L186.66666666666666,400L173.33333333333334,400L160,400L146.66666666666666,400L133.33333333333331,400L120,400L106.66666666666667,400L93.33333333333333,400L80,400L66.66666666666666,400L53.333333333333336,400L40,400L26.666666666666668,400L13.333333333333334,400Z" fill="#228C22" fill-opacity="0.4" opacity="0.7"/></g></g><path class="foreground" aria-hidden="true" d="" display="none"/></g><g transform="translate(0,0)"><path class="background" aria-hidden="true" d="M0,0h800v400h-800Z"/><g><g class="mark-area role-mark layer_0_layer_0_marks" role="graphics-symbol" aria-roledescription="area mark container"><path d="M13.333333333333334,19.686666666666675L26.666666666666668,131.73666666666665L40,164.65666666666667L53.333333333333336,235.26L66.66666666666666,270.9866666666667L80,309.95666666666665L93.33333333333333,323.3466666666667L106.66666666666667,337.12L120,340.78333333333336L133.33333333333331,345.83666666666664L146.66666666666666,350.46666666666664L160,356.2133333333333L173.33333333333334,361.67333333333335L186.66666666666666,365.03000000000003L200,366.42333333333335L213.33333333333334,367.9166666666667L226.66666666666666,367.50666666666666L240,367.46666666666664L253.33333333333331,368.65000000000003L266.66666666666663,368.49666666666667L280,370.03333333333336L293.3333333333333,370.8066666666667L306.6666666666667,373.53000000000003L320,372.95L333.33333333333337,372.43L346.6666666666667,372.13666666666666L360,371.3066666666667L373.3333333333333,374.1433333333333L386.6666666666667,372.18L400,372.96L413.33333333333337,372.14L426.6666666666667,373.3633333333333L440.00000000000006,371.1733333333333L453.3333333333333,371.4L466.6666666666667,374.14L480,373.4766666666667L493.33333333333337,373.31666666666666L506.66666666666663,373.06333333333333L520,372.9266666666667L533.3333333333333,372.85333333333335L546.6666666666666,373.4266666666667L560,373.7866666666667L573.3333333333334,374.61333333333334L586.6666666666666,372.9633333333333L600,372.2366666666667L613.3333333333334,373.71L626.6666666666666,372.53666666666663L640,373.81666666666666L653.3333333333334,373.08333333333337L666.6666666666667,371.88L680,372.91666666666663L693.3333333333334,373.06666666666666L706.6666666666666,372.5933333333333L720,373.02666666666664L733.3333333333333,372.3866666666667L746.6666666666666,373.42L760,372.38L773.3333333333334,373.97L786.6666666666666,371.2033333333333L800,371.05L800,400L786.6666666666666,400L773.3333333333334,400L760,400L746.6666666666666,400L733.3333333333333,400L720,400L706.6666666666666,400L693.3333333333334,400L680,400L666.6666666666667,400L653.3333333333334,400L640,400L626.6666666666666,400L613.3333333333334,400L600,400L586.6666666666666,400L573.3333333333334,400L560,400L546.6666666666666,400L533.3333333333333,400L520,400L506.66666666666663,400L493.33333333333337,400L480,400L466.6666666666667,400L453.3333333333333,400L440.00000000000006,400L426.6666666666667,400L413.33333333333337,400L400,400L386.6666666666667,400L373.3333333333333,400L360,400L346.6666666666667,400L333.33333333333337,400L320,400L306.6666666666667,400L293.3333333333333,400L280,400L266.66666666666663,400L253.33333333333331,400L240,400L226.66666666666666,400L213.33333333333334,400L200,400L186.66666666666666,400L173.33333333333334,400L160,400L146.66666666666666,400L133.33333333333331,400L120,400L106.66666666666667,400L93.33333333333333,400L80,400L66.66666666666666,400L53.333333333333336,400L40,400L26.666666666666668,400L13.333333333333334,400Z" fill="#5f249f" fill-opacity="0.4" opacity="0.7"/></g></g><path class="foreground" aria-hidden="true" d="" display="none"/></g></g><g class="mark-group role-scope layer_0_layer_1_pathgroup" role="graphics-object" aria-roledescription="group mark container"><g transform="translate(0,0)"><path class="background" aria-hidden="true" d="M0,0h800v400h-800Z"/><g><g class="mark-line role-mark layer_0_layer_1_marks" role="graphics-symbol" aria-roledescription="line mark container"><path d="M13.333333333333334,19.70333333333336L26.666666666666668,130.3433333333333L40,163.77L53.333333333333336,232.0033333333333L66.66666666666666,271.76L80,310.4066666666667L93.33333333333333,326.11333333333334L106.66666666666667,328.43666666666667L120,341.7866666666667L133.33333333333331,346.9533333333334L146.66666666666666,349.72666666666663L160,357.8566666666667L173.33333333333334,363.35L186.66666666666666,365.25333333333333L200,365.2833333333333L213.33333333333334,369.55L226.66666666666666,368.79333333333335L240,369.83000000000004L253.33333333333331,370.39L266.66666666666663,371.32666666666665L280,370.96666666666664L293.3333333333333,371.46L306.6666666666667,372.83L320,372.06L333.33333333333337,372.1166666666667L346.6666666666667,372.24333333333334L360,373.22333333333336L373.3333333333333,372.22333333333336L386.6666666666667,373.3666666666667L400,372.9433333333333L413.33333333333337,372.66666666666663L426.6666666666667,373.65L440.00000000000006,373.17999999999995L453.3333333333333,374.76666666666665L466.6666666666667,373.23L480,372.4533333333334L493.33333333333337,373.71333333333337L506.66666666666663,372.77L520,372.0833333333333L533.3333333333333,373.37L546.6666666666666,372.7966666666667L560,372.4866666666667L573.3333333333334,373.12333333333333L586.6666666666666,374.39666666666665L600,374.30333333333334L613.3333333333334,373.4166666666667L626.6666666666666,373.3566666666666L640,371.71666666666664L653.3333333333334,373.62333333333333L666.6666666666667,373.5L680,373.52666666666664L693.3333333333334,373.0933333333333L706.6666666666666,373.09000000000003L720,371.52L733.3333333333333,373.22L746.6666666666666,372.19L760,372.91666666666663L773.3333333333334,371.2633333333333L786.6666666666666,373.8666666666667L800,372.9633333333333" stroke="#228C22" stroke-width="2"/></g></g><path class="foreground" aria-hidden="true" d="" display="none"/></g><g transform="translate(0,0)"><path class="background" aria-hidden="true" d="M0,0h800v400h-800Z"/><g><g class="mark-line role-mark layer_0_layer_1_marks" role="graphics-symbol" aria-roledescription="line mark container"><path d="M13.333333333333334,19.686666666666675L26.666666666666668,131.73666666666665L40,164.65666666666667L53.333333333333336,235.26L66.66666666666666,270.9866666666667L80,309.95666666666665L93.33333333333333,323.3466666666667L106.66666666666667,337.12L120,340.78333333333336L133.33333333333331,345.83666666666664L146.66666666666666,350.46666666666664L160,356.2133333333333L173.33333333333334,361.67333333333335L186.66666666666666,365.03000000000003L200,366.42333333333335L213.33333333333334,367.9166666666667L226.66666666666666,367.50666666666666L240,367.46666666666664L253.33333333333331,368.65000000000003L266.66666666666663,368.49666666666667L280,370.03333333333336L293.3333333333333,370.8066666666667L306.6666666666667,373.53000000000003L320,372.95L333.33333333333337,372.43L346.6666666666667,372.13666666666666L360,371.3066666666667L373.3333333333333,374.1433333333333L386.6666666666667,372.18L400,372.96L413.33333333333337,372.14L426.6666666666667,373.3633333333333L440.00000000000006,371.1733333333333L453.3333333333333,371.4L466.6666666666667,374.14L480,373.4766666666667L493.33333333333337,373.31666666666666L506.66666666666663,373.06333333333333L520,372.9266666666667L533.3333333333333,372.85333333333335L546.6666666666666,373.4266666666667L560,373.7866666666667L573.3333333333334,374.61333333333334L586.6666666666666,372.9633333333333L600,372.2366666666667L613.3333333333334,373.71L626.6666666666666,372.53666666666663L640,373.81666666666666L653.3333333333334,373.08333333333337L666.6666666666667,371.88L680,372.91666666666663L693.3333333333334,373.06666666666666L706.6666666666666,372.5933333333333L720,373.02666666666664L733.3333333333333,372.3866666666667L746.6666666666666,373.42L760,372.38L773.3333333333334,373.97L786.6666666666666,371.2033333333333L800,371.05" stroke="#5f249f" stroke-width="2"/></g></g><path class="foreground" aria-hidden="true" d="" display="none"/></g></g><g class="mark-group role-scope layer_1_layer_0_pathgroup" role="graphics-object" aria-roledescription="group mark container"><g transform="translate(0,0)"><path class="background" aria-hidden="true" d="M0,0h800v400h-800Z"/><g><g class="mark-line role-mark layer_1_layer_0_marks" role="graphics-symbol" aria-roledescription="line mark container"><path d="M13.333333333333334,19.70333333333336L26.666666666666668,130.3433333333333L40,163.77L53.333333333333336,232.0033333333333L66.66666666666666,271.76L80,310.4066666666667L93.33333333333333,326.11333333333334L106.66666666666667,328.43666666666667L120,341.7866666666667L133.33333333333331,346.9533333333334L146.66666666666666,349.72666666666663L160,357.8566666666667L173.33333333333334,363.35L186.66666666666666,365.25333333333333L200,365.2833333333333L213.33333333333334,369.55L226.66666666666666,368.79333333333335L240,369.83000000000004L253.33333333333331,370.39L266.66666666666663,371.32666666666665L280,370.96666666666664L293.3333333333333,371.46L306.6666666666667,372.83L320,372.06L333.33333333333337,372.1166666666667L346.6666666666667,372.24333333333334L360,373.22333333333336L373.3333333333333,372.22333333333336L386.6666666666667,373.3666666666667L400,372.9433333333333L413.33333333333337,372.66666666666663L426.6666666666667,373.65L440.00000000000006,373.17999999999995L453.3333333333333,374.76666666666665L466.6666666666667,373.23L480,372.4533333333334L493.33333333333337,373.71333333333337L506.66666666666663,372.77L520,372.0833333333333L533.3333333333333,373.37L546.6666666666666,372.7966666666667L560,372.4866666666667L573.3333333333334,373.12333333333333L586.6666666666666,374.39666666666665L600,374.30333333333334L613.3333333333334,373.4166666666667L626.6666666666666,373.3566666666666L640,371.71666666666664L653.3333333333334,373.62333333333333L666.6666666666667,373.5L680,373.52666666666664L693.3333333333334,373.0933333333333L706.6666666666666,373.09000000000003L720,371.52L733.3333333333333,373.22L746.6666666666666,372.19L760,372.91666666666663L773.3333333333334,371.2633333333333L786.6666666666666,373.8666666666667L800,372.9633333333333" stroke="#228C22" stroke-width="3.05" opacity="0.05"/></g></g><path class="foreground" aria-hidden="true" d="" display="none"/></g><g transform="translate(0,0)"><path class="background" aria-hidden="true" d="M0,0h800v400h-800Z"/><g><g class="mark-line role-mark layer_1_layer_0_marks" role="graphics-symbol" aria-roledescription="line mark container"><path d="M13.333333333333334,19.686666666666675L26.666666666666668,131.73666666666665L40,164.65666666666667L53.333333333333336,235.26L66.66666666666666,270.9866666666667L80,309.95666666666665L93.33333333333333,323.3466666666667L106.66666666666667,337.12L120,340.78333333333336L133.33333333333331,345.83666666666664L146.66666666666666,350.46666666666664L160,356.2133333333333L173.33333333333334,361.67333333333335L186.66666666666666,365.03000000000003L200,366.42333333333335L213.33333333333334,367.9166666666667L226.66666666666666,367.50666666666666L240,367.46666666666664L253.33333333333331,368.65000000000003L266.66666666666663,368.49666666666667L280,370.03333333333336L293.3333333333333,370.8066666666667L306.6666666666667,373.53000000000003L320,372.95L333.33333333333337,372.43L346.6666666666667,372.13666666666666L360,371.3066666666667L373.3333333333333,374.1433333333333L386.6666666666667,372.18L400,372.96L413.33333333333337,372.14L426.6666666666667,373.3633333333333L440.00000000000006,371.1733333333333L453.3333333333333,371.4L466.6666666666667,374.14L480,373.4766666666667L493.33333333333337,373.31666666666666L506.66666666666663,373.06333333333333L520,372.9266666666667L533.3333333333333,372.85333333333335L546.6666666666666,373.4266666666667L560,373.7866666666667L573.3333333333334,374.61333333333334L586.6666666666666,372.9633333333333L600,372.2366666666667L613.3333333333334,373.71L626.6666666666666,372.53666666666663L640,373.81666666666666L653.3333333333334,373.08333333333337L666.6666666666667,371.88L680,372.91666666666663L693.3333333333334,373.06666666666666L706.6666666666666,372.5933333333333L720,373.02666666666664L733.3333333333333,372.3866666666667L746.6666666666666,373.42L760,372.38L773.3333333333334,373.97L786.6666666666666,371.2033333333333L800,371.05" stroke="#5f249f" stroke-width="3.05" opacity="0.05"/></g></g><path class="foreground" aria-hidden="true" d="" display="none"/></g></g><g class="mark-group role-scope layer_1_layer_1_pathgroup" role="graphics-object" aria-roledescription="group mark container"><g transform="translate(0,0)"><path class="background" aria-hidden="true" d="M0,0h800v400h-800Z"/><g><g class="mark-line role-mark layer_1_layer_1_marks" role="graphics-symbol" aria-roledescription="line mark container"><path d="M13.333333333333334,19.70333333333336L26.666666666666668,130.3433333333333L40,163.77L53.333333333333336,232.0033333333333L66.66666666666666,271.76L80,310.4066666666667L93.33333333333333,326.11333333333334L106.66666666666667,328.43666666666667L120,341.7866666666667L133.33333333333331,346.9533333333334L146.66666666666666,349.72666666666663L160,357.8566666666667L173.33333333333334,363.35L186.66666666666666,365.25333333333333L200,365.2833333333333L213.33333333333334,369.55L226.66666666666666,368.79333333333335L240,369.83000000000004L253.33333333333331,370.39L266.66666666666663,371.32666666666665L280,370.96666666666664L293.3333333333333,371.46L306.6666666666667,372.83L320,372.06L333.33333333333337,372.1166666666667L346.6666666666667,372.24333333333334L360,373.22333333333336L373.3333333333333,372.22333333333336L386.6666666666667,373.3666666666667L400,372.9433333333333L413.33333333333337,372.66666666666663L426.6666666666667,373.65L440.00000000000006,373.17999999999995L453.3333333333333,374.76666666666665L466.6666666666667,373.23L480,372.4533333333334L493.33333333333337,373.71333333333337L506.66666666666663,372.77L520,372.0833333333333L533.3333333333333,373.37L546.6666666666666,372.7966666666667L560,372.4866666666667L573.3333333333334,373.12333333333333L586.6666666666666,374.39666666666665L600,374.30333333333334L613.3333333333334,373.4166666666667L626.6666666666666,373.3566666666666L640,371.71666666666664L653.3333333333334,373.62333333333333L666.6666666666667,373.5L680,373.52666666666664L693.3333333333334,373.0933333333333L706.6666666666666,373.09000000000003L720,371.52L733.3333333333333,373.22L746.6666666666666,372.19L760,372.91666666666663L773.3333333333334,371.2633333333333L786.6666666666666,373.8666666666667L800,372.9633333333333" stroke="#228C22" stroke-width="4.1" opacity="0.05"/></g></g><path class="foreground" aria-hidden="true" d="" display="none"/></g><g transform="translate(0,0)"><path class="background" aria-hidden="true" d="M0,0h800v400h-800Z"/><g><g class="mark-line role-mark layer_1_layer_1_marks" role="graphics-symbol" aria-roledescription="line mark container"><path d="M13.333333333333334,19.686666666666675L26.666666666666668,131.73666666666665L40,164.65666666666667L53.333333333333336,235.26L66.66666666666666,270.9866666666667L80,309.95666666666665L93.33333333333333,323.3466666666667L106.66666666666667,337.12L120,340.78333333333336L133.33333333333331,345.83666666666664L146.66666666666666,350.46666666666664L160,356.2133333333333L173.33333333333334,361.67333333333335L186.66666666666666,365.03000000000003L200,366.42333333333335L213.33333333333334,367.9166666666667L226.66666666666666,367.50666666666666L240,367.46666666666664L253.33333333333331,368.65000000000003L266.66666666666663,368.49666666666667L280,370.03333333333336L293.3333333333333,370.8066666666667L306.6666666666667,373.53000000000003L320,372.95L333.33333333333337,372.43L346.6666666666667,372.13666666666666L360,371.3066666666667L373.3333333333333,374.1433333333333L386.6666666666667,372.18L400,372.96L413.33333333333337,372.14L426.6666666666667,373.3633333333333L440.00000000000006,371.1733333333333L453.3333333333333,371.4L466.6666666666667,374.14L480,373.4766666666667L493.33333333333337,373.31666666666666L506.66666666666663,373.06333333333333L520,372.9266666666667L533.3333333333333,372.85333333333335L546.6666666666666,373.4266666666667L560,373.7866666666667L573.3333333333334,374.61333333333334L586.6666666666666,372.9633333333333L600,372.2366666666667L613.3333333333334,373.71L626.6666666666666,372.53666666666663L640,373.81666666666666L653.3333333333334,373.08333333333337L666.6666666666667,371.88L680,372.91666666666663L693.3333333333334,373.06666666666666L706.6666666666666,372.5933333333333L720,373.02666666666664L733.3333333333333,372.3866666666667L746.6666666666666,373.42L760,372.38L773.3333333333334,373.97L786.6666666666666,371.2033333333333L800,371.05" stroke="#5f249f" stroke-width="4.1" opacity="0.05"/></g></g><path class="foreground" aria-hidden="true" d="" display="none"/></g></g><g class="mark-group role-scope layer_1_layer_2_pathgroup" role="graphics-object" aria-roledescription="group mark container"><g transform="translate(0,0)"><path class="background" aria-hidden="true" d="M0,0h800v400h-800Z"/><g><g class="mark-line role-mark layer_1_layer_2_marks" role="graphics-symbol" aria-roledescription="line mark container"><path d="M13.333333333333334,19.70333333333336L26.666666666666668,130.3433333333333L40,163.77L53.333333333333336,232.0033333333333L66.66666666666666,271.76L80,310.4066666666667L93.33333333333333,326.11333333333334L106.66666666666667,328.43666666666667L120,341.7866666666667L133.33333333333331,346.9533333333334L146.66666666666666,349.72666666666663L160,357.8566666666667L173.33333333333334,363.35L186.66666666666666,365.25333333333333L200,365.2833333333333L213.33333333333334,369.55L226.66666666666666,368.79333333333335L240,369.83000000000004L253.33333333333331,370.39L266.66666666666663,371.32666666666665L280,370.96666666666664L293.3333333333333,371.46L306.6666666666667,372.83L320,372.06L333.33333333333337,372.1166666666667L346.6666666666667,372.24333333333334L360,373.22333333333336L373.3333333333333,372.22333333333336L386.6666666666667,373.3666666666667L400,372.9433333333333L413.33333333333337,372.66666666666663L426.6666666666667,373.65L440.00000000000006,373.17999999999995L453.3333333333333,374.76666666666665L466.6666666666667,373.23L480,372.4533333333334L493.33333333333337,373.71333333333337L506.66666666666663,372.77L520,372.0833333333333L533.3333333333333,373.37L546.6666666666666,372.7966666666667L560,372.4866666666667L573.3333333333334,373.12333333333333L586.6666666666666,374.39666666666665L600,374.30333333333334L613.3333333333334,373.4166666666667L626.6666666666666,373.3566666666666L640,371.71666666666664L653.3333333333334,373.62333333333333L666.6666666666667,373.5L680,373.52666666666664L693.3333333333334,373.0933333333333L706.6666666666666,373.09000000000003L720,371.52L733.3333333333333,373.22L746.6666666666666,372.19L760,372.91666666666663L773.3333333333334,371.2633333333333L786.6666666666666,373.8666666666667L800,372.9633333333333" stroke="#228C22" stroke-width="5.15" opacity="0.05"/></g></g><path class="foreground" aria-hidden="true" d="" display="none"/></g><g transform="translate(0,0)"><path class="background" aria-hidden="true" d="M0,0h800v400h-800Z"/><g><g class="mark-line role-mark layer_1_layer_2_marks" role="graphics-symbol" aria-roledescription="line mark container"><path d="M13.333333333333334,19.686666666666675L26.666666666666668,131.73666666666665L40,164.65666666666667L53.333333333333336,235.26L66.66666666666666,270.9866666666667L80,309.95666666666665L93.33333333333333,323.3466666666667L106.66666666666667,337.12L120,340.78333333333336L133.33333333333331,345.83666666666664L146.66666666666666,350.46666666666664L160,356.2133333333333L173.33333333333334,361.67333333333335L186.66666666666666,365.03000000000003L200,366.42333333333335L213.33333333333334,367.9166666666667L226.66666666666666,367.50666666666666L240,367.46666666666664L253.33333333333331,368.65000000000003L266.66666666666663,368.49666666666667L280,370.03333333333336L293.3333333333333,370.8066666666667L306.6666666666667,373.53000000000003L320,372.95L333.33333333333337,372.43L346.6666666666667,372.13666666666666L360,371.3066666666667L373.3333333333333,374.1433333333333L386.6666666666667,372.18L400,372.96L413.33333333333337,372.14L426.6666666666667,373.3633333333333L440.00000000000006,371.1733333333333L453.3333333333333,371.4L466.6666666666667,374.14L480,373.4766666666667L493.33333333333337,373.31666666666666L506.66666666666663,373.06333333333333L520,372.9266666666667L533.3333333333333,372.85333333333335L546.6666666666666,373.4266666666667L560,373.7866666666667L573.3333333333334,374.61333333333334L586.6666666666666,372.9633333333333L600,372.2366666666667L613.3333333333334,373.71L626.6666666666666,372.53666666666663L640,373.81666666666666L653.3333333333334,373.08333333333337L666.6666666666667,371.88L680,372.91666666666663L693.3333333333334,373.06666666666666L706.6666666666666,372.5933333333333L720,373.02666666666664L733.3333333333333,372.3866666666667L746.6666666666666,373.42L760,372.38L773.3333333333334,373.97L786.6666666666666,371.2033333333333L800,371.05" stroke="#5f249f" stroke-width="5.15" opacity="0.05"/></g></g><path class="foreground" aria-hidden="true" d="" display="none"/></g></g><g class="mark-group role-scope layer_1_layer_3_pathgroup" role="graphics-object" aria-roledescription="group mark container"><g transform="translate(0,0)"><path class="background" aria-hidden="true" d="M0,0h800v400h-800Z"/><g><g class="mark-line role-mark layer_1_layer_3_marks" role="graphics-symbol" aria-roledescription="line mark container"><path d="M13.333333333333334,19.70333333333336L26.666666666666668,130.3433333333333L40,163.77L53.333333333333336,232.0033333333333L66.66666666666666,271.76L80,310.4066666666667L93.33333333333333,326.11333333333334L106.66666666666667,328.43666666666667L120,341.7866666666667L133.33333333333331,346.9533333333334L146.66666666666666,349.72666666666663L160,357.8566666666667L173.33333333333334,363.35L186.66666666666666,365.25333333333333L200,365.2833333333333L213.33333333333334,369.55L226.66666666666666,368.79333333333335L240,369.83000000000004L253.33333333333331,370.39L266.66666666666663,371.32666666666665L280,370.96666666666664L293.3333333333333,371.46L306.6666666666667,372.83L320,372.06L333.33333333333337,372.1166666666667L346.6666666666667,372.24333333333334L360,373.22333333333336L373.3333333333333,372.22333333333336L386.6666666666667,373.3666666666667L400,372.9433333333333L413.33333333333337,372.66666666666663L426.6666666666667,373.65L440.00000000000006,373.17999999999995L453.3333333333333,374.76666666666665L466.6666666666667,373.23L480,372.4533333333334L493.33333333333337,373.71333333333337L506.66666666666663,372.77L520,372.0833333333333L533.3333333333333,373.37L546.6666666666666,372.7966666666667L560,372.4866666666667L573.3333333333334,373.12333333333333L586.6666666666666,374.39666666666665L600,374.30333333333334L613.3333333333334,373.4166666666667L626.6666666666666,373.3566666666666L640,371.71666666666664L653.3333333333334,373.62333333333333L666.6666666666667,373.5L680,373.52666666666664L693.3333333333334,373.0933333333333L706.6666666666666,373.09000000000003L720,371.52L733.3333333333333,373.22L746.6666666666666,372.19L760,372.91666666666663L773.3333333333334,371.2633333333333L786.6666666666666,373.8666666666667L800,372.9633333333333" stroke="#228C22" stroke-width="6.2" opacity="0.05"/></g></g><path class="foreground" aria-hidden="true" d="" display="none"/></g><g transform="translate(0,0)"><path class="background" aria-hidden="true" d="M0,0h800v400h-800Z"/><g><g class="mark-line role-mark layer_1_layer_3_marks" role="graphics-symbol" aria-roledescription="line mark container"><path d="M13.333333333333334,19.686666666666675L26.666666666666668,131.73666666666665L40,164.65666666666667L53.333333333333336,235.26L66.66666666666666,270.9866666666667L80,309.95666666666665L93.33333333333333,323.3466666666667L106.66666666666667,337.12L120,340.78333333333336L133.33333333333331,345.83666666666664L146.66666666666666,350.46666666666664L160,356.2133333333333L173.33333333333334,361.67333333333335L186.66666666666666,365.03000000000003L200,366.42333333333335L213.33333333333334,367.9166666666667L226.66666666666666,367.50666666666666L240,367.46666666666664L253.33333333333331,368.65000000000003L266.66666666666663,368.49666666666667L280,370.03333333333336L293.3333333333333,370.8066666666667L306.6666666666667,373.53000000000003L320,372.95L333.33333333333337,372.43L346.6666666666667,372.13666666666666L360,371.3066666666667L373.3333333333333,374.1433333333333L386.6666666666667,372.18L400,372.96L413.33333333333337,372.14L426.6666666666667,373.3633333333333L440.00000000000006,371.1733333333333L453.3333333333333,371.4L466.6666666666667,374.14L480,373.4766666666667L493.33333333333337,373.31666666666666L506.66666666666663,373.06333333333333L520,372.9266666666667L533.3333333333333,372.85333333333335L546.6666666666666,373.4266666666667L560,373.7866666666667L573.3333333333334,374.61333333333334L586.6666666666666,372.9633333333333L600,372.2366666666667L613.3333333333334,373.71L626.6666666666666,372.53666666666663L640,373.81666666666666L653.3333333333334,373.08333333333337L666.6666666666667,371.88L680,372.91666666666663L693.3333333333334,373.06666666666666L706.6666666666666,372.5933333333333L720,373.02666666666664L733.3333333333333,372.3866666666667L746.6666666666666,373.42L760,372.38L773.3333333333334,373.97L786.6666666666666,371.2033333333333L800,371.05" stroke="#5f249f" stroke-width="6.2" opacity="0.05"/></g></g><path class="foreground" aria-hidden="true" d="" display="none"/></g></g><g class="mark-group role-scope layer_1_layer_4_pathgroup" role="graphics-object" aria-roledescription="group mark container"><g transform="translate(0,0)"><path class="background" aria-hidden="true" d="M0,0h800v400h-800Z"/><g><g class="mark-line role-mark layer_1_layer_4_marks" role="graphics-symbol" aria-roledescription="line mark container"><path d="M13.333333333333334,19.70333333333336L26.666666666666668,130.3433333333333L40,163.77L53.333333333333336,232.0033333333333L66.66666666666666,271.76L80,310.4066666666667L93.33333333333333,326.11333333333334L106.66666666666667,328.43666666666667L120,341.7866666666667L133.33333333333331,346.9533333333334L146.66666666666666,349.72666666666663L160,357.8566666666667L173.33333333333334,363.35L186.66666666666666,365.25333333333333L200,365.2833333333333L213.33333333333334,369.55L226.66666666666666,368.79333333333335L240,369.83000000000004L253.33333333333331,370.39L266.66666666666663,371.32666666666665L280,370.96666666666664L293.3333333333333,371.46L306.6666666666667,372.83L320,372.06L333.33333333333337,372.1166666666667L346.6666666666667,372.24333333333334L360,373.22333333333336L373.3333333333333,372.22333333333336L386.6666666666667,373.3666666666667L400,372.9433333333333L413.33333333333337,372.66666666666663L426.6666666666667,373.65L440.00000000000006,373.17999999999995L453.3333333333333,374.76666666666665L466.6666666666667,373.23L480,372.4533333333334L493.33333333333337,373.71333333333337L506.66666666666663,372.77L520,372.0833333333333L533.3333333333333,373.37L546.6666666666666,372.7966666666667L560,372.4866666666667L573.3333333333334,373.12333333333333L586.6666666666666,374.39666666666665L600,374.30333333333334L613.3333333333334,373.4166666666667L626.6666666666666,373.3566666666666L640,371.71666666666664L653.3333333333334,373.62333333333333L666.6666666666667,373.5L680,373.52666666666664L693.3333333333334,373.0933333333333L706.6666666666666,373.09000000000003L720,371.52L733.3333333333333,373.22L746.6666666666666,372.19L760,372.91666666666663L773.3333333333334,371.2633333333333L786.6666666666666,373.8666666666667L800,372.9633333333333" stroke="#228C22" stroke-width="7.25" opacity="0.05"/></g></g><path class="foreground" aria-hidden="true" d="" display="none"/></g><g transform="translate(0,0)"><path class="background" aria-hidden="true" d="M0,0h800v400h-800Z"/><g><g class="mark-line role-mark layer_1_layer_4_marks" role="graphics-symbol" aria-roledescription="line mark container"><path d="M13.333333333333334,19.686666666666675L26.666666666666668,131.73666666666665L40,164.65666666666667L53.333333333333336,235.26L66.66666666666666,270.9866666666667L80,309.95666666666665L93.33333333333333,323.3466666666667L106.66666666666667,337.12L120,340.78333333333336L133.33333333333331,345.83666666666664L146.66666666666666,350.46666666666664L160,356.2133333333333L173.33333333333334,361.67333333333335L186.66666666666666,365.03000000000003L200,366.42333333333335L213.33333333333334,367.9166666666667L226.66666666666666,367.50666666666666L240,367.46666666666664L253.33333333333331,368.65000000000003L266.66666666666663,368.49666666666667L280,370.03333333333336L293.3333333333333,370.8066666666667L306.6666666666667,373.53000000000003L320,372.95L333.33333333333337,372.43L346.6666666666667,372.13666666666666L360,371.3066666666667L373.3333333333333,374.1433333333333L386.6666666666667,372.18L400,372.96L413.33333333333337,372.14L426.6666666666667,373.3633333333333L440.00000000000006,371.1733333333333L453.3333333333333,371.4L466.6666666666667,374.14L480,373.4766666666667L493.33333333333337,373.31666666666666L506.66666666666663,373.06333333333333L520,372.9266666666667L533.3333333333333,372.85333333333335L546.6666666666666,373.4266666666667L560,373.7866666666667L573.3333333333334,374.61333333333334L586.6666666666666,372.9633333333333L600,372.2366666666667L613.3333333333334,373.71L626.6666666666666,372.53666666666663L640,373.81666666666666L653.3333333333334,373.08333333333337L666.6666666666667,371.88L680,372.91666666666663L693.3333333333334,373.06666666666666L706.6666666666666,372.5933333333333L720,373.02666666666664L733.3333333333333,372.3866666666667L746.6666666666666,373.42L760,372.38L773.3333333333334,373.97L786.6666666666666,371.2033333333333L800,371.05" stroke="#5f249f" stroke-width="7.25" opacity="0.05"/></g></g><path class="foreground" aria-hidden="true" d="" display="none"/></g></g><g class="mark-group role-scope layer_1_layer_5_pathgroup" role="graphics-object" aria-roledescription="group mark container"><g transform="translate(0,0)"><path class="background" aria-hidden="true" d="M0,0h800v400h-800Z"/><g><g class="mark-line role-mark layer_1_layer_5_marks" role="graphics-symbol" aria-roledescription="line mark container"><path d="M13.333333333333334,19.70333333333336L26.666666666666668,130.3433333333333L40,163.77L53.333333333333336,232.0033333333333L66.66666666666666,271.76L80,310.4066666666667L93.33333333333333,326.11333333333334L106.66666666666667,328.43666666666667L120,341.7866666666667L133.33333333333331,346.9533333333334L146.66666666666666,349.72666666666663L160,357.8566666666667L173.33333333333334,363.35L186.66666666666666,365.25333333333333L200,365.2833333333333L213.33333333333334,369.55L226.66666666666666,368.79333333333335L240,369.83000000000004L253.33333333333331,370.39L266.66666666666663,371.32666666666665L280,370.96666666666664L293.3333333333333,371.46L306.6666666666667,372.83L320,372.06L333.33333333333337,372.1166666666667L346.6666666666667,372.24333333333334L360,373.22333333333336L373.3333333333333,372.22333333333336L386.6666666666667,373.3666666666667L400,372.9433333333333L413.33333333333337,372.66666666666663L426.6666666666667,373.65L440.00000000000006,373.17999999999995L453.3333333333333,374.76666666666665L466.6666666666667,373.23L480,372.4533333333334L493.33333333333337,373.71333333333337L506.66666666666663,372.77L520,372.0833333333333L533.3333333333333,373.37L546.6666666666666,372.7966666666667L560,372.4866666666667L573.3333333333334,373.12333333333333L586.6666666666666,374.39666666666665L600,374.30333333333334L613.3333333333334,373.4166666666667L626.6666666666666,373.3566666666666L640,371.71666666666664L653.3333333333334,373.62333333333333L666.6666666666667,373.5L680,373.52666666666664L693.3333333333334,373.0933333333333L706.6666666666666,373.09000000000003L720,371.52L733.3333333333333,373.22L746.6666666666666,372.19L760,372.91666666666663L773.3333333333334,371.2633333333333L786.6666666666666,373.8666666666667L800,372.9633333333333" stroke="#228C22" stroke-width="8.3" opacity="0.05"/></g></g><path class="foreground" aria-hidden="true" d="" display="none"/></g><g transform="translate(0,0)"><path class="background" aria-hidden="true" d="M0,0h800v400h-800Z"/><g><g class="mark-line role-mark layer_1_layer_5_marks" role="graphics-symbol" aria-roledescription="line mark container"><path d="M13.333333333333334,19.686666666666675L26.666666666666668,131.73666666666665L40,164.65666666666667L53.333333333333336,235.26L66.66666666666666,270.9866666666667L80,309.95666666666665L93.33333333333333,323.3466666666667L106.66666666666667,337.12L120,340.78333333333336L133.33333333333331,345.83666666666664L146.66666666666666,350.46666666666664L160,356.2133333333333L173.33333333333334,361.67333333333335L186.66666666666666,365.03000000000003L200,366.42333333333335L213.33333333333334,367.9166666666667L226.66666666666666,367.50666666666666L240,367.46666666666664L253.33333333333331,368.65000000000003L266.66666666666663,368.49666666666667L280,370.03333333333336L293.3333333333333,370.8066666666667L306.6666666666667,373.53000000000003L320,372.95L333.33333333333337,372.43L346.6666666666667,372.13666666666666L360,371.3066666666667L373.3333333333333,374.1433333333333L386.6666666666667,372.18L400,372.96L413.33333333333337,372.14L426.6666666666667,373.3633333333333L440.00000000000006,371.1733333333333L453.3333333333333,371.4L466.6666666666667,374.14L480,373.4766666666667L493.33333333333337,373.31666666666666L506.66666666666663,373.06333333333333L520,372.9266666666667L533.3333333333333,372.85333333333335L546.6666666666666,373.4266666666667L560,373.7866666666667L573.3333333333334,374.61333333333334L586.6666666666666,372.9633333333333L600,372.2366666666667L613.3333333333334,373.71L626.6666666666666,372.53666666666663L640,373.81666666666666L653.3333333333334,373.08333333333337L666.6666666666667,371.88L680,372.91666666666663L693.3333333333334,373.06666666666666L706.6666666666666,372.5933333333333L720,373.02666666666664L733.3333333333333,372.3866666666667L746.6666666666666,373.42L760,372.38L773.3333333333334,373.97L786.6666666666666,371.2033333333333L800,371.05" stroke="#5f249f" stroke-width="8.3" opacity="0.05"/></g></g><path class="foreground" aria-hidden="true" d="" display="none"/></g></g><g class="mark-group role-scope layer_1_layer_6_pathgroup" role="graphics-object" aria-roledescription="group mark container"><g transform="translate(0,0)"><path class="background" aria-hidden="true" d="M0,0h800v400h-800Z"/><g><g class="mark-line role-mark layer_1_layer_6_marks" role="graphics-symbol" aria-roledescription="line mark container"><path d="M13.333333333333334,19.70333333333336L26.666666666666668,130.3433333333333L40,163.77L53.333333333333336,232.0033333333333L66.66666666666666,271.76L80,310.4066666666667L93.33333333333333,326.11333333333334L106.66666666666667,328.43666666666667L120,341.7866666666667L133.33333333333331,346.9533333333334L146.66666666666666,349.72666666666663L160,357.8566666666667L173.33333333333334,363.35L186.66666666666666,365.25333333333333L200,365.2833333333333L213.33333333333334,369.55L226.66666666666666,368.79333333333335L240,369.83000000000004L253.33333333333331,370.39L266.66666666666663,371.32666666666665L280,370.96666666666664L293.3333333333333,371.46L306.6666666666667,372.83L320,372.06L333.33333333333337,372.1166666666667L346.6666666666667,372.24333333333334L360,373.22333333333336L373.3333333333333,372.22333333333336L386.6666666666667,373.3666666666667L400,372.9433333333333L413.33333333333337,372.66666666666663L426.6666666666667,373.65L440.00000000000006,373.17999999999995L453.3333333333333,374.76666666666665L466.6666666666667,373.23L480,372.4533333333334L493.33333333333337,373.71333333333337L506.66666666666663,372.77L520,372.0833333333333L533.3333333333333,373.37L546.6666666666666,372.7966666666667L560,372.4866666666667L573.3333333333334,373.12333333333333L586.6666666666666,374.39666666666665L600,374.30333333333334L613.3333333333334,373.4166666666667L626.6666666666666,373.3566666666666L640,371.71666666666664L653.3333333333334,373.62333333333333L666.6666666666667,373.5L680,373.52666666666664L693.3333333333334,373.0933333333333L706.6666666666666,373.09000000000003L720,371.52L733.3333333333333,373.22L746.6666666666666,372.19L760,372.91666666666663L773.3333333333334,371.2633333333333L786.6666666666666,373.8666666666667L800,372.9633333333333" stroke="#228C22" stroke-width="9.350000000000001" opacity="0.05"/></g></g><path class="foreground" aria-hidden="true" d="" display="none"/></g><g transform="translate(0,0)"><path class="background" aria-hidden="true" d="M0,0h800v400h-800Z"/><g><g class="mark-line role-mark layer_1_layer_6_marks" role="graphics-symbol" aria-roledescription="line mark container"><path d="M13.333333333333334,19.686666666666675L26.666666666666668,131.73666666666665L40,164.65666666666667L53.333333333333336,235.26L66.66666666666666,270.9866666666667L80,309.95666666666665L93.33333333333333,323.3466666666667L106.66666666666667,337.12L120,340.78333333333336L133.33333333333331,345.83666666666664L146.66666666666666,350.46666666666664L160,356.2133333333333L173.33333333333334,361.67333333333335L186.66666666666666,365.03000000000003L200,366.42333333333335L213.33333333333334,367.9166666666667L226.66666666666666,367.50666666666666L240,367.46666666666664L253.33333333333331,368.65000000000003L266.66666666666663,368.49666666666667L280,370.03333333333336L293.3333333333333,370.8066666666667L306.6666666666667,373.53000000000003L320,372.95L333.33333333333337,372.43L346.6666666666667,372.13666666666666L360,371.3066666666667L373.3333333333333,374.1433333333333L386.6666666666667,372.18L400,372.96L413.33333333333337,372.14L426.6666666666667,373.3633333333333L440.00000000000006,371.1733333333333L453.3333333333333,371.4L466.6666666666667,374.14L480,373.4766666666667L493.33333333333337,373.31666666666666L506.66666666666663,373.06333333333333L520,372.9266666666667L533.3333333333333,372.85333333333335L546.6666666666666,373.4266666666667L560,373.7866666666667L573.3333333333334,374.61333333333334L586.6666666666666,372.9633333333333L600,372.2366666666667L613.3333333333334,373.71L626.6666666666666,372.53666666666663L640,373.81666666666666L653.3333333333334,373.08333333333337L666.6666666666667,371.88L680,372.91666666666663L693.3333333333334,373.06666666666666L706.6666666666666,372.5933333333333L720,373.02666666666664L733.3333333333333,372.3866666666667L746.6666666666666,373.42L760,372.38L773.3333333333334,373.97L786.6666666666666,371.2033333333333L800,371.05" stroke="#5f249f" stroke-width="9.350000000000001" opacity="0.05"/></g></g><path class="foreground" aria-hidden="true" d="" display="none"/></g></g><g class="mark-group role-scope layer_1_layer_7_pathgroup" role="graphics-object" aria-roledescription="group mark container"><g transform="translate(0,0)"><path class="background" aria-hidden="true" d="M0,0h800v400h-800Z"/><g><g class="mark-line role-mark layer_1_layer_7_marks" role="graphics-symbol" aria-roledescription="line mark container"><path d="M13.333333333333334,19.70333333333336L26.666666666666668,130.3433333333333L40,163.77L53.333333333333336,232.0033333333333L66.66666666666666,271.76L80,310.4066666666667L93.33333333333333,326.11333333333334L106.66666666666667,328.43666666666667L120,341.7866666666667L133.33333333333331,346.9533333333334L146.66666666666666,349.72666666666663L160,357.8566666666667L173.33333333333334,363.35L186.66666666666666,365.25333333333333L200,365.2833333333333L213.33333333333334,369.55L226.66666666666666,368.79333333333335L240,369.83000000000004L253.33333333333331,370.39L266.66666666666663,371.32666666666665L280,370.96666666666664L293.3333333333333,371.46L306.6666666666667,372.83L320,372.06L333.33333333333337,372.1166666666667L346.6666666666667,372.24333333333334L360,373.22333333333336L373.3333333333333,372.22333333333336L386.6666666666667,373.3666666666667L400,372.9433333333333L413.33333333333337,372.66666666666663L426.6666666666667,373.65L440.00000000000006,373.17999999999995L453.3333333333333,374.76666666666665L466.6666666666667,373.23L480,372.4533333333334L493.33333333333337,373.71333333333337L506.66666666666663,372.77L520,372.0833333333333L533.3333333333333,373.37L546.6666666666666,372.7966666666667L560,372.4866666666667L573.3333333333334,373.12333333333333L586.6666666666666,374.39666666666665L600,374.30333333333334L613.3333333333334,373.4166666666667L626.6666666666666,373.3566666666666L640,371.71666666666664L653.3333333333334,373.62333333333333L666.6666666666667,373.5L680,373.52666666666664L693.3333333333334,373.0933333333333L706.6666666666666,373.09000000000003L720,371.52L733.3333333333333,373.22L746.6666666666666,372.19L760,372.91666666666663L773.3333333333334,371.2633333333333L786.6666666666666,373.8666666666667L800,372.9633333333333" stroke="#228C22" stroke-width="10.4" opacity="0.05"/></g></g><path class="foreground" aria-hidden="true" d="" display="none"/></g><g transform="translate(0,0)"><path class="background" aria-hidden="true" d="M0,0h800v400h-800Z"/><g><g class="mark-line role-mark layer_1_layer_7_marks" role="graphics-symbol" aria-roledescription="line mark container"><path d="M13.333333333333334,19.686666666666675L26.666666666666668,131.73666666666665L40,164.65666666666667L53.333333333333336,235.26L66.66666666666666,270.9866666666667L80,309.95666666666665L93.33333333333333,323.3466666666667L106.66666666666667,337.12L120,340.78333333333336L133.33333333333331,345.83666666666664L146.66666666666666,350.46666666666664L160,356.2133333333333L173.33333333333334,361.67333333333335L186.66666666666666,365.03000000000003L200,366.42333333333335L213.33333333333334,367.9166666666667L226.66666666666666,367.50666666666666L240,367.46666666666664L253.33333333333331,368.65000000000003L266.66666666666663,368.49666666666667L280,370.03333333333336L293.3333333333333,370.8066666666667L306.6666666666667,373.53000000000003L320,372.95L333.33333333333337,372.43L346.6666666666667,372.13666666666666L360,371.3066666666667L373.3333333333333,374.1433333333333L386.6666666666667,372.18L400,372.96L413.33333333333337,372.14L426.6666666666667,373.3633333333333L440.00000000000006,371.1733333333333L453.3333333333333,371.4L466.6666666666667,374.14L480,373.4766666666667L493.33333333333337,373.31666666666666L506.66666666666663,373.06333333333333L520,372.9266666666667L533.3333333333333,372.85333333333335L546.6666666666666,373.4266666666667L560,373.7866666666667L573.3333333333334,374.61333333333334L586.6666666666666,372.9633333333333L600,372.2366666666667L613.3333333333334,373.71L626.6666666666666,372.53666666666663L640,373.81666666666666L653.3333333333334,373.08333333333337L666.6666666666667,371.88L680,372.91666666666663L693.3333333333334,373.06666666666666L706.6666666666666,372.5933333333333L720,373.02666666666664L733.3333333333333,372.3866666666667L746.6666666666666,373.42L760,372.38L773.3333333333334,373.97L786.6666666666666,371.2033333333333L800,371.05" stroke="#5f249f" stroke-width="10.4" opacity="0.05"/></g></g><path class="foreground" aria-hidden="true" d="" display="none"/></g></g><g class="mark-group role-scope layer_1_layer_8_pathgroup" role="graphics-object" aria-roledescription="group mark container"><g transform="translate(0,0)"><path class="background" aria-hidden="true" d="M0,0h800v400h-800Z"/><g><g class="mark-line role-mark layer_1_layer_8_marks" role="graphics-symbol" aria-roledescription="line mark container"><path d="M13.333333333333334,19.70333333333336L26.666666666666668,130.3433333333333L40,163.77L53.333333333333336,232.0033333333333L66.66666666666666,271.76L80,310.4066666666667L93.33333333333333,326.11333333333334L106.66666666666667,328.43666666666667L120,341.7866666666667L133.33333333333331,346.9533333333334L146.66666666666666,349.72666666666663L160,357.8566666666667L173.33333333333334,363.35L186.66666666666666,365.25333333333333L200,365.2833333333333L213.33333333333334,369.55L226.66666666666666,368.79333333333335L240,369.83000000000004L253.33333333333331,370.39L266.66666666666663,371.32666666666665L280,370.96666666666664L293.3333333333333,371.46L306.6666666666667,372.83L320,372.06L333.33333333333337,372.1166666666667L346.6666666666667,372.24333333333334L360,373.22333333333336L373.3333333333333,372.22333333333336L386.6666666666667,373.3666666666667L400,372.9433333333333L413.33333333333337,372.66666666666663L426.6666666666667,373.65L440.00000000000006,373.17999999999995L453.3333333333333,374.76666666666665L466.6666666666667,373.23L480,372.4533333333334L493.33333333333337,373.71333333333337L506.66666666666663,372.77L520,372.0833333333333L533.3333333333333,373.37L546.6666666666666,372.7966666666667L560,372.4866666666667L573.3333333333334,373.12333333333333L586.6666666666666,374.39666666666665L600,374.30333333333334L613.3333333333334,373.4166666666667L626.6666666666666,373.3566666666666L640,371.71666666666664L653.3333333333334,373.62333333333333L666.6666666666667,373.5L680,373.52666666666664L693.3333333333334,373.0933333333333L706.6666666666666,373.09000000000003L720,371.52L733.3333333333333,373.22L746.6666666666666,372.19L760,372.91666666666663L773.3333333333334,371.2633333333333L786.6666666666666,373.8666666666667L800,372.9633333333333" stroke="#228C22" stroke-width="11.450000000000001" opacity="0.05"/></g></g><path class="foreground" aria-hidden="true" d="" display="none"/></g><g transform="translate(0,0)"><path class="background" aria-hidden="true" d="M0,0h800v400h-800Z"/><g><g class="mark-line role-mark layer_1_layer_8_marks" role="graphics-symbol" aria-roledescription="line mark container"><path d="M13.333333333333334,19.686666666666675L26.666666666666668,131.73666666666665L40,164.65666666666667L53.333333333333336,235.26L66.66666666666666,270.9866666666667L80,309.95666666666665L93.33333333333333,323.3466666666667L106.66666666666667,337.12L120,340.78333333333336L133.33333333333331,345.83666666666664L146.66666666666666,350.46666666666664L160,356.2133333333333L173.33333333333334,361.67333333333335L186.66666666666666,365.03000000000003L200,366.42333333333335L213.33333333333334,367.9166666666667L226.66666666666666,367.50666666666666L240,367.46666666666664L253.33333333333331,368.65000000000003L266.66666666666663,368.49666666666667L280,370.03333333333336L293.3333333333333,370.8066666666667L306.6666666666667,373.53000000000003L320,372.95L333.33333333333337,372.43L346.6666666666667,372.13666666666666L360,371.3066666666667L373.3333333333333,374.1433333333333L386.6666666666667,372.18L400,372.96L413.33333333333337,372.14L426.6666666666667,373.3633333333333L440.00000000000006,371.1733333333333L453.3333333333333,371.4L466.6666666666667,374.14L480,373.4766666666667L493.33333333333337,373.31666666666666L506.66666666666663,373.06333333333333L520,372.9266666666667L533.3333333333333,372.85333333333335L546.6666666666666,373.4266666666667L560,373.7866666666667L573.3333333333334,374.61333333333334L586.6666666666666,372.9633333333333L600,372.2366666666667L613.3333333333334,373.71L626.6666666666666,372.53666666666663L640,373.81666666666666L653.3333333333334,373.08333333333337L666.6666666666667,371.88L680,372.91666666666663L693.3333333333334,373.06666666666666L706.6666666666666,372.5933333333333L720,373.02666666666664L733.3333333333333,372.3866666666667L746.6666666666666,373.42L760,372.38L773.3333333333334,373.97L786.6666666666666,371.2033333333333L800,371.05" stroke="#5f249f" stroke-width="11.450000000000001" opacity="0.05"/></g></g><path class="foreground" aria-hidden="true" d="" display="none"/></g></g><g class="mark-group role-scope layer_1_layer_9_pathgroup" role="graphics-object" aria-roledescription="group mark container"><g transform="translate(0,0)"><path class="background" aria-hidden="true" d="M0,0h800v400h-800Z"/><g><g class="mark-line role-mark layer_1_layer_9_marks" role="graphics-symbol" aria-roledescription="line mark container"><path d="M13.333333333333334,19.70333333333336L26.666666666666668,130.3433333333333L40,163.77L53.333333333333336,232.0033333333333L66.66666666666666,271.76L80,310.4066666666667L93.33333333333333,326.11333333333334L106.66666666666667,328.43666666666667L120,341.7866666666667L133.33333333333331,346.9533333333334L146.66666666666666,349.72666666666663L160,357.8566666666667L173.33333333333334,363.35L186.66666666666666,365.25333333333333L200,365.2833333333333L213.33333333333334,369.55L226.66666666666666,368.79333333333335L240,369.83000000000004L253.33333333333331,370.39L266.66666666666663,371.32666666666665L280,370.96666666666664L293.3333333333333,371.46L306.6666666666667,372.83L320,372.06L333.33333333333337,372.1166666666667L346.6666666666667,372.24333333333334L360,373.22333333333336L373.3333333333333,372.22333333333336L386.6666666666667,373.3666666666667L400,372.9433333333333L413.33333333333337,372.66666666666663L426.6666666666667,373.65L440.00000000000006,373.17999999999995L453.3333333333333,374.76666666666665L466.6666666666667,373.23L480,372.4533333333334L493.33333333333337,373.71333333333337L506.66666666666663,372.77L520,372.0833333333333L533.3333333333333,373.37L546.6666666666666,372.7966666666667L560,372.4866666666667L573.3333333333334,373.12333333333333L586.6666666666666,374.39666666666665L600,374.30333333333334L613.3333333333334,373.4166666666667L626.6666666666666,373.3566666666666L640,371.71666666666664L653.3333333333334,373.62333333333333L666.6666666666667,373.5L680,373.52666666666664L693.3333333333334,373.0933333333333L706.6666666666666,373.09000000000003L720,371.52L733.3333333333333,373.22L746.6666666666666,372.19L760,372.91666666666663L773.3333333333334,371.2633333333333L786.6666666666666,373.8666666666667L800,372.9633333333333" stroke="#228C22" stroke-width="12.5" opacity="0.05"/></g></g><path class="foreground" aria-hidden="true" d="" display="none"/></g><g transform="translate(0,0)"><path class="background" aria-hidden="true" d="M0,0h800v400h-800Z"/><g><g class="mark-line role-mark layer_1_layer_9_marks" role="graphics-symbol" aria-roledescription="line mark container"><path d="M13.333333333333334,19.686666666666675L26.666666666666668,131.73666666666665L40,164.65666666666667L53.333333333333336,235.26L66.66666666666666,270.9866666666667L80,309.95666666666665L93.33333333333333,323.3466666666667L106.66666666666667,337.12L120,340.78333333333336L133.33333333333331,345.83666666666664L146.66666666666666,350.46666666666664L160,356.2133333333333L173.33333333333334,361.67333333333335L186.66666666666666,365.03000000000003L200,366.42333333333335L213.33333333333334,367.9166666666667L226.66666666666666,367.50666666666666L240,367.46666666666664L253.33333333333331,368.65000000000003L266.66666666666663,368.49666666666667L280,370.03333333333336L293.3333333333333,370.8066666666667L306.6666666666667,373.53000000000003L320,372.95L333.33333333333337,372.43L346.6666666666667,372.13666666666666L360,371.3066666666667L373.3333333333333,374.1433333333333L386.6666666666667,372.18L400,372.96L413.33333333333337,372.14L426.6666666666667,373.3633333333333L440.00000000000006,371.1733333333333L453.3333333333333,371.4L466.6666666666667,374.14L480,373.4766666666667L493.33333333333337,373.31666666666666L506.66666666666663,373.06333333333333L520,372.9266666666667L533.3333333333333,372.85333333333335L546.6666666666666,373.4266666666667L560,373.7866666666667L573.3333333333334,374.61333333333334L586.6666666666666,372.9633333333333L600,372.2366666666667L613.3333333333334,373.71L626.6666666666666,372.53666666666663L640,373.81666666666666L653.3333333333334,373.08333333333337L666.6666666666667,371.88L680,372.91666666666663L693.3333333333334,373.06666666666666L706.6666666666666,372.5933333333333L720,373.02666666666664L733.3333333333333,372.3866666666667L746.6666666666666,373.42L760,372.38L773.3333333333334,373.97L786.6666666666666,371.2033333333333L800,371.05" stroke="#5f249f" stroke-width="12.5" opacity="0.05"/></g></g><path class="foreground" aria-hidden="true" d="" display="none"/></g></g><g class="mark-group role-legend" role="graphics-symbol" aria-roledescription="legend" aria-label="Symbol legend titled 'PCAs' for fill color and stroke color with 2 values: from scratch, scikit-learn"><g transform="translate(831,0)"><path class="background" aria-hidden="true" d="M0,0h72v45h-72Z" pointer-events="none"/><g><g class="mark-group role-legend-entry"><g transform="translate(0,16)"><path class="background" aria-hidden="true" d="M0,0h0v0h0Z" pointer-events="none"/><g><g class="mark-group role-scope" role="graphics-object" aria-roledescription="group mark container"><g transform="translate(0,0)"><path class="background" aria-hidden="true" d="M0,0h71.009765625v12.5h-71.009765625Z" pointer-events="none" opacity="1"/><g><g class="mark-symbol role-legend-symbol" pointer-events="none"><path transform="translate(6,6)" d="M5,0A5,5,0,1,1,-5,0A5,5,0,1,1,5,0" fill="#228C22" fill-opacity="0.4" stroke="#228C22" stroke-width="1.5" opacity="0.7"/></g><g class="mark-text role-legend-label" pointer-events="none"><text text-anchor="start" transform="translate(16,9)" font-family="sans-serif" font-size="10px" fill="#444444" opacity="1">from scratch</text></g></g><path class="foreground" aria-hidden="true" d="" pointer-events="none" display="none"/></g><g transform="translate(0,16)"><path class="background" aria-hidden="true" d="M0,0h71.009765625v12.5h-71.009765625Z" pointer-events="none" opacity="1"/><g><g class="mark-symbol role-legend-symbol" pointer-events="none"><path transform="translate(6,6)" d="M5,0A5,5,0,1,1,-5,0A5,5,0,1,1,5,0" fill="#5f249f" fill-opacity="0.4" stroke="#5f249f" stroke-width="1.5" opacity="0.7"/></g><g class="mark-text role-legend-label" pointer-events="none"><text text-anchor="start" transform="translate(16,9)" font-family="sans-serif" font-size="10px" fill="#444444" opacity="1">scikit-learn</text></g></g><path class="foreground" aria-hidden="true" d="" pointer-events="none" display="none"/></g></g></g><path class="foreground" aria-hidden="true" d="" pointer-events="none" display="none"/></g></g><g class="mark-text role-legend-title" pointer-events="none"><text text-anchor="start" transform="translate(0,9)" font-family="sans-serif" font-size="11px" font-weight="bold" fill="#444444" opacity="1">PCAs</text></g></g><path class="foreground" aria-hidden="true" d="" pointer-events="none" display="none"/></g></g></g><path class="foreground" aria-hidden="true" d="" display="none"/></g></g></g></svg>