<svg xmlns="http://www.w3.org/2000/svg" xmlns:xlink="http://www.w3.org/1999/xlink" version="1.1" class="marks" width="947" height="454" viewBox="0 0 947 454"><rect width="947" height="454" fill="#efefef"/><g fill="none" stroke-miterlimit="10" transform="translate(39,17)"><g class="mark-group role-frame root" role="graphics-object" aria-roledescription="group mark container"><g transform="translate(0,0)"><path class="background" aria-hidden="true" d="M0.5,0.5h800v400h-800Z" stroke="#ddd"/><g><g class="mark-group role-axis" role="graphics-symbol" aria-roledescription="axis" aria-label="X-axis for a linear scale with values from 0 to 60"><g transform="translate(0.5,400.5)"><path class="background" aria-hidden="true" d="M0,0h0v0h0Z" pointer-events="none"/><g><g class="mark-rule role-axis-grid" pointer-events="none"><line transform="translate(0,-400)" x2="0" y2="400" stroke="#ffffff" stroke-width="1" opacity="1"/><line transform="translate(27,-400)" x2="0" y2="400" stroke="#ffffff" stroke-width="1" opacity="1"/><line transform="translate(53,-400)" x2="0" y2="400" stroke="#ffffff" stroke-width="1" opacity="1"/><line transform="translate(80,-400)" x2="0" y2="400" stroke="#ffffff" stroke-width="1" opacity="1"/><line transform="translate(107,-400)" x2="0" y2="400" stroke="#ffffff" stroke-width="1" opacity="1"/><line transform="translate(133,-400)" x2="0" y2="400" stroke="#ffffff" stroke-width="1" opacity="1"/><line transform="translate(160,-400)" x2="0" y2="400" stroke="#ffffff" stroke-width="1" opacity="1"/><line transform="translate(187,-400)" x2="0" y2="400" stroke="#ffffff" stroke-width="1" opacity="1"/><line transform="translate(213,-400)" x2="0" y2="400" stroke="#ffffff" stroke-width="1" opacity="1"/><line transform="translate(240,-400)" x2="0" y2="400" stroke="#ffffff" stroke-width="1" opacity="1"/><line transform="translate(267,-400)" x2="0" y2="400" stroke="#ffffff" stroke-width="1" opacity="1"/><line transform="translate(293,-400)" x2="0" y2="400" stroke="#ffffff" stroke-width="1" opacity="1"/><line transform="translate(320,-400)" x2="0" y2="400" stroke="#ffffff" stroke-width="1" opacity="1"/><line transform="translate(347,-400)" x2="0" y2="400" stroke="#ffffff" stroke-width="1" opacity="1"/><line transform="translate(373,-400)" x2="0" y2="400" stroke="#ffffff" stroke-width="1" opacity="1"/><line transform="translate(400,-400)" x2="0" y2="400" stroke="#ffffff" stroke-width="1" opacity="1"/><line transform="translate(427,-400)" x2="0" y2="400" stroke="#ffffff" stroke-width="1" opacity="1"/><line transform="translate(453,-400)" x2="0" y2="400" stroke="#ffffff" stroke-width="1" opacity="1"/><line transform="translate(480,-400)" x2="0" y2="400" stroke="#ffffff" stroke-width="1" opacity="1"/><line transform="translate(507,-400)" x2="0" y2="400" stroke="#ffffff" stroke-width="1" opacity="1"/><line transform="translate(533,-400)" x2="0" y2="400" stroke="#ffffff" stroke-width="1" opacity="1"/><line transform="translate(560,-400)" x2="0" y2="400" stroke="#ffffff" stroke-width="1" opacity="1"/><line transform="translate(587,-400)" x2="0" y2="400" stroke="#ffffff" stroke-width="1" opacity="1"/><line transform="translate(613,-400)" x2="0" y2="400" stroke="#ffffff" stroke-width="1" opacity="1"/><line transform="translate(640,-400)" x2="0" y2="400" stroke="#ffffff" stroke-width="1" opacity="1"/><line transform="translate(667,-400)" x2="0" y2="400" stroke="#ffffff" stroke-width="1" opacity="1"/><line transform="translate(693,-400)" x2="0" y2="400" stroke="#ffffff" stroke-width="1" opacity="1"/><line transform="translate(720,-400)" x2="0" y2="400" stroke="#ffffff" stroke-width="1" opacity="1"/><line transform="translate(747,-400)" x2="0" y2="400" stroke="#ffffff" stroke-width="1" opacity="1"/><line transform="translate(773,-400)" x2="0" y2="400" stroke="#ffffff" stroke-width="1" opacity="1"/><line transform="translate(800,-400)" x2="0" y2="400" stroke="#ffffff" stroke-width="1" opacity="1"/></g></g><path class="foreground" aria-hidden="true" d="" pointer-events="none" display="none"/></g></g><g class="mark-group role-axis" role="graphics-symbol" aria-roledescription="axis" aria-label="Y-axis for a linear scale with values from 0 to 10"><g transform="translate(0.5,0.5)"><path class="background" aria-hidden="true" d="M0,0h0v0h0Z" pointer-events="none"/><g><g class="mark-rule role-axis-grid" pointer-events="none"><line transform="translate(0,400)" x2="800" y2="0" stroke="#ffffff" stroke-width="1" opacity="1"/><line transform="translate(0,360)" x2="800" y2="0" stroke="#ffffff" stroke-width="1" opacity="1"/><line transform="translate(0,320)" x2="800" y2="0" stroke="#ffffff" stroke-width="1" opacity="1"/><line transform="translate(0,280)" x2="800" y2="0" stroke="#ffffff" stroke-width="1" opacity="1"/><line transform="translate(0,240)" x2="800" y2="0" stroke="#ffffff" stroke-width="1" opacity="1"/><line transform="translate(0,200)" x2="800" y2="0" stroke="#ffffff" stroke-width="1" opacity="1"/><line transform="translate(0,160)" x2="800" y2="0" stroke="#ffffff" stroke-width="1" opacity="1"/><line transform="translate(0,120)" x2="800" y2="0" stroke="#ffffff" stroke-width="1" opacity="1"/><line transform="translate(0,80)" x2="800" y2="0" stroke="#ffffff" stroke-width="1" opacity="1"/><line transform="translate(0,40)" x2="800" y2="0" stroke="#ffffff" stroke-width="1" opacity="1"/><line transform="translate(0,0)" x2="800" y2="0" stroke="#ffffff" stroke-width="1" opacity="1"/></g></g><path class="foreground" aria-hidden="true" d="" pointer-events="none" display="none"/></g></g><g class="mark-group role-axis" role="graphics-symbol" aria-roledescription="axis" aria-label="X-axis titled 'Number of Components' for a linear scale with values from 0 to 60"><g transform="translate(0.5,400.5)"><path class="background" aria-hidden="true" d="M0,0h0v0h0Z" pointer-events="none"/><g><g class="mark-rule role-axis-tick" pointer-events="none"><line transform="translate(0,0)" x2="0" y2="5" stroke-width="1" opacity="1"/><line transform="translate(27,0)" x2="0" y2="5" stroke-width="1" opacity="1"/><line transform="translate(53,0)" x2="0" y2="5" stroke-width="1" opacity="1"/><line transform="translate(80,0)" x2="0" y2="5" stroke-width="1" opacity="1"/><line transform="translate(107,0)" x2="0" y2="5" stroke-width="1" opacity="1"/><line transform="translate(133,0)" x2="0" y2="5" stroke-width="1" opacity="1"/><line transform="translate(160,0)" x2="0" y2="5" stroke-width="1" opacity="1"/><line transform="translate(187,0)" x2="0" y2="5" stroke-width="1" opacity="1"/><line transform="translate(213,0)" x2="0" y2="5" stroke-width="1" opacity="1"/><line transform="translate(240,0)" x2="0" y2="5" stroke-width="1" opacity="1"/><line transform="translate(267,0)" x2="0" y2="5" stroke-width="1" opacity="1"/><line transform="translate(293,0)" x2="0" y2="5" stroke-width="1" opacity="1"/><line transform="translate(320,0)" x2="0" y2="5" stroke-width="1" opacity="1"/><line transform="translate(347,0)" x2="0" y2="5" stroke-width="1" opacity="1"/><line transform="translate(373,0)" x2="0" y2="5" stroke-width="1" opacity="1"/><line transform="translate(400,0)" x2="0" y2="5" stroke-width="1" opacity="1"/><line transform="translate(427,0)" x2="0" y2="5" stroke-width="1" opacity="1"/><line transform="translate(453,0)" x2="0" y2="5" stroke-width="1" opacity="1"/><line transform="translate(480,0)" x2="0" y2="5" stroke-width="1" opacity="1"/><line transform="translate(507,0)" x2="0" y2="5" stroke-width="1" opacity="1"/><line transform="translate(533,0)" x2="0" y2="5" stroke-width="1" opacity="1"/><line transform="translate(560,0)" x2="0" y2="5" stroke-width="1" opacity="1"/><line transform="translate(587,0)" x2="0" y2="5" stroke-width="1" opacity="1"/><line transform="translate(613,0)" x2="0" y2="5" stroke-width="1" opacity="1"/><line transform="translate(640,0)" x2="0" y2="5" stroke-width="1" opacity="1"/><line transform="translate(667,0)" x2="0" y2="5" stroke-width="1" opacity="1"/><line transform="translate(693,0)" x2="0" y2="5" stroke-width="1" opacity="1"/><line transform="translate(720,0)" x2="0" y2="5" stroke-width="1" opacity="1"/><line transform="translate(747,0)" x2="0" y2="5" stroke-width="1" opacity="1"/><line transform="translate(773,0)" x2="0" y2="5" stroke-width="1" opacity="1"/><line transform="translate(800,0)" x2="0" y2="5" stroke-width="1" opacity="1"/></g><g class="mark-text role-axis-label" pointer-events="none"><text text-anchor="start" transform="translate(0,15)" font-family="sans-serif" font-size="10px" fill="#444444" opacity="1">0</text><text text-anchor="middle" transform="translate(26.666666666666668,15)" font-family="sans-serif" font-size="10px" fill="#444444" opacity="1">2</text><text text-anchor="middle" transform="translate(53.333333333333336,15)" font-family="sans-serif" font-size="10px" fill="#444444" opacity="1">4</text><text text-anchor="middle" transform="translate(80,15)" font-family="sans-serif" font-size="10px" fill="#444444" opacity="1">6</text><text text-anchor="middle" transform="translate(106.66666666666667,15)" font-family="sans-serif" font-size="10px" fill="#444444" opacity="1">8</text><text text-anchor="middle" transform="translate(133.33333333333331,15)" font-family="sans-serif" font-size="10px" fill="#444444" opacity="1">10</text><text text-anchor="middle" transform="translate(160,15)" font-family="sans-serif" font-size="10px" fill="#444444" opacity="1">12</text><text text-anchor="middle" transform="translate(186.66666666666666,15)" font-family="sans-serif" font-size="10px" fill="#444444" opacity="1">14</text><text text-anchor="middle" transform="translate(213.33333333333334,15)" font-family="sans-serif" font-size="10px" fill="#444444" opacity="1">16</text><text text-anchor="middle" transform="translate(240,15)" font-family="sans-serif" font-size="10px" fill="#444444" opacity="1">18</text><text text-anchor="middle" transform="translate(266.66666666666663,15)" font-family="sans-serif" font-size="10px" fill="#444444" opacity="1">20</text><text text-anchor="middle" transform="translate(293.3333333333333,15)" font-family="sans-serif" font-size="10px" fill="#444444" opacity="1">22</text><text text-anchor="middle" transform="translate(320,15)" font-family="sans-serif" font-size="10px" fill="#444444" opacity="1">24</text><text text-anchor="middle" transform="translate(346.6666666666667,15)" font-family="sans-serif" font-size="10px" fill="#444444" opacity="1">26</text><text text-anchor="middle" transform="translate(373.3333333333333,15)" font-family="sans-serif" font-size="10px" fill="#444444" opacity="1">28</text><text text-anchor="middle" transform="translate(400,15)" font-family="sans-serif" font-size="10px" fill="#444444" opacity="1">30</text><text text-anchor="middle" transform="translate(426.6666666666667,15)" font-family="sans-serif" font-size="10px" fill="#444444" opacity="1">32</text><text text-anchor="middle" transform="translate(453.3333333333333,15)" font-family="sans-serif" font-size="10px" fill="#444444" opacity="1">34</text><text text-anchor="middle" transform="translate(480,15)" font-family="sans-serif" font-size="10px" fill="#444444" opacity="1">36</text><text text-anchor="middle" transform="translate(506.66666666666663,15)" font-family="sans-serif" font-size="10px" fill="#444444" opacity="1">38</text><text text-anchor="middle" transform="translate(533.3333333333333,15)" font-family="sans-serif" font-size="10px" fill="#444444" opacity="1">40</text><text text-anchor="middle" transform="translate(560,15)" font-family="sans-serif" font-size="10px" fill="#444444" opacity="1">42</text><text text-anchor="middle" transform="translate(586.6666666666666,15)" font-family="sans-serif" font-size="10px" fill="#444444" opacity="1">44</text><text text-anchor="middle" transform="translate(613.3333333333334,15)" font-family="sans-serif" font-size="10px" fill="#444444" opacity="1">46</text><text text-anchor="middle" transform="translate(640,15)" font-family="sans-serif" font-size="10px" fill="#444444" opacity="1">48</text><text text-anchor="middle" transform="translate(666.6666666666667,15)" font-family="sans-serif" font-size="10px" fill="#444444" opacity="1">50</text><text text-anchor="middle" transform="translate(693.3333333333334,15)" font-family="sans-serif" font-size="10px" fill="#444444" opacity="1">52</text><text text-anchor="middle" transform="translate(720,15)" font-family="sans-serif" font-size="10px" fill="#444444" opacity="1">54</text><text text-anchor="middle" transform="translate(746.6666666666666,15)" font-family="sans-serif" font-size="10px" fill="#444444" opacity="1">56</text><text text-anchor="middle" transform="translate(773.3333333333334,15)" font-family="sans-serif" font-size="10px" fill="#444444" opacity="1">58</text><text text-anchor="end" transform="translate(800,15)" font-family="sans-serif" font-size="10px" fill="#444444" opacity="1">60</text></g><g class="mark-rule role-axis-domain" pointer-events="none"><line transform="translate(0,0)" x2="800" y2="0" stroke-width="1" opacity="1"/></g><g class="mark-text role-axis-title" pointer-events="none"><text text-anchor="middle" transform="translate(400,30)" font-family="sans-serif" font-size="11px" font-weight="bold" fill="#444444" opacity="1">Number of Components</text></g></g><path class="foreground" aria-hidden="true" d="" pointer-events="none" display="none"/></g></g><g class="mark-group role-axis" role="graphics-symbol" aria-roledescription="axis" aria-label="Y-axis titled 'Time in seconds' for a linear scale with values from 0 to 10"><g transform="translate(0.5,0.5)"><path class="background" aria-hidden="true" d="M0,0h0v0h0Z" pointer-events="none"/><g><g class="mark-rule role-axis-tick" pointer-events="none"><line transform="translate(0,400)" x2="-5" y2="0" stroke-width="1" opacity="1"/><line transform="translate(0,360)" x2="-5" y2="0" stroke-width="1" opacity="1"/><line transform="translate(0,320)" x2="-5" y2="0" stroke-width="1" opacity="1"/><line transform="translate(0,280)" x2="-5" y2="0" stroke-width="1" opacity="1"/><line transform="translate(0,240)" x2="-5" y2="0" stroke-width="1" opacity="1"/><line transform="translate(0,200)" x2="-5" y2="0" stroke-width="1" opacity="1"/><line transform="translate(0,160)" x2="-5" y2="0" stroke-width="1" opacity="1"/><line transform="translate(0,120)" x2="-5" y2="0" stroke-width="1" opacity="1"/><line transform="translate(0,80)" x2="-5" y2="0" stroke-width="1" opacity="1"/><line transform="translate(0,40)" x2="-5" y2="0" stroke-width="1" opacity="1"/><line transform="translate(0,0)" x2="-5" y2="0" stroke-width="1" opacity="1"/></g><g class="mark-text role-axis-label" pointer-events="none"><text text-anchor="end" transform="translate(-7,403)" font-family="sans-serif" font-size="10px" fill="#444444" opacity="1">0</text><text text-anchor="end" transform="translate(-7,363)" font-family="sans-serif" font-size="10px" fill="#444444" opacity="1">1</text><text text-anchor="end" transform="translate(-7,323)" font-family="sans-serif" font-size="10px" fill="#444444" opacity="1">2</text><text text-anchor="end" transform="translate(-7,283)" font-family="sans-serif" font-size="10px" fill="#444444" opacity="1">3</text><text text-anchor="end" transform="translate(-7,243)" font-family="sans-serif" font-size="10px" fill="#444444" opacity="1">4</text><text text-anchor="end" transform="translate(-7,203)" font-family="sans-serif" font-size="10px" fill="#444444" opacity="1">5</text><text text-anchor="end" transform="translate(-7,163)" font-family="sans-serif" font-size="10px" fill="#444444" opacity="1">6</text><text text-anchor="end" transform="translate(-7,123.00000000000001)" font-family="sans-serif" font-size="10px" fill="#444444" opacity="1">7</text><text text-anchor="end" transform="translate(-7,82.99999999999999)" font-family="sans-serif" font-size="10px" fill="#444444" opacity="1">8</text><text text-anchor="end" transform="translate(-7,42.99999999999999)" font-family="sans-serif" font-size="10px" fill="#444444" opacity="1">9</text><text text-anchor="end" transform="translate(-7,3)" font-family="sans-serif" font-size="10px" fill="#444444" opacity="1">10</text></g><g class="mark-rule role-axis-domain" pointer-events="none"><line transform="translate(0,400)" x2="0" y2="-400" stroke-width="1" opacity="1"/></g><g class="mark-text role-axis-title" pointer-events="none"><text text-anchor="middle" transform="translate(-22.123046875,200) rotate(-90) translate(0,-2)" font-family="sans-serif" font-size="11px" font-weight="bold" fill="#444444" opacity="1">Time in seconds</text></g></g><path class="foreground" aria-hidden="true" d="" pointer-events="none" display="none"/></g></g><g class="mark-group role-scope layer_0_layer_0_pathgroup" role="graphics-object" aria-roledescription="group mark container"><g transform="translate(0,0)"><path class="background" aria-hidden="true" d="M0,0h800v400h-800Z"/><g><g class="mark-area role-mark layer_0_layer_0_marks" role="graphics-symbol" aria-roledescription="area mark container"><path d="M13.333333333333334,352.72836685180664L26.666666666666668,337.4246311187744L40,331.7044258117676L53.333333333333336,337.11745262145996L66.66666666666666,336.6338348388672L80,346.44506454467773L93.33333333333333,335.0659370422363L106.66666666666667,339.2248344421387L120,343.20396423339844L133.33333333333331,316.2154960632324L146.66666666666666,338.1707763671875L160,337.7437400817871L173.33333333333334,333.6716938018799L186.66666666666666,340.24682998657227L200,333.72530937194824L213.33333333333334,330.60221672058105L226.66666666666666,320.8565139770508L240,336.1378765106201L253.33333333333331,334.5365619659424L266.66666666666663,328.0704689025879L280,318.33370208740234L293.3333333333333,328.6866569519043L306.6666666666667,327.13722229003906L320,321.31263732910156L333.33333333333337,330.461368560791L346.6666666666667,311.6573715209961L360,323.2177543640137L373.3333333333333,321.2678050994873L386.6666666666667,320.82900047302246L400,311.6274356842041L413.33333333333337,286.7627716064453L426.6666666666667,319.5182418823242L440.00000000000006,319.5415496826172L453.3333333333333,302.11177825927734L466.6666666666667,318.48520278930664L480,307.42350578308105L493.33333333333337,309.8142910003662L506.66666666666663,306.88175201416016L520,317.6613140106201L533.3333333333333,337.7292537689209L546.6666666666666,342.97940254211426L560,340.08116722106934L573.3333333333334,309.36147689819336L586.6666666666666,335.47691345214844L600,291.40841484069824L613.3333333333334,224.5926189422607L626.6666666666666,161.66194915771484L640,341.5208148956299L653.3333333333334,332.20415115356445L666.6666666666667,311.95398330688477L680,299.24723625183105L693.3333333333334,300.4696846008301L706.6666666666666,271.4095878601074L720,304.71452713012695L733.3333333333333,309.24551010131836L746.6666666666666,316.41900062561035L760,311.54541015625L773.3333333333334,332.2104263305664L786.6666666666666,228.86734008789062L800,333.4604835510254L800,400L786.6666666666666,400L773.3333333333334,400L760,400L746.6666666666666,400L733.3333333333333,400L720,400L706.6666666666666,400L693.3333333333334,400L680,400L666.6666666666667,400L653.3333333333334,400L640,400L626.6666666666666,400L613.3333333333334,400L600,400L586.6666666666666,400L573.3333333333334,400L560,400L546.6666666666666,400L533.3333333333333,400L520,400L506.66666666666663,400L493.33333333333337,400L480,400L466.6666666666667,400L453.3333333333333,400L440.00000000000006,400L426.6666666666667,400L413.33333333333337,400L400,400L386.6666666666667,400L373.3333333333333,400L360,400L346.6666666666667,400L333.33333333333337,400L320,400L306.6666666666667,400L293.3333333333333,400L280,400L266.66666666666663,400L253.33333333333331,400L240,400L226.66666666666666,400L213.33333333333334,400L200,400L186.66666666666666,400L173.33333333333334,400L160,400L146.66666666666666,400L133.33333333333331,400L120,400L106.66666666666667,400L93.33333333333333,400L80,400L66.66666666666666,400L53.333333333333336,400L40,400L26.666666666666668,400L13.333333333333334,400Z" fill="#228C22" fill-opacity="0.4" opacity="0.7"/></g></g><path class="foreground" aria-hidden="true" d="" display="none"/></g><g transform="translate(0,0)"><path class="background" aria-hidden="true" d="M0,0h800v400h-800Z"/><g><g class="mark-area role-mark layer_0_layer_0_marks" role="graphics-symbol" aria-roledescription="area mark container"><path d="M13.333333333333334,247.77935981750488L26.666666666666668,279.67702865600586L40,274.5543098449707L53.333333333333336,271.95042610168457L66.66666666666666,256.6930961608887L80,250.67071914672852L93.33333333333333,233.6279201507568L106.66666666666667,241.16473197937012L120,204.99990463256833L133.33333333333331,234.17703628540042L146.66666666666666,223.92384529113772L160,232.80588150024414L173.33333333333334,214.89064216613772L186.66666666666666,223.58990669250488L200,219.39081192016602L213.33333333333334,224.08212661743164L226.66666666666666,212.45719909667972L240,220.11672019958496L253.33333333333331,200.45259475708005L266.66666666666663,183.6556243896484L280,213.2816123962402L293.3333333333333,224.84599113464355L306.6666666666667,121.1050033569336L320,219.27231788635254L333.33333333333337,209.68816757202146L346.6666666666667,200.1679611206055L360,180.21202087402344L373.3333333333333,199.45640563964844L386.6666666666667,189.06414031982425L400,162.82405853271484L413.33333333333337,155.5411434173584L426.6666666666667,132.90023803710938L440.00000000000006,178.6627197265625L453.3333333333333,171.7254638671875L466.6666666666667,172.2112274169922L480,172.88177490234372L493.33333333333337,168.59760284423828L506.66666666666663,165.3122138977051L520,213.03194999694824L533.3333333333333,173.72746467590332L546.6666666666666,179.46098327636716L560,195.702543258667L573.3333333333334,163.8845443725586L586.6666666666666,196.26482009887692L600,33.743724822998054L613.3333333333334,0.5031585693359375L626.6666666666666,189.76506233215332L640,167.32156753540036L653.3333333333334,178.8809299468994L666.6666666666667,152.4419593811035L680,185.4002571105957L693.3333333333334,205.07784843444824L706.6666666666666,177.4456024169922L720,196.74129486083984L733.3333333333333,166.0867214202881L746.6666666666666,191.34129524230957L760,150.61288833618164L773.3333333333334,190.93326568603516L786.6666666666666,189.19983863830566L800,130.39974212646484L800,400L786.6666666666666,400L773.3333333333334,400L760,400L746.6666666666666,400L733.3333333333333,400L720,400L706.6666666666666,400L693.3333333333334,400L680,400L666.6666666666667,400L653.3333333333334,400L640,400L626.6666666666666,400L613.3333333333334,400L600,400L586.6666666666666,400L573.3333333333334,400L560,400L546.6666666666666,400L533.3333333333333,400L520,400L506.66666666666663,400L493.33333333333337,400L480,400L466.6666666666667,400L453.3333333333333,400L440.00000000000006,400L426.6666666666667,400L413.33333333333337,400L400,400L386.6666666666667,400L373.3333333333333,400L360,400L346.6666666666667,400L333.33333333333337,400L320,400L306.6666666666667,400L293.3333333333333,400L280,400L266.66666666666663,400L253.33333333333331,400L240,400L226.66666666666666,400L213.33333333333334,400L200,400L186.66666666666666,400L173.33333333333334,400L160,400L146.66666666666666,400L133.33333333333331,400L120,400L106.66666666666667,400L93.33333333333333,400L80,400L66.66666666666666,400L53.333333333333336,400L40,400L26.666666666666668,400L13.333333333333334,400Z" fill="#5f249f" fill-opacity="0.4" opacity="0.7"/></g></g><path class="foreground" aria-hidden="true" d="" display="none"/></g></g><g class="mark-group role-scope layer_0_layer_1_pathgroup" role="graphics-object" aria-roledescription="group mark container"><g transform="translate(0,0)"><path class="background" aria-hidden="true" d="M0,0h800v400h-800Z"/><g><g class="mark-line role-mark layer_0_layer_1_marks" role="graphics-symbol" aria-roledescription="line mark container"><path d="M13.333333333333334,352.72836685180664L26.666666666666668,337.4246311187744L40,331.7044258117676L53.333333333333336,337.11745262145996L66.66666666666666,336.6338348388672L80,346.44506454467773L93.33333333333333,335.0659370422363L106.66666666666667,339.2248344421387L120,343.20396423339844L133.33333333333331,316.2154960632324L146.66666666666666,338.1707763671875L160,337.7437400817871L173.33333333333334,333.6716938018799L186.66666666666666,340.24682998657227L200,333.72530937194824L213.33333333333334,330.60221672058105L226.66666666666666,320.8565139770508L240,336.1378765106201L253.33333333333331,334.5365619659424L266.66666666666663,328.0704689025879L280,318.33370208740234L293.3333333333333,328.6866569519043L306.6666666666667,327.13722229003906L320,321.31263732910156L333.33333333333337,330.461368560791L346.6666666666667,311.6573715209961L360,323.2177543640137L373.3333333333333,321.2678050994873L386.6666666666667,320.82900047302246L400,311.6274356842041L413.33333333333337,286.7627716064453L426.6666666666667,319.5182418823242L440.00000000000006,319.5415496826172L453.3333333333333,302.11177825927734L466.6666666666667,318.48520278930664L480,307.42350578308105L493.33333333333337,309.8142910003662L506.66666666666663,306.88175201416016L520,317.6613140106201L533.3333333333333,337.7292537689209L546.6666666666666,342.97940254211426L560,340.08116722106934L573.3333333333334,309.36147689819336L586.6666666666666,335.47691345214844L600,291.40841484069824L613.3333333333334,224.5926189422607L626.6666666666666,161.66194915771484L640,341.5208148956299L653.3333333333334,332.20415115356445L666.6666666666667,311.95398330688477L680,299.24723625183105L693.3333333333334,300.4696846008301L706.6666666666666,271.4095878601074L720,304.71452713012695L733.3333333333333,309.24551010131836L746.6666666666666,316.41900062561035L760,311.54541015625L773.3333333333334,332.2104263305664L786.6666666666666,228.86734008789062L800,333.4604835510254" stroke="#228C22" stroke-width="2"/></g></g><path class="foreground" aria-hidden="true" d="" display="none"/></g><g transform="translate(0,0)"><path class="background" aria-hidden="true" d="M0,0h800v400h-800Z"/><g><g class="mark-line role-mark layer_0_layer_1_marks" role="graphics-symbol" aria-roledescription="line mark container"><path d="M13.333333333333334,247.77935981750488L26.666666666666668,279.67702865600586L40,274.5543098449707L53.333333333333336,271.95042610168457L66.66666666666666,256.6930961608887L80,250.67071914672852L93.33333333333333,233.6279201507568L106.66666666666667,241.16473197937012L120,204.99990463256833L133.33333333333331,234.17703628540042L146.66666666666666,223.92384529113772L160,232.80588150024414L173.33333333333334,214.89064216613772L186.66666666666666,223.58990669250488L200,219.39081192016602L213.33333333333334,224.08212661743164L226.66666666666666,212.45719909667972L240,220.11672019958496L253.33333333333331,200.45259475708005L266.66666666666663,183.6556243896484L280,213.2816123962402L293.3333333333333,224.84599113464355L306.6666666666667,121.1050033569336L320,219.27231788635254L333.33333333333337,209.68816757202146L346.6666666666667,200.1679611206055L360,180.21202087402344L373.3333333333333,199.45640563964844L386.6666666666667,189.06414031982425L400,162.82405853271484L413.33333333333337,155.5411434173584L426.6666666666667,132.90023803710938L440.00000000000006,178.6627197265625L453.3333333333333,171.7254638671875L466.6666666666667,172.2112274169922L480,172.88177490234372L493.33333333333337,168.59760284423828L506.66666666666663,165.3122138977051L520,213.03194999694824L533.3333333333333,173.72746467590332L546.6666666666666,179.46098327636716L560,195.702543258667L573.3333333333334,163.8845443725586L586.6666666666666,196.26482009887692L600,33.743724822998054L613.3333333333334,0.5031585693359375L626.6666666666666,189.76506233215332L640,167.32156753540036L653.3333333333334,178.8809299468994L666.6666666666667,152.4419593811035L680,185.4002571105957L693.3333333333334,205.07784843444824L706.6666666666666,177.4456024169922L720,196.74129486083984L733.3333333333333,166.0867214202881L746.6666666666666,191.34129524230957L760,150.61288833618164L773.3333333333334,190.93326568603516L786.6666666666666,189.19983863830566L800,130.39974212646484" stroke="#5f249f" stroke-width="2"/></g></g><path class="foreground" aria-hidden="true" d="" display="none"/></g></g><g class="mark-group role-scope layer_1_layer_0_pathgroup" role="graphics-object" aria-roledescription="group mark container"><g transform="translate(0,0)"><path class="background" aria-hidden="true" d="M0,0h800v400h-800Z"/><g><g class="mark-line role-mark layer_1_layer_0_marks" role="graphics-symbol" aria-roledescription="line mark container"><path d="M13.333333333333334,352.72836685180664L26.666666666666668,337.4246311187744L40,331.7044258117676L53.333333333333336,337.11745262145996L66.66666666666666,336.6338348388672L80,346.44506454467773L93.33333333333333,335.0659370422363L106.66666666666667,339.2248344421387L120,343.20396423339844L133.33333333333331,316.2154960632324L146.66666666666666,338.1707763671875L160,337.7437400817871L173.33333333333334,333.6716938018799L186.66666666666666,340.24682998657227L200,333.72530937194824L213.33333333333334,330.60221672058105L226.66666666666666,320.8565139770508L240,336.1378765106201L253.33333333333331,334.5365619659424L266.66666666666663,328.0704689025879L280,318.33370208740234L293.3333333333333,328.6866569519043L306.6666666666667,327.13722229003906L320,321.31263732910156L333.33333333333337,330.461368560791L346.6666666666667,311.6573715209961L360,323.2177543640137L373.3333333333333,321.2678050994873L386.6666666666667,320.82900047302246L400,311.6274356842041L413.33333333333337,286.7627716064453L426.6666666666667,319.5182418823242L440.00000000000006,319.5415496826172L453.3333333333333,302.11177825927734L466.6666666666667,318.48520278930664L480,307.42350578308105L493.33333333333337,309.8142910003662L506.66666666666663,306.88175201416016L520,317.6613140106201L533.3333333333333,337.7292537689209L546.6666666666666,342.97940254211426L560,340.08116722106934L573.3333333333334,309.36147689819336L586.6666666666666,335.47691345214844L600,291.40841484069824L613.3333333333334,224.5926189422607L626.6666666666666,161.66194915771484L640,341.5208148956299L653.3333333333334,332.20415115356445L666.6666666666667,311.95398330688477L680,299.24723625183105L693.3333333333334,300.4696846008301L706.6666666666666,271.4095878601074L720,304.71452713012695L733.3333333333333,309.24551010131836L746.6666666666666,316.41900062561035L760,311.54541015625L773.3333333333334,332.2104263305664L786.6666666666666,228.86734008789062L800,333.4604835510254" stroke="#228C22" stroke-width="3.05" opacity="0.05"/></g></g><path class="foreground" aria-hidden="true" d="" display="none"/></g><g transform="translate(0,0)"><path class="background" aria-hidden="true" d="M0,0h800v400h-800Z"/><g><g class="mark-line role-mark layer_1_layer_0_marks" role="graphics-symbol" aria-roledescription="line mark container"><path d="M13.333333333333334,247.77935981750488L26.666666666666668,279.67702865600586L40,274.5543098449707L53.333333333333336,271.95042610168457L66.66666666666666,256.6930961608887L80,250.67071914672852L93.33333333333333,233.6279201507568L106.66666666666667,241.16473197937012L120,204.99990463256833L133.33333333333331,234.17703628540042L146.66666666666666,223.92384529113772L160,232.80588150024414L173.33333333333334,214.89064216613772L186.66666666666666,223.58990669250488L200,219.39081192016602L213.33333333333334,224.08212661743164L226.66666666666666,212.45719909667972L240,220.11672019958496L253.33333333333331,200.45259475708005L266.66666666666663,183.6556243896484L280,213.2816123962402L293.3333333333333,224.84599113464355L306.6666666666667,121.1050033569336L320,219.27231788635254L333.33333333333337,209.68816757202146L346.6666666666667,200.1679611206055L360,180.21202087402344L373.3333333333333,199.45640563964844L386.6666666666667,189.06414031982425L400,162.82405853271484L413.33333333333337,155.5411434173584L426.6666666666667,132.90023803710938L440.00000000000006,178.6627197265625L453.3333333333333,171.7254638671875L466.6666666666667,172.2112274169922L480,172.88177490234372L493.33333333333337,168.59760284423828L506.66666666666663,165.3122138977051L520,213.03194999694824L533.3333333333333,173.72746467590332L546.6666666666666,179.46098327636716L560,195.702543258667L573.3333333333334,163.8845443725586L586.6666666666666,196.26482009887692L600,33.743724822998054L613.3333333333334,0.5031585693359375L626.6666666666666,189.76506233215332L640,167.32156753540036L653.3333333333334,178.8809299468994L666.6666666666667,152.4419593811035L680,185.4002571105957L693.3333333333334,205.07784843444824L706.6666666666666,177.4456024169922L720,196.74129486083984L733.3333333333333,166.0867214202881L746.6666666666666,191.34129524230957L760,150.61288833618164L773.3333333333334,190.93326568603516L786.6666666666666,189.19983863830566L800,130.39974212646484" stroke="#5f249f" stroke-width="3.05" opacity="0.05"/></g></g><path class="foreground" aria-hidden="true" d="" display="none"/></g></g><g class="mark-group role-scope layer_1_layer_1_pathgroup" role="graphics-object" aria-roledescription="group mark container"><g transform="translate(0,0)"><path class="background" aria-hidden="true" d="M0,0h800v400h-800Z"/><g><g class="mark-line role-mark layer_1_layer_1_marks" role="graphics-symbol" aria-roledescription="line mark container"><path d="M13.333333333333334,352.72836685180664L26.666666666666668,337.4246311187744L40,331.7044258117676L53.333333333333336,337.11745262145996L66.66666666666666,336.6338348388672L80,346.44506454467773L93.33333333333333,335.0659370422363L106.66666666666667,339.2248344421387L120,343.20396423339844L133.33333333333331,316.2154960632324L146.66666666666666,338.1707763671875L160,337.7437400817871L173.33333333333334,333.6716938018799L186.66666666666666,340.24682998657227L200,333.72530937194824L213.33333333333334,330.60221672058105L226.66666666666666,320.8565139770508L240,336.1378765106201L253.33333333333331,334.5365619659424L266.66666666666663,328.0704689025879L280,318.33370208740234L293.3333333333333,328.6866569519043L306.6666666666667,327.13722229003906L320,321.31263732910156L333.33333333333337,330.461368560791L346.6666666666667,311.6573715209961L360,323.2177543640137L373.3333333333333,321.2678050994873L386.6666666666667,320.82900047302246L400,311.6274356842041L413.33333333333337,286.7627716064453L426.6666666666667,319.5182418823242L440.00000000000006,319.5415496826172L453.3333333333333,302.11177825927734L466.6666666666667,318.48520278930664L480,307.42350578308105L493.33333333333337,309.8142910003662L506.66666666666663,306.88175201416016L520,317.6613140106201L533.3333333333333,337.7292537689209L546.6666666666666,342.97940254211426L560,340.08116722106934L573.3333333333334,309.36147689819336L586.6666666666666,335.47691345214844L600,291.40841484069824L613.3333333333334,224.5926189422607L626.6666666666666,161.66194915771484L640,341.5208148956299L653.3333333333334,332.20415115356445L666.6666666666667,311.95398330688477L680,299.24723625183105L693.3333333333334,300.4696846008301L706.6666666666666,271.4095878601074L720,304.71452713012695L733.3333333333333,309.24551010131836L746.6666666666666,316.41900062561035L760,311.54541015625L773.3333333333334,332.2104263305664L786.6666666666666,228.86734008789062L800,333.4604835510254" stroke="#228C22" stroke-width="4.1" opacity="0.05"/></g></g><path class="foreground" aria-hidden="true" d="" display="none"/></g><g transform="translate(0,0)"><path class="background" aria-hidden="true" d="M0,0h800v400h-800Z"/><g><g class="mark-line role-mark layer_1_layer_1_marks" role="graphics-symbol" aria-roledescription="line mark container"><path d="M13.333333333333334,247.77935981750488L26.666666666666668,279.67702865600586L40,274.5543098449707L53.333333333333336,271.95042610168457L66.66666666666666,256.6930961608887L80,250.67071914672852L93.33333333333333,233.6279201507568L106.66666666666667,241.16473197937012L120,204.99990463256833L133.33333333333331,234.17703628540042L146.66666666666666,223.92384529113772L160,232.80588150024414L173.33333333333334,214.89064216613772L186.66666666666666,223.58990669250488L200,219.39081192016602L213.33333333333334,224.08212661743164L226.66666666666666,212.45719909667972L240,220.11672019958496L253.33333333333331,200.45259475708005L266.66666666666663,183.6556243896484L280,213.2816123962402L293.3333333333333,224.84599113464355L306.6666666666667,121.1050033569336L320,219.27231788635254L333.33333333333337,209.68816757202146L346.6666666666667,200.1679611206055L360,180.21202087402344L373.3333333333333,199.45640563964844L386.6666666666667,189.06414031982425L400,162.82405853271484L413.33333333333337,155.5411434173584L426.6666666666667,132.90023803710938L440.00000000000006,178.6627197265625L453.3333333333333,171.7254638671875L466.6666666666667,172.2112274169922L480,172.88177490234372L493.33333333333337,168.59760284423828L506.66666666666663,165.3122138977051L520,213.03194999694824L533.3333333333333,173.72746467590332L546.6666666666666,179.46098327636716L560,195.702543258667L573.3333333333334,163.8845443725586L586.6666666666666,196.26482009887692L600,33.743724822998054L613.3333333333334,0.5031585693359375L626.6666666666666,189.76506233215332L640,167.32156753540036L653.3333333333334,178.8809299468994L666.6666666666667,152.4419593811035L680,185.4002571105957L693.3333333333334,205.07784843444824L706.6666666666666,177.4456024169922L720,196.74129486083984L733.3333333333333,166.0867214202881L746.6666666666666,191.34129524230957L760,150.61288833618164L773.3333333333334,190.93326568603516L786.6666666666666,189.19983863830566L800,130.39974212646484" stroke="#5f249f" stroke-width="4.1" opacity="0.05"/></g></g><path class="foreground" aria-hidden="true" d="" display="none"/></g></g><g class="mark-group role-scope layer_1_layer_2_pathgroup" role="graphics-object" aria-roledescription="group mark container"><g transform="translate(0,0)"><path class="background" aria-hidden="true" d="M0,0h800v400h-800Z"/><g><g class="mark-line role-mark layer_1_layer_2_marks" role="graphics-symbol" aria-roledescription="line mark container"><path d="M13.333333333333334,352.72836685180664L26.666666666666668,337.4246311187744L40,331.7044258117676L53.333333333333336,337.11745262145996L66.66666666666666,336.6338348388672L80,346.44506454467773L93.33333333333333,335.0659370422363L106.66666666666667,339.2248344421387L120,343.20396423339844L133.33333333333331,316.2154960632324L146.66666666666666,338.1707763671875L160,337.7437400817871L173.33333333333334,333.6716938018799L186.66666666666666,340.24682998657227L200,333.72530937194824L213.33333333333334,330.60221672058105L226.66666666666666,320.8565139770508L240,336.1378765106201L253.33333333333331,334.5365619659424L266.66666666666663,328.0704689025879L280,318.33370208740234L293.3333333333333,328.6866569519043L306.6666666666667,327.13722229003906L320,321.31263732910156L333.33333333333337,330.461368560791L346.6666666666667,311.6573715209961L360,323.2177543640137L373.3333333333333,321.2678050994873L386.6666666666667,320.82900047302246L400,311.6274356842041L413.33333333333337,286.7627716064453L426.6666666666667,319.5182418823242L440.00000000000006,319.5415496826172L453.3333333333333,302.11177825927734L466.6666666666667,318.48520278930664L480,307.42350578308105L493.33333333333337,309.8142910003662L506.66666666666663,306.88175201416016L520,317.6613140106201L533.3333333333333,337.7292537689209L546.6666666666666,342.97940254211426L560,340.08116722106934L573.3333333333334,309.36147689819336L586.6666666666666,335.47691345214844L600,291.40841484069824L613.3333333333334,224.5926189422607L626.6666666666666,161.66194915771484L640,341.5208148956299L653.3333333333334,332.20415115356445L666.6666666666667,311.95398330688477L680,299.24723625183105L693.3333333333334,300.4696846008301L706.6666666666666,271.4095878601074L720,304.71452713012695L733.3333333333333,309.24551010131836L746.6666666666666,316.41900062561035L760,311.54541015625L773.3333333333334,332.2104263305664L786.6666666666666,228.86734008789062L800,333.4604835510254" stroke="#228C22" stroke-width="5.15" opacity="0.05"/></g></g><path class="foreground" aria-hidden="true" d="" display="none"/></g><g transform="translate(0,0)"><path class="background" aria-hidden="true" d="M0,0h800v400h-800Z"/><g><g class="mark-line role-mark layer_1_layer_2_marks" role="graphics-symbol" aria-roledescription="line mark container"><path d="M13.333333333333334,247.77935981750488L26.666666666666668,279.67702865600586L40,274.5543098449707L53.333333333333336,271.95042610168457L66.66666666666666,256.6930961608887L80,250.67071914672852L93.33333333333333,233.6279201507568L106.66666666666667,241.16473197937012L120,204.99990463256833L133.33333333333331,234.17703628540042L146.66666666666666,223.92384529113772L160,232.80588150024414L173.33333333333334,214.89064216613772L186.66666666666666,223.58990669250488L200,219.39081192016602L213.33333333333334,224.08212661743164L226.66666666666666,212.45719909667972L240,220.11672019958496L253.33333333333331,200.45259475708005L266.66666666666663,183.6556243896484L280,213.2816123962402L293.3333333333333,224.84599113464355L306.6666666666667,121.1050033569336L320,219.27231788635254L333.33333333333337,209.68816757202146L346.6666666666667,200.1679611206055L360,180.21202087402344L373.3333333333333,199.45640563964844L386.6666666666667,189.06414031982425L400,162.82405853271484L413.33333333333337,155.5411434173584L426.6666666666667,132.90023803710938L440.00000000000006,178.6627197265625L453.3333333333333,171.7254638671875L466.6666666666667,172.2112274169922L480,172.88177490234372L493.33333333333337,168.59760284423828L506.66666666666663,165.3122138977051L520,213.03194999694824L533.3333333333333,173.72746467590332L546.6666666666666,179.46098327636716L560,195.702543258667L573.3333333333334,163.8845443725586L586.6666666666666,196.26482009887692L600,33.743724822998054L613.3333333333334,0.5031585693359375L626.6666666666666,189.76506233215332L640,167.32156753540036L653.3333333333334,178.8809299468994L666.6666666666667,152.4419593811035L680,185.4002571105957L693.3333333333334,205.07784843444824L706.6666666666666,177.4456024169922L720,196.74129486083984L733.3333333333333,166.0867214202881L746.6666666666666,191.34129524230957L760,150.61288833618164L773.3333333333334,190.93326568603516L786.6666666666666,189.19983863830566L800,130.39974212646484" stroke="#5f249f" stroke-width="5.15" opacity="0.05"/></g></g><path class="foreground" aria-hidden="true" d="" display="none"/></g></g><g class="mark-group role-scope layer_1_layer_3_pathgroup" role="graphics-object" aria-roledescription="group mark container"><g transform="translate(0,0)"><path class="background" aria-hidden="true" d="M0,0h800v400h-800Z"/><g><g class="mark-line role-mark layer_1_layer_3_marks" role="graphics-symbol" aria-roledescription="line mark container"><path d="M13.333333333333334,352.72836685180664L26.666666666666668,337.4246311187744L40,331.7044258117676L53.333333333333336,337.11745262145996L66.66666666666666,336.6338348388672L80,346.44506454467773L93.33333333333333,335.0659370422363L106.66666666666667,339.2248344421387L120,343.20396423339844L133.33333333333331,316.2154960632324L146.66666666666666,338.1707763671875L160,337.7437400817871L173.33333333333334,333.6716938018799L186.66666666666666,340.24682998657227L200,333.72530937194824L213.33333333333334,330.60221672058105L226.66666666666666,320.8565139770508L240,336.1378765106201L253.33333333333331,334.5365619659424L266.66666666666663,328.0704689025879L280,318.33370208740234L293.3333333333333,328.6866569519043L306.6666666666667,327.13722229003906L320,321.31263732910156L333.33333333333337,330.461368560791L346.6666666666667,311.6573715209961L360,323.2177543640137L373.3333333333333,321.2678050994873L386.6666666666667,320.82900047302246L400,311.6274356842041L413.33333333333337,286.7627716064453L426.6666666666667,319.5182418823242L440.00000000000006,319.5415496826172L453.3333333333333,302.11177825927734L466.6666666666667,318.48520278930664L480,307.42350578308105L493.33333333333337,309.8142910003662L506.66666666666663,306.88175201416016L520,317.6613140106201L533.3333333333333,337.7292537689209L546.6666666666666,342.97940254211426L560,340.08116722106934L573.3333333333334,309.36147689819336L586.6666666666666,335.47691345214844L600,291.40841484069824L613.3333333333334,224.5926189422607L626.6666666666666,161.66194915771484L640,341.5208148956299L653.3333333333334,332.20415115356445L666.6666666666667,311.95398330688477L680,299.24723625183105L693.3333333333334,300.4696846008301L706.6666666666666,271.4095878601074L720,304.71452713012695L733.3333333333333,309.24551010131836L746.6666666666666,316.41900062561035L760,311.54541015625L773.3333333333334,332.2104263305664L786.6666666666666,228.86734008789062L800,333.4604835510254" stroke="#228C22" stroke-width="6.2" opacity="0.05"/></g></g><path class="foreground" aria-hidden="true" d="" display="none"/></g><g transform="translate(0,0)"><path class="background" aria-hidden="true" d="M0,0h800v400h-800Z"/><g><g class="mark-line role-mark layer_1_layer_3_marks" role="graphics-symbol" aria-roledescription="line mark container"><path d="M13.333333333333334,247.77935981750488L26.666666666666668,279.67702865600586L40,274.5543098449707L53.333333333333336,271.95042610168457L66.66666666666666,256.6930961608887L80,250.67071914672852L93.33333333333333,233.6279201507568L106.66666666666667,241.16473197937012L120,204.99990463256833L133.33333333333331,234.17703628540042L146.66666666666666,223.92384529113772L160,232.80588150024414L173.33333333333334,214.89064216613772L186.66666666666666,223.58990669250488L200,219.39081192016602L213.33333333333334,224.08212661743164L226.66666666666666,212.45719909667972L240,220.11672019958496L253.33333333333331,200.45259475708005L266.66666666666663,183.6556243896484L280,213.2816123962402L293.3333333333333,224.84599113464355L306.6666666666667,121.1050033569336L320,219.27231788635254L333.33333333333337,209.68816757202146L346.6666666666667,200.1679611206055L360,180.21202087402344L373.3333333333333,199.45640563964844L386.6666666666667,189.06414031982425L400,162.82405853271484L413.33333333333337,155.5411434173584L426.6666666666667,132.90023803710938L440.00000000000006,178.6627197265625L453.3333333333333,171.7254638671875L466.6666666666667,172.2112274169922L480,172.88177490234372L493.33333333333337,168.59760284423828L506.66666666666663,165.3122138977051L520,213.03194999694824L533.3333333333333,173.72746467590332L546.6666666666666,179.46098327636716L560,195.702543258667L573.3333333333334,163.8845443725586L586.6666666666666,196.26482009887692L600,33.743724822998054L613.3333333333334,0.5031585693359375L626.6666666666666,189.76506233215332L640,167.32156753540036L653.3333333333334,178.8809299468994L666.6666666666667,152.4419593811035L680,185.4002571105957L693.3333333333334,205.07784843444824L706.6666666666666,177.4456024169922L720,196.74129486083984L733.3333333333333,166.0867214202881L746.6666666666666,191.34129524230957L760,150.61288833618164L773.3333333333334,190.93326568603516L786.6666666666666,189.19983863830566L800,130.39974212646484" stroke="#5f249f" stroke-width="6.2" opacity="0.05"/></g></g><path class="foreground" aria-hidden="true" d="" display="none"/></g></g><g class="mark-group role-scope layer_1_layer_4_pathgroup" role="graphics-object" aria-roledescription="group mark container"><g transform="translate(0,0)"><path class="background" aria-hidden="true" d="M0,0h800v400h-800Z"/><g><g class="mark-line role-mark layer_1_layer_4_marks" role="graphics-symbol" aria-roledescription="line mark container"><path d="M13.333333333333334,352.72836685180664L26.666666666666668,337.4246311187744L40,331.7044258117676L53.333333333333336,337.11745262145996L66.66666666666666,336.6338348388672L80,346.44506454467773L93.33333333333333,335.0659370422363L106.66666666666667,339.2248344421387L120,343.20396423339844L133.33333333333331,316.2154960632324L146.66666666666666,338.1707763671875L160,337.7437400817871L173.33333333333334,333.6716938018799L186.66666666666666,340.24682998657227L200,333.72530937194824L213.33333333333334,330.60221672058105L226.66666666666666,320.8565139770508L240,336.1378765106201L253.33333333333331,334.5365619659424L266.66666666666663,328.0704689025879L280,318.33370208740234L293.3333333333333,328.6866569519043L306.6666666666667,327.13722229003906L320,321.31263732910156L333.33333333333337,330.461368560791L346.6666666666667,311.6573715209961L360,323.2177543640137L373.3333333333333,321.2678050994873L386.6666666666667,320.82900047302246L400,311.6274356842041L413.33333333333337,286.7627716064453L426.6666666666667,319.5182418823242L440.00000000000006,319.5415496826172L453.3333333333333,302.11177825927734L466.6666666666667,318.48520278930664L480,307.42350578308105L493.33333333333337,309.8142910003662L506.66666666666663,306.88175201416016L520,317.6613140106201L533.3333333333333,337.7292537689209L546.6666666666666,342.97940254211426L560,340.08116722106934L573.3333333333334,309.36147689819336L586.6666666666666,335.47691345214844L600,291.40841484069824L613.3333333333334,224.5926189422607L626.6666666666666,161.66194915771484L640,341.5208148956299L653.3333333333334,332.20415115356445L666.6666666666667,311.95398330688477L680,299.24723625183105L693.3333333333334,300.4696846008301L706.6666666666666,271.4095878601074L720,304.71452713012695L733.3333333333333,309.24551010131836L746.6666666666666,316.41900062561035L760,311.54541015625L773.3333333333334,332.2104263305664L786.6666666666666,228.86734008789062L800,333.4604835510254" stroke="#228C22" stroke-width="7.25" opacity="0.05"/></g></g><path class="foreground" aria-hidden="true" d="" display="none"/></g><g transform="translate(0,0)"><path class="background" aria-hidden="true" d="M0,0h800v400h-800Z"/><g><g class="mark-line role-mark layer_1_layer_4_marks" role="graphics-symbol" aria-roledescription="line mark container"><path d="M13.333333333333334,247.77935981750488L26.666666666666668,279.67702865600586L40,274.5543098449707L53.333333333333336,271.95042610168457L66.66666666666666,256.6930961608887L80,250.67071914672852L93.33333333333333,233.6279201507568L106.66666666666667,241.16473197937012L120,204.99990463256833L133.33333333333331,234.17703628540042L146.66666666666666,223.92384529113772L160,232.80588150024414L173.33333333333334,214.89064216613772L186.66666666666666,223.58990669250488L200,219.39081192016602L213.33333333333334,224.08212661743164L226.66666666666666,212.45719909667972L240,220.11672019958496L253.33333333333331,200.45259475708005L266.66666666666663,183.6556243896484L280,213.2816123962402L293.3333333333333,224.84599113464355L306.6666666666667,121.1050033569336L320,219.27231788635254L333.33333333333337,209.68816757202146L346.6666666666667,200.1679611206055L360,180.21202087402344L373.3333333333333,199.45640563964844L386.6666666666667,189.06414031982425L400,162.82405853271484L413.33333333333337,155.5411434173584L426.6666666666667,132.90023803710938L440.00000000000006,178.6627197265625L453.3333333333333,171.7254638671875L466.6666666666667,172.2112274169922L480,172.88177490234372L493.33333333333337,168.59760284423828L506.66666666666663,165.3122138977051L520,213.03194999694824L533.3333333333333,173.72746467590332L546.6666666666666,179.46098327636716L560,195.702543258667L573.3333333333334,163.8845443725586L586.6666666666666,196.26482009887692L600,33.743724822998054L613.3333333333334,0.5031585693359375L626.6666666666666,189.76506233215332L640,167.32156753540036L653.3333333333334,178.8809299468994L666.6666666666667,152.4419593811035L680,185.4002571105957L693.3333333333334,205.07784843444824L706.6666666666666,177.4456024169922L720,196.74129486083984L733.3333333333333,166.0867214202881L746.6666666666666,191.34129524230957L760,150.61288833618164L773.3333333333334,190.93326568603516L786.6666666666666,189.19983863830566L800,130.39974212646484" stroke="#5f249f" stroke-width="7.25" opacity="0.05"/></g></g><path class="foreground" aria-hidden="true" d="" display="none"/></g></g><g class="mark-group role-scope layer_1_layer_5_pathgroup" role="graphics-object" aria-roledescription="group mark container"><g transform="translate(0,0)"><path class="background" aria-hidden="true" d="M0,0h800v400h-800Z"/><g><g class="mark-line role-mark layer_1_layer_5_marks" role="graphics-symbol" aria-roledescription="line mark container"><path d="M13.333333333333334,352.72836685180664L26.666666666666668,337.4246311187744L40,331.7044258117676L53.333333333333336,337.11745262145996L66.66666666666666,336.6338348388672L80,346.44506454467773L93.33333333333333,335.0659370422363L106.66666666666667,339.2248344421387L120,343.20396423339844L133.33333333333331,316.2154960632324L146.66666666666666,338.1707763671875L160,337.7437400817871L173.33333333333334,333.6716938018799L186.66666666666666,340.24682998657227L200,333.72530937194824L213.33333333333334,330.60221672058105L226.66666666666666,320.8565139770508L240,336.1378765106201L253.33333333333331,334.5365619659424L266.66666666666663,328.0704689025879L280,318.33370208740234L293.3333333333333,328.6866569519043L306.6666666666667,327.13722229003906L320,321.31263732910156L333.33333333333337,330.461368560791L346.6666666666667,311.6573715209961L360,323.2177543640137L373.3333333333333,321.2678050994873L386.6666666666667,320.82900047302246L400,311.6274356842041L413.33333333333337,286.7627716064453L426.6666666666667,319.5182418823242L440.00000000000006,319.5415496826172L453.3333333333333,302.11177825927734L466.6666666666667,318.48520278930664L480,307.42350578308105L493.33333333333337,309.8142910003662L506.66666666666663,306.88175201416016L520,317.6613140106201L533.3333333333333,337.7292537689209L546.6666666666666,342.97940254211426L560,340.08116722106934L573.3333333333334,309.36147689819336L586.6666666666666,335.47691345214844L600,291.40841484069824L613.3333333333334,224.5926189422607L626.6666666666666,161.66194915771484L640,341.5208148956299L653.3333333333334,332.20415115356445L666.6666666666667,311.95398330688477L680,299.24723625183105L693.3333333333334,300.4696846008301L706.6666666666666,271.4095878601074L720,304.71452713012695L733.3333333333333,309.24551010131836L746.6666666666666,316.41900062561035L760,311.54541015625L773.3333333333334,332.2104263305664L786.6666666666666,228.86734008789062L800,333.4604835510254" stroke="#228C22" stroke-width="8.3" opacity="0.05"/></g></g><path class="foreground" aria-hidden="true" d="" display="none"/></g><g transform="translate(0,0)"><path class="background" aria-hidden="true" d="M0,0h800v400h-800Z"/><g><g class="mark-line role-mark layer_1_layer_5_marks" role="graphics-symbol" aria-roledescription="line mark container"><path d="M13.333333333333334,247.77935981750488L26.666666666666668,279.67702865600586L40,274.5543098449707L53.333333333333336,271.95042610168457L66.66666666666666,256.6930961608887L80,250.67071914672852L93.33333333333333,233.6279201507568L106.66666666666667,241.16473197937012L120,204.99990463256833L133.33333333333331,234.17703628540042L146.66666666666666,223.92384529113772L160,232.80588150024414L173.33333333333334,214.89064216613772L186.66666666666666,223.58990669250488L200,219.39081192016602L213.33333333333334,224.08212661743164L226.66666666666666,212.45719909667972L240,220.11672019958496L253.33333333333331,200.45259475708005L266.66666666666663,183.6556243896484L280,213.2816123962402L293.3333333333333,224.84599113464355L306.6666666666667,121.1050033569336L320,219.27231788635254L333.33333333333337,209.68816757202146L346.6666666666667,200.1679611206055L360,180.21202087402344L373.3333333333333,199.45640563964844L386.6666666666667,189.06414031982425L400,162.82405853271484L413.33333333333337,155.5411434173584L426.6666666666667,132.90023803710938L440.00000000000006,178.6627197265625L453.3333333333333,171.7254638671875L466.6666666666667,172.2112274169922L480,172.88177490234372L493.33333333333337,168.59760284423828L506.66666666666663,165.3122138977051L520,213.03194999694824L533.3333333333333,173.72746467590332L546.6666666666666,179.46098327636716L560,195.702543258667L573.3333333333334,163.8845443725586L586.6666666666666,196.26482009887692L600,33.743724822998054L613.3333333333334,0.5031585693359375L626.6666666666666,189.76506233215332L640,167.32156753540036L653.3333333333334,178.8809299468994L666.6666666666667,152.4419593811035L680,185.4002571105957L693.3333333333334,205.07784843444824L706.6666666666666,177.4456024169922L720,196.74129486083984L733.3333333333333,166.0867214202881L746.6666666666666,191.34129524230957L760,150.61288833618164L773.3333333333334,190.93326568603516L786.6666666666666,189.19983863830566L800,130.39974212646484" stroke="#5f249f" stroke-width="8.3" opacity="0.05"/></g></g><path class="foreground" aria-hidden="true" d="" display="none"/></g></g><g class="mark-group role-scope layer_1_layer_6_pathgroup" role="graphics-object" aria-roledescription="group mark container"><g transform="translate(0,0)"><path class="background" aria-hidden="true" d="M0,0h800v400h-800Z"/><g><g class="mark-line role-mark layer_1_layer_6_marks" role="graphics-symbol" aria-roledescription="line mark container"><path d="M13.333333333333334,352.72836685180664L26.666666666666668,337.4246311187744L40,331.7044258117676L53.333333333333336,337.11745262145996L66.66666666666666,336.6338348388672L80,346.44506454467773L93.33333333333333,335.0659370422363L106.66666666666667,339.2248344421387L120,343.20396423339844L133.33333333333331,316.2154960632324L146.66666666666666,338.1707763671875L160,337.7437400817871L173.33333333333334,333.6716938018799L186.66666666666666,340.24682998657227L200,333.72530937194824L213.33333333333334,330.60221672058105L226.66666666666666,320.8565139770508L240,336.1378765106201L253.33333333333331,334.5365619659424L266.66666666666663,328.0704689025879L280,318.33370208740234L293.3333333333333,328.6866569519043L306.6666666666667,327.13722229003906L320,321.31263732910156L333.33333333333337,330.461368560791L346.6666666666667,311.6573715209961L360,323.2177543640137L373.3333333333333,321.2678050994873L386.6666666666667,320.82900047302246L400,311.6274356842041L413.33333333333337,286.7627716064453L426.6666666666667,319.5182418823242L440.00000000000006,319.5415496826172L453.3333333333333,302.11177825927734L466.6666666666667,318.48520278930664L480,307.42350578308105L493.33333333333337,309.8142910003662L506.66666666666663,306.88175201416016L520,317.6613140106201L533.3333333333333,337.7292537689209L546.6666666666666,342.97940254211426L560,340.08116722106934L573.3333333333334,309.36147689819336L586.6666666666666,335.47691345214844L600,291.40841484069824L613.3333333333334,224.5926189422607L626.6666666666666,161.66194915771484L640,341.5208148956299L653.3333333333334,332.20415115356445L666.6666666666667,311.95398330688477L680,299.24723625183105L693.3333333333334,300.4696846008301L706.6666666666666,271.4095878601074L720,304.71452713012695L733.3333333333333,309.24551010131836L746.6666666666666,316.41900062561035L760,311.54541015625L773.3333333333334,332.2104263305664L786.6666666666666,228.86734008789062L800,333.4604835510254" stroke="#228C22" stroke-width="9.350000000000001" opacity="0.05"/></g></g><path class="foreground" aria-hidden="true" d="" display="none"/></g><g transform="translate(0,0)"><path class="background" aria-hidden="true" d="M0,0h800v400h-800Z"/><g><g class="mark-line role-mark layer_1_layer_6_marks" role="graphics-symbol" aria-roledescription="line mark container"><path d="M13.333333333333334,247.77935981750488L26.666666666666668,279.67702865600586L40,274.5543098449707L53.333333333333336,271.95042610168457L66.66666666666666,256.6930961608887L80,250.67071914672852L93.33333333333333,233.6279201507568L106.66666666666667,241.16473197937012L120,204.99990463256833L133.33333333333331,234.17703628540042L146.66666666666666,223.92384529113772L160,232.80588150024414L173.33333333333334,214.89064216613772L186.66666666666666,223.58990669250488L200,219.39081192016602L213.33333333333334,224.08212661743164L226.66666666666666,212.45719909667972L240,220.11672019958496L253.33333333333331,200.45259475708005L266.66666666666663,183.6556243896484L280,213.2816123962402L293.3333333333333,224.84599113464355L306.6666666666667,121.1050033569336L320,219.27231788635254L333.33333333333337,209.68816757202146L346.6666666666667,200.1679611206055L360,180.21202087402344L373.3333333333333,199.45640563964844L386.6666666666667,189.06414031982425L400,162.82405853271484L413.33333333333337,155.5411434173584L426.6666666666667,132.90023803710938L440.00000000000006,178.6627197265625L453.3333333333333,171.7254638671875L466.6666666666667,172.2112274169922L480,172.88177490234372L493.33333333333337,168.59760284423828L506.66666666666663,165.3122138977051L520,213.03194999694824L533.3333333333333,173.72746467590332L546.6666666666666,179.46098327636716L560,195.702543258667L573.3333333333334,163.8845443725586L586.6666666666666,196.26482009887692L600,33.743724822998054L613.3333333333334,0.5031585693359375L626.6666666666666,189.76506233215332L640,167.32156753540036L653.3333333333334,178.8809299468994L666.6666666666667,152.4419593811035L680,185.4002571105957L693.3333333333334,205.07784843444824L706.6666666666666,177.4456024169922L720,196.74129486083984L733.3333333333333,166.0867214202881L746.6666666666666,191.34129524230957L760,150.61288833618164L773.3333333333334,190.93326568603516L786.6666666666666,189.19983863830566L800,130.39974212646484" stroke="#5f249f" stroke-width="9.350000000000001" opacity="0.05"/></g></g><path class="foreground" aria-hidden="true" d="" display="none"/></g></g><g class="mark-group role-scope layer_1_layer_7_pathgroup" role="graphics-object" aria-roledescription="group mark container"><g transform="translate(0,0)"><path class="background" aria-hidden="true" d="M0,0h800v400h-800Z"/><g><g class="mark-line role-mark layer_1_layer_7_marks" role="graphics-symbol" aria-roledescription="line mark container"><path d="M13.333333333333334,352.72836685180664L26.666666666666668,337.4246311187744L40,331.7044258117676L53.333333333333336,337.11745262145996L66.66666666666666,336.6338348388672L80,346.44506454467773L93.33333333333333,335.0659370422363L106.66666666666667,339.2248344421387L120,343.20396423339844L133.33333333333331,316.2154960632324L146.66666666666666,338.1707763671875L160,337.7437400817871L173.33333333333334,333.6716938018799L186.66666666666666,340.24682998657227L200,333.72530937194824L213.33333333333334,330.60221672058105L226.66666666666666,320.8565139770508L240,336.1378765106201L253.33333333333331,334.5365619659424L266.66666666666663,328.0704689025879L280,318.33370208740234L293.3333333333333,328.6866569519043L306.6666666666667,327.13722229003906L320,321.31263732910156L333.33333333333337,330.461368560791L346.6666666666667,311.6573715209961L360,323.2177543640137L373.3333333333333,321.2678050994873L386.6666666666667,320.82900047302246L400,311.6274356842041L413.33333333333337,286.7627716064453L426.6666666666667,319.5182418823242L440.00000000000006,319.5415496826172L453.3333333333333,302.11177825927734L466.6666666666667,318.48520278930664L480,307.42350578308105L493.33333333333337,309.8142910003662L506.66666666666663,306.88175201416016L520,317.6613140106201L533.3333333333333,337.7292537689209L546.6666666666666,342.97940254211426L560,340.08116722106934L573.3333333333334,309.36147689819336L586.6666666666666,335.47691345214844L600,291.40841484069824L613.3333333333334,224.5926189422607L626.6666666666666,161.66194915771484L640,341.5208148956299L653.3333333333334,332.20415115356445L666.6666666666667,311.95398330688477L680,299.24723625183105L693.3333333333334,300.4696846008301L706.6666666666666,271.4095878601074L720,304.71452713012695L733.3333333333333,309.24551010131836L746.6666666666666,316.41900062561035L760,311.54541015625L773.3333333333334,332.2104263305664L786.6666666666666,228.86734008789062L800,333.4604835510254" stroke="#228C22" stroke-width="10.4" opacity="0.05"/></g></g><path class="foreground" aria-hidden="true" d="" display="none"/></g><g transform="translate(0,0)"><path class="background" aria-hidden="true" d="M0,0h800v400h-800Z"/><g><g class="mark-line role-mark layer_1_layer_7_marks" role="graphics-symbol" aria-roledescription="line mark container"><path d="M13.333333333333334,247.77935981750488L26.666666666666668,279.67702865600586L40,274.5543098449707L53.333333333333336,271.95042610168457L66.66666666666666,256.6930961608887L80,250.67071914672852L93.33333333333333,233.6279201507568L106.66666666666667,241.16473197937012L120,204.99990463256833L133.33333333333331,234.17703628540042L146.66666666666666,223.92384529113772L160,232.80588150024414L173.33333333333334,214.89064216613772L186.66666666666666,223.58990669250488L200,219.39081192016602L213.33333333333334,224.08212661743164L226.66666666666666,212.45719909667972L240,220.11672019958496L253.33333333333331,200.45259475708005L266.66666666666663,183.6556243896484L280,213.2816123962402L293.3333333333333,224.84599113464355L306.6666666666667,121.1050033569336L320,219.27231788635254L333.33333333333337,209.68816757202146L346.6666666666667,200.1679611206055L360,180.21202087402344L373.3333333333333,199.45640563964844L386.6666666666667,189.06414031982425L400,162.82405853271484L413.33333333333337,155.5411434173584L426.6666666666667,132.90023803710938L440.00000000000006,178.6627197265625L453.3333333333333,171.7254638671875L466.6666666666667,172.2112274169922L480,172.88177490234372L493.33333333333337,168.59760284423828L506.66666666666663,165.3122138977051L520,213.03194999694824L533.3333333333333,173.72746467590332L546.6666666666666,179.46098327636716L560,195.702543258667L573.3333333333334,163.8845443725586L586.6666666666666,196.26482009887692L600,33.743724822998054L613.3333333333334,0.5031585693359375L626.6666666666666,189.76506233215332L640,167.32156753540036L653.3333333333334,178.8809299468994L666.6666666666667,152.4419593811035L680,185.4002571105957L693.3333333333334,205.07784843444824L706.6666666666666,177.4456024169922L720,196.74129486083984L733.3333333333333,166.0867214202881L746.6666666666666,191.34129524230957L760,150.61288833618164L773.3333333333334,190.93326568603516L786.6666666666666,189.19983863830566L800,130.39974212646484" stroke="#5f249f" stroke-width="10.4" opacity="0.05"/></g></g><path class="foreground" aria-hidden="true" d="" display="none"/></g></g><g class="mark-group role-scope layer_1_layer_8_pathgroup" role="graphics-object" aria-roledescription="group mark container"><g transform="translate(0,0)"><path class="background" aria-hidden="true" d="M0,0h800v400h-800Z"/><g><g class="mark-line role-mark layer_1_layer_8_marks" role="graphics-symbol" aria-roledescription="line mark container"><path d="M13.333333333333334,352.72836685180664L26.666666666666668,337.4246311187744L40,331.7044258117676L53.333333333333336,337.11745262145996L66.66666666666666,336.6338348388672L80,346.44506454467773L93.33333333333333,335.0659370422363L106.66666666666667,339.2248344421387L120,343.20396423339844L133.33333333333331,316.2154960632324L146.66666666666666,338.1707763671875L160,337.7437400817871L173.33333333333334,333.6716938018799L186.66666666666666,340.24682998657227L200,333.72530937194824L213.33333333333334,330.60221672058105L226.66666666666666,320.8565139770508L240,336.1378765106201L253.33333333333331,334.5365619659424L266.66666666666663,328.0704689025879L280,318.33370208740234L293.3333333333333,328.6866569519043L306.6666666666667,327.13722229003906L320,321.31263732910156L333.33333333333337,330.461368560791L346.6666666666667,311.6573715209961L360,323.2177543640137L373.3333333333333,321.2678050994873L386.6666666666667,320.82900047302246L400,311.6274356842041L413.33333333333337,286.7627716064453L426.6666666666667,319.5182418823242L440.00000000000006,319.5415496826172L453.3333333333333,302.11177825927734L466.6666666666667,318.48520278930664L480,307.42350578308105L493.33333333333337,309.8142910003662L506.66666666666663,306.88175201416016L520,317.6613140106201L533.3333333333333,337.7292537689209L546.6666666666666,342.97940254211426L560,340.08116722106934L573.3333333333334,309.36147689819336L586.6666666666666,335.47691345214844L600,291.40841484069824L613.3333333333334,224.5926189422607L626.6666666666666,161.66194915771484L640,341.5208148956299L653.3333333333334,332.20415115356445L666.6666666666667,311.95398330688477L680,299.24723625183105L693.3333333333334,300.4696846008301L706.6666666666666,271.4095878601074L720,304.71452713012695L733.3333333333333,309.24551010131836L746.6666666666666,316.41900062561035L760,311.54541015625L773.3333333333334,332.2104263305664L786.6666666666666,228.86734008789062L800,333.4604835510254" stroke="#228C22" stroke-width="11.450000000000001" opacity="0.05"/></g></g><path class="foreground" aria-hidden="true" d="" display="none"/></g><g transform="translate(0,0)"><path class="background" aria-hidden="true" d="M0,0h800v400h-800Z"/><g><g class="mark-line role-mark layer_1_layer_8_marks" role="graphics-symbol" aria-roledescription="line mark container"><path d="M13.333333333333334,247.77935981750488L26.666666666666668,279.67702865600586L40,274.5543098449707L53.333333333333336,271.95042610168457L66.66666666666666,256.6930961608887L80,250.67071914672852L93.33333333333333,233.6279201507568L106.66666666666667,241.16473197937012L120,204.99990463256833L133.33333333333331,234.17703628540042L146.66666666666666,223.92384529113772L160,232.80588150024414L173.33333333333334,214.89064216613772L186.66666666666666,223.58990669250488L200,219.39081192016602L213.33333333333334,224.08212661743164L226.66666666666666,212.45719909667972L240,220.11672019958496L253.33333333333331,200.45259475708005L266.66666666666663,183.6556243896484L280,213.2816123962402L293.3333333333333,224.84599113464355L306.6666666666667,121.1050033569336L320,219.27231788635254L333.33333333333337,209.68816757202146L346.6666666666667,200.1679611206055L360,180.21202087402344L373.3333333333333,199.45640563964844L386.6666666666667,189.06414031982425L400,162.82405853271484L413.33333333333337,155.5411434173584L426.6666666666667,132.90023803710938L440.00000000000006,178.6627197265625L453.3333333333333,171.7254638671875L466.6666666666667,172.2112274169922L480,172.88177490234372L493.33333333333337,168.59760284423828L506.66666666666663,165.3122138977051L520,213.03194999694824L533.3333333333333,173.72746467590332L546.6666666666666,179.46098327636716L560,195.702543258667L573.3333333333334,163.8845443725586L586.6666666666666,196.26482009887692L600,33.743724822998054L613.3333333333334,0.5031585693359375L626.6666666666666,189.76506233215332L640,167.32156753540036L653.3333333333334,178.8809299468994L666.6666666666667,152.4419593811035L680,185.4002571105957L693.3333333333334,205.07784843444824L706.6666666666666,177.4456024169922L720,196.74129486083984L733.3333333333333,166.0867214202881L746.6666666666666,191.34129524230957L760,150.61288833618164L773.3333333333334,190.93326568603516L786.6666666666666,189.19983863830566L800,130.39974212646484" stroke="#5f249f" stroke-width="11.450000000000001" opacity="0.05"/></g></g><path class="foreground" aria-hidden="true" d="" display="none"/></g></g><g class="mark-group role-scope layer_1_layer_9_pathgroup" role="graphics-object" aria-roledescription="group mark container"><g transform="translate(0,0)"><path class="background" aria-hidden="true" d="M0,0h800v400h-800Z"/><g><g class="mark-line role-mark layer_1_layer_9_marks" role="graphics-symbol" aria-roledescription="line mark container"><path d="M13.333333333333334,352.72836685180664L26.666666666666668,337.4246311187744L40,331.7044258117676L53.333333333333336,337.11745262145996L66.66666666666666,336.6338348388672L80,346.44506454467773L93.33333333333333,335.0659370422363L106.66666666666667,339.2248344421387L120,343.20396423339844L133.33333333333331,316.2154960632324L146.66666666666666,338.1707763671875L160,337.7437400817871L173.33333333333334,333.6716938018799L186.66666666666666,340.24682998657227L200,333.72530937194824L213.33333333333334,330.60221672058105L226.66666666666666,320.8565139770508L240,336.1378765106201L253.33333333333331,334.5365619659424L266.66666666666663,328.0704689025879L280,318.33370208740234L293.3333333333333,328.6866569519043L306.6666666666667,327.13722229003906L320,321.31263732910156L333.33333333333337,330.461368560791L346.6666666666667,311.6573715209961L360,323.2177543640137L373.3333333333333,321.2678050994873L386.6666666666667,320.82900047302246L400,311.6274356842041L413.33333333333337,286.7627716064453L426.6666666666667,319.5182418823242L440.00000000000006,319.5415496826172L453.3333333333333,302.11177825927734L466.6666666666667,318.48520278930664L480,307.42350578308105L493.33333333333337,309.8142910003662L506.66666666666663,306.88175201416016L520,317.6613140106201L533.3333333333333,337.7292537689209L546.6666666666666,342.97940254211426L560,340.08116722106934L573.3333333333334,309.36147689819336L586.6666666666666,335.47691345214844L600,291.40841484069824L613.3333333333334,224.5926189422607L626.6666666666666,161.66194915771484L640,341.5208148956299L653.3333333333334,332.20415115356445L666.6666666666667,311.95398330688477L680,299.24723625183105L693.3333333333334,300.4696846008301L706.6666666666666,271.4095878601074L720,304.71452713012695L733.3333333333333,309.24551010131836L746.6666666666666,316.41900062561035L760,311.54541015625L773.3333333333334,332.2104263305664L786.6666666666666,228.86734008789062L800,333.4604835510254" stroke="#228C22" stroke-width="12.5" opacity="0.05"/></g></g><path class="foreground" aria-hidden="true" d="" display="none"/></g><g transform="translate(0,0)"><path class="background" aria-hidden="true" d="M0,0h800v400h-800Z"/><g><g class="mark-line role-mark layer_1_layer_9_marks" role="graphics-symbol" aria-roledescription="line mark container"><path d="M13.333333333333334,247.77935981750488L26.666666666666668,279.67702865600586L40,274.5543098449707L53.333333333333336,271.95042610168457L66.66666666666666,256.6930961608887L80,250.67071914672852L93.33333333333333,233.6279201507568L106.66666666666667,241.16473197937012L120,204.99990463256833L133.33333333333331,234.17703628540042L146.66666666666666,223.92384529113772L160,232.80588150024414L173.33333333333334,214.89064216613772L186.66666666666666,223.58990669250488L200,219.39081192016602L213.33333333333334,224.08212661743164L226.66666666666666,212.45719909667972L240,220.11672019958496L253.33333333333331,200.45259475708005L266.66666666666663,183.6556243896484L280,213.2816123962402L293.3333333333333,224.84599113464355L306.6666666666667,121.1050033569336L320,219.27231788635254L333.33333333333337,209.68816757202146L346.6666666666667,200.1679611206055L360,180.21202087402344L373.3333333333333,199.45640563964844L386.6666666666667,189.06414031982425L400,162.82405853271484L413.33333333333337,155.5411434173584L426.6666666666667,132.90023803710938L440.00000000000006,178.6627197265625L453.3333333333333,171.7254638671875L466.6666666666667,172.2112274169922L480,172.88177490234372L493.33333333333337,168.59760284423828L506.66666666666663,165.3122138977051L520,213.03194999694824L533.3333333333333,173.72746467590332L546.6666666666666,179.46098327636716L560,195.702543258667L573.3333333333334,163.8845443725586L586.6666666666666,196.26482009887692L600,33.743724822998054L613.3333333333334,0.5031585693359375L626.6666666666666,189.76506233215332L640,167.32156753540036L653.3333333333334,178.8809299468994L666.6666666666667,152.4419593811035L680,185.4002571105957L693.3333333333334,205.07784843444824L706.6666666666666,177.4456024169922L720,196.74129486083984L733.3333333333333,166.0867214202881L746.6666666666666,191.34129524230957L760,150.61288833618164L773.3333333333334,190.93326568603516L786.6666666666666,189.19983863830566L800,130.39974212646484" stroke="#5f249f" stroke-width="12.5" opacity="0.05"/></g></g><path class="foreground" aria-hidden="true" d="" display="none"/></g></g><g class="mark-group role-legend" role="graphics-symbol" aria-roledescription="legend" aria-label="Symbol legend titled 'PCAs' for fill color and stroke color with 2 values: from scratch, scikit-learn"><g transform="translate(831,0)"><path class="background" aria-hidden="true" d="M0,0h72v45h-72Z" pointer-events="none"/><g><g class="mark-group role-legend-entry"><g transform="translate(0,16)"><path class="background" aria-hidden="true" d="M0,0h0v0h0Z" pointer-events="none"/><g><g class="mark-group role-scope" role="graphics-object" aria-roledescription="group mark container"><g transform="translate(0,0)"><path class="background" aria-hidden="true" d="M0,0h71.009765625v12.5h-71.009765625Z" pointer-events="none" opacity="1"/><g><g class="mark-symbol role-legend-symbol" pointer-events="none"><path transform="translate(6,6)" d="M5,0A5,5,0,1,1,-5,0A5,5,0,1,1,5,0" fill="#228C22" fill-opacity="0.4" stroke="#228C22" stroke-width="1.5" opacity="0.7"/></g><g class="mark-text role-legend-label" pointer-events="none"><text text-anchor="start" transform="translate(16,9)" font-family="sans-serif" font-size="10px" fill="#444444" opacity="1">from scratch</text></g></g><path class="foreground" aria-hidden="true" d="" pointer-events="none" display="none"/></g><g transform="translate(0,16)"><path class="background" aria-hidden="true" d="M0,0h71.009765625v12.5h-71.009765625Z" pointer-events="none" opacity="1"/><g><g class="mark-symbol role-legend-symbol" pointer-events="none"><path transform="translate(6,6)" d="M5,0A5,5,0,1,1,-5,0A5,5,0,1,1,5,0" fill="#5f249f" fill-opacity="0.4" stroke="#5f249f" stroke-width="1.5" opacity="0.7"/></g><g class="mark-text role-legend-label" pointer-events="none"><text text-anchor="start" transform="translate(16,9)" font-family="sans-serif" font-size="10px" fill="#444444" opacity="1">scikit-learn</text></g></g><path class="foreground" aria-hidden="true" d="" pointer-events="none" display="none"/></g></g></g><path class="foreground" aria-hidden="true" d="" pointer-events="none" display="none"/></g></g><g class="mark-text role-legend-title" pointer-events="none"><text text-anchor="start" transform="translate(0,9)" font-family="sans-serif" font-size="11px" font-weight="bold" fill="#444444" opacity="1">PCAs</text></g></g><path class="foreground" aria-hidden="true" d="" pointer-events="none" display="none"/></g></g></g><path class="foreground" aria-hidden="true" d="" display="none"/></g></g></g></svg>