<svg xmlns="http://www.w3.org/2000/svg" xmlns:xlink="http://www.w3.org/1999/xlink" version="1.1" class="marks" width="949" height="447" viewBox="0 0 949 447"><rect width="949" height="447" fill="#efefef"/><g fill="none" stroke-miterlimit="10" transform="translate(41,10)"><g class="mark-group role-frame root" role="graphics-object" aria-roledescription="group mark container"><g transform="translate(0,0)"><path class="background" aria-hidden="true" d="M0.5,0.5h800v400h-800Z" stroke="#ddd"/><g><g class="mark-group role-axis" role="graphics-symbol" aria-roledescription="axis" aria-label="X-axis for a linear scale with values from 0 to 60"><g transform="translate(0.5,400.5)"><path class="background" aria-hidden="true" d="M0,0h0v0h0Z" pointer-events="none"/><g><g class="mark-rule role-axis-grid" pointer-events="none"><line transform="translate(0,-400)" x2="0" y2="400" stroke="#ffffff" stroke-width="1" opacity="1"/><line transform="translate(27,-400)" x2="0" y2="400" stroke="#ffffff" stroke-width="1" opacity="1"/><line transform="translate(53,-400)" x2="0" y2="400" stroke="#ffffff" stroke-width="1" opacity="1"/><line transform="translate(80,-400)" x2="0" y2="400" stroke="#ffffff" stroke-width="1" opacity="1"/><line transform="translate(107,-400)" x2="0" y2="400" stroke="#ffffff" stroke-width="1" opacity="1"/><line transform="translate(133,-400)" x2="0" y2="400" stroke="#ffffff" stroke-width="1" opacity="1"/><line transform="translate(160,-400)" x2="0" y2="400" stroke="#ffffff" stroke-width="1" opacity="1"/><line transform="translate(187,-400)" x2="0" y2="400" stroke="#ffffff" stroke-width="1" opacity="1"/><line transform="translate(213,-400)" x2="0" y2="400" stroke="#ffffff" stroke-width="1" opacity="1"/><line transform="translate(240,-400)" x2="0" y2="400" stroke="#ffffff" stroke-width="1" opacity="1"/><line transform="translate(267,-400)" x2="0" y2="400" stroke="#ffffff" stroke-width="1" opacity="1"/><line transform="translate(293,-400)" x2="0" y2="400" stroke="#ffffff" stroke-width="1" opacity="1"/><line transform="translate(320,-400)" x2="0" y2="400" stroke="#ffffff" stroke-width="1" opacity="1"/><line transform="translate(347,-400)" x2="0" y2="400" stroke="#ffffff" stroke-width="1" opacity="1"/><line transform="translate(373,-400)" x2="0" y2="400" stroke="#ffffff" stroke-width="1" opacity="1"/><line transform="translate(400,-400)" x2="0" y2="400" stroke="#ffffff" stroke-width="1" opacity="1"/><line transform="translate(427,-400)" x2="0" y2="400" stroke="#ffffff" stroke-width="1" opacity="1"/><line transform="translate(453,-400)" x2="0" y2="400" stroke="#ffffff" stroke-width="1" opacity="1"/><line transform="translate(480,-400)" x2="0" y2="400" stroke="#ffffff" stroke-width="1" opacity="1"/><line transform="translate(507,-400)" x2="0" y2="400" stroke="#ffffff" stroke-width="1" opacity="1"/><line transform="translate(533,-400)" x2="0" y2="400" stroke="#ffffff" stroke-width="1" opacity="1"/><line transform="translate(560,-400)" x2="0" y2="400" stroke="#ffffff" stroke-width="1" opacity="1"/><line transform="translate(587,-400)" x2="0" y2="400" stroke="#ffffff" stroke-width="1" opacity="1"/><line transform="translate(613,-400)" x2="0" y2="400" stroke="#ffffff" stroke-width="1" opacity="1"/><line transform="translate(640,-400)" x2="0" y2="400" stroke="#ffffff" stroke-width="1" opacity="1"/><line transform="translate(667,-400)" x2="0" y2="400" stroke="#ffffff" stroke-width="1" opacity="1"/><line transform="translate(693,-400)" x2="0" y2="400" stroke="#ffffff" stroke-width="1" opacity="1"/><line transform="translate(720,-400)" x2="0" y2="400" stroke="#ffffff" stroke-width="1" opacity="1"/><line transform="translate(747,-400)" x2="0" y2="400" stroke="#ffffff" stroke-width="1" opacity="1"/><line transform="translate(773,-400)" x2="0" y2="400" stroke="#ffffff" stroke-width="1" opacity="1"/><line transform="translate(800,-400)" x2="0" y2="400" stroke="#ffffff" stroke-width="1" opacity="1"/></g></g><path class="foreground" aria-hidden="true" d="" pointer-events="none" display="none"/></g></g><g class="mark-group role-axis" role="graphics-symbol" aria-roledescription="axis" aria-label="Y-axis for a linear scale with values from 0.0 to 3.5"><g transform="translate(0.5,0.5)"><path class="background" aria-hidden="true" d="M0,0h0v0h0Z" pointer-events="none"/><g><g class="mark-rule role-axis-grid" pointer-events="none"><line transform="translate(0,400)" x2="800" y2="0" stroke="#ffffff" stroke-width="1" opacity="1"/><line transform="translate(0,343)" x2="800" y2="0" stroke="#ffffff" stroke-width="1" opacity="1"/><line transform="translate(0,286)" x2="800" y2="0" stroke="#ffffff" stroke-width="1" opacity="1"/><line transform="translate(0,229)" x2="800" y2="0" stroke="#ffffff" stroke-width="1" opacity="1"/><line transform="translate(0,171)" x2="800" y2="0" stroke="#ffffff" stroke-width="1" opacity="1"/><line transform="translate(0,114)" x2="800" y2="0" stroke="#ffffff" stroke-width="1" opacity="1"/><line transform="translate(0,57)" x2="800" y2="0" stroke="#ffffff" stroke-width="1" opacity="1"/><line transform="translate(0,0)" x2="800" y2="0" stroke="#ffffff" stroke-width="1" opacity="1"/></g></g><path class="foreground" aria-hidden="true" d="" pointer-events="none" display="none"/></g></g><g class="mark-group role-axis" role="graphics-symbol" aria-roledescription="axis" aria-label="X-axis titled 'Number of Components' for a linear scale with values from 0 to 60"><g transform="translate(0.5,400.5)"><path class="background" aria-hidden="true" d="M0,0h0v0h0Z" pointer-events="none"/><g><g class="mark-rule role-axis-tick" pointer-events="none"><line transform="translate(0,0)" x2="0" y2="5" stroke-width="1" opacity="1"/><line transform="translate(27,0)" x2="0" y2="5" stroke-width="1" opacity="1"/><line transform="translate(53,0)" x2="0" y2="5" stroke-width="1" opacity="1"/><line transform="translate(80,0)" x2="0" y2="5" stroke-width="1" opacity="1"/><line transform="translate(107,0)" x2="0" y2="5" stroke-width="1" opacity="1"/><line transform="translate(133,0)" x2="0" y2="5" stroke-width="1" opacity="1"/><line transform="translate(160,0)" x2="0" y2="5" stroke-width="1" opacity="1"/><line transform="translate(187,0)" x2="0" y2="5" stroke-width="1" opacity="1"/><line transform="translate(213,0)" x2="0" y2="5" stroke-width="1" opacity="1"/><line transform="translate(240,0)" x2="0" y2="5" stroke-width="1" opacity="1"/><line transform="translate(267,0)" x2="0" y2="5" stroke-width="1" opacity="1"/><line transform="translate(293,0)" x2="0" y2="5" stroke-width="1" opacity="1"/><line transform="translate(320,0)" x2="0" y2="5" stroke-width="1" opacity="1"/><line transform="translate(347,0)" x2="0" y2="5" stroke-width="1" opacity="1"/><line transform="translate(373,0)" x2="0" y2="5" stroke-width="1" opacity="1"/><line transform="translate(400,0)" x2="0" y2="5" stroke-width="1" opacity="1"/><line transform="translate(427,0)" x2="0" y2="5" stroke-width="1" opacity="1"/><line transform="translate(453,0)" x2="0" y2="5" stroke-width="1" opacity="1"/><line transform="translate(480,0)" x2="0" y2="5" stroke-width="1" opacity="1"/><line transform="translate(507,0)" x2="0" y2="5" stroke-width="1" opacity="1"/><line transform="translate(533,0)" x2="0" y2="5" stroke-width="1" opacity="1"/><line transform="translate(560,0)" x2="0" y2="5" stroke-width="1" opacity="1"/><line transform="translate(587,0)" x2="0" y2="5" stroke-width="1" opacity="1"/><line transform="translate(613,0)" x2="0" y2="5" stroke-width="1" opacity="1"/><line transform="translate(640,0)" x2="0" y2="5" stroke-width="1" opacity="1"/><line transform="translate(667,0)" x2="0" y2="5" stroke-width="1" opacity="1"/><line transform="translate(693,0)" x2="0" y2="5" stroke-width="1" opacity="1"/><line transform="translate(720,0)" x2="0" y2="5" stroke-width="1" opacity="1"/><line transform="translate(747,0)" x2="0" y2="5" stroke-width="1" opacity="1"/><line transform="translate(773,0)" x2="0" y2="5" stroke-width="1" opacity="1"/><line transform="translate(800,0)" x2="0" y2="5" stroke-width="1" opacity="1"/></g><g class="mark-text role-axis-label" pointer-events="none"><text text-anchor="start" transform="translate(0,15)" font-family="sans-serif" font-size="10px" fill="#444444" opacity="1">0</text><text text-anchor="middle" transform="translate(26.666666666666668,15)" font-family="sans-serif" font-size="10px" fill="#444444" opacity="1">2</text><text text-anchor="middle" transform="translate(53.333333333333336,15)" font-family="sans-serif" font-size="10px" fill="#444444" opacity="1">4</text><text text-anchor="middle" transform="translate(80,15)" font-family="sans-serif" font-size="10px" fill="#444444" opacity="1">6</text><text text-anchor="middle" transform="translate(106.66666666666667,15)" font-family="sans-serif" font-size="10px" fill="#444444" opacity="1">8</text><text text-anchor="middle" transform="translate(133.33333333333331,15)" font-family="sans-serif" font-size="10px" fill="#444444" opacity="1">10</text><text text-anchor="middle" transform="translate(160,15)" font-family="sans-serif" font-size="10px" fill="#444444" opacity="1">12</text><text text-anchor="middle" transform="translate(186.66666666666666,15)" font-family="sans-serif" font-size="10px" fill="#444444" opacity="1">14</text><text text-anchor="middle" transform="translate(213.33333333333334,15)" font-family="sans-serif" font-size="10px" fill="#444444" opacity="1">16</text><text text-anchor="middle" transform="translate(240,15)" font-family="sans-serif" font-size="10px" fill="#444444" opacity="1">18</text><text text-anchor="middle" transform="translate(266.66666666666663,15)" font-family="sans-serif" font-size="10px" fill="#444444" opacity="1">20</text><text text-anchor="middle" transform="translate(293.3333333333333,15)" font-family="sans-serif" font-size="10px" fill="#444444" opacity="1">22</text><text text-anchor="middle" transform="translate(320,15)" font-family="sans-serif" font-size="10px" fill="#444444" opacity="1">24</text><text text-anchor="middle" transform="translate(346.6666666666667,15)" font-family="sans-serif" font-size="10px" fill="#444444" opacity="1">26</text><text text-anchor="middle" transform="translate(373.3333333333333,15)" font-family="sans-serif" font-size="10px" fill="#444444" opacity="1">28</text><text text-anchor="middle" transform="translate(400,15)" font-family="sans-serif" font-size="10px" fill="#444444" opacity="1">30</text><text text-anchor="middle" transform="translate(426.6666666666667,15)" font-family="sans-serif" font-size="10px" fill="#444444" opacity="1">32</text><text text-anchor="middle" transform="translate(453.3333333333333,15)" font-family="sans-serif" font-size="10px" fill="#444444" opacity="1">34</text><text text-anchor="middle" transform="translate(480,15)" font-family="sans-serif" font-size="10px" fill="#444444" opacity="1">36</text><text text-anchor="middle" transform="translate(506.66666666666663,15)" font-family="sans-serif" font-size="10px" fill="#444444" opacity="1">38</text><text text-anchor="middle" transform="translate(533.3333333333333,15)" font-family="sans-serif" font-size="10px" fill="#444444" opacity="1">40</text><text text-anchor="middle" transform="translate(560,15)" font-family="sans-serif" font-size="10px" fill="#444444" opacity="1">42</text><text text-anchor="middle" transform="translate(586.6666666666666,15)" font-family="sans-serif" font-size="10px" fill="#444444" opacity="1">44</text><text text-anchor="middle" transform="translate(613.3333333333334,15)" font-family="sans-serif" font-size="10px" fill="#444444" opacity="1">46</text><text text-anchor="middle" transform="translate(640,15)" font-family="sans-serif" font-size="10px" fill="#444444" opacity="1">48</text><text text-anchor="middle" transform="translate(666.6666666666667,15)" font-family="sans-serif" font-size="10px" fill="#444444" opacity="1">50</text><text text-anchor="middle" transform="translate(693.3333333333334,15)" font-family="sans-serif" font-size="10px" fill="#444444" opacity="1">52</text><text text-anchor="middle" transform="translate(720,15)" font-family="sans-serif" font-size="10px" fill="#444444" opacity="1">54</text><text text-anchor="middle" transform="translate(746.6666666666666,15)" font-family="sans-serif" font-size="10px" fill="#444444" opacity="1">56</text><text text-anchor="middle" transform="translate(773.3333333333334,15)" font-family="sans-serif" font-size="10px" fill="#444444" opacity="1">58</text><text text-anchor="end" transform="translate(800,15)" font-family="sans-serif" font-size="10px" fill="#444444" opacity="1">60</text></g><g class="mark-rule role-axis-domain" pointer-events="none"><line transform="translate(0,0)" x2="800" y2="0" stroke-width="1" opacity="1"/></g><g class="mark-text role-axis-title" pointer-events="none"><text text-anchor="middle" transform="translate(400,30)" font-family="sans-serif" font-size="11px" font-weight="bold" fill="#444444" opacity="1">Number of Components</text></g></g><path class="foreground" aria-hidden="true" d="" pointer-events="none" display="none"/></g></g><g class="mark-group role-axis" role="graphics-symbol" aria-roledescription="axis" aria-label="Y-axis titled 'Root Mean Squred Error' for a linear scale with values from 0.0 to 3.5"><g transform="translate(0.5,0.5)"><path class="background" aria-hidden="true" d="M0,0h0v0h0Z" pointer-events="none"/><g><g class="mark-rule role-axis-tick" pointer-events="none"><line transform="translate(0,400)" x2="-5" y2="0" stroke-width="1" opacity="1"/><line transform="translate(0,343)" x2="-5" y2="0" stroke-width="1" opacity="1"/><line transform="translate(0,286)" x2="-5" y2="0" stroke-width="1" opacity="1"/><line transform="translate(0,229)" x2="-5" y2="0" stroke-width="1" opacity="1"/><line transform="translate(0,171)" x2="-5" y2="0" stroke-width="1" opacity="1"/><line transform="translate(0,114)" x2="-5" y2="0" stroke-width="1" opacity="1"/><line transform="translate(0,57)" x2="-5" y2="0" stroke-width="1" opacity="1"/><line transform="translate(0,0)" x2="-5" y2="0" stroke-width="1" opacity="1"/></g><g class="mark-text role-axis-label" pointer-events="none"><text text-anchor="end" transform="translate(-7,403)" font-family="sans-serif" font-size="10px" fill="#444444" opacity="1">0.0</text><text text-anchor="end" transform="translate(-7,345.8571428571429)" font-family="sans-serif" font-size="10px" fill="#444444" opacity="1">0.5</text><text text-anchor="end" transform="translate(-7,288.7142857142857)" font-family="sans-serif" font-size="10px" fill="#444444" opacity="1">1.0</text><text text-anchor="end" transform="translate(-7,231.57142857142856)" font-family="sans-serif" font-size="10px" fill="#444444" opacity="1">1.5</text><text text-anchor="end" transform="translate(-7,174.42857142857144)" font-family="sans-serif" font-size="10px" fill="#444444" opacity="1">2.0</text><text text-anchor="end" transform="translate(-7,117.28571428571428)" font-family="sans-serif" font-size="10px" fill="#444444" opacity="1">2.5</text><text text-anchor="end" transform="translate(-7,60.14285714285716)" font-family="sans-serif" font-size="10px" fill="#444444" opacity="1">3.0</text><text text-anchor="end" transform="translate(-7,3)" font-family="sans-serif" font-size="10px" fill="#444444" opacity="1">3.5</text></g><g class="mark-rule role-axis-domain" pointer-events="none"><line transform="translate(0,400)" x2="0" y2="-400" stroke-width="1" opacity="1"/></g><g class="mark-text role-axis-title" pointer-events="none"><text text-anchor="middle" transform="translate(-24.9013671875,200) rotate(-90) translate(0,-2)" font-family="sans-serif" font-size="11px" font-weight="bold" fill="#444444" opacity="1">Root Mean Squred Error</text></g></g><path class="foreground" aria-hidden="true" d="" pointer-events="none" display="none"/></g></g><g class="mark-group role-scope layer_0_layer_0_pathgroup" role="graphics-object" aria-roledescription="group mark container"><g transform="translate(0,0)"><path class="background" aria-hidden="true" d="M0,0h800v400h-800Z"/><g><g class="mark-area role-mark layer_0_layer_0_marks" role="graphics-symbol" aria-roledescription="area mark container"><path d="M13.333333333333334,13.976420303587345L26.666666666666668,74.94402365884416L40,95.75734711133173L53.333333333333336,143.4317531218595L66.66666666666666,175.83679414956865L80,212.63415683835677L93.33333333333333,229.8485668468184L106.66666666666667,232.54510202104314L120,248.9697962360522L133.33333333333331,255.82776739933166L146.66666666666666,259.6470920304456L160,271.49589063983603L173.33333333333334,280.16337652232266L186.66666666666666,283.31658040594084L200,283.3669630588209L213.33333333333334,290.76892122006404L226.66666666666666,289.4200815367142L240,291.2722929253344L253.33333333333331,292.28609321779425L266.66666666666663,294.0034655938108L280,293.3401362713591L293.3333333333333,294.2501990159638L306.6666666666667,296.8195557208991L320,295.3676992160311L333.33333333333337,295.47385836206195L346.6666666666667,295.71154602424554L360,297.56913730396946L373.3333333333333,295.67398039152965L386.6666666666667,297.8436572338901L400,297.03497720892136L413.33333333333337,296.5098841355724L426.6666666666667,298.38849494676464L440.00000000000006,297.48628762702134L453.3333333333333,300.56486064385734L466.6666666666667,297.58188935664214L480,296.1068052355336L493.33333333333337,298.5106821746591L506.66666666666663,296.7056909325868L520,295.4113987558678L533.3333333333333,297.85005019630233L546.6666666666666,296.7562820016518L560,296.16968316586167L573.3333333333334,297.3780466658208L586.6666666666666,299.8384977618035L600,299.6561015348533L613.3333333333334,297.93959371719L626.6666666666666,297.8244807466393L640,294.72678887964025L653.3333333333334,298.33709162740075L666.6666666666667,298.09968857070277L680,298.1509720724056L693.3333333333334,297.3207888218688L706.6666666666666,297.314428810021L720,294.3614170670505L733.3333333333333,297.56276187293L746.6666666666666,295.6114010447657L760,296.9842492724575L773.3333333333334,293.88646819253887L786.6666666666666,298.80711487461184L800,297.0730395684713L800,400L786.6666666666666,400L773.3333333333334,400L760,400L746.6666666666666,400L733.3333333333333,400L720,400L706.6666666666666,400L693.3333333333334,400L680,400L666.6666666666667,400L653.3333333333334,400L640,400L626.6666666666666,400L613.3333333333334,400L600,400L586.6666666666666,400L573.3333333333334,400L560,400L546.6666666666666,400L533.3333333333333,400L520,400L506.66666666666663,400L493.33333333333337,400L480,400L466.6666666666667,400L453.3333333333333,400L440.00000000000006,400L426.6666666666667,400L413.33333333333337,400L400,400L386.6666666666667,400L373.3333333333333,400L360,400L346.6666666666667,400L333.33333333333337,400L320,400L306.6666666666667,400L293.3333333333333,400L280,400L266.66666666666663,400L253.33333333333331,400L240,400L226.66666666666666,400L213.33333333333334,400L200,400L186.66666666666666,400L173.33333333333334,400L160,400L146.66666666666666,400L133.33333333333331,400L120,400L106.66666666666667,400L93.33333333333333,400L80,400L66.66666666666666,400L53.333333333333336,400L40,400L26.666666666666668,400L13.333333333333334,400Z" fill="#228C22" fill-opacity="0.4" opacity="0.7"/></g></g><path class="foreground" aria-hidden="true" d="" display="none"/></g><g transform="translate(0,0)"><path class="background" aria-hidden="true" d="M0,0h800v400h-800Z"/><g><g class="mark-area role-mark layer_0_layer_0_marks" role="graphics-symbol" aria-roledescription="area mark container"><path d="M13.333333333333334,13.96796157070388L26.666666666666668,75.78490385019303L40,96.32885671288074L53.333333333333336,145.93075024027527L66.66666666666666,175.16191767116914L80,212.16420544985118L93.33333333333333,226.69220491641266L106.66666666666667,243.03282547758266L120,247.67381936737712L133.33333333333331,254.31821090654677L146.66666666666666,260.68388610129574L160,269.01441113696546L173.33333333333334,277.45288286390684L186.66666666666666,282.9421911522136L200,285.29790137677765L213.33333333333334,287.87761788372234L226.66666666666666,287.1634738541944L240,287.09404310648256L253.33333333333331,289.1664237126084L266.66666666666663,288.8957099599384L280,291.63930225249317L293.3333333333333,293.04664377326316L306.6666666666667,298.15738432587796L320,297.0476630985513L333.33333333333337,296.0628133173203L346.6666666666667,295.51135204712233L360,293.9665050994907L373.3333333333333,299.34419124196216L386.6666666666667,295.5926345549143L400,297.06669486447817L413.33333333333337,295.51760230272555L426.6666666666667,297.8372646715256L440.00000000000006,293.7204302851413L453.3333333333333,294.13909781111397L466.6666666666667,299.33770338809234L480,298.0548366692632L493.33333333333337,297.74781076142364L506.66666666666663,297.2635628892841L520,297.0032693207583L533.3333333333333,296.86387042122533L546.6666666666666,297.958791837487L560,298.6523461604783L573.3333333333334,300.2632035233306L586.6666666666666,297.0730395684713L600,295.69902264335667L613.3333333333334,298.50424760069L626.6666666666666,296.2640715222404L640,298.71035671533497L653.3333333333334,297.3017099679347L666.6666666666667,295.0311999706968L680,296.9842492724575L693.3333333333334,297.26991975202634L706.6666666666666,296.3711489231391L720,297.1936633414902L733.3333333333333,295.98116340130053L746.6666666666666,297.9459926893448L760,295.96860756365464L773.3333333333334,299.0073754966154L786.6666666666666,293.7757474173873L800,293.493317254795L800,400L786.6666666666666,400L773.3333333333334,400L760,400L746.6666666666666,400L733.3333333333333,400L720,400L706.6666666666666,400L693.3333333333334,400L680,400L666.6666666666667,400L653.3333333333334,400L640,400L626.6666666666666,400L613.3333333333334,400L600,400L586.6666666666666,400L573.3333333333334,400L560,400L546.6666666666666,400L533.3333333333333,400L520,400L506.66666666666663,400L493.33333333333337,400L480,400L466.6666666666667,400L453.3333333333333,400L440.00000000000006,400L426.6666666666667,400L413.33333333333337,400L400,400L386.6666666666667,400L373.3333333333333,400L360,400L346.6666666666667,400L333.33333333333337,400L320,400L306.6666666666667,400L293.3333333333333,400L280,400L266.66666666666663,400L253.33333333333331,400L240,400L226.66666666666666,400L213.33333333333334,400L200,400L186.66666666666666,400L173.33333333333334,400L160,400L146.66666666666666,400L133.33333333333331,400L120,400L106.66666666666667,400L93.33333333333333,400L80,400L66.66666666666666,400L53.333333333333336,400L40,400L26.666666666666668,400L13.333333333333334,400Z" fill="#5f249f" fill-opacity="0.4" opacity="0.7"/></g></g><path class="foreground" aria-hidden="true" d="" display="none"/></g></g><g class="mark-group role-scope layer_0_layer_1_pathgroup" role="graphics-object" aria-roledescription="group mark container"><g transform="translate(0,0)"><path class="background" aria-hidden="true" d="M0,0h800v400h-800Z"/><g><g class="mark-line role-mark layer_0_layer_1_marks" role="graphics-symbol" aria-roledescription="line mark container"><path d="M13.333333333333334,13.976420303587345L26.666666666666668,74.94402365884416L40,95.75734711133173L53.333333333333336,143.4317531218595L66.66666666666666,175.83679414956865L80,212.63415683835677L93.33333333333333,229.8485668468184L106.66666666666667,232.54510202104314L120,248.9697962360522L133.33333333333331,255.82776739933166L146.66666666666666,259.6470920304456L160,271.49589063983603L173.33333333333334,280.16337652232266L186.66666666666666,283.31658040594084L200,283.3669630588209L213.33333333333334,290.76892122006404L226.66666666666666,289.4200815367142L240,291.2722929253344L253.33333333333331,292.28609321779425L266.66666666666663,294.0034655938108L280,293.3401362713591L293.3333333333333,294.2501990159638L306.6666666666667,296.8195557208991L320,295.3676992160311L333.33333333333337,295.47385836206195L346.6666666666667,295.71154602424554L360,297.56913730396946L373.3333333333333,295.67398039152965L386.6666666666667,297.8436572338901L400,297.03497720892136L413.33333333333337,296.5098841355724L426.6666666666667,298.38849494676464L440.00000000000006,297.48628762702134L453.3333333333333,300.56486064385734L466.6666666666667,297.58188935664214L480,296.1068052355336L493.33333333333337,298.5106821746591L506.66666666666663,296.7056909325868L520,295.4113987558678L533.3333333333333,297.85005019630233L546.6666666666666,296.7562820016518L560,296.16968316586167L573.3333333333334,297.3780466658208L586.6666666666666,299.8384977618035L600,299.6561015348533L613.3333333333334,297.93959371719L626.6666666666666,297.8244807466393L640,294.72678887964025L653.3333333333334,298.33709162740075L666.6666666666667,298.09968857070277L680,298.1509720724056L693.3333333333334,297.3207888218688L706.6666666666666,297.314428810021L720,294.3614170670505L733.3333333333333,297.56276187293L746.6666666666666,295.6114010447657L760,296.9842492724575L773.3333333333334,293.88646819253887L786.6666666666666,298.80711487461184L800,297.0730395684713" stroke="#228C22" stroke-width="2"/></g></g><path class="foreground" aria-hidden="true" d="" display="none"/></g><g transform="translate(0,0)"><path class="background" aria-hidden="true" d="M0,0h800v400h-800Z"/><g><g class="mark-line role-mark layer_0_layer_1_marks" role="graphics-symbol" aria-roledescription="line mark container"><path d="M13.333333333333334,13.96796157070388L26.666666666666668,75.78490385019303L40,96.32885671288074L53.333333333333336,145.93075024027527L66.66666666666666,175.16191767116914L80,212.16420544985118L93.33333333333333,226.69220491641266L106.66666666666667,243.03282547758266L120,247.67381936737712L133.33333333333331,254.31821090654677L146.66666666666666,260.68388610129574L160,269.01441113696546L173.33333333333334,277.45288286390684L186.66666666666666,282.9421911522136L200,285.29790137677765L213.33333333333334,287.87761788372234L226.66666666666666,287.1634738541944L240,287.09404310648256L253.33333333333331,289.1664237126084L266.66666666666663,288.8957099599384L280,291.63930225249317L293.3333333333333,293.04664377326316L306.6666666666667,298.15738432587796L320,297.0476630985513L333.33333333333337,296.0628133173203L346.6666666666667,295.51135204712233L360,293.9665050994907L373.3333333333333,299.34419124196216L386.6666666666667,295.5926345549143L400,297.06669486447817L413.33333333333337,295.51760230272555L426.6666666666667,297.8372646715256L440.00000000000006,293.7204302851413L453.3333333333333,294.13909781111397L466.6666666666667,299.33770338809234L480,298.0548366692632L493.33333333333337,297.74781076142364L506.66666666666663,297.2635628892841L520,297.0032693207583L533.3333333333333,296.86387042122533L546.6666666666666,297.958791837487L560,298.6523461604783L573.3333333333334,300.2632035233306L586.6666666666666,297.0730395684713L600,295.69902264335667L613.3333333333334,298.50424760069L626.6666666666666,296.2640715222404L640,298.71035671533497L653.3333333333334,297.3017099679347L666.6666666666667,295.0311999706968L680,296.9842492724575L693.3333333333334,297.26991975202634L706.6666666666666,296.3711489231391L720,297.1936633414902L733.3333333333333,295.98116340130053L746.6666666666666,297.9459926893448L760,295.96860756365464L773.3333333333334,299.0073754966154L786.6666666666666,293.7757474173873L800,293.493317254795" stroke="#5f249f" stroke-width="2"/></g></g><path class="foreground" aria-hidden="true" d="" display="none"/></g></g><g class="mark-group role-scope layer_1_layer_0_pathgroup" role="graphics-object" aria-roledescription="group mark container"><g transform="translate(0,0)"><path class="background" aria-hidden="true" d="M0,0h800v400h-800Z"/><g><g class="mark-line role-mark layer_1_layer_0_marks" role="graphics-symbol" aria-roledescription="line mark container"><path d="M13.333333333333334,13.976420303587345L26.666666666666668,74.94402365884416L40,95.75734711133173L53.333333333333336,143.4317531218595L66.66666666666666,175.83679414956865L80,212.63415683835677L93.33333333333333,229.8485668468184L106.66666666666667,232.54510202104314L120,248.9697962360522L133.33333333333331,255.82776739933166L146.66666666666666,259.6470920304456L160,271.49589063983603L173.33333333333334,280.16337652232266L186.66666666666666,283.31658040594084L200,283.3669630588209L213.33333333333334,290.76892122006404L226.66666666666666,289.4200815367142L240,291.2722929253344L253.33333333333331,292.28609321779425L266.66666666666663,294.0034655938108L280,293.3401362713591L293.3333333333333,294.2501990159638L306.6666666666667,296.8195557208991L320,295.3676992160311L333.33333333333337,295.47385836206195L346.6666666666667,295.71154602424554L360,297.56913730396946L373.3333333333333,295.67398039152965L386.6666666666667,297.8436572338901L400,297.03497720892136L413.33333333333337,296.5098841355724L426.6666666666667,298.38849494676464L440.00000000000006,297.48628762702134L453.3333333333333,300.56486064385734L466.6666666666667,297.58188935664214L480,296.1068052355336L493.33333333333337,298.5106821746591L506.66666666666663,296.7056909325868L520,295.4113987558678L533.3333333333333,297.85005019630233L546.6666666666666,296.7562820016518L560,296.16968316586167L573.3333333333334,297.3780466658208L586.6666666666666,299.8384977618035L600,299.6561015348533L613.3333333333334,297.93959371719L626.6666666666666,297.8244807466393L640,294.72678887964025L653.3333333333334,298.33709162740075L666.6666666666667,298.09968857070277L680,298.1509720724056L693.3333333333334,297.3207888218688L706.6666666666666,297.314428810021L720,294.3614170670505L733.3333333333333,297.56276187293L746.6666666666666,295.6114010447657L760,296.9842492724575L773.3333333333334,293.88646819253887L786.6666666666666,298.80711487461184L800,297.0730395684713" stroke="#228C22" stroke-width="3.05" opacity="0.05"/></g></g><path class="foreground" aria-hidden="true" d="" display="none"/></g><g transform="translate(0,0)"><path class="background" aria-hidden="true" d="M0,0h800v400h-800Z"/><g><g class="mark-line role-mark layer_1_layer_0_marks" role="graphics-symbol" aria-roledescription="line mark container"><path d="M13.333333333333334,13.96796157070388L26.666666666666668,75.78490385019303L40,96.32885671288074L53.333333333333336,145.93075024027527L66.66666666666666,175.16191767116914L80,212.16420544985118L93.33333333333333,226.69220491641266L106.66666666666667,243.03282547758266L120,247.67381936737712L133.33333333333331,254.31821090654677L146.66666666666666,260.68388610129574L160,269.01441113696546L173.33333333333334,277.45288286390684L186.66666666666666,282.9421911522136L200,285.29790137677765L213.33333333333334,287.87761788372234L226.66666666666666,287.1634738541944L240,287.09404310648256L253.33333333333331,289.1664237126084L266.66666666666663,288.8957099599384L280,291.63930225249317L293.3333333333333,293.04664377326316L306.6666666666667,298.15738432587796L320,297.0476630985513L333.33333333333337,296.0628133173203L346.6666666666667,295.51135204712233L360,293.9665050994907L373.3333333333333,299.34419124196216L386.6666666666667,295.5926345549143L400,297.06669486447817L413.33333333333337,295.51760230272555L426.6666666666667,297.8372646715256L440.00000000000006,293.7204302851413L453.3333333333333,294.13909781111397L466.6666666666667,299.33770338809234L480,298.0548366692632L493.33333333333337,297.74781076142364L506.66666666666663,297.2635628892841L520,297.0032693207583L533.3333333333333,296.86387042122533L546.6666666666666,297.958791837487L560,298.6523461604783L573.3333333333334,300.2632035233306L586.6666666666666,297.0730395684713L600,295.69902264335667L613.3333333333334,298.50424760069L626.6666666666666,296.2640715222404L640,298.71035671533497L653.3333333333334,297.3017099679347L666.6666666666667,295.0311999706968L680,296.9842492724575L693.3333333333334,297.26991975202634L706.6666666666666,296.3711489231391L720,297.1936633414902L733.3333333333333,295.98116340130053L746.6666666666666,297.9459926893448L760,295.96860756365464L773.3333333333334,299.0073754966154L786.6666666666666,293.7757474173873L800,293.493317254795" stroke="#5f249f" stroke-width="3.05" opacity="0.05"/></g></g><path class="foreground" aria-hidden="true" d="" display="none"/></g></g><g class="mark-group role-scope layer_1_layer_1_pathgroup" role="graphics-object" aria-roledescription="group mark container"><g transform="translate(0,0)"><path class="background" aria-hidden="true" d="M0,0h800v400h-800Z"/><g><g class="mark-line role-mark layer_1_layer_1_marks" role="graphics-symbol" aria-roledescription="line mark container"><path d="M13.333333333333334,13.976420303587345L26.666666666666668,74.94402365884416L40,95.75734711133173L53.333333333333336,143.4317531218595L66.66666666666666,175.83679414956865L80,212.63415683835677L93.33333333333333,229.8485668468184L106.66666666666667,232.54510202104314L120,248.9697962360522L133.33333333333331,255.82776739933166L146.66666666666666,259.6470920304456L160,271.49589063983603L173.33333333333334,280.16337652232266L186.66666666666666,283.31658040594084L200,283.3669630588209L213.33333333333334,290.76892122006404L226.66666666666666,289.4200815367142L240,291.2722929253344L253.33333333333331,292.28609321779425L266.66666666666663,294.0034655938108L280,293.3401362713591L293.3333333333333,294.2501990159638L306.6666666666667,296.8195557208991L320,295.3676992160311L333.33333333333337,295.47385836206195L346.6666666666667,295.71154602424554L360,297.56913730396946L373.3333333333333,295.67398039152965L386.6666666666667,297.8436572338901L400,297.03497720892136L413.33333333333337,296.5098841355724L426.6666666666667,298.38849494676464L440.00000000000006,297.48628762702134L453.3333333333333,300.56486064385734L466.6666666666667,297.58188935664214L480,296.1068052355336L493.33333333333337,298.5106821746591L506.66666666666663,296.7056909325868L520,295.4113987558678L533.3333333333333,297.85005019630233L546.6666666666666,296.7562820016518L560,296.16968316586167L573.3333333333334,297.3780466658208L586.6666666666666,299.8384977618035L600,299.6561015348533L613.3333333333334,297.93959371719L626.6666666666666,297.8244807466393L640,294.72678887964025L653.3333333333334,298.33709162740075L666.6666666666667,298.09968857070277L680,298.1509720724056L693.3333333333334,297.3207888218688L706.6666666666666,297.314428810021L720,294.3614170670505L733.3333333333333,297.56276187293L746.6666666666666,295.6114010447657L760,296.9842492724575L773.3333333333334,293.88646819253887L786.6666666666666,298.80711487461184L800,297.0730395684713" stroke="#228C22" stroke-width="4.1" opacity="0.05"/></g></g><path class="foreground" aria-hidden="true" d="" display="none"/></g><g transform="translate(0,0)"><path class="background" aria-hidden="true" d="M0,0h800v400h-800Z"/><g><g class="mark-line role-mark layer_1_layer_1_marks" role="graphics-symbol" aria-roledescription="line mark container"><path d="M13.333333333333334,13.96796157070388L26.666666666666668,75.78490385019303L40,96.32885671288074L53.333333333333336,145.93075024027527L66.66666666666666,175.16191767116914L80,212.16420544985118L93.33333333333333,226.69220491641266L106.66666666666667,243.03282547758266L120,247.67381936737712L133.33333333333331,254.31821090654677L146.66666666666666,260.68388610129574L160,269.01441113696546L173.33333333333334,277.45288286390684L186.66666666666666,282.9421911522136L200,285.29790137677765L213.33333333333334,287.87761788372234L226.66666666666666,287.1634738541944L240,287.09404310648256L253.33333333333331,289.1664237126084L266.66666666666663,288.8957099599384L280,291.63930225249317L293.3333333333333,293.04664377326316L306.6666666666667,298.15738432587796L320,297.0476630985513L333.33333333333337,296.0628133173203L346.6666666666667,295.51135204712233L360,293.9665050994907L373.3333333333333,299.34419124196216L386.6666666666667,295.5926345549143L400,297.06669486447817L413.33333333333337,295.51760230272555L426.6666666666667,297.8372646715256L440.00000000000006,293.7204302851413L453.3333333333333,294.13909781111397L466.6666666666667,299.33770338809234L480,298.0548366692632L493.33333333333337,297.74781076142364L506.66666666666663,297.2635628892841L520,297.0032693207583L533.3333333333333,296.86387042122533L546.6666666666666,297.958791837487L560,298.6523461604783L573.3333333333334,300.2632035233306L586.6666666666666,297.0730395684713L600,295.69902264335667L613.3333333333334,298.50424760069L626.6666666666666,296.2640715222404L640,298.71035671533497L653.3333333333334,297.3017099679347L666.6666666666667,295.0311999706968L680,296.9842492724575L693.3333333333334,297.26991975202634L706.6666666666666,296.3711489231391L720,297.1936633414902L733.3333333333333,295.98116340130053L746.6666666666666,297.9459926893448L760,295.96860756365464L773.3333333333334,299.0073754966154L786.6666666666666,293.7757474173873L800,293.493317254795" stroke="#5f249f" stroke-width="4.1" opacity="0.05"/></g></g><path class="foreground" aria-hidden="true" d="" display="none"/></g></g><g class="mark-group role-scope layer_1_layer_2_pathgroup" role="graphics-object" aria-roledescription="group mark container"><g transform="translate(0,0)"><path class="background" aria-hidden="true" d="M0,0h800v400h-800Z"/><g><g class="mark-line role-mark layer_1_layer_2_marks" role="graphics-symbol" aria-roledescription="line mark container"><path d="M13.333333333333334,13.976420303587345L26.666666666666668,74.94402365884416L40,95.75734711133173L53.333333333333336,143.4317531218595L66.66666666666666,175.83679414956865L80,212.63415683835677L93.33333333333333,229.8485668468184L106.66666666666667,232.54510202104314L120,248.9697962360522L133.33333333333331,255.82776739933166L146.66666666666666,259.6470920304456L160,271.49589063983603L173.33333333333334,280.16337652232266L186.66666666666666,283.31658040594084L200,283.3669630588209L213.33333333333334,290.76892122006404L226.66666666666666,289.4200815367142L240,291.2722929253344L253.33333333333331,292.28609321779425L266.66666666666663,294.0034655938108L280,293.3401362713591L293.3333333333333,294.2501990159638L306.6666666666667,296.8195557208991L320,295.3676992160311L333.33333333333337,295.47385836206195L346.6666666666667,295.71154602424554L360,297.56913730396946L373.3333333333333,295.67398039152965L386.6666666666667,297.8436572338901L400,297.03497720892136L413.33333333333337,296.5098841355724L426.6666666666667,298.38849494676464L440.00000000000006,297.48628762702134L453.3333333333333,300.56486064385734L466.6666666666667,297.58188935664214L480,296.1068052355336L493.33333333333337,298.5106821746591L506.66666666666663,296.7056909325868L520,295.4113987558678L533.3333333333333,297.85005019630233L546.6666666666666,296.7562820016518L560,296.16968316586167L573.3333333333334,297.3780466658208L586.6666666666666,299.8384977618035L600,299.6561015348533L613.3333333333334,297.93959371719L626.6666666666666,297.8244807466393L640,294.72678887964025L653.3333333333334,298.33709162740075L666.6666666666667,298.09968857070277L680,298.1509720724056L693.3333333333334,297.3207888218688L706.6666666666666,297.314428810021L720,294.3614170670505L733.3333333333333,297.56276187293L746.6666666666666,295.6114010447657L760,296.9842492724575L773.3333333333334,293.88646819253887L786.6666666666666,298.80711487461184L800,297.0730395684713" stroke="#228C22" stroke-width="5.15" opacity="0.05"/></g></g><path class="foreground" aria-hidden="true" d="" display="none"/></g><g transform="translate(0,0)"><path class="background" aria-hidden="true" d="M0,0h800v400h-800Z"/><g><g class="mark-line role-mark layer_1_layer_2_marks" role="graphics-symbol" aria-roledescription="line mark container"><path d="M13.333333333333334,13.96796157070388L26.666666666666668,75.78490385019303L40,96.32885671288074L53.333333333333336,145.93075024027527L66.66666666666666,175.16191767116914L80,212.16420544985118L93.33333333333333,226.69220491641266L106.66666666666667,243.03282547758266L120,247.67381936737712L133.33333333333331,254.31821090654677L146.66666666666666,260.68388610129574L160,269.01441113696546L173.33333333333334,277.45288286390684L186.66666666666666,282.9421911522136L200,285.29790137677765L213.33333333333334,287.87761788372234L226.66666666666666,287.1634738541944L240,287.09404310648256L253.33333333333331,289.1664237126084L266.66666666666663,288.8957099599384L280,291.63930225249317L293.3333333333333,293.04664377326316L306.6666666666667,298.15738432587796L320,297.0476630985513L333.33333333333337,296.0628133173203L346.6666666666667,295.51135204712233L360,293.9665050994907L373.3333333333333,299.34419124196216L386.6666666666667,295.5926345549143L400,297.06669486447817L413.33333333333337,295.51760230272555L426.6666666666667,297.8372646715256L440.00000000000006,293.7204302851413L453.3333333333333,294.13909781111397L466.6666666666667,299.33770338809234L480,298.0548366692632L493.33333333333337,297.74781076142364L506.66666666666663,297.2635628892841L520,297.0032693207583L533.3333333333333,296.86387042122533L546.6666666666666,297.958791837487L560,298.6523461604783L573.3333333333334,300.2632035233306L586.6666666666666,297.0730395684713L600,295.69902264335667L613.3333333333334,298.50424760069L626.6666666666666,296.2640715222404L640,298.71035671533497L653.3333333333334,297.3017099679347L666.6666666666667,295.0311999706968L680,296.9842492724575L693.3333333333334,297.26991975202634L706.6666666666666,296.3711489231391L720,297.1936633414902L733.3333333333333,295.98116340130053L746.6666666666666,297.9459926893448L760,295.96860756365464L773.3333333333334,299.0073754966154L786.6666666666666,293.7757474173873L800,293.493317254795" stroke="#5f249f" stroke-width="5.15" opacity="0.05"/></g></g><path class="foreground" aria-hidden="true" d="" display="none"/></g></g><g class="mark-group role-scope layer_1_layer_3_pathgroup" role="graphics-object" aria-roledescription="group mark container"><g transform="translate(0,0)"><path class="background" aria-hidden="true" d="M0,0h800v400h-800Z"/><g><g class="mark-line role-mark layer_1_layer_3_marks" role="graphics-symbol" aria-roledescription="line mark container"><path d="M13.333333333333334,13.976420303587345L26.666666666666668,74.94402365884416L40,95.75734711133173L53.333333333333336,143.4317531218595L66.66666666666666,175.83679414956865L80,212.63415683835677L93.33333333333333,229.8485668468184L106.66666666666667,232.54510202104314L120,248.9697962360522L133.33333333333331,255.82776739933166L146.66666666666666,259.6470920304456L160,271.49589063983603L173.33333333333334,280.16337652232266L186.66666666666666,283.31658040594084L200,283.3669630588209L213.33333333333334,290.76892122006404L226.66666666666666,289.4200815367142L240,291.2722929253344L253.33333333333331,292.28609321779425L266.66666666666663,294.0034655938108L280,293.3401362713591L293.3333333333333,294.2501990159638L306.6666666666667,296.8195557208991L320,295.3676992160311L333.33333333333337,295.47385836206195L346.6666666666667,295.71154602424554L360,297.56913730396946L373.3333333333333,295.67398039152965L386.6666666666667,297.8436572338901L400,297.03497720892136L413.33333333333337,296.5098841355724L426.6666666666667,298.38849494676464L440.00000000000006,297.48628762702134L453.3333333333333,300.56486064385734L466.6666666666667,297.58188935664214L480,296.1068052355336L493.33333333333337,298.5106821746591L506.66666666666663,296.7056909325868L520,295.4113987558678L533.3333333333333,297.85005019630233L546.6666666666666,296.7562820016518L560,296.16968316586167L573.3333333333334,297.3780466658208L586.6666666666666,299.8384977618035L600,299.6561015348533L613.3333333333334,297.93959371719L626.6666666666666,297.8244807466393L640,294.72678887964025L653.3333333333334,298.33709162740075L666.6666666666667,298.09968857070277L680,298.1509720724056L693.3333333333334,297.3207888218688L706.6666666666666,297.314428810021L720,294.3614170670505L733.3333333333333,297.56276187293L746.6666666666666,295.6114010447657L760,296.9842492724575L773.3333333333334,293.88646819253887L786.6666666666666,298.80711487461184L800,297.0730395684713" stroke="#228C22" stroke-width="6.2" opacity="0.05"/></g></g><path class="foreground" aria-hidden="true" d="" display="none"/></g><g transform="translate(0,0)"><path class="background" aria-hidden="true" d="M0,0h800v400h-800Z"/><g><g class="mark-line role-mark layer_1_layer_3_marks" role="graphics-symbol" aria-roledescription="line mark container"><path d="M13.333333333333334,13.96796157070388L26.666666666666668,75.78490385019303L40,96.32885671288074L53.333333333333336,145.93075024027527L66.66666666666666,175.16191767116914L80,212.16420544985118L93.33333333333333,226.69220491641266L106.66666666666667,243.03282547758266L120,247.67381936737712L133.33333333333331,254.31821090654677L146.66666666666666,260.68388610129574L160,269.01441113696546L173.33333333333334,277.45288286390684L186.66666666666666,282.9421911522136L200,285.29790137677765L213.33333333333334,287.87761788372234L226.66666666666666,287.1634738541944L240,287.09404310648256L253.33333333333331,289.1664237126084L266.66666666666663,288.8957099599384L280,291.63930225249317L293.3333333333333,293.04664377326316L306.6666666666667,298.15738432587796L320,297.0476630985513L333.33333333333337,296.0628133173203L346.6666666666667,295.51135204712233L360,293.9665050994907L373.3333333333333,299.34419124196216L386.6666666666667,295.5926345549143L400,297.06669486447817L413.33333333333337,295.51760230272555L426.6666666666667,297.8372646715256L440.00000000000006,293.7204302851413L453.3333333333333,294.13909781111397L466.6666666666667,299.33770338809234L480,298.0548366692632L493.33333333333337,297.74781076142364L506.66666666666663,297.2635628892841L520,297.0032693207583L533.3333333333333,296.86387042122533L546.6666666666666,297.958791837487L560,298.6523461604783L573.3333333333334,300.2632035233306L586.6666666666666,297.0730395684713L600,295.69902264335667L613.3333333333334,298.50424760069L626.6666666666666,296.2640715222404L640,298.71035671533497L653.3333333333334,297.3017099679347L666.6666666666667,295.0311999706968L680,296.9842492724575L693.3333333333334,297.26991975202634L706.6666666666666,296.3711489231391L720,297.1936633414902L733.3333333333333,295.98116340130053L746.6666666666666,297.9459926893448L760,295.96860756365464L773.3333333333334,299.0073754966154L786.6666666666666,293.7757474173873L800,293.493317254795" stroke="#5f249f" stroke-width="6.2" opacity="0.05"/></g></g><path class="foreground" aria-hidden="true" d="" display="none"/></g></g><g class="mark-group role-scope layer_1_layer_4_pathgroup" role="graphics-object" aria-roledescription="group mark container"><g transform="translate(0,0)"><path class="background" aria-hidden="true" d="M0,0h800v400h-800Z"/><g><g class="mark-line role-mark layer_1_layer_4_marks" role="graphics-symbol" aria-roledescription="line mark container"><path d="M13.333333333333334,13.976420303587345L26.666666666666668,74.94402365884416L40,95.75734711133173L53.333333333333336,143.4317531218595L66.66666666666666,175.83679414956865L80,212.63415683835677L93.33333333333333,229.8485668468184L106.66666666666667,232.54510202104314L120,248.9697962360522L133.33333333333331,255.82776739933166L146.66666666666666,259.6470920304456L160,271.49589063983603L173.33333333333334,280.16337652232266L186.66666666666666,283.31658040594084L200,283.3669630588209L213.33333333333334,290.76892122006404L226.66666666666666,289.4200815367142L240,291.2722929253344L253.33333333333331,292.28609321779425L266.66666666666663,294.0034655938108L280,293.3401362713591L293.3333333333333,294.2501990159638L306.6666666666667,296.8195557208991L320,295.3676992160311L333.33333333333337,295.47385836206195L346.6666666666667,295.71154602424554L360,297.56913730396946L373.3333333333333,295.67398039152965L386.6666666666667,297.8436572338901L400,297.03497720892136L413.33333333333337,296.5098841355724L426.6666666666667,298.38849494676464L440.00000000000006,297.48628762702134L453.3333333333333,300.56486064385734L466.6666666666667,297.58188935664214L480,296.1068052355336L493.33333333333337,298.5106821746591L506.66666666666663,296.7056909325868L520,295.4113987558678L533.3333333333333,297.85005019630233L546.6666666666666,296.7562820016518L560,296.16968316586167L573.3333333333334,297.3780466658208L586.6666666666666,299.8384977618035L600,299.6561015348533L613.3333333333334,297.93959371719L626.6666666666666,297.8244807466393L640,294.72678887964025L653.3333333333334,298.33709162740075L666.6666666666667,298.09968857070277L680,298.1509720724056L693.3333333333334,297.3207888218688L706.6666666666666,297.314428810021L720,294.3614170670505L733.3333333333333,297.56276187293L746.6666666666666,295.6114010447657L760,296.9842492724575L773.3333333333334,293.88646819253887L786.6666666666666,298.80711487461184L800,297.0730395684713" stroke="#228C22" stroke-width="7.25" opacity="0.05"/></g></g><path class="foreground" aria-hidden="true" d="" display="none"/></g><g transform="translate(0,0)"><path class="background" aria-hidden="true" d="M0,0h800v400h-800Z"/><g><g class="mark-line role-mark layer_1_layer_4_marks" role="graphics-symbol" aria-roledescription="line mark container"><path d="M13.333333333333334,13.96796157070388L26.666666666666668,75.78490385019303L40,96.32885671288074L53.333333333333336,145.93075024027527L66.66666666666666,175.16191767116914L80,212.16420544985118L93.33333333333333,226.69220491641266L106.66666666666667,243.03282547758266L120,247.67381936737712L133.33333333333331,254.31821090654677L146.66666666666666,260.68388610129574L160,269.01441113696546L173.33333333333334,277.45288286390684L186.66666666666666,282.9421911522136L200,285.29790137677765L213.33333333333334,287.87761788372234L226.66666666666666,287.1634738541944L240,287.09404310648256L253.33333333333331,289.1664237126084L266.66666666666663,288.8957099599384L280,291.63930225249317L293.3333333333333,293.04664377326316L306.6666666666667,298.15738432587796L320,297.0476630985513L333.33333333333337,296.0628133173203L346.6666666666667,295.51135204712233L360,293.9665050994907L373.3333333333333,299.34419124196216L386.6666666666667,295.5926345549143L400,297.06669486447817L413.33333333333337,295.51760230272555L426.6666666666667,297.8372646715256L440.00000000000006,293.7204302851413L453.3333333333333,294.13909781111397L466.6666666666667,299.33770338809234L480,298.0548366692632L493.33333333333337,297.74781076142364L506.66666666666663,297.2635628892841L520,297.0032693207583L533.3333333333333,296.86387042122533L546.6666666666666,297.958791837487L560,298.6523461604783L573.3333333333334,300.2632035233306L586.6666666666666,297.0730395684713L600,295.69902264335667L613.3333333333334,298.50424760069L626.6666666666666,296.2640715222404L640,298.71035671533497L653.3333333333334,297.3017099679347L666.6666666666667,295.0311999706968L680,296.9842492724575L693.3333333333334,297.26991975202634L706.6666666666666,296.3711489231391L720,297.1936633414902L733.3333333333333,295.98116340130053L746.6666666666666,297.9459926893448L760,295.96860756365464L773.3333333333334,299.0073754966154L786.6666666666666,293.7757474173873L800,293.493317254795" stroke="#5f249f" stroke-width="7.25" opacity="0.05"/></g></g><path class="foreground" aria-hidden="true" d="" display="none"/></g></g><g class="mark-group role-scope layer_1_layer_5_pathgroup" role="graphics-object" aria-roledescription="group mark container"><g transform="translate(0,0)"><path class="background" aria-hidden="true" d="M0,0h800v400h-800Z"/><g><g class="mark-line role-mark layer_1_layer_5_marks" role="graphics-symbol" aria-roledescription="line mark container"><path d="M13.333333333333334,13.976420303587345L26.666666666666668,74.94402365884416L40,95.75734711133173L53.333333333333336,143.4317531218595L66.66666666666666,175.83679414956865L80,212.63415683835677L93.33333333333333,229.8485668468184L106.66666666666667,232.54510202104314L120,248.9697962360522L133.33333333333331,255.82776739933166L146.66666666666666,259.6470920304456L160,271.49589063983603L173.33333333333334,280.16337652232266L186.66666666666666,283.31658040594084L200,283.3669630588209L213.33333333333334,290.76892122006404L226.66666666666666,289.4200815367142L240,291.2722929253344L253.33333333333331,292.28609321779425L266.66666666666663,294.0034655938108L280,293.3401362713591L293.3333333333333,294.2501990159638L306.6666666666667,296.8195557208991L320,295.3676992160311L333.33333333333337,295.47385836206195L346.6666666666667,295.71154602424554L360,297.56913730396946L373.3333333333333,295.67398039152965L386.6666666666667,297.8436572338901L400,297.03497720892136L413.33333333333337,296.5098841355724L426.6666666666667,298.38849494676464L440.00000000000006,297.48628762702134L453.3333333333333,300.56486064385734L466.6666666666667,297.58188935664214L480,296.1068052355336L493.33333333333337,298.5106821746591L506.66666666666663,296.7056909325868L520,295.4113987558678L533.3333333333333,297.85005019630233L546.6666666666666,296.7562820016518L560,296.16968316586167L573.3333333333334,297.3780466658208L586.6666666666666,299.8384977618035L600,299.6561015348533L613.3333333333334,297.93959371719L626.6666666666666,297.8244807466393L640,294.72678887964025L653.3333333333334,298.33709162740075L666.6666666666667,298.09968857070277L680,298.1509720724056L693.3333333333334,297.3207888218688L706.6666666666666,297.314428810021L720,294.3614170670505L733.3333333333333,297.56276187293L746.6666666666666,295.6114010447657L760,296.9842492724575L773.3333333333334,293.88646819253887L786.6666666666666,298.80711487461184L800,297.0730395684713" stroke="#228C22" stroke-width="8.3" opacity="0.05"/></g></g><path class="foreground" aria-hidden="true" d="" display="none"/></g><g transform="translate(0,0)"><path class="background" aria-hidden="true" d="M0,0h800v400h-800Z"/><g><g class="mark-line role-mark layer_1_layer_5_marks" role="graphics-symbol" aria-roledescription="line mark container"><path d="M13.333333333333334,13.96796157070388L26.666666666666668,75.78490385019303L40,96.32885671288074L53.333333333333336,145.93075024027527L66.66666666666666,175.16191767116914L80,212.16420544985118L93.33333333333333,226.69220491641266L106.66666666666667,243.03282547758266L120,247.67381936737712L133.33333333333331,254.31821090654677L146.66666666666666,260.68388610129574L160,269.01441113696546L173.33333333333334,277.45288286390684L186.66666666666666,282.9421911522136L200,285.29790137677765L213.33333333333334,287.87761788372234L226.66666666666666,287.1634738541944L240,287.09404310648256L253.33333333333331,289.1664237126084L266.66666666666663,288.8957099599384L280,291.63930225249317L293.3333333333333,293.04664377326316L306.6666666666667,298.15738432587796L320,297.0476630985513L333.33333333333337,296.0628133173203L346.6666666666667,295.51135204712233L360,293.9665050994907L373.3333333333333,299.34419124196216L386.6666666666667,295.5926345549143L400,297.06669486447817L413.33333333333337,295.51760230272555L426.6666666666667,297.8372646715256L440.00000000000006,293.7204302851413L453.3333333333333,294.13909781111397L466.6666666666667,299.33770338809234L480,298.0548366692632L493.33333333333337,297.74781076142364L506.66666666666663,297.2635628892841L520,297.0032693207583L533.3333333333333,296.86387042122533L546.6666666666666,297.958791837487L560,298.6523461604783L573.3333333333334,300.2632035233306L586.6666666666666,297.0730395684713L600,295.69902264335667L613.3333333333334,298.50424760069L626.6666666666666,296.2640715222404L640,298.71035671533497L653.3333333333334,297.3017099679347L666.6666666666667,295.0311999706968L680,296.9842492724575L693.3333333333334,297.26991975202634L706.6666666666666,296.3711489231391L720,297.1936633414902L733.3333333333333,295.98116340130053L746.6666666666666,297.9459926893448L760,295.96860756365464L773.3333333333334,299.0073754966154L786.6666666666666,293.7757474173873L800,293.493317254795" stroke="#5f249f" stroke-width="8.3" opacity="0.05"/></g></g><path class="foreground" aria-hidden="true" d="" display="none"/></g></g><g class="mark-group role-scope layer_1_layer_6_pathgroup" role="graphics-object" aria-roledescription="group mark container"><g transform="translate(0,0)"><path class="background" aria-hidden="true" d="M0,0h800v400h-800Z"/><g><g class="mark-line role-mark layer_1_layer_6_marks" role="graphics-symbol" aria-roledescription="line mark container"><path d="M13.333333333333334,13.976420303587345L26.666666666666668,74.94402365884416L40,95.75734711133173L53.333333333333336,143.4317531218595L66.66666666666666,175.83679414956865L80,212.63415683835677L93.33333333333333,229.8485668468184L106.66666666666667,232.54510202104314L120,248.9697962360522L133.33333333333331,255.82776739933166L146.66666666666666,259.6470920304456L160,271.49589063983603L173.33333333333334,280.16337652232266L186.66666666666666,283.31658040594084L200,283.3669630588209L213.33333333333334,290.76892122006404L226.66666666666666,289.4200815367142L240,291.2722929253344L253.33333333333331,292.28609321779425L266.66666666666663,294.0034655938108L280,293.3401362713591L293.3333333333333,294.2501990159638L306.6666666666667,296.8195557208991L320,295.3676992160311L333.33333333333337,295.47385836206195L346.6666666666667,295.71154602424554L360,297.56913730396946L373.3333333333333,295.67398039152965L386.6666666666667,297.8436572338901L400,297.03497720892136L413.33333333333337,296.5098841355724L426.6666666666667,298.38849494676464L440.00000000000006,297.48628762702134L453.3333333333333,300.56486064385734L466.6666666666667,297.58188935664214L480,296.1068052355336L493.33333333333337,298.5106821746591L506.66666666666663,296.7056909325868L520,295.4113987558678L533.3333333333333,297.85005019630233L546.6666666666666,296.7562820016518L560,296.16968316586167L573.3333333333334,297.3780466658208L586.6666666666666,299.8384977618035L600,299.6561015348533L613.3333333333334,297.93959371719L626.6666666666666,297.8244807466393L640,294.72678887964025L653.3333333333334,298.33709162740075L666.6666666666667,298.09968857070277L680,298.1509720724056L693.3333333333334,297.3207888218688L706.6666666666666,297.314428810021L720,294.3614170670505L733.3333333333333,297.56276187293L746.6666666666666,295.6114010447657L760,296.9842492724575L773.3333333333334,293.88646819253887L786.6666666666666,298.80711487461184L800,297.0730395684713" stroke="#228C22" stroke-width="9.350000000000001" opacity="0.05"/></g></g><path class="foreground" aria-hidden="true" d="" display="none"/></g><g transform="translate(0,0)"><path class="background" aria-hidden="true" d="M0,0h800v400h-800Z"/><g><g class="mark-line role-mark layer_1_layer_6_marks" role="graphics-symbol" aria-roledescription="line mark container"><path d="M13.333333333333334,13.96796157070388L26.666666666666668,75.78490385019303L40,96.32885671288074L53.333333333333336,145.93075024027527L66.66666666666666,175.16191767116914L80,212.16420544985118L93.33333333333333,226.69220491641266L106.66666666666667,243.03282547758266L120,247.67381936737712L133.33333333333331,254.31821090654677L146.66666666666666,260.68388610129574L160,269.01441113696546L173.33333333333334,277.45288286390684L186.66666666666666,282.9421911522136L200,285.29790137677765L213.33333333333334,287.87761788372234L226.66666666666666,287.1634738541944L240,287.09404310648256L253.33333333333331,289.1664237126084L266.66666666666663,288.8957099599384L280,291.63930225249317L293.3333333333333,293.04664377326316L306.6666666666667,298.15738432587796L320,297.0476630985513L333.33333333333337,296.0628133173203L346.6666666666667,295.51135204712233L360,293.9665050994907L373.3333333333333,299.34419124196216L386.6666666666667,295.5926345549143L400,297.06669486447817L413.33333333333337,295.51760230272555L426.6666666666667,297.8372646715256L440.00000000000006,293.7204302851413L453.3333333333333,294.13909781111397L466.6666666666667,299.33770338809234L480,298.0548366692632L493.33333333333337,297.74781076142364L506.66666666666663,297.2635628892841L520,297.0032693207583L533.3333333333333,296.86387042122533L546.6666666666666,297.958791837487L560,298.6523461604783L573.3333333333334,300.2632035233306L586.6666666666666,297.0730395684713L600,295.69902264335667L613.3333333333334,298.50424760069L626.6666666666666,296.2640715222404L640,298.71035671533497L653.3333333333334,297.3017099679347L666.6666666666667,295.0311999706968L680,296.9842492724575L693.3333333333334,297.26991975202634L706.6666666666666,296.3711489231391L720,297.1936633414902L733.3333333333333,295.98116340130053L746.6666666666666,297.9459926893448L760,295.96860756365464L773.3333333333334,299.0073754966154L786.6666666666666,293.7757474173873L800,293.493317254795" stroke="#5f249f" stroke-width="9.350000000000001" opacity="0.05"/></g></g><path class="foreground" aria-hidden="true" d="" display="none"/></g></g><g class="mark-group role-scope layer_1_layer_7_pathgroup" role="graphics-object" aria-roledescription="group mark container"><g transform="translate(0,0)"><path class="background" aria-hidden="true" d="M0,0h800v400h-800Z"/><g><g class="mark-line role-mark layer_1_layer_7_marks" role="graphics-symbol" aria-roledescription="line mark container"><path d="M13.333333333333334,13.976420303587345L26.666666666666668,74.94402365884416L40,95.75734711133173L53.333333333333336,143.4317531218595L66.66666666666666,175.83679414956865L80,212.63415683835677L93.33333333333333,229.8485668468184L106.66666666666667,232.54510202104314L120,248.9697962360522L133.33333333333331,255.82776739933166L146.66666666666666,259.6470920304456L160,271.49589063983603L173.33333333333334,280.16337652232266L186.66666666666666,283.31658040594084L200,283.3669630588209L213.33333333333334,290.76892122006404L226.66666666666666,289.4200815367142L240,291.2722929253344L253.33333333333331,292.28609321779425L266.66666666666663,294.0034655938108L280,293.3401362713591L293.3333333333333,294.2501990159638L306.6666666666667,296.8195557208991L320,295.3676992160311L333.33333333333337,295.47385836206195L346.6666666666667,295.71154602424554L360,297.56913730396946L373.3333333333333,295.67398039152965L386.6666666666667,297.8436572338901L400,297.03497720892136L413.33333333333337,296.5098841355724L426.6666666666667,298.38849494676464L440.00000000000006,297.48628762702134L453.3333333333333,300.56486064385734L466.6666666666667,297.58188935664214L480,296.1068052355336L493.33333333333337,298.5106821746591L506.66666666666663,296.7056909325868L520,295.4113987558678L533.3333333333333,297.85005019630233L546.6666666666666,296.7562820016518L560,296.16968316586167L573.3333333333334,297.3780466658208L586.6666666666666,299.8384977618035L600,299.6561015348533L613.3333333333334,297.93959371719L626.6666666666666,297.8244807466393L640,294.72678887964025L653.3333333333334,298.33709162740075L666.6666666666667,298.09968857070277L680,298.1509720724056L693.3333333333334,297.3207888218688L706.6666666666666,297.314428810021L720,294.3614170670505L733.3333333333333,297.56276187293L746.6666666666666,295.6114010447657L760,296.9842492724575L773.3333333333334,293.88646819253887L786.6666666666666,298.80711487461184L800,297.0730395684713" stroke="#228C22" stroke-width="10.4" opacity="0.05"/></g></g><path class="foreground" aria-hidden="true" d="" display="none"/></g><g transform="translate(0,0)"><path class="background" aria-hidden="true" d="M0,0h800v400h-800Z"/><g><g class="mark-line role-mark layer_1_layer_7_marks" role="graphics-symbol" aria-roledescription="line mark container"><path d="M13.333333333333334,13.96796157070388L26.666666666666668,75.78490385019303L40,96.32885671288074L53.333333333333336,145.93075024027527L66.66666666666666,175.16191767116914L80,212.16420544985118L93.33333333333333,226.69220491641266L106.66666666666667,243.03282547758266L120,247.67381936737712L133.33333333333331,254.31821090654677L146.66666666666666,260.68388610129574L160,269.01441113696546L173.33333333333334,277.45288286390684L186.66666666666666,282.9421911522136L200,285.29790137677765L213.33333333333334,287.87761788372234L226.66666666666666,287.1634738541944L240,287.09404310648256L253.33333333333331,289.1664237126084L266.66666666666663,288.8957099599384L280,291.63930225249317L293.3333333333333,293.04664377326316L306.6666666666667,298.15738432587796L320,297.0476630985513L333.33333333333337,296.0628133173203L346.6666666666667,295.51135204712233L360,293.9665050994907L373.3333333333333,299.34419124196216L386.6666666666667,295.5926345549143L400,297.06669486447817L413.33333333333337,295.51760230272555L426.6666666666667,297.8372646715256L440.00000000000006,293.7204302851413L453.3333333333333,294.13909781111397L466.6666666666667,299.33770338809234L480,298.0548366692632L493.33333333333337,297.74781076142364L506.66666666666663,297.2635628892841L520,297.0032693207583L533.3333333333333,296.86387042122533L546.6666666666666,297.958791837487L560,298.6523461604783L573.3333333333334,300.2632035233306L586.6666666666666,297.0730395684713L600,295.69902264335667L613.3333333333334,298.50424760069L626.6666666666666,296.2640715222404L640,298.71035671533497L653.3333333333334,297.3017099679347L666.6666666666667,295.0311999706968L680,296.9842492724575L693.3333333333334,297.26991975202634L706.6666666666666,296.3711489231391L720,297.1936633414902L733.3333333333333,295.98116340130053L746.6666666666666,297.9459926893448L760,295.96860756365464L773.3333333333334,299.0073754966154L786.6666666666666,293.7757474173873L800,293.493317254795" stroke="#5f249f" stroke-width="10.4" opacity="0.05"/></g></g><path class="foreground" aria-hidden="true" d="" display="none"/></g></g><g class="mark-group role-scope layer_1_layer_8_pathgroup" role="graphics-object" aria-roledescription="group mark container"><g transform="translate(0,0)"><path class="background" aria-hidden="true" d="M0,0h800v400h-800Z"/><g><g class="mark-line role-mark layer_1_layer_8_marks" role="graphics-symbol" aria-roledescription="line mark container"><path d="M13.333333333333334,13.976420303587345L26.666666666666668,74.94402365884416L40,95.75734711133173L53.333333333333336,143.4317531218595L66.66666666666666,175.83679414956865L80,212.63415683835677L93.33333333333333,229.8485668468184L106.66666666666667,232.54510202104314L120,248.9697962360522L133.33333333333331,255.82776739933166L146.66666666666666,259.6470920304456L160,271.49589063983603L173.33333333333334,280.16337652232266L186.66666666666666,283.31658040594084L200,283.3669630588209L213.33333333333334,290.76892122006404L226.66666666666666,289.4200815367142L240,291.2722929253344L253.33333333333331,292.28609321779425L266.66666666666663,294.0034655938108L280,293.3401362713591L293.3333333333333,294.2501990159638L306.6666666666667,296.8195557208991L320,295.3676992160311L333.33333333333337,295.47385836206195L346.6666666666667,295.71154602424554L360,297.56913730396946L373.3333333333333,295.67398039152965L386.6666666666667,297.8436572338901L400,297.03497720892136L413.33333333333337,296.5098841355724L426.6666666666667,298.38849494676464L440.00000000000006,297.48628762702134L453.3333333333333,300.56486064385734L466.6666666666667,297.58188935664214L480,296.1068052355336L493.33333333333337,298.5106821746591L506.66666666666663,296.7056909325868L520,295.4113987558678L533.3333333333333,297.85005019630233L546.6666666666666,296.7562820016518L560,296.16968316586167L573.3333333333334,297.3780466658208L586.6666666666666,299.8384977618035L600,299.6561015348533L613.3333333333334,297.93959371719L626.6666666666666,297.8244807466393L640,294.72678887964025L653.3333333333334,298.33709162740075L666.6666666666667,298.09968857070277L680,298.1509720724056L693.3333333333334,297.3207888218688L706.6666666666666,297.314428810021L720,294.3614170670505L733.3333333333333,297.56276187293L746.6666666666666,295.6114010447657L760,296.9842492724575L773.3333333333334,293.88646819253887L786.6666666666666,298.80711487461184L800,297.0730395684713" stroke="#228C22" stroke-width="11.450000000000001" opacity="0.05"/></g></g><path class="foreground" aria-hidden="true" d="" display="none"/></g><g transform="translate(0,0)"><path class="background" aria-hidden="true" d="M0,0h800v400h-800Z"/><g><g class="mark-line role-mark layer_1_layer_8_marks" role="graphics-symbol" aria-roledescription="line mark container"><path d="M13.333333333333334,13.96796157070388L26.666666666666668,75.78490385019303L40,96.32885671288074L53.333333333333336,145.93075024027527L66.66666666666666,175.16191767116914L80,212.16420544985118L93.33333333333333,226.69220491641266L106.66666666666667,243.03282547758266L120,247.67381936737712L133.33333333333331,254.31821090654677L146.66666666666666,260.68388610129574L160,269.01441113696546L173.33333333333334,277.45288286390684L186.66666666666666,282.9421911522136L200,285.29790137677765L213.33333333333334,287.87761788372234L226.66666666666666,287.1634738541944L240,287.09404310648256L253.33333333333331,289.1664237126084L266.66666666666663,288.8957099599384L280,291.63930225249317L293.3333333333333,293.04664377326316L306.6666666666667,298.15738432587796L320,297.0476630985513L333.33333333333337,296.0628133173203L346.6666666666667,295.51135204712233L360,293.9665050994907L373.3333333333333,299.34419124196216L386.6666666666667,295.5926345549143L400,297.06669486447817L413.33333333333337,295.51760230272555L426.6666666666667,297.8372646715256L440.00000000000006,293.7204302851413L453.3333333333333,294.13909781111397L466.6666666666667,299.33770338809234L480,298.0548366692632L493.33333333333337,297.74781076142364L506.66666666666663,297.2635628892841L520,297.0032693207583L533.3333333333333,296.86387042122533L546.6666666666666,297.958791837487L560,298.6523461604783L573.3333333333334,300.2632035233306L586.6666666666666,297.0730395684713L600,295.69902264335667L613.3333333333334,298.50424760069L626.6666666666666,296.2640715222404L640,298.71035671533497L653.3333333333334,297.3017099679347L666.6666666666667,295.0311999706968L680,296.9842492724575L693.3333333333334,297.26991975202634L706.6666666666666,296.3711489231391L720,297.1936633414902L733.3333333333333,295.98116340130053L746.6666666666666,297.9459926893448L760,295.96860756365464L773.3333333333334,299.0073754966154L786.6666666666666,293.7757474173873L800,293.493317254795" stroke="#5f249f" stroke-width="11.450000000000001" opacity="0.05"/></g></g><path class="foreground" aria-hidden="true" d="" display="none"/></g></g><g class="mark-group role-scope layer_1_layer_9_pathgroup" role="graphics-object" aria-roledescription="group mark container"><g transform="translate(0,0)"><path class="background" aria-hidden="true" d="M0,0h800v400h-800Z"/><g><g class="mark-line role-mark layer_1_layer_9_marks" role="graphics-symbol" aria-roledescription="line mark container"><path d="M13.333333333333334,13.976420303587345L26.666666666666668,74.94402365884416L40,95.75734711133173L53.333333333333336,143.4317531218595L66.66666666666666,175.83679414956865L80,212.63415683835677L93.33333333333333,229.8485668468184L106.66666666666667,232.54510202104314L120,248.9697962360522L133.33333333333331,255.82776739933166L146.66666666666666,259.6470920304456L160,271.49589063983603L173.33333333333334,280.16337652232266L186.66666666666666,283.31658040594084L200,283.3669630588209L213.33333333333334,290.76892122006404L226.66666666666666,289.4200815367142L240,291.2722929253344L253.33333333333331,292.28609321779425L266.66666666666663,294.0034655938108L280,293.3401362713591L293.3333333333333,294.2501990159638L306.6666666666667,296.8195557208991L320,295.3676992160311L333.33333333333337,295.47385836206195L346.6666666666667,295.71154602424554L360,297.56913730396946L373.3333333333333,295.67398039152965L386.6666666666667,297.8436572338901L400,297.03497720892136L413.33333333333337,296.5098841355724L426.6666666666667,298.38849494676464L440.00000000000006,297.48628762702134L453.3333333333333,300.56486064385734L466.6666666666667,297.58188935664214L480,296.1068052355336L493.33333333333337,298.5106821746591L506.66666666666663,296.7056909325868L520,295.4113987558678L533.3333333333333,297.85005019630233L546.6666666666666,296.7562820016518L560,296.16968316586167L573.3333333333334,297.3780466658208L586.6666666666666,299.8384977618035L600,299.6561015348533L613.3333333333334,297.93959371719L626.6666666666666,297.8244807466393L640,294.72678887964025L653.3333333333334,298.33709162740075L666.6666666666667,298.09968857070277L680,298.1509720724056L693.3333333333334,297.3207888218688L706.6666666666666,297.314428810021L720,294.3614170670505L733.3333333333333,297.56276187293L746.6666666666666,295.6114010447657L760,296.9842492724575L773.3333333333334,293.88646819253887L786.6666666666666,298.80711487461184L800,297.0730395684713" stroke="#228C22" stroke-width="12.5" opacity="0.05"/></g></g><path class="foreground" aria-hidden="true" d="" display="none"/></g><g transform="translate(0,0)"><path class="background" aria-hidden="true" d="M0,0h800v400h-800Z"/><g><g class="mark-line role-mark layer_1_layer_9_marks" role="graphics-symbol" aria-roledescription="line mark container"><path d="M13.333333333333334,13.96796157070388L26.666666666666668,75.78490385019303L40,96.32885671288074L53.333333333333336,145.93075024027527L66.66666666666666,175.16191767116914L80,212.16420544985118L93.33333333333333,226.69220491641266L106.66666666666667,243.03282547758266L120,247.67381936737712L133.33333333333331,254.31821090654677L146.66666666666666,260.68388610129574L160,269.01441113696546L173.33333333333334,277.45288286390684L186.66666666666666,282.9421911522136L200,285.29790137677765L213.33333333333334,287.87761788372234L226.66666666666666,287.1634738541944L240,287.09404310648256L253.33333333333331,289.1664237126084L266.66666666666663,288.8957099599384L280,291.63930225249317L293.3333333333333,293.04664377326316L306.6666666666667,298.15738432587796L320,297.0476630985513L333.33333333333337,296.0628133173203L346.6666666666667,295.51135204712233L360,293.9665050994907L373.3333333333333,299.34419124196216L386.6666666666667,295.5926345549143L400,297.06669486447817L413.33333333333337,295.51760230272555L426.6666666666667,297.8372646715256L440.00000000000006,293.7204302851413L453.3333333333333,294.13909781111397L466.6666666666667,299.33770338809234L480,298.0548366692632L493.33333333333337,297.74781076142364L506.66666666666663,297.2635628892841L520,297.0032693207583L533.3333333333333,296.86387042122533L546.6666666666666,297.958791837487L560,298.6523461604783L573.3333333333334,300.2632035233306L586.6666666666666,297.0730395684713L600,295.69902264335667L613.3333333333334,298.50424760069L626.6666666666666,296.2640715222404L640,298.71035671533497L653.3333333333334,297.3017099679347L666.6666666666667,295.0311999706968L680,296.9842492724575L693.3333333333334,297.26991975202634L706.6666666666666,296.3711489231391L720,297.1936633414902L733.3333333333333,295.98116340130053L746.6666666666666,297.9459926893448L760,295.96860756365464L773.3333333333334,299.0073754966154L786.6666666666666,293.7757474173873L800,293.493317254795" stroke="#5f249f" stroke-width="12.5" opacity="0.05"/></g></g><path class="foreground" aria-hidden="true" d="" display="none"/></g></g><g class="mark-group role-legend" role="graphics-symbol" aria-roledescription="legend" aria-label="Symbol legend titled 'PCAs' for fill color and stroke color with 2 values: from scratch, scikit-learn"><g transform="translate(831,0)"><path class="background" aria-hidden="true" d="M0,0h72v45h-72Z" pointer-events="none"/><g><g class="mark-group role-legend-entry"><g transform="translate(0,16)"><path class="background" aria-hidden="true" d="M0,0h0v0h0Z" pointer-events="none"/><g><g class="mark-group role-scope" role="graphics-object" aria-roledescription="group mark container"><g transform="translate(0,0)"><path class="background" aria-hidden="true" d="M0,0h71.009765625v12.5h-71.009765625Z" pointer-events="none" opacity="1"/><g><g class="mark-symbol role-legend-symbol" pointer-events="none"><path transform="translate(6,6)" d="M5,0A5,5,0,1,1,-5,0A5,5,0,1,1,5,0" fill="#228C22" fill-opacity="0.4" stroke="#228C22" stroke-width="1.5" opacity="0.7"/></g><g class="mark-text role-legend-label" pointer-events="none"><text text-anchor="start" transform="translate(16,9)" font-family="sans-serif" font-size="10px" fill="#444444" opacity="1">from scratch</text></g></g><path class="foreground" aria-hidden="true" d="" pointer-events="none" display="none"/></g><g transform="translate(0,16)"><path class="background" aria-hidden="true" d="M0,0h71.009765625v12.5h-71.009765625Z" pointer-events="none" opacity="1"/><g><g class="mark-symbol role-legend-symbol" pointer-events="none"><path transform="translate(6,6)" d="M5,0A5,5,0,1,1,-5,0A5,5,0,1,1,5,0" fill="#5f249f" fill-opacity="0.4" stroke="#5f249f" stroke-width="1.5" opacity="0.7"/></g><g class="mark-text role-legend-label" pointer-events="none"><text text-anchor="start" transform="translate(16,9)" font-family="sans-serif" font-size="10px" fill="#444444" opacity="1">scikit-learn</text></g></g><path class="foreground" aria-hidden="true" d="" pointer-events="none" display="none"/></g></g></g><path class="foreground" aria-hidden="true" d="" pointer-events="none" display="none"/></g></g><g class="mark-text role-legend-title" pointer-events="none"><text text-anchor="start" transform="translate(0,9)" font-family="sans-serif" font-size="11px" font-weight="bold" fill="#444444" opacity="1">PCAs</text></g></g><path class="foreground" aria-hidden="true" d="" pointer-events="none" display="none"/></g></g></g><path class="foreground" aria-hidden="true" d="" display="none"/></g></g></g></svg>