<svg xmlns="http://www.w3.org/2000/svg" xmlns:xlink="http://www.w3.org/1999/xlink" version="1.1" class="marks" width="952" height="447" viewBox="0 0 952 447"><rect width="952" height="447" fill="#efefef"/><g fill="none" stroke-miterlimit="10" transform="translate(44,10)"><g class="mark-group role-frame root" role="graphics-object" aria-roledescription="group mark container"><g transform="translate(0,0)"><path class="background" aria-hidden="true" d="M0.5,0.5h800v400h-800Z" stroke="#ddd"/><g><g class="mark-group role-axis" role="graphics-symbol" aria-roledescription="axis" aria-label="X-axis for a linear scale with values from 0 to 60"><g transform="translate(0.5,400.5)"><path class="background" aria-hidden="true" d="M0,0h0v0h0Z" pointer-events="none"/><g><g class="mark-rule role-axis-grid" pointer-events="none"><line transform="translate(0,-400)" x2="0" y2="400" stroke="#ffffff" stroke-width="1" opacity="1"/><line transform="translate(27,-400)" x2="0" y2="400" stroke="#ffffff" stroke-width="1" opacity="1"/><line transform="translate(53,-400)" x2="0" y2="400" stroke="#ffffff" stroke-width="1" opacity="1"/><line transform="translate(80,-400)" x2="0" y2="400" stroke="#ffffff" stroke-width="1" opacity="1"/><line transform="translate(107,-400)" x2="0" y2="400" stroke="#ffffff" stroke-width="1" opacity="1"/><line transform="translate(133,-400)" x2="0" y2="400" stroke="#ffffff" stroke-width="1" opacity="1"/><line transform="translate(160,-400)" x2="0" y2="400" stroke="#ffffff" stroke-width="1" opacity="1"/><line transform="translate(187,-400)" x2="0" y2="400" stroke="#ffffff" stroke-width="1" opacity="1"/><line transform="translate(213,-400)" x2="0" y2="400" stroke="#ffffff" stroke-width="1" opacity="1"/><line transform="translate(240,-400)" x2="0" y2="400" stroke="#ffffff" stroke-width="1" opacity="1"/><line transform="translate(267,-400)" x2="0" y2="400" stroke="#ffffff" stroke-width="1" opacity="1"/><line transform="translate(293,-400)" x2="0" y2="400" stroke="#ffffff" stroke-width="1" opacity="1"/><line transform="translate(320,-400)" x2="0" y2="400" stroke="#ffffff" stroke-width="1" opacity="1"/><line transform="translate(347,-400)" x2="0" y2="400" stroke="#ffffff" stroke-width="1" opacity="1"/><line transform="translate(373,-400)" x2="0" y2="400" stroke="#ffffff" stroke-width="1" opacity="1"/><line transform="translate(400,-400)" x2="0" y2="400" stroke="#ffffff" stroke-width="1" opacity="1"/><line transform="translate(427,-400)" x2="0" y2="400" stroke="#ffffff" stroke-width="1" opacity="1"/><line transform="translate(453,-400)" x2="0" y2="400" stroke="#ffffff" stroke-width="1" opacity="1"/><line transform="translate(480,-400)" x2="0" y2="400" stroke="#ffffff" stroke-width="1" opacity="1"/><line transform="translate(507,-400)" x2="0" y2="400" stroke="#ffffff" stroke-width="1" opacity="1"/><line transform="translate(533,-400)" x2="0" y2="400" stroke="#ffffff" stroke-width="1" opacity="1"/><line transform="translate(560,-400)" x2="0" y2="400" stroke="#ffffff" stroke-width="1" opacity="1"/><line transform="translate(587,-400)" x2="0" y2="400" stroke="#ffffff" stroke-width="1" opacity="1"/><line transform="translate(613,-400)" x2="0" y2="400" stroke="#ffffff" stroke-width="1" opacity="1"/><line transform="translate(640,-400)" x2="0" y2="400" stroke="#ffffff" stroke-width="1" opacity="1"/><line transform="translate(667,-400)" x2="0" y2="400" stroke="#ffffff" stroke-width="1" opacity="1"/><line transform="translate(693,-400)" x2="0" y2="400" stroke="#ffffff" stroke-width="1" opacity="1"/><line transform="translate(720,-400)" x2="0" y2="400" stroke="#ffffff" stroke-width="1" opacity="1"/><line transform="translate(747,-400)" x2="0" y2="400" stroke="#ffffff" stroke-width="1" opacity="1"/><line transform="translate(773,-400)" x2="0" y2="400" stroke="#ffffff" stroke-width="1" opacity="1"/><line transform="translate(800,-400)" x2="0" y2="400" stroke="#ffffff" stroke-width="1" opacity="1"/></g></g><path class="foreground" aria-hidden="true" d="" pointer-events="none" display="none"/></g></g><g class="mark-group role-axis" role="graphics-symbol" aria-roledescription="axis" aria-label="Y-axis for a linear scale with values from 0 to 100"><g transform="translate(0.5,0.5)"><path class="background" aria-hidden="true" d="M0,0h0v0h0Z" pointer-events="none"/><g><g class="mark-rule role-axis-grid" pointer-events="none"><line transform="translate(0,400)" x2="800" y2="0" stroke="#ffffff" stroke-width="1" opacity="1"/><line transform="translate(0,360)" x2="800" y2="0" stroke="#ffffff" stroke-width="1" opacity="1"/><line transform="translate(0,320)" x2="800" y2="0" stroke="#ffffff" stroke-width="1" opacity="1"/><line transform="translate(0,280)" x2="800" y2="0" stroke="#ffffff" stroke-width="1" opacity="1"/><line transform="translate(0,240)" x2="800" y2="0" stroke="#ffffff" stroke-width="1" opacity="1"/><line transform="translate(0,200)" x2="800" y2="0" stroke="#ffffff" stroke-width="1" opacity="1"/><line transform="translate(0,160)" x2="800" y2="0" stroke="#ffffff" stroke-width="1" opacity="1"/><line transform="translate(0,120)" x2="800" y2="0" stroke="#ffffff" stroke-width="1" opacity="1"/><line transform="translate(0,80)" x2="800" y2="0" stroke="#ffffff" stroke-width="1" opacity="1"/><line transform="translate(0,40)" x2="800" y2="0" stroke="#ffffff" stroke-width="1" opacity="1"/><line transform="translate(0,0)" x2="800" y2="0" stroke="#ffffff" stroke-width="1" opacity="1"/></g></g><path class="foreground" aria-hidden="true" d="" pointer-events="none" display="none"/></g></g><g class="mark-group role-axis" role="graphics-symbol" aria-roledescription="axis" aria-label="X-axis titled 'Number of Components' for a linear scale with values from 0 to 60"><g transform="translate(0.5,400.5)"><path class="background" aria-hidden="true" d="M0,0h0v0h0Z" pointer-events="none"/><g><g class="mark-rule role-axis-tick" pointer-events="none"><line transform="translate(0,0)" x2="0" y2="5" stroke-width="1" opacity="1"/><line transform="translate(27,0)" x2="0" y2="5" stroke-width="1" opacity="1"/><line transform="translate(53,0)" x2="0" y2="5" stroke-width="1" opacity="1"/><line transform="translate(80,0)" x2="0" y2="5" stroke-width="1" opacity="1"/><line transform="translate(107,0)" x2="0" y2="5" stroke-width="1" opacity="1"/><line transform="translate(133,0)" x2="0" y2="5" stroke-width="1" opacity="1"/><line transform="translate(160,0)" x2="0" y2="5" stroke-width="1" opacity="1"/><line transform="translate(187,0)" x2="0" y2="5" stroke-width="1" opacity="1"/><line transform="translate(213,0)" x2="0" y2="5" stroke-width="1" opacity="1"/><line transform="translate(240,0)" x2="0" y2="5" stroke-width="1" opacity="1"/><line transform="translate(267,0)" x2="0" y2="5" stroke-width="1" opacity="1"/><line transform="translate(293,0)" x2="0" y2="5" stroke-width="1" opacity="1"/><line transform="translate(320,0)" x2="0" y2="5" stroke-width="1" opacity="1"/><line transform="translate(347,0)" x2="0" y2="5" stroke-width="1" opacity="1"/><line transform="translate(373,0)" x2="0" y2="5" stroke-width="1" opacity="1"/><line transform="translate(400,0)" x2="0" y2="5" stroke-width="1" opacity="1"/><line transform="translate(427,0)" x2="0" y2="5" stroke-width="1" opacity="1"/><line transform="translate(453,0)" x2="0" y2="5" stroke-width="1" opacity="1"/><line transform="translate(480,0)" x2="0" y2="5" stroke-width="1" opacity="1"/><line transform="translate(507,0)" x2="0" y2="5" stroke-width="1" opacity="1"/><line transform="translate(533,0)" x2="0" y2="5" stroke-width="1" opacity="1"/><line transform="translate(560,0)" x2="0" y2="5" stroke-width="1" opacity="1"/><line transform="translate(587,0)" x2="0" y2="5" stroke-width="1" opacity="1"/><line transform="translate(613,0)" x2="0" y2="5" stroke-width="1" opacity="1"/><line transform="translate(640,0)" x2="0" y2="5" stroke-width="1" opacity="1"/><line transform="translate(667,0)" x2="0" y2="5" stroke-width="1" opacity="1"/><line transform="translate(693,0)" x2="0" y2="5" stroke-width="1" opacity="1"/><line transform="translate(720,0)" x2="0" y2="5" stroke-width="1" opacity="1"/><line transform="translate(747,0)" x2="0" y2="5" stroke-width="1" opacity="1"/><line transform="translate(773,0)" x2="0" y2="5" stroke-width="1" opacity="1"/><line transform="translate(800,0)" x2="0" y2="5" stroke-width="1" opacity="1"/></g><g class="mark-text role-axis-label" pointer-events="none"><text text-anchor="start" transform="translate(0,15)" font-family="sans-serif" font-size="10px" fill="#444444" opacity="1">0</text><text text-anchor="middle" transform="translate(26.666666666666668,15)" font-family="sans-serif" font-size="10px" fill="#444444" opacity="1">2</text><text text-anchor="middle" transform="translate(53.333333333333336,15)" font-family="sans-serif" font-size="10px" fill="#444444" opacity="1">4</text><text text-anchor="middle" transform="translate(80,15)" font-family="sans-serif" font-size="10px" fill="#444444" opacity="1">6</text><text text-anchor="middle" transform="translate(106.66666666666667,15)" font-family="sans-serif" font-size="10px" fill="#444444" opacity="1">8</text><text text-anchor="middle" transform="translate(133.33333333333331,15)" font-family="sans-serif" font-size="10px" fill="#444444" opacity="1">10</text><text text-anchor="middle" transform="translate(160,15)" font-family="sans-serif" font-size="10px" fill="#444444" opacity="1">12</text><text text-anchor="middle" transform="translate(186.66666666666666,15)" font-family="sans-serif" font-size="10px" fill="#444444" opacity="1">14</text><text text-anchor="middle" transform="translate(213.33333333333334,15)" font-family="sans-serif" font-size="10px" fill="#444444" opacity="1">16</text><text text-anchor="middle" transform="translate(240,15)" font-family="sans-serif" font-size="10px" fill="#444444" opacity="1">18</text><text text-anchor="middle" transform="translate(266.66666666666663,15)" font-family="sans-serif" font-size="10px" fill="#444444" opacity="1">20</text><text text-anchor="middle" transform="translate(293.3333333333333,15)" font-family="sans-serif" font-size="10px" fill="#444444" opacity="1">22</text><text text-anchor="middle" transform="translate(320,15)" font-family="sans-serif" font-size="10px" fill="#444444" opacity="1">24</text><text text-anchor="middle" transform="translate(346.6666666666667,15)" font-family="sans-serif" font-size="10px" fill="#444444" opacity="1">26</text><text text-anchor="middle" transform="translate(373.3333333333333,15)" font-family="sans-serif" font-size="10px" fill="#444444" opacity="1">28</text><text text-anchor="middle" transform="translate(400,15)" font-family="sans-serif" font-size="10px" fill="#444444" opacity="1">30</text><text text-anchor="middle" transform="translate(426.6666666666667,15)" font-family="sans-serif" font-size="10px" fill="#444444" opacity="1">32</text><text text-anchor="middle" transform="translate(453.3333333333333,15)" font-family="sans-serif" font-size="10px" fill="#444444" opacity="1">34</text><text text-anchor="middle" transform="translate(480,15)" font-family="sans-serif" font-size="10px" fill="#444444" opacity="1">36</text><text text-anchor="middle" transform="translate(506.66666666666663,15)" font-family="sans-serif" font-size="10px" fill="#444444" opacity="1">38</text><text text-anchor="middle" transform="translate(533.3333333333333,15)" font-family="sans-serif" font-size="10px" fill="#444444" opacity="1">40</text><text text-anchor="middle" transform="translate(560,15)" font-family="sans-serif" font-size="10px" fill="#444444" opacity="1">42</text><text text-anchor="middle" transform="translate(586.6666666666666,15)" font-family="sans-serif" font-size="10px" fill="#444444" opacity="1">44</text><text text-anchor="middle" transform="translate(613.3333333333334,15)" font-family="sans-serif" font-size="10px" fill="#444444" opacity="1">46</text><text text-anchor="middle" transform="translate(640,15)" font-family="sans-serif" font-size="10px" fill="#444444" opacity="1">48</text><text text-anchor="middle" transform="translate(666.6666666666667,15)" font-family="sans-serif" font-size="10px" fill="#444444" opacity="1">50</text><text text-anchor="middle" transform="translate(693.3333333333334,15)" font-family="sans-serif" font-size="10px" fill="#444444" opacity="1">52</text><text text-anchor="middle" transform="translate(720,15)" font-family="sans-serif" font-size="10px" fill="#444444" opacity="1">54</text><text text-anchor="middle" transform="translate(746.6666666666666,15)" font-family="sans-serif" font-size="10px" fill="#444444" opacity="1">56</text><text text-anchor="middle" transform="translate(773.3333333333334,15)" font-family="sans-serif" font-size="10px" fill="#444444" opacity="1">58</text><text text-anchor="end" transform="translate(800,15)" font-family="sans-serif" font-size="10px" fill="#444444" opacity="1">60</text></g><g class="mark-rule role-axis-domain" pointer-events="none"><line transform="translate(0,0)" x2="800" y2="0" stroke-width="1" opacity="1"/></g><g class="mark-text role-axis-title" pointer-events="none"><text text-anchor="middle" transform="translate(400,30)" font-family="sans-serif" font-size="11px" font-weight="bold" fill="#444444" opacity="1">Number of Components</text></g></g><path class="foreground" aria-hidden="true" d="" pointer-events="none" display="none"/></g></g><g class="mark-group role-axis" role="graphics-symbol" aria-roledescription="axis" aria-label="Y-axis titled 'Time in seconds' for a linear scale with values from 0 to 100"><g transform="translate(0.5,0.5)"><path class="background" aria-hidden="true" d="M0,0h0v0h0Z" pointer-events="none"/><g><g class="mark-rule role-axis-tick" pointer-events="none"><line transform="translate(0,400)" x2="-5" y2="0" stroke-width="1" opacity="1"/><line transform="translate(0,360)" x2="-5" y2="0" stroke-width="1" opacity="1"/><line transform="translate(0,320)" x2="-5" y2="0" stroke-width="1" opacity="1"/><line transform="translate(0,280)" x2="-5" y2="0" stroke-width="1" opacity="1"/><line transform="translate(0,240)" x2="-5" y2="0" stroke-width="1" opacity="1"/><line transform="translate(0,200)" x2="-5" y2="0" stroke-width="1" opacity="1"/><line transform="translate(0,160)" x2="-5" y2="0" stroke-width="1" opacity="1"/><line transform="translate(0,120)" x2="-5" y2="0" stroke-width="1" opacity="1"/><line transform="translate(0,80)" x2="-5" y2="0" stroke-width="1" opacity="1"/><line transform="translate(0,40)" x2="-5" y2="0" stroke-width="1" opacity="1"/><line transform="translate(0,0)" x2="-5" y2="0" stroke-width="1" opacity="1"/></g><g class="mark-text role-axis-label" pointer-events="none"><text text-anchor="end" transform="translate(-7,403)" font-family="sans-serif" font-size="10px" fill="#444444" opacity="1">0</text><text text-anchor="end" transform="translate(-7,363)" font-family="sans-serif" font-size="10px" fill="#444444" opacity="1">10</text><text text-anchor="end" transform="translate(-7,323)" font-family="sans-serif" font-size="10px" fill="#444444" opacity="1">20</text><text text-anchor="end" transform="translate(-7,283)" font-family="sans-serif" font-size="10px" fill="#444444" opacity="1">30</text><text text-anchor="end" transform="translate(-7,243)" font-family="sans-serif" font-size="10px" fill="#444444" opacity="1">40</text><text text-anchor="end" transform="translate(-7,203)" font-family="sans-serif" font-size="10px" fill="#444444" opacity="1">50</text><text text-anchor="end" transform="translate(-7,163)" font-family="sans-serif" font-size="10px" fill="#444444" opacity="1">60</text><text text-anchor="end" transform="translate(-7,123.00000000000001)" font-family="sans-serif" font-size="10px" fill="#444444" opacity="1">70</text><text text-anchor="end" transform="translate(-7,82.99999999999999)" font-family="sans-serif" font-size="10px" fill="#444444" opacity="1">80</text><text text-anchor="end" transform="translate(-7,42.99999999999999)" font-family="sans-serif" font-size="10px" fill="#444444" opacity="1">90</text><text text-anchor="end" transform="translate(-7,3)" font-family="sans-serif" font-size="10px" fill="#444444" opacity="1">100</text></g><g class="mark-rule role-axis-domain" pointer-events="none"><line transform="translate(0,400)" x2="0" y2="-400" stroke-width="1" opacity="1"/></g><g class="mark-text role-axis-title" pointer-events="none"><text text-anchor="middle" transform="translate(-27.6845703125,200) rotate(-90) translate(0,-2)" font-family="sans-serif" font-size="11px" font-weight="bold" fill="#444444" opacity="1">Time in seconds</text></g></g><path class="foreground" aria-hidden="true" d="" pointer-events="none" display="none"/></g></g><g class="mark-group role-scope layer_0_layer_0_pathgroup" role="graphics-object" aria-roledescription="group mark container"><g transform="translate(0,0)"><path class="background" aria-hidden="true" d="M0,0h800v400h-800Z"/><g><g class="mark-area role-mark layer_0_layer_0_marks" role="graphics-symbol" aria-roledescription="area mark container"><path d="M13.333333333333334,349.5229654312134L26.666666666666668,347.9899015426636L40,356.3689594268799L53.333333333333336,330.28671073913574L66.66666666666666,325.5108995437622L80,339.8140993118286L93.33333333333333,329.6502265930176L106.66666666666667,330.5086679458618L120,310.42545223236084L133.33333333333331,327.0943727493286L146.66666666666666,311.30962467193604L160,296.9747085571289L173.33333333333334,297.7179250717163L186.66666666666666,314.36156368255615L200,303.8168363571167L213.33333333333334,264.74365997314453L226.66666666666666,266.8303461074829L240,290.2941036224365L253.33333333333331,287.58912086486816L266.66666666666663,263.57523822784424L280,267.5187511444092L293.3333333333333,288.3177385330201L306.6666666666667,270.2445316314697L320,262.04713726043695L333.33333333333337,255.7031679153442L346.6666666666667,260.64122581481934L360,237.1816005706787L373.3333333333333,223.9109058380127L386.6666666666667,225.80303668975833L400,229.73658084869385L413.33333333333337,246.4004468917847L426.6666666666667,228.32651233673093L440.00000000000006,221.9617748260498L453.3333333333333,242.39919567108154L466.6666666666667,252.6605405807495L480,202.29872131347656L493.33333333333337,199.69435214996335L506.66666666666663,189.75951290130615L520,258.17786026000977L533.3333333333333,255.94435691833496L546.6666666666666,244.60030651092532L560,249.48622894287107L573.3333333333334,229.33844661712646L586.6666666666666,211.4269618988037L600,196.18600845336914L613.3333333333334,47.32435131072998L626.6666666666666,178.23551559448242L640,259.6631746292114L653.3333333333334,213.66844749450684L666.6666666666667,225.05102252960202L680,218.49241924285892L693.3333333333334,232.12947845458984L706.6666666666666,226.3933563232422L720,228.80514430999756L733.3333333333333,226.70869064331055L746.6666666666666,224.68653297424316L760,226.84146022796634L773.3333333333334,226.94047355651855L786.6666666666666,228.70901203155518L800,224.66578388214114L800,400L786.6666666666666,400L773.3333333333334,400L760,400L746.6666666666666,400L733.3333333333333,400L720,400L706.6666666666666,400L693.3333333333334,400L680,400L666.6666666666667,400L653.3333333333334,400L640,400L626.6666666666666,400L613.3333333333334,400L600,400L586.6666666666666,400L573.3333333333334,400L560,400L546.6666666666666,400L533.3333333333333,400L520,400L506.66666666666663,400L493.33333333333337,400L480,400L466.6666666666667,400L453.3333333333333,400L440.00000000000006,400L426.6666666666667,400L413.33333333333337,400L400,400L386.6666666666667,400L373.3333333333333,400L360,400L346.6666666666667,400L333.33333333333337,400L320,400L306.6666666666667,400L293.3333333333333,400L280,400L266.66666666666663,400L253.33333333333331,400L240,400L226.66666666666666,400L213.33333333333334,400L200,400L186.66666666666666,400L173.33333333333334,400L160,400L146.66666666666666,400L133.33333333333331,400L120,400L106.66666666666667,400L93.33333333333333,400L80,400L66.66666666666666,400L53.333333333333336,400L40,400L26.666666666666668,400L13.333333333333334,400Z" fill="#228C22" fill-opacity="0.4" opacity="0.7"/></g></g><path class="foreground" aria-hidden="true" d="" display="none"/></g><g transform="translate(0,0)"><path class="background" aria-hidden="true" d="M0,0h800v400h-800Z"/><g><g class="mark-area role-mark layer_0_layer_0_marks" role="graphics-symbol" aria-roledescription="area mark container"><path d="M13.333333333333334,338.57418060302734L26.666666666666668,362.8438081741333L40,354.1122989654541L53.333333333333336,335.18803310394287L66.66666666666666,325.56758880615234L80,326.8710880279541L93.33333333333333,337.12282848358154L106.66666666666667,330.9135751724243L120,299.7272844314575L133.33333333333331,298.4239673614502L146.66666666666666,306.61820125579834L160,322.63487911224365L173.33333333333334,303.9193859100342L186.66666666666666,298.95069313049316L200,312.6348829269409L213.33333333333334,283.54691791534424L226.66666666666666,262.5869474411011L240,264.5024003982544L253.33333333333331,271.9140672683716L266.66666666666663,287.6435031890869L280,266.801025390625L293.3333333333333,264.00374317169184L306.6666666666667,295.56398582458496L320,267.96437072753906L333.33333333333337,228.2395486831665L346.6666666666667,229.26438808441162L360,234.20427799224854L373.3333333333333,251.44110107421875L386.6666666666667,240.77208137512204L400,223.27707958221436L413.33333333333337,227.3547887802124L426.6666666666667,254.23308849334717L440.00000000000006,230.55418491363525L453.3333333333333,223.62380027770996L466.6666666666667,225.07033634185794L480,203.83339881896973L493.33333333333337,208.69866085052493L506.66666666666663,240.19985580444336L520,254.01696395874023L533.3333333333333,246.03616714477542L546.6666666666666,243.16737556457522L560,249.16011142730713L573.3333333333334,235.80220317840576L586.6666666666666,231.058180809021L600,77.63128566741942L613.3333333333334,19.72244071960447L626.6666666666666,252.01837253570557L640,245.8623170852661L653.3333333333334,210.43448448181152L666.6666666666667,215.4635353088379L680,226.0241222381592L693.3333333333334,218.37777805328366L706.6666666666666,219.42641639709475L720,223.57720375061035L733.3333333333333,217.9207010269165L746.6666666666666,210.6345329284668L760,222.73672771453857L773.3333333333334,223.05910110473636L786.6666666666666,226.91089439392087L800,215.4758815765381L800,400L786.6666666666666,400L773.3333333333334,400L760,400L746.6666666666666,400L733.3333333333333,400L720,400L706.6666666666666,400L693.3333333333334,400L680,400L666.6666666666667,400L653.3333333333334,400L640,400L626.6666666666666,400L613.3333333333334,400L600,400L586.6666666666666,400L573.3333333333334,400L560,400L546.6666666666666,400L533.3333333333333,400L520,400L506.66666666666663,400L493.33333333333337,400L480,400L466.6666666666667,400L453.3333333333333,400L440.00000000000006,400L426.6666666666667,400L413.33333333333337,400L400,400L386.6666666666667,400L373.3333333333333,400L360,400L346.6666666666667,400L333.33333333333337,400L320,400L306.6666666666667,400L293.3333333333333,400L280,400L266.66666666666663,400L253.33333333333331,400L240,400L226.66666666666666,400L213.33333333333334,400L200,400L186.66666666666666,400L173.33333333333334,400L160,400L146.66666666666666,400L133.33333333333331,400L120,400L106.66666666666667,400L93.33333333333333,400L80,400L66.66666666666666,400L53.333333333333336,400L40,400L26.666666666666668,400L13.333333333333334,400Z" fill="#5f249f" fill-opacity="0.4" opacity="0.7"/></g></g><path class="foreground" aria-hidden="true" d="" display="none"/></g></g><g class="mark-group role-scope layer_0_layer_1_pathgroup" role="graphics-object" aria-roledescription="group mark container"><g transform="translate(0,0)"><path class="background" aria-hidden="true" d="M0,0h800v400h-800Z"/><g><g class="mark-line role-mark layer_0_layer_1_marks" role="graphics-symbol" aria-roledescription="line mark container"><path d="M13.333333333333334,349.5229654312134L26.666666666666668,347.9899015426636L40,356.3689594268799L53.333333333333336,330.28671073913574L66.66666666666666,325.5108995437622L80,339.8140993118286L93.33333333333333,329.6502265930176L106.66666666666667,330.5086679458618L120,310.42545223236084L133.33333333333331,327.0943727493286L146.66666666666666,311.30962467193604L160,296.9747085571289L173.33333333333334,297.7179250717163L186.66666666666666,314.36156368255615L200,303.8168363571167L213.33333333333334,264.74365997314453L226.66666666666666,266.8303461074829L240,290.2941036224365L253.33333333333331,287.58912086486816L266.66666666666663,263.57523822784424L280,267.5187511444092L293.3333333333333,288.3177385330201L306.6666666666667,270.2445316314697L320,262.04713726043695L333.33333333333337,255.7031679153442L346.6666666666667,260.64122581481934L360,237.1816005706787L373.3333333333333,223.9109058380127L386.6666666666667,225.80303668975833L400,229.73658084869385L413.33333333333337,246.4004468917847L426.6666666666667,228.32651233673093L440.00000000000006,221.9617748260498L453.3333333333333,242.39919567108154L466.6666666666667,252.6605405807495L480,202.29872131347656L493.33333333333337,199.69435214996335L506.66666666666663,189.75951290130615L520,258.17786026000977L533.3333333333333,255.94435691833496L546.6666666666666,244.60030651092532L560,249.48622894287107L573.3333333333334,229.33844661712646L586.6666666666666,211.4269618988037L600,196.18600845336914L613.3333333333334,47.32435131072998L626.6666666666666,178.23551559448242L640,259.6631746292114L653.3333333333334,213.66844749450684L666.6666666666667,225.05102252960202L680,218.49241924285892L693.3333333333334,232.12947845458984L706.6666666666666,226.3933563232422L720,228.80514430999756L733.3333333333333,226.70869064331055L746.6666666666666,224.68653297424316L760,226.84146022796634L773.3333333333334,226.94047355651855L786.6666666666666,228.70901203155518L800,224.66578388214114" stroke="#228C22" stroke-width="2"/></g></g><path class="foreground" aria-hidden="true" d="" display="none"/></g><g transform="translate(0,0)"><path class="background" aria-hidden="true" d="M0,0h800v400h-800Z"/><g><g class="mark-line role-mark layer_0_layer_1_marks" role="graphics-symbol" aria-roledescription="line mark container"><path d="M13.333333333333334,338.57418060302734L26.666666666666668,362.8438081741333L40,354.1122989654541L53.333333333333336,335.18803310394287L66.66666666666666,325.56758880615234L80,326.8710880279541L93.33333333333333,337.12282848358154L106.66666666666667,330.9135751724243L120,299.7272844314575L133.33333333333331,298.4239673614502L146.66666666666666,306.61820125579834L160,322.63487911224365L173.33333333333334,303.9193859100342L186.66666666666666,298.95069313049316L200,312.6348829269409L213.33333333333334,283.54691791534424L226.66666666666666,262.5869474411011L240,264.5024003982544L253.33333333333331,271.9140672683716L266.66666666666663,287.6435031890869L280,266.801025390625L293.3333333333333,264.00374317169184L306.6666666666667,295.56398582458496L320,267.96437072753906L333.33333333333337,228.2395486831665L346.6666666666667,229.26438808441162L360,234.20427799224854L373.3333333333333,251.44110107421875L386.6666666666667,240.77208137512204L400,223.27707958221436L413.33333333333337,227.3547887802124L426.6666666666667,254.23308849334717L440.00000000000006,230.55418491363525L453.3333333333333,223.62380027770996L466.6666666666667,225.07033634185794L480,203.83339881896973L493.33333333333337,208.69866085052493L506.66666666666663,240.19985580444336L520,254.01696395874023L533.3333333333333,246.03616714477542L546.6666666666666,243.16737556457522L560,249.16011142730713L573.3333333333334,235.80220317840576L586.6666666666666,231.058180809021L600,77.63128566741942L613.3333333333334,19.72244071960447L626.6666666666666,252.01837253570557L640,245.8623170852661L653.3333333333334,210.43448448181152L666.6666666666667,215.4635353088379L680,226.0241222381592L693.3333333333334,218.37777805328366L706.6666666666666,219.42641639709475L720,223.57720375061035L733.3333333333333,217.9207010269165L746.6666666666666,210.6345329284668L760,222.73672771453857L773.3333333333334,223.05910110473636L786.6666666666666,226.91089439392087L800,215.4758815765381" stroke="#5f249f" stroke-width="2"/></g></g><path class="foreground" aria-hidden="true" d="" display="none"/></g></g><g class="mark-group role-scope layer_1_layer_0_pathgroup" role="graphics-object" aria-roledescription="group mark container"><g transform="translate(0,0)"><path class="background" aria-hidden="true" d="M0,0h800v400h-800Z"/><g><g class="mark-line role-mark layer_1_layer_0_marks" role="graphics-symbol" aria-roledescription="line mark container"><path d="M13.333333333333334,349.5229654312134L26.666666666666668,347.9899015426636L40,356.3689594268799L53.333333333333336,330.28671073913574L66.66666666666666,325.5108995437622L80,339.8140993118286L93.33333333333333,329.6502265930176L106.66666666666667,330.5086679458618L120,310.42545223236084L133.33333333333331,327.0943727493286L146.66666666666666,311.30962467193604L160,296.9747085571289L173.33333333333334,297.7179250717163L186.66666666666666,314.36156368255615L200,303.8168363571167L213.33333333333334,264.74365997314453L226.66666666666666,266.8303461074829L240,290.2941036224365L253.33333333333331,287.58912086486816L266.66666666666663,263.57523822784424L280,267.5187511444092L293.3333333333333,288.3177385330201L306.6666666666667,270.2445316314697L320,262.04713726043695L333.33333333333337,255.7031679153442L346.6666666666667,260.64122581481934L360,237.1816005706787L373.3333333333333,223.9109058380127L386.6666666666667,225.80303668975833L400,229.73658084869385L413.33333333333337,246.4004468917847L426.6666666666667,228.32651233673093L440.00000000000006,221.9617748260498L453.3333333333333,242.39919567108154L466.6666666666667,252.6605405807495L480,202.29872131347656L493.33333333333337,199.69435214996335L506.66666666666663,189.75951290130615L520,258.17786026000977L533.3333333333333,255.94435691833496L546.6666666666666,244.60030651092532L560,249.48622894287107L573.3333333333334,229.33844661712646L586.6666666666666,211.4269618988037L600,196.18600845336914L613.3333333333334,47.32435131072998L626.6666666666666,178.23551559448242L640,259.6631746292114L653.3333333333334,213.66844749450684L666.6666666666667,225.05102252960202L680,218.49241924285892L693.3333333333334,232.12947845458984L706.6666666666666,226.3933563232422L720,228.80514430999756L733.3333333333333,226.70869064331055L746.6666666666666,224.68653297424316L760,226.84146022796634L773.3333333333334,226.94047355651855L786.6666666666666,228.70901203155518L800,224.66578388214114" stroke="#228C22" stroke-width="3.05" opacity="0.05"/></g></g><path class="foreground" aria-hidden="true" d="" display="none"/></g><g transform="translate(0,0)"><path class="background" aria-hidden="true" d="M0,0h800v400h-800Z"/><g><g class="mark-line role-mark layer_1_layer_0_marks" role="graphics-symbol" aria-roledescription="line mark container"><path d="M13.333333333333334,338.57418060302734L26.666666666666668,362.8438081741333L40,354.1122989654541L53.333333333333336,335.18803310394287L66.66666666666666,325.56758880615234L80,326.8710880279541L93.33333333333333,337.12282848358154L106.66666666666667,330.9135751724243L120,299.7272844314575L133.33333333333331,298.4239673614502L146.66666666666666,306.61820125579834L160,322.63487911224365L173.33333333333334,303.9193859100342L186.66666666666666,298.95069313049316L200,312.6348829269409L213.33333333333334,283.54691791534424L226.66666666666666,262.5869474411011L240,264.5024003982544L253.33333333333331,271.9140672683716L266.66666666666663,287.6435031890869L280,266.801025390625L293.3333333333333,264.00374317169184L306.6666666666667,295.56398582458496L320,267.96437072753906L333.33333333333337,228.2395486831665L346.6666666666667,229.26438808441162L360,234.20427799224854L373.3333333333333,251.44110107421875L386.6666666666667,240.77208137512204L400,223.27707958221436L413.33333333333337,227.3547887802124L426.6666666666667,254.23308849334717L440.00000000000006,230.55418491363525L453.3333333333333,223.62380027770996L466.6666666666667,225.07033634185794L480,203.83339881896973L493.33333333333337,208.69866085052493L506.66666666666663,240.19985580444336L520,254.01696395874023L533.3333333333333,246.03616714477542L546.6666666666666,243.16737556457522L560,249.16011142730713L573.3333333333334,235.80220317840576L586.6666666666666,231.058180809021L600,77.63128566741942L613.3333333333334,19.72244071960447L626.6666666666666,252.01837253570557L640,245.8623170852661L653.3333333333334,210.43448448181152L666.6666666666667,215.4635353088379L680,226.0241222381592L693.3333333333334,218.37777805328366L706.6666666666666,219.42641639709475L720,223.57720375061035L733.3333333333333,217.9207010269165L746.6666666666666,210.6345329284668L760,222.73672771453857L773.3333333333334,223.05910110473636L786.6666666666666,226.91089439392087L800,215.4758815765381" stroke="#5f249f" stroke-width="3.05" opacity="0.05"/></g></g><path class="foreground" aria-hidden="true" d="" display="none"/></g></g><g class="mark-group role-scope layer_1_layer_1_pathgroup" role="graphics-object" aria-roledescription="group mark container"><g transform="translate(0,0)"><path class="background" aria-hidden="true" d="M0,0h800v400h-800Z"/><g><g class="mark-line role-mark layer_1_layer_1_marks" role="graphics-symbol" aria-roledescription="line mark container"><path d="M13.333333333333334,349.5229654312134L26.666666666666668,347.9899015426636L40,356.3689594268799L53.333333333333336,330.28671073913574L66.66666666666666,325.5108995437622L80,339.8140993118286L93.33333333333333,329.6502265930176L106.66666666666667,330.5086679458618L120,310.42545223236084L133.33333333333331,327.0943727493286L146.66666666666666,311.30962467193604L160,296.9747085571289L173.33333333333334,297.7179250717163L186.66666666666666,314.36156368255615L200,303.8168363571167L213.33333333333334,264.74365997314453L226.66666666666666,266.8303461074829L240,290.2941036224365L253.33333333333331,287.58912086486816L266.66666666666663,263.57523822784424L280,267.5187511444092L293.3333333333333,288.3177385330201L306.6666666666667,270.2445316314697L320,262.04713726043695L333.33333333333337,255.7031679153442L346.6666666666667,260.64122581481934L360,237.1816005706787L373.3333333333333,223.9109058380127L386.6666666666667,225.80303668975833L400,229.73658084869385L413.33333333333337,246.4004468917847L426.6666666666667,228.32651233673093L440.00000000000006,221.9617748260498L453.3333333333333,242.39919567108154L466.6666666666667,252.6605405807495L480,202.29872131347656L493.33333333333337,199.69435214996335L506.66666666666663,189.75951290130615L520,258.17786026000977L533.3333333333333,255.94435691833496L546.6666666666666,244.60030651092532L560,249.48622894287107L573.3333333333334,229.33844661712646L586.6666666666666,211.4269618988037L600,196.18600845336914L613.3333333333334,47.32435131072998L626.6666666666666,178.23551559448242L640,259.6631746292114L653.3333333333334,213.66844749450684L666.6666666666667,225.05102252960202L680,218.49241924285892L693.3333333333334,232.12947845458984L706.6666666666666,226.3933563232422L720,228.80514430999756L733.3333333333333,226.70869064331055L746.6666666666666,224.68653297424316L760,226.84146022796634L773.3333333333334,226.94047355651855L786.6666666666666,228.70901203155518L800,224.66578388214114" stroke="#228C22" stroke-width="4.1" opacity="0.05"/></g></g><path class="foreground" aria-hidden="true" d="" display="none"/></g><g transform="translate(0,0)"><path class="background" aria-hidden="true" d="M0,0h800v400h-800Z"/><g><g class="mark-line role-mark layer_1_layer_1_marks" role="graphics-symbol" aria-roledescription="line mark container"><path d="M13.333333333333334,338.57418060302734L26.666666666666668,362.8438081741333L40,354.1122989654541L53.333333333333336,335.18803310394287L66.66666666666666,325.56758880615234L80,326.8710880279541L93.33333333333333,337.12282848358154L106.66666666666667,330.9135751724243L120,299.7272844314575L133.33333333333331,298.4239673614502L146.66666666666666,306.61820125579834L160,322.63487911224365L173.33333333333334,303.9193859100342L186.66666666666666,298.95069313049316L200,312.6348829269409L213.33333333333334,283.54691791534424L226.66666666666666,262.5869474411011L240,264.5024003982544L253.33333333333331,271.9140672683716L266.66666666666663,287.6435031890869L280,266.801025390625L293.3333333333333,264.00374317169184L306.6666666666667,295.56398582458496L320,267.96437072753906L333.33333333333337,228.2395486831665L346.6666666666667,229.26438808441162L360,234.20427799224854L373.3333333333333,251.44110107421875L386.6666666666667,240.77208137512204L400,223.27707958221436L413.33333333333337,227.3547887802124L426.6666666666667,254.23308849334717L440.00000000000006,230.55418491363525L453.3333333333333,223.62380027770996L466.6666666666667,225.07033634185794L480,203.83339881896973L493.33333333333337,208.69866085052493L506.66666666666663,240.19985580444336L520,254.01696395874023L533.3333333333333,246.03616714477542L546.6666666666666,243.16737556457522L560,249.16011142730713L573.3333333333334,235.80220317840576L586.6666666666666,231.058180809021L600,77.63128566741942L613.3333333333334,19.72244071960447L626.6666666666666,252.01837253570557L640,245.8623170852661L653.3333333333334,210.43448448181152L666.6666666666667,215.4635353088379L680,226.0241222381592L693.3333333333334,218.37777805328366L706.6666666666666,219.42641639709475L720,223.57720375061035L733.3333333333333,217.9207010269165L746.6666666666666,210.6345329284668L760,222.73672771453857L773.3333333333334,223.05910110473636L786.6666666666666,226.91089439392087L800,215.4758815765381" stroke="#5f249f" stroke-width="4.1" opacity="0.05"/></g></g><path class="foreground" aria-hidden="true" d="" display="none"/></g></g><g class="mark-group role-scope layer_1_layer_2_pathgroup" role="graphics-object" aria-roledescription="group mark container"><g transform="translate(0,0)"><path class="background" aria-hidden="true" d="M0,0h800v400h-800Z"/><g><g class="mark-line role-mark layer_1_layer_2_marks" role="graphics-symbol" aria-roledescription="line mark container"><path d="M13.333333333333334,349.5229654312134L26.666666666666668,347.9899015426636L40,356.3689594268799L53.333333333333336,330.28671073913574L66.66666666666666,325.5108995437622L80,339.8140993118286L93.33333333333333,329.6502265930176L106.66666666666667,330.5086679458618L120,310.42545223236084L133.33333333333331,327.0943727493286L146.66666666666666,311.30962467193604L160,296.9747085571289L173.33333333333334,297.7179250717163L186.66666666666666,314.36156368255615L200,303.8168363571167L213.33333333333334,264.74365997314453L226.66666666666666,266.8303461074829L240,290.2941036224365L253.33333333333331,287.58912086486816L266.66666666666663,263.57523822784424L280,267.5187511444092L293.3333333333333,288.3177385330201L306.6666666666667,270.2445316314697L320,262.04713726043695L333.33333333333337,255.7031679153442L346.6666666666667,260.64122581481934L360,237.1816005706787L373.3333333333333,223.9109058380127L386.6666666666667,225.80303668975833L400,229.73658084869385L413.33333333333337,246.4004468917847L426.6666666666667,228.32651233673093L440.00000000000006,221.9617748260498L453.3333333333333,242.39919567108154L466.6666666666667,252.6605405807495L480,202.29872131347656L493.33333333333337,199.69435214996335L506.66666666666663,189.75951290130615L520,258.17786026000977L533.3333333333333,255.94435691833496L546.6666666666666,244.60030651092532L560,249.48622894287107L573.3333333333334,229.33844661712646L586.6666666666666,211.4269618988037L600,196.18600845336914L613.3333333333334,47.32435131072998L626.6666666666666,178.23551559448242L640,259.6631746292114L653.3333333333334,213.66844749450684L666.6666666666667,225.05102252960202L680,218.49241924285892L693.3333333333334,232.12947845458984L706.6666666666666,226.3933563232422L720,228.80514430999756L733.3333333333333,226.70869064331055L746.6666666666666,224.68653297424316L760,226.84146022796634L773.3333333333334,226.94047355651855L786.6666666666666,228.70901203155518L800,224.66578388214114" stroke="#228C22" stroke-width="5.15" opacity="0.05"/></g></g><path class="foreground" aria-hidden="true" d="" display="none"/></g><g transform="translate(0,0)"><path class="background" aria-hidden="true" d="M0,0h800v400h-800Z"/><g><g class="mark-line role-mark layer_1_layer_2_marks" role="graphics-symbol" aria-roledescription="line mark container"><path d="M13.333333333333334,338.57418060302734L26.666666666666668,362.8438081741333L40,354.1122989654541L53.333333333333336,335.18803310394287L66.66666666666666,325.56758880615234L80,326.8710880279541L93.33333333333333,337.12282848358154L106.66666666666667,330.9135751724243L120,299.7272844314575L133.33333333333331,298.4239673614502L146.66666666666666,306.61820125579834L160,322.63487911224365L173.33333333333334,303.9193859100342L186.66666666666666,298.95069313049316L200,312.6348829269409L213.33333333333334,283.54691791534424L226.66666666666666,262.5869474411011L240,264.5024003982544L253.33333333333331,271.9140672683716L266.66666666666663,287.6435031890869L280,266.801025390625L293.3333333333333,264.00374317169184L306.6666666666667,295.56398582458496L320,267.96437072753906L333.33333333333337,228.2395486831665L346.6666666666667,229.26438808441162L360,234.20427799224854L373.3333333333333,251.44110107421875L386.6666666666667,240.77208137512204L400,223.27707958221436L413.33333333333337,227.3547887802124L426.6666666666667,254.23308849334717L440.00000000000006,230.55418491363525L453.3333333333333,223.62380027770996L466.6666666666667,225.07033634185794L480,203.83339881896973L493.33333333333337,208.69866085052493L506.66666666666663,240.19985580444336L520,254.01696395874023L533.3333333333333,246.03616714477542L546.6666666666666,243.16737556457522L560,249.16011142730713L573.3333333333334,235.80220317840576L586.6666666666666,231.058180809021L600,77.63128566741942L613.3333333333334,19.72244071960447L626.6666666666666,252.01837253570557L640,245.8623170852661L653.3333333333334,210.43448448181152L666.6666666666667,215.4635353088379L680,226.0241222381592L693.3333333333334,218.37777805328366L706.6666666666666,219.42641639709475L720,223.57720375061035L733.3333333333333,217.9207010269165L746.6666666666666,210.6345329284668L760,222.73672771453857L773.3333333333334,223.05910110473636L786.6666666666666,226.91089439392087L800,215.4758815765381" stroke="#5f249f" stroke-width="5.15" opacity="0.05"/></g></g><path class="foreground" aria-hidden="true" d="" display="none"/></g></g><g class="mark-group role-scope layer_1_layer_3_pathgroup" role="graphics-object" aria-roledescription="group mark container"><g transform="translate(0,0)"><path class="background" aria-hidden="true" d="M0,0h800v400h-800Z"/><g><g class="mark-line role-mark layer_1_layer_3_marks" role="graphics-symbol" aria-roledescription="line mark container"><path d="M13.333333333333334,349.5229654312134L26.666666666666668,347.9899015426636L40,356.3689594268799L53.333333333333336,330.28671073913574L66.66666666666666,325.5108995437622L80,339.8140993118286L93.33333333333333,329.6502265930176L106.66666666666667,330.5086679458618L120,310.42545223236084L133.33333333333331,327.0943727493286L146.66666666666666,311.30962467193604L160,296.9747085571289L173.33333333333334,297.7179250717163L186.66666666666666,314.36156368255615L200,303.8168363571167L213.33333333333334,264.74365997314453L226.66666666666666,266.8303461074829L240,290.2941036224365L253.33333333333331,287.58912086486816L266.66666666666663,263.57523822784424L280,267.5187511444092L293.3333333333333,288.3177385330201L306.6666666666667,270.2445316314697L320,262.04713726043695L333.33333333333337,255.7031679153442L346.6666666666667,260.64122581481934L360,237.1816005706787L373.3333333333333,223.9109058380127L386.6666666666667,225.80303668975833L400,229.73658084869385L413.33333333333337,246.4004468917847L426.6666666666667,228.32651233673093L440.00000000000006,221.9617748260498L453.3333333333333,242.39919567108154L466.6666666666667,252.6605405807495L480,202.29872131347656L493.33333333333337,199.69435214996335L506.66666666666663,189.75951290130615L520,258.17786026000977L533.3333333333333,255.94435691833496L546.6666666666666,244.60030651092532L560,249.48622894287107L573.3333333333334,229.33844661712646L586.6666666666666,211.4269618988037L600,196.18600845336914L613.3333333333334,47.32435131072998L626.6666666666666,178.23551559448242L640,259.6631746292114L653.3333333333334,213.66844749450684L666.6666666666667,225.05102252960202L680,218.49241924285892L693.3333333333334,232.12947845458984L706.6666666666666,226.3933563232422L720,228.80514430999756L733.3333333333333,226.70869064331055L746.6666666666666,224.68653297424316L760,226.84146022796634L773.3333333333334,226.94047355651855L786.6666666666666,228.70901203155518L800,224.66578388214114" stroke="#228C22" stroke-width="6.2" opacity="0.05"/></g></g><path class="foreground" aria-hidden="true" d="" display="none"/></g><g transform="translate(0,0)"><path class="background" aria-hidden="true" d="M0,0h800v400h-800Z"/><g><g class="mark-line role-mark layer_1_layer_3_marks" role="graphics-symbol" aria-roledescription="line mark container"><path d="M13.333333333333334,338.57418060302734L26.666666666666668,362.8438081741333L40,354.1122989654541L53.333333333333336,335.18803310394287L66.66666666666666,325.56758880615234L80,326.8710880279541L93.33333333333333,337.12282848358154L106.66666666666667,330.9135751724243L120,299.7272844314575L133.33333333333331,298.4239673614502L146.66666666666666,306.61820125579834L160,322.63487911224365L173.33333333333334,303.9193859100342L186.66666666666666,298.95069313049316L200,312.6348829269409L213.33333333333334,283.54691791534424L226.66666666666666,262.5869474411011L240,264.5024003982544L253.33333333333331,271.9140672683716L266.66666666666663,287.6435031890869L280,266.801025390625L293.3333333333333,264.00374317169184L306.6666666666667,295.56398582458496L320,267.96437072753906L333.33333333333337,228.2395486831665L346.6666666666667,229.26438808441162L360,234.20427799224854L373.3333333333333,251.44110107421875L386.6666666666667,240.77208137512204L400,223.27707958221436L413.33333333333337,227.3547887802124L426.6666666666667,254.23308849334717L440.00000000000006,230.55418491363525L453.3333333333333,223.62380027770996L466.6666666666667,225.07033634185794L480,203.83339881896973L493.33333333333337,208.69866085052493L506.66666666666663,240.19985580444336L520,254.01696395874023L533.3333333333333,246.03616714477542L546.6666666666666,243.16737556457522L560,249.16011142730713L573.3333333333334,235.80220317840576L586.6666666666666,231.058180809021L600,77.63128566741942L613.3333333333334,19.72244071960447L626.6666666666666,252.01837253570557L640,245.8623170852661L653.3333333333334,210.43448448181152L666.6666666666667,215.4635353088379L680,226.0241222381592L693.3333333333334,218.37777805328366L706.6666666666666,219.42641639709475L720,223.57720375061035L733.3333333333333,217.9207010269165L746.6666666666666,210.6345329284668L760,222.73672771453857L773.3333333333334,223.05910110473636L786.6666666666666,226.91089439392087L800,215.4758815765381" stroke="#5f249f" stroke-width="6.2" opacity="0.05"/></g></g><path class="foreground" aria-hidden="true" d="" display="none"/></g></g><g class="mark-group role-scope layer_1_layer_4_pathgroup" role="graphics-object" aria-roledescription="group mark container"><g transform="translate(0,0)"><path class="background" aria-hidden="true" d="M0,0h800v400h-800Z"/><g><g class="mark-line role-mark layer_1_layer_4_marks" role="graphics-symbol" aria-roledescription="line mark container"><path d="M13.333333333333334,349.5229654312134L26.666666666666668,347.9899015426636L40,356.3689594268799L53.333333333333336,330.28671073913574L66.66666666666666,325.5108995437622L80,339.8140993118286L93.33333333333333,329.6502265930176L106.66666666666667,330.5086679458618L120,310.42545223236084L133.33333333333331,327.0943727493286L146.66666666666666,311.30962467193604L160,296.9747085571289L173.33333333333334,297.7179250717163L186.66666666666666,314.36156368255615L200,303.8168363571167L213.33333333333334,264.74365997314453L226.66666666666666,266.8303461074829L240,290.2941036224365L253.33333333333331,287.58912086486816L266.66666666666663,263.57523822784424L280,267.5187511444092L293.3333333333333,288.3177385330201L306.6666666666667,270.2445316314697L320,262.04713726043695L333.33333333333337,255.7031679153442L346.6666666666667,260.64122581481934L360,237.1816005706787L373.3333333333333,223.9109058380127L386.6666666666667,225.80303668975833L400,229.73658084869385L413.33333333333337,246.4004468917847L426.6666666666667,228.32651233673093L440.00000000000006,221.9617748260498L453.3333333333333,242.39919567108154L466.6666666666667,252.6605405807495L480,202.29872131347656L493.33333333333337,199.69435214996335L506.66666666666663,189.75951290130615L520,258.17786026000977L533.3333333333333,255.94435691833496L546.6666666666666,244.60030651092532L560,249.48622894287107L573.3333333333334,229.33844661712646L586.6666666666666,211.4269618988037L600,196.18600845336914L613.3333333333334,47.32435131072998L626.6666666666666,178.23551559448242L640,259.6631746292114L653.3333333333334,213.66844749450684L666.6666666666667,225.05102252960202L680,218.49241924285892L693.3333333333334,232.12947845458984L706.6666666666666,226.3933563232422L720,228.80514430999756L733.3333333333333,226.70869064331055L746.6666666666666,224.68653297424316L760,226.84146022796634L773.3333333333334,226.94047355651855L786.6666666666666,228.70901203155518L800,224.66578388214114" stroke="#228C22" stroke-width="7.25" opacity="0.05"/></g></g><path class="foreground" aria-hidden="true" d="" display="none"/></g><g transform="translate(0,0)"><path class="background" aria-hidden="true" d="M0,0h800v400h-800Z"/><g><g class="mark-line role-mark layer_1_layer_4_marks" role="graphics-symbol" aria-roledescription="line mark container"><path d="M13.333333333333334,338.57418060302734L26.666666666666668,362.8438081741333L40,354.1122989654541L53.333333333333336,335.18803310394287L66.66666666666666,325.56758880615234L80,326.8710880279541L93.33333333333333,337.12282848358154L106.66666666666667,330.9135751724243L120,299.7272844314575L133.33333333333331,298.4239673614502L146.66666666666666,306.61820125579834L160,322.63487911224365L173.33333333333334,303.9193859100342L186.66666666666666,298.95069313049316L200,312.6348829269409L213.33333333333334,283.54691791534424L226.66666666666666,262.5869474411011L240,264.5024003982544L253.33333333333331,271.9140672683716L266.66666666666663,287.6435031890869L280,266.801025390625L293.3333333333333,264.00374317169184L306.6666666666667,295.56398582458496L320,267.96437072753906L333.33333333333337,228.2395486831665L346.6666666666667,229.26438808441162L360,234.20427799224854L373.3333333333333,251.44110107421875L386.6666666666667,240.77208137512204L400,223.27707958221436L413.33333333333337,227.3547887802124L426.6666666666667,254.23308849334717L440.00000000000006,230.55418491363525L453.3333333333333,223.62380027770996L466.6666666666667,225.07033634185794L480,203.83339881896973L493.33333333333337,208.69866085052493L506.66666666666663,240.19985580444336L520,254.01696395874023L533.3333333333333,246.03616714477542L546.6666666666666,243.16737556457522L560,249.16011142730713L573.3333333333334,235.80220317840576L586.6666666666666,231.058180809021L600,77.63128566741942L613.3333333333334,19.72244071960447L626.6666666666666,252.01837253570557L640,245.8623170852661L653.3333333333334,210.43448448181152L666.6666666666667,215.4635353088379L680,226.0241222381592L693.3333333333334,218.37777805328366L706.6666666666666,219.42641639709475L720,223.57720375061035L733.3333333333333,217.9207010269165L746.6666666666666,210.6345329284668L760,222.73672771453857L773.3333333333334,223.05910110473636L786.6666666666666,226.91089439392087L800,215.4758815765381" stroke="#5f249f" stroke-width="7.25" opacity="0.05"/></g></g><path class="foreground" aria-hidden="true" d="" display="none"/></g></g><g class="mark-group role-scope layer_1_layer_5_pathgroup" role="graphics-object" aria-roledescription="group mark container"><g transform="translate(0,0)"><path class="background" aria-hidden="true" d="M0,0h800v400h-800Z"/><g><g class="mark-line role-mark layer_1_layer_5_marks" role="graphics-symbol" aria-roledescription="line mark container"><path d="M13.333333333333334,349.5229654312134L26.666666666666668,347.9899015426636L40,356.3689594268799L53.333333333333336,330.28671073913574L66.66666666666666,325.5108995437622L80,339.8140993118286L93.33333333333333,329.6502265930176L106.66666666666667,330.5086679458618L120,310.42545223236084L133.33333333333331,327.0943727493286L146.66666666666666,311.30962467193604L160,296.9747085571289L173.33333333333334,297.7179250717163L186.66666666666666,314.36156368255615L200,303.8168363571167L213.33333333333334,264.74365997314453L226.66666666666666,266.8303461074829L240,290.2941036224365L253.33333333333331,287.58912086486816L266.66666666666663,263.57523822784424L280,267.5187511444092L293.3333333333333,288.3177385330201L306.6666666666667,270.2445316314697L320,262.04713726043695L333.33333333333337,255.7031679153442L346.6666666666667,260.64122581481934L360,237.1816005706787L373.3333333333333,223.9109058380127L386.6666666666667,225.80303668975833L400,229.73658084869385L413.33333333333337,246.4004468917847L426.6666666666667,228.32651233673093L440.00000000000006,221.9617748260498L453.3333333333333,242.39919567108154L466.6666666666667,252.6605405807495L480,202.29872131347656L493.33333333333337,199.69435214996335L506.66666666666663,189.75951290130615L520,258.17786026000977L533.3333333333333,255.94435691833496L546.6666666666666,244.60030651092532L560,249.48622894287107L573.3333333333334,229.33844661712646L586.6666666666666,211.4269618988037L600,196.18600845336914L613.3333333333334,47.32435131072998L626.6666666666666,178.23551559448242L640,259.6631746292114L653.3333333333334,213.66844749450684L666.6666666666667,225.05102252960202L680,218.49241924285892L693.3333333333334,232.12947845458984L706.6666666666666,226.3933563232422L720,228.80514430999756L733.3333333333333,226.70869064331055L746.6666666666666,224.68653297424316L760,226.84146022796634L773.3333333333334,226.94047355651855L786.6666666666666,228.70901203155518L800,224.66578388214114" stroke="#228C22" stroke-width="8.3" opacity="0.05"/></g></g><path class="foreground" aria-hidden="true" d="" display="none"/></g><g transform="translate(0,0)"><path class="background" aria-hidden="true" d="M0,0h800v400h-800Z"/><g><g class="mark-line role-mark layer_1_layer_5_marks" role="graphics-symbol" aria-roledescription="line mark container"><path d="M13.333333333333334,338.57418060302734L26.666666666666668,362.8438081741333L40,354.1122989654541L53.333333333333336,335.18803310394287L66.66666666666666,325.56758880615234L80,326.8710880279541L93.33333333333333,337.12282848358154L106.66666666666667,330.9135751724243L120,299.7272844314575L133.33333333333331,298.4239673614502L146.66666666666666,306.61820125579834L160,322.63487911224365L173.33333333333334,303.9193859100342L186.66666666666666,298.95069313049316L200,312.6348829269409L213.33333333333334,283.54691791534424L226.66666666666666,262.5869474411011L240,264.5024003982544L253.33333333333331,271.9140672683716L266.66666666666663,287.6435031890869L280,266.801025390625L293.3333333333333,264.00374317169184L306.6666666666667,295.56398582458496L320,267.96437072753906L333.33333333333337,228.2395486831665L346.6666666666667,229.26438808441162L360,234.20427799224854L373.3333333333333,251.44110107421875L386.6666666666667,240.77208137512204L400,223.27707958221436L413.33333333333337,227.3547887802124L426.6666666666667,254.23308849334717L440.00000000000006,230.55418491363525L453.3333333333333,223.62380027770996L466.6666666666667,225.07033634185794L480,203.83339881896973L493.33333333333337,208.69866085052493L506.66666666666663,240.19985580444336L520,254.01696395874023L533.3333333333333,246.03616714477542L546.6666666666666,243.16737556457522L560,249.16011142730713L573.3333333333334,235.80220317840576L586.6666666666666,231.058180809021L600,77.63128566741942L613.3333333333334,19.72244071960447L626.6666666666666,252.01837253570557L640,245.8623170852661L653.3333333333334,210.43448448181152L666.6666666666667,215.4635353088379L680,226.0241222381592L693.3333333333334,218.37777805328366L706.6666666666666,219.42641639709475L720,223.57720375061035L733.3333333333333,217.9207010269165L746.6666666666666,210.6345329284668L760,222.73672771453857L773.3333333333334,223.05910110473636L786.6666666666666,226.91089439392087L800,215.4758815765381" stroke="#5f249f" stroke-width="8.3" opacity="0.05"/></g></g><path class="foreground" aria-hidden="true" d="" display="none"/></g></g><g class="mark-group role-scope layer_1_layer_6_pathgroup" role="graphics-object" aria-roledescription="group mark container"><g transform="translate(0,0)"><path class="background" aria-hidden="true" d="M0,0h800v400h-800Z"/><g><g class="mark-line role-mark layer_1_layer_6_marks" role="graphics-symbol" aria-roledescription="line mark container"><path d="M13.333333333333334,349.5229654312134L26.666666666666668,347.9899015426636L40,356.3689594268799L53.333333333333336,330.28671073913574L66.66666666666666,325.5108995437622L80,339.8140993118286L93.33333333333333,329.6502265930176L106.66666666666667,330.5086679458618L120,310.42545223236084L133.33333333333331,327.0943727493286L146.66666666666666,311.30962467193604L160,296.9747085571289L173.33333333333334,297.7179250717163L186.66666666666666,314.36156368255615L200,303.8168363571167L213.33333333333334,264.74365997314453L226.66666666666666,266.8303461074829L240,290.2941036224365L253.33333333333331,287.58912086486816L266.66666666666663,263.57523822784424L280,267.5187511444092L293.3333333333333,288.3177385330201L306.6666666666667,270.2445316314697L320,262.04713726043695L333.33333333333337,255.7031679153442L346.6666666666667,260.64122581481934L360,237.1816005706787L373.3333333333333,223.9109058380127L386.6666666666667,225.80303668975833L400,229.73658084869385L413.33333333333337,246.4004468917847L426.6666666666667,228.32651233673093L440.00000000000006,221.9617748260498L453.3333333333333,242.39919567108154L466.6666666666667,252.6605405807495L480,202.29872131347656L493.33333333333337,199.69435214996335L506.66666666666663,189.75951290130615L520,258.17786026000977L533.3333333333333,255.94435691833496L546.6666666666666,244.60030651092532L560,249.48622894287107L573.3333333333334,229.33844661712646L586.6666666666666,211.4269618988037L600,196.18600845336914L613.3333333333334,47.32435131072998L626.6666666666666,178.23551559448242L640,259.6631746292114L653.3333333333334,213.66844749450684L666.6666666666667,225.05102252960202L680,218.49241924285892L693.3333333333334,232.12947845458984L706.6666666666666,226.3933563232422L720,228.80514430999756L733.3333333333333,226.70869064331055L746.6666666666666,224.68653297424316L760,226.84146022796634L773.3333333333334,226.94047355651855L786.6666666666666,228.70901203155518L800,224.66578388214114" stroke="#228C22" stroke-width="9.350000000000001" opacity="0.05"/></g></g><path class="foreground" aria-hidden="true" d="" display="none"/></g><g transform="translate(0,0)"><path class="background" aria-hidden="true" d="M0,0h800v400h-800Z"/><g><g class="mark-line role-mark layer_1_layer_6_marks" role="graphics-symbol" aria-roledescription="line mark container"><path d="M13.333333333333334,338.57418060302734L26.666666666666668,362.8438081741333L40,354.1122989654541L53.333333333333336,335.18803310394287L66.66666666666666,325.56758880615234L80,326.8710880279541L93.33333333333333,337.12282848358154L106.66666666666667,330.9135751724243L120,299.7272844314575L133.33333333333331,298.4239673614502L146.66666666666666,306.61820125579834L160,322.63487911224365L173.33333333333334,303.9193859100342L186.66666666666666,298.95069313049316L200,312.6348829269409L213.33333333333334,283.54691791534424L226.66666666666666,262.5869474411011L240,264.5024003982544L253.33333333333331,271.9140672683716L266.66666666666663,287.6435031890869L280,266.801025390625L293.3333333333333,264.00374317169184L306.6666666666667,295.56398582458496L320,267.96437072753906L333.33333333333337,228.2395486831665L346.6666666666667,229.26438808441162L360,234.20427799224854L373.3333333333333,251.44110107421875L386.6666666666667,240.77208137512204L400,223.27707958221436L413.33333333333337,227.3547887802124L426.6666666666667,254.23308849334717L440.00000000000006,230.55418491363525L453.3333333333333,223.62380027770996L466.6666666666667,225.07033634185794L480,203.83339881896973L493.33333333333337,208.69866085052493L506.66666666666663,240.19985580444336L520,254.01696395874023L533.3333333333333,246.03616714477542L546.6666666666666,243.16737556457522L560,249.16011142730713L573.3333333333334,235.80220317840576L586.6666666666666,231.058180809021L600,77.63128566741942L613.3333333333334,19.72244071960447L626.6666666666666,252.01837253570557L640,245.8623170852661L653.3333333333334,210.43448448181152L666.6666666666667,215.4635353088379L680,226.0241222381592L693.3333333333334,218.37777805328366L706.6666666666666,219.42641639709475L720,223.57720375061035L733.3333333333333,217.9207010269165L746.6666666666666,210.6345329284668L760,222.73672771453857L773.3333333333334,223.05910110473636L786.6666666666666,226.91089439392087L800,215.4758815765381" stroke="#5f249f" stroke-width="9.350000000000001" opacity="0.05"/></g></g><path class="foreground" aria-hidden="true" d="" display="none"/></g></g><g class="mark-group role-scope layer_1_layer_7_pathgroup" role="graphics-object" aria-roledescription="group mark container"><g transform="translate(0,0)"><path class="background" aria-hidden="true" d="M0,0h800v400h-800Z"/><g><g class="mark-line role-mark layer_1_layer_7_marks" role="graphics-symbol" aria-roledescription="line mark container"><path d="M13.333333333333334,349.5229654312134L26.666666666666668,347.9899015426636L40,356.3689594268799L53.333333333333336,330.28671073913574L66.66666666666666,325.5108995437622L80,339.8140993118286L93.33333333333333,329.6502265930176L106.66666666666667,330.5086679458618L120,310.42545223236084L133.33333333333331,327.0943727493286L146.66666666666666,311.30962467193604L160,296.9747085571289L173.33333333333334,297.7179250717163L186.66666666666666,314.36156368255615L200,303.8168363571167L213.33333333333334,264.74365997314453L226.66666666666666,266.8303461074829L240,290.2941036224365L253.33333333333331,287.58912086486816L266.66666666666663,263.57523822784424L280,267.5187511444092L293.3333333333333,288.3177385330201L306.6666666666667,270.2445316314697L320,262.04713726043695L333.33333333333337,255.7031679153442L346.6666666666667,260.64122581481934L360,237.1816005706787L373.3333333333333,223.9109058380127L386.6666666666667,225.80303668975833L400,229.73658084869385L413.33333333333337,246.4004468917847L426.6666666666667,228.32651233673093L440.00000000000006,221.9617748260498L453.3333333333333,242.39919567108154L466.6666666666667,252.6605405807495L480,202.29872131347656L493.33333333333337,199.69435214996335L506.66666666666663,189.75951290130615L520,258.17786026000977L533.3333333333333,255.94435691833496L546.6666666666666,244.60030651092532L560,249.48622894287107L573.3333333333334,229.33844661712646L586.6666666666666,211.4269618988037L600,196.18600845336914L613.3333333333334,47.32435131072998L626.6666666666666,178.23551559448242L640,259.6631746292114L653.3333333333334,213.66844749450684L666.6666666666667,225.05102252960202L680,218.49241924285892L693.3333333333334,232.12947845458984L706.6666666666666,226.3933563232422L720,228.80514430999756L733.3333333333333,226.70869064331055L746.6666666666666,224.68653297424316L760,226.84146022796634L773.3333333333334,226.94047355651855L786.6666666666666,228.70901203155518L800,224.66578388214114" stroke="#228C22" stroke-width="10.4" opacity="0.05"/></g></g><path class="foreground" aria-hidden="true" d="" display="none"/></g><g transform="translate(0,0)"><path class="background" aria-hidden="true" d="M0,0h800v400h-800Z"/><g><g class="mark-line role-mark layer_1_layer_7_marks" role="graphics-symbol" aria-roledescription="line mark container"><path d="M13.333333333333334,338.57418060302734L26.666666666666668,362.8438081741333L40,354.1122989654541L53.333333333333336,335.18803310394287L66.66666666666666,325.56758880615234L80,326.8710880279541L93.33333333333333,337.12282848358154L106.66666666666667,330.9135751724243L120,299.7272844314575L133.33333333333331,298.4239673614502L146.66666666666666,306.61820125579834L160,322.63487911224365L173.33333333333334,303.9193859100342L186.66666666666666,298.95069313049316L200,312.6348829269409L213.33333333333334,283.54691791534424L226.66666666666666,262.5869474411011L240,264.5024003982544L253.33333333333331,271.9140672683716L266.66666666666663,287.6435031890869L280,266.801025390625L293.3333333333333,264.00374317169184L306.6666666666667,295.56398582458496L320,267.96437072753906L333.33333333333337,228.2395486831665L346.6666666666667,229.26438808441162L360,234.20427799224854L373.3333333333333,251.44110107421875L386.6666666666667,240.77208137512204L400,223.27707958221436L413.33333333333337,227.3547887802124L426.6666666666667,254.23308849334717L440.00000000000006,230.55418491363525L453.3333333333333,223.62380027770996L466.6666666666667,225.07033634185794L480,203.83339881896973L493.33333333333337,208.69866085052493L506.66666666666663,240.19985580444336L520,254.01696395874023L533.3333333333333,246.03616714477542L546.6666666666666,243.16737556457522L560,249.16011142730713L573.3333333333334,235.80220317840576L586.6666666666666,231.058180809021L600,77.63128566741942L613.3333333333334,19.72244071960447L626.6666666666666,252.01837253570557L640,245.8623170852661L653.3333333333334,210.43448448181152L666.6666666666667,215.4635353088379L680,226.0241222381592L693.3333333333334,218.37777805328366L706.6666666666666,219.42641639709475L720,223.57720375061035L733.3333333333333,217.9207010269165L746.6666666666666,210.6345329284668L760,222.73672771453857L773.3333333333334,223.05910110473636L786.6666666666666,226.91089439392087L800,215.4758815765381" stroke="#5f249f" stroke-width="10.4" opacity="0.05"/></g></g><path class="foreground" aria-hidden="true" d="" display="none"/></g></g><g class="mark-group role-scope layer_1_layer_8_pathgroup" role="graphics-object" aria-roledescription="group mark container"><g transform="translate(0,0)"><path class="background" aria-hidden="true" d="M0,0h800v400h-800Z"/><g><g class="mark-line role-mark layer_1_layer_8_marks" role="graphics-symbol" aria-roledescription="line mark container"><path d="M13.333333333333334,349.5229654312134L26.666666666666668,347.9899015426636L40,356.3689594268799L53.333333333333336,330.28671073913574L66.66666666666666,325.5108995437622L80,339.8140993118286L93.33333333333333,329.6502265930176L106.66666666666667,330.5086679458618L120,310.42545223236084L133.33333333333331,327.0943727493286L146.66666666666666,311.30962467193604L160,296.9747085571289L173.33333333333334,297.7179250717163L186.66666666666666,314.36156368255615L200,303.8168363571167L213.33333333333334,264.74365997314453L226.66666666666666,266.8303461074829L240,290.2941036224365L253.33333333333331,287.58912086486816L266.66666666666663,263.57523822784424L280,267.5187511444092L293.3333333333333,288.3177385330201L306.6666666666667,270.2445316314697L320,262.04713726043695L333.33333333333337,255.7031679153442L346.6666666666667,260.64122581481934L360,237.1816005706787L373.3333333333333,223.9109058380127L386.6666666666667,225.80303668975833L400,229.73658084869385L413.33333333333337,246.4004468917847L426.6666666666667,228.32651233673093L440.00000000000006,221.9617748260498L453.3333333333333,242.39919567108154L466.6666666666667,252.6605405807495L480,202.29872131347656L493.33333333333337,199.69435214996335L506.66666666666663,189.75951290130615L520,258.17786026000977L533.3333333333333,255.94435691833496L546.6666666666666,244.60030651092532L560,249.48622894287107L573.3333333333334,229.33844661712646L586.6666666666666,211.4269618988037L600,196.18600845336914L613.3333333333334,47.32435131072998L626.6666666666666,178.23551559448242L640,259.6631746292114L653.3333333333334,213.66844749450684L666.6666666666667,225.05102252960202L680,218.49241924285892L693.3333333333334,232.12947845458984L706.6666666666666,226.3933563232422L720,228.80514430999756L733.3333333333333,226.70869064331055L746.6666666666666,224.68653297424316L760,226.84146022796634L773.3333333333334,226.94047355651855L786.6666666666666,228.70901203155518L800,224.66578388214114" stroke="#228C22" stroke-width="11.450000000000001" opacity="0.05"/></g></g><path class="foreground" aria-hidden="true" d="" display="none"/></g><g transform="translate(0,0)"><path class="background" aria-hidden="true" d="M0,0h800v400h-800Z"/><g><g class="mark-line role-mark layer_1_layer_8_marks" role="graphics-symbol" aria-roledescription="line mark container"><path d="M13.333333333333334,338.57418060302734L26.666666666666668,362.8438081741333L40,354.1122989654541L53.333333333333336,335.18803310394287L66.66666666666666,325.56758880615234L80,326.8710880279541L93.33333333333333,337.12282848358154L106.66666666666667,330.9135751724243L120,299.7272844314575L133.33333333333331,298.4239673614502L146.66666666666666,306.61820125579834L160,322.63487911224365L173.33333333333334,303.9193859100342L186.66666666666666,298.95069313049316L200,312.6348829269409L213.33333333333334,283.54691791534424L226.66666666666666,262.5869474411011L240,264.5024003982544L253.33333333333331,271.9140672683716L266.66666666666663,287.6435031890869L280,266.801025390625L293.3333333333333,264.00374317169184L306.6666666666667,295.56398582458496L320,267.96437072753906L333.33333333333337,228.2395486831665L346.6666666666667,229.26438808441162L360,234.20427799224854L373.3333333333333,251.44110107421875L386.6666666666667,240.77208137512204L400,223.27707958221436L413.33333333333337,227.3547887802124L426.6666666666667,254.23308849334717L440.00000000000006,230.55418491363525L453.3333333333333,223.62380027770996L466.6666666666667,225.07033634185794L480,203.83339881896973L493.33333333333337,208.69866085052493L506.66666666666663,240.19985580444336L520,254.01696395874023L533.3333333333333,246.03616714477542L546.6666666666666,243.16737556457522L560,249.16011142730713L573.3333333333334,235.80220317840576L586.6666666666666,231.058180809021L600,77.63128566741942L613.3333333333334,19.72244071960447L626.6666666666666,252.01837253570557L640,245.8623170852661L653.3333333333334,210.43448448181152L666.6666666666667,215.4635353088379L680,226.0241222381592L693.3333333333334,218.37777805328366L706.6666666666666,219.42641639709475L720,223.57720375061035L733.3333333333333,217.9207010269165L746.6666666666666,210.6345329284668L760,222.73672771453857L773.3333333333334,223.05910110473636L786.6666666666666,226.91089439392087L800,215.4758815765381" stroke="#5f249f" stroke-width="11.450000000000001" opacity="0.05"/></g></g><path class="foreground" aria-hidden="true" d="" display="none"/></g></g><g class="mark-group role-scope layer_1_layer_9_pathgroup" role="graphics-object" aria-roledescription="group mark container"><g transform="translate(0,0)"><path class="background" aria-hidden="true" d="M0,0h800v400h-800Z"/><g><g class="mark-line role-mark layer_1_layer_9_marks" role="graphics-symbol" aria-roledescription="line mark container"><path d="M13.333333333333334,349.5229654312134L26.666666666666668,347.9899015426636L40,356.3689594268799L53.333333333333336,330.28671073913574L66.66666666666666,325.5108995437622L80,339.8140993118286L93.33333333333333,329.6502265930176L106.66666666666667,330.5086679458618L120,310.42545223236084L133.33333333333331,327.0943727493286L146.66666666666666,311.30962467193604L160,296.9747085571289L173.33333333333334,297.7179250717163L186.66666666666666,314.36156368255615L200,303.8168363571167L213.33333333333334,264.74365997314453L226.66666666666666,266.8303461074829L240,290.2941036224365L253.33333333333331,287.58912086486816L266.66666666666663,263.57523822784424L280,267.5187511444092L293.3333333333333,288.3177385330201L306.6666666666667,270.2445316314697L320,262.04713726043695L333.33333333333337,255.7031679153442L346.6666666666667,260.64122581481934L360,237.1816005706787L373.3333333333333,223.9109058380127L386.6666666666667,225.80303668975833L400,229.73658084869385L413.33333333333337,246.4004468917847L426.6666666666667,228.32651233673093L440.00000000000006,221.9617748260498L453.3333333333333,242.39919567108154L466.6666666666667,252.6605405807495L480,202.29872131347656L493.33333333333337,199.69435214996335L506.66666666666663,189.75951290130615L520,258.17786026000977L533.3333333333333,255.94435691833496L546.6666666666666,244.60030651092532L560,249.48622894287107L573.3333333333334,229.33844661712646L586.6666666666666,211.4269618988037L600,196.18600845336914L613.3333333333334,47.32435131072998L626.6666666666666,178.23551559448242L640,259.6631746292114L653.3333333333334,213.66844749450684L666.6666666666667,225.05102252960202L680,218.49241924285892L693.3333333333334,232.12947845458984L706.6666666666666,226.3933563232422L720,228.80514430999756L733.3333333333333,226.70869064331055L746.6666666666666,224.68653297424316L760,226.84146022796634L773.3333333333334,226.94047355651855L786.6666666666666,228.70901203155518L800,224.66578388214114" stroke="#228C22" stroke-width="12.5" opacity="0.05"/></g></g><path class="foreground" aria-hidden="true" d="" display="none"/></g><g transform="translate(0,0)"><path class="background" aria-hidden="true" d="M0,0h800v400h-800Z"/><g><g class="mark-line role-mark layer_1_layer_9_marks" role="graphics-symbol" aria-roledescription="line mark container"><path d="M13.333333333333334,338.57418060302734L26.666666666666668,362.8438081741333L40,354.1122989654541L53.333333333333336,335.18803310394287L66.66666666666666,325.56758880615234L80,326.8710880279541L93.33333333333333,337.12282848358154L106.66666666666667,330.9135751724243L120,299.7272844314575L133.33333333333331,298.4239673614502L146.66666666666666,306.61820125579834L160,322.63487911224365L173.33333333333334,303.9193859100342L186.66666666666666,298.95069313049316L200,312.6348829269409L213.33333333333334,283.54691791534424L226.66666666666666,262.5869474411011L240,264.5024003982544L253.33333333333331,271.9140672683716L266.66666666666663,287.6435031890869L280,266.801025390625L293.3333333333333,264.00374317169184L306.6666666666667,295.56398582458496L320,267.96437072753906L333.33333333333337,228.2395486831665L346.6666666666667,229.26438808441162L360,234.20427799224854L373.3333333333333,251.44110107421875L386.6666666666667,240.77208137512204L400,223.27707958221436L413.33333333333337,227.3547887802124L426.6666666666667,254.23308849334717L440.00000000000006,230.55418491363525L453.3333333333333,223.62380027770996L466.6666666666667,225.07033634185794L480,203.83339881896973L493.33333333333337,208.69866085052493L506.66666666666663,240.19985580444336L520,254.01696395874023L533.3333333333333,246.03616714477542L546.6666666666666,243.16737556457522L560,249.16011142730713L573.3333333333334,235.80220317840576L586.6666666666666,231.058180809021L600,77.63128566741942L613.3333333333334,19.72244071960447L626.6666666666666,252.01837253570557L640,245.8623170852661L653.3333333333334,210.43448448181152L666.6666666666667,215.4635353088379L680,226.0241222381592L693.3333333333334,218.37777805328366L706.6666666666666,219.42641639709475L720,223.57720375061035L733.3333333333333,217.9207010269165L746.6666666666666,210.6345329284668L760,222.73672771453857L773.3333333333334,223.05910110473636L786.6666666666666,226.91089439392087L800,215.4758815765381" stroke="#5f249f" stroke-width="12.5" opacity="0.05"/></g></g><path class="foreground" aria-hidden="true" d="" display="none"/></g></g><g class="mark-group role-legend" role="graphics-symbol" aria-roledescription="legend" aria-label="Symbol legend titled 'PCAs' for fill color and stroke color with 2 values: from scratch, scikit-learn"><g transform="translate(831,0)"><path class="background" aria-hidden="true" d="M0,0h72v45h-72Z" pointer-events="none"/><g><g class="mark-group role-legend-entry"><g transform="translate(0,16)"><path class="background" aria-hidden="true" d="M0,0h0v0h0Z" pointer-events="none"/><g><g class="mark-group role-scope" role="graphics-object" aria-roledescription="group mark container"><g transform="translate(0,0)"><path class="background" aria-hidden="true" d="M0,0h71.009765625v12.5h-71.009765625Z" pointer-events="none" opacity="1"/><g><g class="mark-symbol role-legend-symbol" pointer-events="none"><path transform="translate(6,6)" d="M5,0A5,5,0,1,1,-5,0A5,5,0,1,1,5,0" fill="#228C22" fill-opacity="0.4" stroke="#228C22" stroke-width="1.5" opacity="0.7"/></g><g class="mark-text role-legend-label" pointer-events="none"><text text-anchor="start" transform="translate(16,9)" font-family="sans-serif" font-size="10px" fill="#444444" opacity="1">from scratch</text></g></g><path class="foreground" aria-hidden="true" d="" pointer-events="none" display="none"/></g><g transform="translate(0,16)"><path class="background" aria-hidden="true" d="M0,0h71.009765625v12.5h-71.009765625Z" pointer-events="none" opacity="1"/><g><g class="mark-symbol role-legend-symbol" pointer-events="none"><path transform="translate(6,6)" d="M5,0A5,5,0,1,1,-5,0A5,5,0,1,1,5,0" fill="#5f249f" fill-opacity="0.4" stroke="#5f249f" stroke-width="1.5" opacity="0.7"/></g><g class="mark-text role-legend-label" pointer-events="none"><text text-anchor="start" transform="translate(16,9)" font-family="sans-serif" font-size="10px" fill="#444444" opacity="1">scikit-learn</text></g></g><path class="foreground" aria-hidden="true" d="" pointer-events="none" display="none"/></g></g></g><path class="foreground" aria-hidden="true" d="" pointer-events="none" display="none"/></g></g><g class="mark-text role-legend-title" pointer-events="none"><text text-anchor="start" transform="translate(0,9)" font-family="sans-serif" font-size="11px" font-weight="bold" fill="#444444" opacity="1">PCAs</text></g></g><path class="foreground" aria-hidden="true" d="" pointer-events="none" display="none"/></g></g></g><path class="foreground" aria-hidden="true" d="" display="none"/></g></g></g></svg>